<svg xmlns="http://www.w3.org/2000/svg" xmlns:xlink="http://www.w3.org/1999/xlink" id="Capa_1" x="0px" y="0px" viewBox="0 0 300 200" style="enable-background:new 0 0 300 200;" xml:space="preserve"><style type="text/css">	.st0{fill:none;}	.st1{fill:#878787;}</style><g>	<g>		<path class="st1" d="M190.09,64.92c0,0.44,0,0.67,0,0.9c0,15.53,0,31.07,0.01,46.6c0,0.67-0.03,0.98-0.87,0.81   c-14.05-2.73-27.53-7.2-40.43-13.39c-6.65-3.2-13.05-6.83-18.68-11.68c-1.7-1.47-3.27-3.07-4.52-4.95   c-0.63-0.95-1.16-1.95-1.44-3.07c-0.52-2.05,0.02-3.78,1.66-5.1c1.67-1.35,3.66-1.96,5.74-2.3c5.67-0.93,11.4-0.64,17.11-0.77   c4.91-0.11,9.82-0.14,14.72-0.37c3.61-0.17,7.22-0.49,10.81-0.99c3.01-0.41,5.99-0.88,8.91-1.72   C185.7,68.17,188.22,67.3,190.09,64.92z"></path>		<path class="st1" d="M150.62,56.33c-2.17,0.13-4.35-0.06-6.49-0.22c-6.25-0.48-12.52-0.58-18.78-0.88c-0.23-0.15-0.47-0.15-0.7,0   c-4.44-0.12-8.88-0.2-13.32,0.03c-2.55,0.13-5.09,0.35-7.62,0.72l0.02,0.02c0-12.89,0-25.78-0.02-38.66c0-0.6,0.06-0.89,0.78-0.75   c20.17,3.95,39.15,11,56.74,21.69c3.78,2.3,7.39,4.85,10.52,8.01c1.06,1.07,2.05,2.21,2.72,3.57c1.21,2.47,0.56,4.34-1.94,5.35   c-1.68,0.68-3.44,1.01-5.24,1.16c-5.45,0.44-10.9,0.22-16.34-0.02C150.85,56.2,150.73,56.2,150.62,56.33z"></path>		<path class="st1" d="M103.72,55.98c0,15.25-0.01,30.5-0.01,45.75c0,0.31,0,0.61,0,0.91c-0.14,0.1-0.24,0.07-0.33-0.03   c-5.45-5.79-10.34-11.99-13.73-19.24c-1.98-4.23-3.35-8.61-3.1-13.38c0.3-5.63,3.17-9.42,8.27-11.64   c2.85-1.24,5.84-1.98,8.92-2.35C103.73,55.99,103.72,55.98,103.72,55.98z"></path>		<path class="st1" d="M91,162.51c0.8-1.03,1.44-1.87,2.1-2.7c3.95-5.05,7.9-10.11,11.88-15.14c0.44-0.55,0.46-0.91,0.07-1.5   c-3.97-6.02-7.9-12.07-11.83-18.11c-0.16-0.25-0.41-0.46-0.42-0.88c2.58,0,5.15,0,7.71,0c0.48,0,0.58,0.42,0.77,0.7   c2.75,4.18,5.48,8.37,8.22,12.55c0.15,0.23,0.31,0.45,0.54,0.77c0.57-0.71,1.09-1.37,1.61-2.03c2.96-3.77,5.92-7.53,8.85-11.31   c0.4-0.51,0.8-0.74,1.46-0.7c0.97,0.06,1.94,0.02,3.14,0.02c-0.53,0.69-0.94,1.21-1.34,1.72c-3.79,4.83-7.57,9.66-11.39,14.47   c-0.42,0.53-0.42,0.88-0.06,1.43c4.33,6.59,8.65,13.19,12.95,19.8c0.16,0.24,0.52,0.49,0.35,0.79c-0.16,0.29-0.56,0.12-0.85,0.12   c-2.06,0.01-4.11-0.02-6.17,0.02c-0.66,0.01-1.05-0.19-1.41-0.75c-3.06-4.74-6.17-9.46-9.22-14.21c-0.48-0.74-0.7-0.66-1.19-0.03   c-3.69,4.75-7.43,9.47-11.12,14.22c-0.44,0.57-0.9,0.82-1.61,0.77C93.11,162.46,92.19,162.51,91,162.51z"></path>		<path class="st1" d="M132,142.77c0.02-4.88,1.45-9.82,5.2-13.89c2.64-2.86,5.92-4.54,9.82-5.14c3.98-0.62,7.81-0.34,11.52,1.2   c2.9,1.2,5.28,3.09,7.12,5.65c0.4,0.56,0.58,1.02,0.06,1.61c-0.4,0.45-0.55,1.36-1.05,1.41c-0.49,0.04-0.83-0.78-1.25-1.22   c-1.76-1.82-3.68-3.43-6.02-4.48c-5.21-2.34-10.46-1.09-14.03,3.37c-3.08,3.85-4.18,8.33-3.97,13.18   c0.19,4.36,1.55,8.28,4.49,11.58c3.6,4.05,8.8,5.12,13.72,2.82c2.64-1.23,4.78-3.1,6.66-5.27c0.45-0.52,0.6-0.47,0.92,0.09   c1.05,1.85,1.08,1.84-0.29,3.47c-2.66,3.16-6.07,5.07-10.1,5.77c-5.72,0.99-11.15,0.34-15.84-3.42   c-3.88-3.11-5.85-7.31-6.67-12.14C132.06,146.02,132.03,144.68,132,142.77z"></path>		<path class="st1" d="M60.79,143.3c0-6.08,0.01-12.15-0.02-18.23c0-0.73,0.19-0.92,0.91-0.91c7.64,0.03,15.28,0.03,22.93,0   c0.67,0,0.9,0.14,0.88,0.86c-0.04,1.83,0,1.83-1.83,1.83c-5.06,0-10.13,0.02-15.19-0.02c-0.79-0.01-0.89,0.28-0.88,0.95   c0.03,4.08,0.03,8.16,0,12.25c-0.01,0.72,0.17,0.93,0.91,0.92c4.33-0.04,8.65,0,12.98-0.03c0.7,0,0.95,0.15,0.94,0.91   c-0.04,2.28,0,2.28-2.3,2.28c-3.9,0-7.8,0.02-11.69-0.02c-0.76-0.01-0.83,0.29-0.82,0.91c0.02,4.66,0.03,9.33,0,13.99   c-0.01,0.72,0.18,0.92,0.91,0.92c5.31-0.03,10.62,0,15.93-0.04c0.82-0.01,1.11,0.17,1.07,1.04c-0.08,1.59-0.02,1.59-1.61,1.59   c-7.37,0-14.73-0.01-22.1,0.02c-0.79,0-1.03-0.16-1.02-1C60.81,155.45,60.79,149.38,60.79,143.3z"></path>		<path class="st1" d="M174.41,143.34c0-6.08,0.01-12.16-0.01-18.24c0-0.69,0.14-0.95,0.9-0.94c7.64,0.03,15.29,0.03,22.93,0   c0.78,0,0.9,0.27,0.89,0.95c-0.03,1.74-0.01,1.74-1.74,1.74c-5.07,0-10.13,0.01-15.2-0.01c-0.69,0-0.95,0.13-0.94,0.9   c0.04,4.11,0.03,8.23,0,12.34c-0.01,0.68,0.17,0.88,0.87,0.88c4.36-0.03,8.72,0,13.08-0.03c0.68,0,0.89,0.16,0.88,0.86   c-0.02,2.32,0.01,2.32-2.35,2.32c-3.87,0-7.74,0.02-11.61-0.02c-0.7-0.01-0.87,0.19-0.87,0.88c0.03,4.7,0.03,9.4,0,14.09   c-0.01,0.72,0.23,0.86,0.89,0.85c5.34-0.03,10.68,0,16.03-0.03c0.77,0,0.99,0.2,0.97,0.97c-0.05,1.66-0.01,1.67-1.64,1.67   c-7.34,0-14.68-0.01-22.01,0.02c-0.81,0-1.08-0.17-1.08-1.04C174.43,155.43,174.41,149.39,174.41,143.34z"></path>		<path class="st1" d="M207.85,143.28c0-6.02,0.01-12.03-0.02-18.05c0-0.8,0.13-1.14,1.03-1.08c1.47,0.09,2.95,0.06,4.42,0.01   c0.73-0.03,0.92,0.19,0.92,0.92c-0.02,11.02-0.02,22.04-0.01,33.06c0,1.39-0.15,1.21,1.23,1.21c5.56,0.01,11.11,0.02,16.67-0.02   c0.78,0,0.98,0.21,0.96,0.97c-0.04,2.21-0.01,2.21-2.2,2.21c-7.34,0-14.67-0.01-22.01,0.02c-0.81,0-1.02-0.2-1.02-1.01   C207.87,155.44,207.85,149.36,207.85,143.28z"></path>		<path class="st1" d="M83.41,177.51c1.35,1.87,2.66,3.68,4.02,5.57c-1.42,0.16-2.63,0.34-3.45-1.18c-0.7-1.31-1.74-2.44-2.59-3.68   c-0.26-0.37-0.56-0.59-0.99-0.46c-0.45,0.15-0.24,0.58-0.24,0.88c-0.02,1.23-0.06,2.45,0.01,3.68c0.04,0.72-0.23,0.93-0.89,0.85   c-0.21-0.03-0.43-0.03-0.64,0c-0.57,0.08-0.72-0.16-0.72-0.72c0.02-3.62,0.02-7.23,0-10.85c0-0.55,0.15-0.76,0.72-0.73   c1.22,0.06,2.46,0.01,3.67,0.12c1.86,0.17,3.14,1.13,3.36,2.38C86.03,175.46,85.51,176.44,83.41,177.51z M80.14,174.35   c0,0.64,0,1.29,0,1.93c0,0.3,0.03,0.5,0.42,0.56c1.88,0.29,2.89-0.54,2.89-2.41c0-0.25,0.01-0.49,0.01-0.74   c-0.03-1.19-0.93-1.79-2.46-1.85c-1.49-0.06-0.66,1.02-0.84,1.58C80.07,173.72,80.14,174.04,80.14,174.35z"></path>		<path class="st1" d="M200.26,177.3c0.16,0.99-0.03,2.16-0.63,3.23c-1.17,2.12-3.08,2.89-5.39,2.82c-2.41-0.07-4.21-1.1-5.19-3.4   c-1.23-2.89-0.33-6.32,1.3-7.81c0.98-0.9,2.1-1.47,3.48-1.39c0.79,0.05,1.59-0.13,2.38,0.06c2.41,0.57,4.13,2.84,4.05,5.34   C200.26,176.46,200.26,176.76,200.26,177.3z M198.05,176.94c0.03-1.01-0.1-2.07-0.45-3.09c-0.53-1.54-1.63-2.36-3.14-2.35   c-1.5,0.01-2.61,0.84-3.1,2.4c-0.65,2.07-0.64,4.17,0,6.24c0.47,1.5,1.64,2.4,3,2.4c1.56,0,2.7-0.82,3.23-2.36   C197.95,179.16,198.07,178.09,198.05,176.94z"></path>		<path class="st1" d="M162.13,183.31c-2.35-0.01-3.83-1.05-4.22-2.83c-0.05-0.21-0.33-0.56,0.12-0.68   c0.39-0.11,0.59,0.07,0.74,0.46c0.68,1.72,2.41,2.51,4.08,1.9c1.45-0.52,1.74-2.06,0.52-3.03c-0.67-0.53-1.45-0.92-2.18-1.36   c-0.66-0.4-1.34-0.75-1.97-1.18c-1.15-0.79-1.8-1.85-1.54-3.29c0.27-1.47,1.29-2.24,2.66-2.61c2.09-0.56,4.12,0.42,4.64,2.23   c0.08,0.26,0.32,0.63-0.13,0.77c-0.38,0.12-0.63,0.01-0.8-0.47c-0.61-1.74-2.21-1.8-3.59-1.39c-1.21,0.36-1.38,1.71-0.43,2.56   c0.74,0.66,1.63,1.08,2.49,1.56c0.67,0.37,1.36,0.72,1.98,1.16c1.35,0.97,1.85,2.28,1.46,3.67c-0.36,1.28-1.66,2.33-3.13,2.5   C162.52,183.31,162.22,183.31,162.13,183.31z"></path>		<path class="st1" d="M211.91,183.33c-2.28-0.01-3.77-1.05-4.2-2.82c-0.06-0.24-0.28-0.57,0.12-0.7c0.36-0.11,0.58,0.01,0.74,0.44   c0.61,1.68,2.34,2.49,3.99,1.93c0.64-0.22,1.17-0.57,1.32-1.28c0.16-0.77-0.15-1.41-0.77-1.84c-0.76-0.52-1.57-0.96-2.36-1.43   c-0.58-0.35-1.18-0.66-1.73-1.04c-1.18-0.82-1.83-1.93-1.51-3.39c0.31-1.45,1.37-2.2,2.74-2.54c1.51-0.37,3.29,0.2,4.07,1.29   c0.25,0.35,0.47,0.73,0.5,1.17c0.01,0.21,0.13,0.52-0.25,0.59c-0.3,0.05-0.54-0.02-0.65-0.35c-0.48-1.49-1.61-1.75-2.99-1.68   c-0.82,0.04-1.36,0.43-1.63,1.13c-0.26,0.68,0.07,1.25,0.63,1.68c0.73,0.57,1.54,1,2.35,1.44c0.62,0.34,1.26,0.65,1.84,1.04   c1.5,0.99,1.99,2.28,1.58,3.97c-0.27,1.12-1.69,2.19-3.14,2.36C212.29,183.32,212.01,183.33,211.91,183.33z"></path>		<path class="st1" d="M110.11,177.01c0-1.81,0.02-3.62-0.01-5.42c-0.01-0.56,0.15-0.76,0.72-0.73c1.5,0.07,3-0.09,4.48,0.28   c1.73,0.43,2.61,1.45,2.64,3.06c0.03,1.78-0.75,2.79-2.57,3.3c-0.77,0.22-1.57,0.28-2.37,0.25c-0.53-0.02-0.68,0.17-0.67,0.68   c0.03,1.29-0.03,2.58,0.02,3.86c0.03,0.69-0.18,0.98-0.87,0.86c-0.12-0.02-0.25-0.02-0.37,0c-0.77,0.13-1.07-0.12-1.04-0.98   C110.16,180.45,110.11,178.73,110.11,177.01z M112.35,174.31c0,0.64-0.01,1.28,0,1.93c0,0.23-0.07,0.48,0.28,0.59   c0.76,0.24,2.21-0.08,2.62-0.7c0.67-0.99,0.68-2.09,0.21-3.15c-0.43-0.94-1.29-1.21-2.28-1.21c-0.61-0.01-0.9,0.14-0.84,0.81   C112.39,173.14,112.35,173.73,112.35,174.31z"></path>		<path class="st1" d="M125.27,175.6c0-1.32,0.03-2.64-0.01-3.96c-0.02-0.56,0.13-0.74,0.71-0.73c1.5,0.01,1.5-0.02,1.5,1.52   c0,2.18-0.01,4.36,0,6.53c0.01,2.19,1.09,3.43,2.96,3.43c2.29,0.01,3.66-1.32,3.66-3.54c0-2.39,0-4.79,0-7.18   c0-0.4-0.08-0.79,0.57-0.77c0.62,0.02,0.5,0.4,0.5,0.75c0,2.39-0.01,4.79,0.01,7.18c0.04,3.96-3.62,5.08-6.22,4.45   c-0.45-0.11-0.9-0.22-1.32-0.4c-1.5-0.64-2.31-1.79-2.35-3.42C125.24,178.18,125.27,176.89,125.27,175.6z"></path>		<path class="st1" d="M142.42,177.02c0-1.81,0.02-3.62-0.01-5.43c-0.01-0.56,0.15-0.74,0.72-0.73c2.18,0.03,4.36,0.01,6.53,0.01   c0.32,0,0.72-0.08,0.68,0.47c-0.03,0.49-0.4,0.38-0.68,0.38c-1.44,0.01-2.88,0.03-4.32-0.01c-0.56-0.01-0.76,0.14-0.73,0.72   c0.04,1.01,0.05,2.03,0,3.04c-0.03,0.59,0.14,0.82,0.76,0.79c1.1-0.05,2.21-0.02,3.31-0.01c0.33,0,0.68-0.07,0.7,0.47   c0.02,0.58-0.34,0.55-0.72,0.54c-1.1,0-2.21,0.02-3.31-0.01c-0.54-0.02-0.77,0.11-0.74,0.71c0.05,1.19,0.04,2.39,0,3.59   c-0.02,0.57,0.18,0.74,0.73,0.72c1.44-0.03,2.88-0.01,4.32-0.01c0.34,0,0.7-0.06,0.68,0.48c-0.02,0.5-0.37,0.4-0.66,0.4   c-2.21,0.01-4.42-0.01-6.63,0.01c-0.54,0.01-0.67-0.2-0.66-0.7C142.43,180.64,142.42,178.83,142.42,177.02z"></path>		<path class="st1" d="M94.71,176.94c0-1.75,0.02-3.5-0.01-5.25c-0.01-0.62,0.13-0.86,0.8-0.84c2.15,0.04,4.3,0.01,6.45,0.02   c0.32,0,0.72-0.1,0.69,0.46c-0.02,0.49-0.39,0.39-0.67,0.39c-1.41,0.01-2.83,0.04-4.24-0.01c-0.67-0.02-0.84,0.21-0.81,0.84   c0.05,0.98,0.05,1.97,0,2.95c-0.03,0.63,0.2,0.79,0.79,0.76c1.1-0.04,2.21-0.01,3.31-0.01c0.35,0,0.66-0.03,0.67,0.49   c0,0.51-0.28,0.52-0.65,0.52c-1.14-0.01-2.27,0.03-3.41-0.02c-0.58-0.02-0.74,0.18-0.72,0.74c0.04,1.2,0.04,2.39,0,3.59   c-0.02,0.57,0.16,0.74,0.73,0.73c1.41-0.03,2.82-0.02,4.24-0.01c0.3,0,0.73-0.15,0.74,0.41c0.02,0.57-0.4,0.43-0.71,0.44   c-2.15,0.01-4.3-0.02-6.45,0.02c-0.6,0.01-0.8-0.16-0.78-0.77C94.73,180.57,94.71,178.75,94.71,176.94z"></path>		<path class="st1" d="M178.66,177.56c0,1.6-0.02,3.19,0.01,4.78c0.01,0.57-0.11,0.83-0.76,0.8c-1.81-0.07-1.47,0.18-1.48-1.43   c-0.02-2.98-0.03-5.95,0.01-8.93c0.01-0.76-0.23-0.95-0.93-0.9c-0.82,0.06-1.66,0-2.48,0.02c-0.4,0.01-0.62-0.07-0.61-0.55   c0.01-0.44,0.22-0.5,0.58-0.5c3.01,0.01,6.01,0.01,9.02,0c0.38,0,0.54,0.13,0.54,0.53c0,0.42-0.21,0.51-0.57,0.51   c-0.86-0.01-1.72,0.03-2.58-0.02c-0.63-0.04-0.78,0.21-0.76,0.79C178.68,174.31,178.66,175.94,178.66,177.56z"></path>		<path class="st1" d="M235.95,124.33c1.95-0.33,3.31,1.59,3.28,3.04c-0.04,2.07-1.4,3.24-3.38,3.4c-1.62,0.13-3.34-1.62-3.36-3.25   C232.47,125.63,233.87,124.34,235.95,124.33z M233.42,127.43c-0.01,1.37,1.16,2.63,2.43,2.61c1.38-0.02,2.55-1.23,2.53-2.62   c-0.02-1.41-1.13-2.54-2.49-2.54C234.52,124.87,233.43,126,233.42,127.43z"></path>		<path class="st1" d="M124.65,55.23c0.23-0.15,0.47-0.15,0.7,0C125.12,55.31,124.88,55.31,124.65,55.23z"></path>		<path class="st1" d="M150.62,56.33c0.12-0.14,0.23-0.14,0.34,0C150.85,56.41,150.73,56.41,150.62,56.33z"></path>		<path class="st1" d="M234.63,127.44c0-0.06,0-0.12,0-0.18c0-1.43,0.63-1.88,2.01-1.41c0.5,0.17,0.91,0.64,0.61,1.03   c-0.47,0.61-0.09,1.04,0,1.55c0.04,0.22,0.32,0.55-0.14,0.67c-0.38,0.1-0.56-0.1-0.64-0.46c-0.05-0.2-0.11-0.42-0.23-0.59   c-0.13-0.19-0.36-0.23-0.58-0.2c-0.25,0.04-0.19,0.26-0.23,0.42c-0.07,0.3,0.24,0.85-0.39,0.82c-0.67-0.02-0.33-0.59-0.39-0.92   C234.6,127.94,234.63,127.69,234.63,127.44z M235.83,126.35c-0.27-0.03-0.41,0.11-0.4,0.42c0,0.3,0.01,0.56,0.42,0.51   c0.29-0.04,0.57-0.13,0.57-0.46C236.43,126.47,236.17,126.36,235.83,126.35z"></path>	</g></g></svg>