<svg xmlns="http://www.w3.org/2000/svg" xmlns:xlink="http://www.w3.org/1999/xlink" id="Capa_1" x="0px" y="0px" viewBox="0 0 300 200" style="enable-background:new 0 0 300 200;" xml:space="preserve"><style type="text/css">	.st0{fill:none;}	.st1{fill:#878787;}</style><g>	<path class="st1" d="M72.09,177.94c-0.03-0.08-0.06-0.17-0.1-0.25c0.12-0.41,0.12-0.83,0-1.24c0-0.16,0.01-0.31,0.01-0.47  c0.02-0.45,0.07-0.89,0.07-1.34c0-48.77,0-97.54,0-146.31c0-0.45-0.04-0.89-0.07-1.34c0-1.3,0-2.6,0-3.91  c0.03-0.33,0.06-0.66,0.08-1c0.07-0.03,0.15-0.06,0.22-0.08c0.09,0,0.18,0.01,0.28,0.01c0.74,0.01,1.47,0.03,2.21,0.03  c50.43,0,100.85,0,151.28,0c0.61,0,1.22,0.04,1.84,0.05c0.03,0.16,0.05,0.31,0.08,0.47c0,0.16,0,0.32,0,0.48  c0.01,1.48,0.01,2.96,0.02,4.44c-0.01,0.37-0.02,0.74-0.02,1.1c0,48.51,0,97.02,0,145.52c0,0.37,0.01,0.74,0.02,1.1  c-0.01,0.82-0.01,1.64-0.02,2.45c-0.09,0.11-0.19,0.22-0.28,0.33c-0.37-0.02-0.73-0.06-1.1-0.06  C175.1,177.94,123.6,177.94,72.09,177.94z M150.01,22.32c-24.7,0-49.4,0-74.11,0c-0.82,0-1.64,0.03-2.45-0.01  c-0.74-0.03-1.05,0.34-1.11,1c-0.03,0.41-0.01,0.82-0.01,1.23c0,50.51,0,101.02,0.01,151.52c0,0.33-0.01,0.66,0.02,0.98  c0.03,0.31,0.21,0.62,0.54,0.53c0.99-0.28,1.93,0.13,2.9,0.13c49.89-0.03,99.79-0.03,149.68-0.03c0.33,0,0.66-0.03,0.98,0  c0.89,0.08,1.27-0.27,1.24-1.19c-0.05-1.59-0.01-3.19-0.01-4.78c-0.16-49.31,0.32-98.62-0.21-147.94c-0.01-1.2-0.36-1.48-1.52-1.48  C200.64,22.33,175.33,22.32,150.01,22.32z"></path>	<path class="st1" d="M150.01,22.32c25.32,0,50.63,0.01,75.95-0.02c1.16,0,1.5,0.28,1.52,1.48c0.53,49.31,0.06,98.62,0.21,147.94  c0.01,1.59-0.03,3.19,0.01,4.78c0.03,0.92-0.35,1.27-1.24,1.19c-0.32-0.03-0.65,0-0.98,0c-49.89,0-99.79,0-149.68,0.03  c-0.97,0-1.91-0.41-2.9-0.13c-0.33,0.09-0.51-0.22-0.54-0.53c-0.03-0.32-0.02-0.65-0.02-0.98c0-50.51,0-101.02-0.01-151.52  c0-0.41-0.02-0.82,0.01-1.23c0.06-0.66,0.37-1.04,1.11-1c0.82,0.04,1.64,0.01,2.45,0.01C100.61,22.32,125.31,22.32,150.01,22.32z   M74.19,24.79l0.12-0.01c-0.04,0.82-0.08,1.65-0.11,2.47c-0.27,0.41-0.15,0.88-0.15,1.32c-0.01,48.37-0.01,96.74,0,145.11  c0,0.44-0.11,0.9,0.16,1.32l0.11-0.01c-0.08,0.4-0.18,0.81,0.48,0.72c0.41,0.02,0.82,0.05,1.22,0.05c49.01,0,98.01,0,147.02,0  c0.73,0,1.47,0.03,2.2,0.05c0.09,0.11,0.18,0.1,0.26-0.01l-0.02-0.1c0.18,0.03,0.25-0.09,0.31-0.22c0.25-0.24,0.24-0.49,0.01-0.75  l-0.1,0.02c0.03-0.17,0.06-0.34,0.08-0.51c0.27-0.33,0.27-0.65,0-0.98c0-0.17,0-0.33,0-0.5c0.32-0.4,0.18-0.87,0.18-1.3  c0.01-48.55,0-97.09,0-145.64c0-0.44,0.13-0.91-0.18-1.3c-0.1-0.11-0.2-0.22-0.29-0.33c-0.09-0.11-0.17-0.11-0.26,0  c-0.08,0.04-0.16,0.08-0.24,0.11c-0.33-0.03-0.65-0.07-0.98-0.1c-0.09-0.11-0.17-0.11-0.26,0c-0.53,0.02-1.06,0.05-1.59,0.05  c-48.56,0-97.12,0-145.68,0c-0.57,0-1.14,0.03-1.71,0.05l0.02-0.11c-0.19-0.17-0.36-0.17-0.5,0.07c-0.04,0.1-0.08,0.2-0.12,0.29  c-0.02,0.02-0.06,0.05-0.05,0.07C74.14,24.69,74.17,24.74,74.19,24.79z"></path>	<path class="st1" d="M225.79,172.77c-0.02-0.65-0.06-1.31-0.06-1.96c0-47.86,0-95.71,0-143.57c0-0.74-0.03-1.47-0.04-2.21  c0.03-0.17,0.07-0.34,0.1-0.5c0.31,0.4,0.18,0.87,0.18,1.3c0.01,48.55,0.01,97.09,0,145.64  C225.97,171.91,226.11,172.37,225.79,172.77z"></path>	<path class="st1" d="M74.2,27.25c0.03,0.41,0.08,0.81,0.08,1.22c0,48.35,0,96.71,0,145.06c0,0.49-0.05,0.98-0.07,1.46  c-0.27-0.41-0.16-0.88-0.16-1.32c0-48.37,0-96.74,0-145.11C74.05,28.12,73.93,27.66,74.2,27.25z"></path>	<path class="st1" d="M225.79,174.25c0-0.33,0-0.65,0-0.98C226.06,173.59,226.06,173.92,225.79,174.25z"></path>	<path class="st1" d="M225.79,175.48c0-0.25,0.01-0.5,0.01-0.75C226.03,174.98,226.04,175.23,225.79,175.48z"></path>	<path class="st1" d="M74.8,24.2c-0.17,0.02-0.33,0.05-0.5,0.07C74.44,24.03,74.61,24.03,74.8,24.2z"></path>	<path class="st1" d="M225.24,175.8c0.09,0,0.18,0,0.26-0.01C225.41,175.9,225.33,175.91,225.24,175.8z"></path>	<path class="st1" d="M74.18,24.56c0.05,0.07,0.05,0.15,0.01,0.23c-0.02-0.05-0.05-0.1-0.06-0.16  C74.13,24.61,74.16,24.58,74.18,24.56z"></path>	<path class="st1" d="M225.49,24.2c-0.09,0-0.17,0-0.26,0C225.32,24.09,225.41,24.09,225.49,24.2z"></path>	<path class="st1" d="M224.02,24.21c-0.09,0-0.17,0-0.26,0C223.85,24.1,223.93,24.1,224.02,24.21z"></path>	<path class="st1" d="M138.57,74.1c-0.16,0.04-0.32,0.08-0.48,0.12c-0.18-0.04-0.36-0.06-0.46,0.15c0,0-0.01,0.01-0.01,0.01  c-0.09-0.01-0.17-0.01-0.26-0.02c-0.06-0.05-0.13-0.15-0.18-0.15c-1.75,0.16-3.38,0.95-5.18,0.88c-0.47-0.02-0.69,0.42-0.71,0.85  c-0.02,0.47,0.36,0.54,0.74,0.65c1.52,0.42,3.08,0.14,4.61,0.23c0.61,0.14,1.24,0.25,1.84,0.43c1.67,0.51,3.34,1.05,5,1.57  c0.58,0.47,1.17,0.94,1.75,1.41c0.01,0.49,0.24,0.75,0.74,0.76c0,0-0.01-0.01-0.01-0.01c0.08,0.6,0.36,0.99,1.04,0.93  c0,0-0.02-0.01-0.02-0.01c0.24,0.53,0.22,1.26,1.06,1.31c0.04,0.08,0.08,0.17,0.12,0.25c0.19,0.44,0.05,1.09,0.77,1.19  c0,0-0.01-0.01-0.01-0.01c0.03,0.16,0.02,0.34,0.1,0.47c1.66,2.99,2.14,6.24,2.09,9.59c-0.02,1.33-0.14,2.66-0.22,3.99  c-0.2,0.97-0.39,1.93-0.59,2.9c-1.28,1.51-2.12,3.24-2.64,5.14c0,0,0,0.01,0,0.01c-0.71,0.25-1.14,0.72-1.2,1.49c0,0,0,0,0,0  c-1.13-0.35-1.35,0.25-1.23,1.19c-0.36,0.26-0.72,0.51-1.07,0.77c-0.79,0.57-1.91,0.69-2.33,1.75c0,0,0.01-0.01,0.01-0.01  c-1.28,0-2.25,0.57-2.98,1.6c-2.03,0.87-4.11,1.53-6.28,1.95c-0.61,0.12-1.22,0-1.81,0.15c-0.25,0.08-0.49,0.17-0.74,0.25  c-0.17,0-0.33,0-0.5,0c0,0,0.02-0.08,0.02-0.08c-0.5-0.31-0.99-0.31-1.49,0.01c-0.07,0.02-0.14,0.04-0.21,0.04  c-12.11,0-24.21-0.01-36.32-0.02c-0.49,0-0.97-0.06-1.46-0.1c-1.01-0.08-1.3-0.6-1.3-1.62c0.03-24.13,0.03-48.26-0.01-72.39  c0-1.3,0.6-1.64,1.65-1.72c0.37-0.03,0.74-0.01,1.1-0.01c12.11,0,24.21-0.01,36.32-0.01c0.56,0.01,1.12,0.03,1.68,0.04  c0.06,0.26,0.19,0.44,0.48,0.45c1.17,0.04,2.31,0.42,3.49,0.24c0.25,0.06,0.56-0.11,0.73,0.21c0.09,0.21,0.27,0.29,0.47,0.33  c2.11,0.4,4.03,1.21,5.9,2.3c0.52,0.3,1.12,1.21,2.02,0.71c0,0,0.05,0.04,0.05,0.04c-0.06,0.32,0.16,0.34,0.38,0.35  c0,0-0.01-0.01-0.01-0.01c0.31,0.47,0.59,0.98,1.27,0.95l-0.05,0.03c0,0,0.05-0.04,0.05-0.04c-0.5,1.14,0.23,1.07,0.97,1  c0,0-0.01-0.01-0.01-0.01c-0.06,0.69-0.15,1.41,0.93,1.28c0,0,0,0.02,0,0.02c0.46,0.7,0.25,1.79,1.27,2.16c0,0-0.01-0.01-0.01-0.01  c-0.01,0.22,0.05,0.4,0.27,0.5c0.84,1.24,0.94,2.71,1.16,4.12c0.09,0.59,0.28,1.17,0.31,1.78c0,0.08,0.01,0.17,0.01,0.25  c0,0.82,0.01,1.63,0.01,2.45c-0.01,0.25-0.02,0.49-0.02,0.74c-0.36,2.71-0.89,5.35-2.44,7.69c-0.61,0.92-1.33,1.74-2.03,2.58  c-0.11,0.11-0.22,0.22-0.33,0.33c0,0-0.07-0.01-0.07-0.01s-0.05,0.04-0.05,0.04c-0.4,0.05-0.59,0.34-0.77,0.65c0,0,0,0,0,0  c-0.36,0.26-0.72,0.53-1.08,0.79c-0.05,0.01-0.09,0.04-0.1,0.09c-0.36,0.19-0.71,0.37-1.07,0.56  C140.35,73.09,139.32,73.33,138.57,74.1z M123.63,83.4c-0.2-0.98-0.97-0.68-1.57-0.67c-0.48,0.01-0.96,0.21-1.44,0.2  c-4.93-0.07-9.86,0.2-14.78-0.14c-0.27-0.02-0.34,0.17-0.39,0.37c-0.15,0-0.3,0-0.46,0c-0.06-0.19-0.06-0.46-0.19-0.54  c-0.24-0.15-0.32,0.13-0.41,0.3c-0.21,0.38-0.15,0.8-0.15,1.2c0,5.88,0,11.76,0,17.63c0,0.36-0.1,0.74,0.18,1.06  c0.11,0.1,0.21,0.21,0.32,0.31c0.23,0.22,0.52,0.19,0.81,0.19c5.15,0,10.29,0,15.44,0c0.32,0,0.66,0.05,0.92-0.22  c0.88-0.28,1.78-0.29,2.69-0.28c1.03,0.06,2.06-0.07,2.99-0.43c2.42-0.93,4.3-2.57,5.54-4.87c0.46-0.86,0.84-1.77,0.37-2.78  c-0.01-0.09-0.01-0.17-0.02-0.26c0.72,0.03,0.93-0.46,0.92-1.02c-0.02-0.88,0.33-1.93-0.85-2.41c-0.02-0.17-0.04-0.33-0.06-0.5  c0.67-1.19-0.36-1.92-0.84-2.7c-0.74-1.2-1.52-2.5-2.94-3.04c-0.68-0.26-1.34-0.57-2.03-0.78c-0.99-0.3-1.95-0.91-3.07-0.57  C124.29,83.44,123.96,83.42,123.63,83.4z M127.77,68.66c0,0-0.02,0.01-0.02,0.01c2.23-0.43,3.64-2.09,4.32-3.91  c1.02-2.72,1.05-5.55-0.75-8.24c-1.61-2.41-3.95-3.42-6.54-3.96c-2.84-0.59-5.76-0.2-8.65-0.29c-3.58-0.11-7.17,0.28-10.74-0.21  c-0.38-0.05-0.65,0.05-0.64,0.51c0,0.04,0,0.09-0.02,0.13c-0.14-0.13-0.17-0.05-0.18,0.09c-0.04,0.08-0.08,0.15-0.11,0.23  c-0.37,0.43-0.2,0.94-0.2,1.41c-0.08,5.26,0.15,10.52-0.14,15.77c-0.03,0.5,0.19,0.62,0.59,0.73c0.85,0.23,1.69,0,2.53,0  c4.65,0.01,9.3,0.01,13.95-0.01c0.43,0,1.03,0.27,1.23-0.45c0.6-0.36,1.31-0.3,1.96-0.49C125.81,70.35,126.75,69.4,127.77,68.66z"></path>	<path class="st1" d="M188.4,84.91c2.46,3.3,4.93,6.59,7.34,9.92c0.32,0.44,0.85,0.63,1.06,1.14c-0.03,0.16,0.06,0.24,0.2,0.28  c0.07,0.08,0.14,0.16,0.21,0.24c0.13,0.22,0.36,0.39,0.31,0.68c0,0.31,0.14,0.5,0.46,0.53c0,0,0.02,0.02,0.02,0.02  c0.06,0.07,0.12,0.14,0.18,0.22c0.06,0.05,0.09,0.12,0.1,0.2c-0.04,0.72,0.36,1.08,1.01,1.24l-0.01-0.01  c-0.08,0.59,0.09,0.99,0.77,1c0.15,0.15,0.3,0.3,0.46,0.46c0.04,0.15,0.13,0.22,0.29,0.17l0.05,0.01  c-0.05,0.32,0.16,0.34,0.39,0.34c0,0-0.01-0.01-0.01-0.01c0.52,1.36,1.72,2.01,3.66,1.99c0.24,0.02,0.49,0.03,0.73,0.05  c1.51-0.01,1.96,0.8,1.73,2.18c-0.06,0.33,0.02,0.66,0.45,0.73c0.43,2.02,0.47,4.07,0.53,6.12c0,0.78-0.07,1.56,0,2.33  c0.12,1.2-0.27,1.78-1.55,1.64c-0.38-0.04-0.79,0.15-1.18,0.27c-3.4,0.97-6.67,0.29-9.94-0.71c-1.43-0.43-2.36-1.74-3.84-2.01  c-0.07-0.01-0.13-0.02-0.19-0.05c-0.02-0.49-0.34-0.91-0.65-1.13c-1.34-0.97-2.1-2.43-3.18-3.6c-0.32-0.35-0.49-0.86-1.08-0.87  c0,0-0.03-0.04-0.03-0.04c-0.37-1.09-0.66-2.25-1.96-2.67c0,0,0,0,0,0c0-1.01-0.38-1.75-1.45-1.97c-0.26-0.04-0.25-0.26-0.27-0.45  c0.06-0.72-0.23-1.17-0.99-1.26c0,0,0.01,0.01,0.01,0.01c0.06-0.67,0.09-1.46-0.43-1.84c-1.51-1.12-2.28-2.75-3.29-4.23  c-0.34-0.49-1.04-0.77-1.36-0.48c-0.98,0.91-2.17,1.7-2.42,3.18l-0.07-0.04c0,0,0.06,0.05,0.06,0.05c-0.79-0.02-0.89,0.6-1.06,1.15  c0,0,0.01-0.01,0.01-0.01c-1.19,0.16-1.47,1.3-2.2,1.93c-1.28,1.11-1.23,2.5-1.13,3.78c0.22,3.02,0.03,6.04,0.11,9.06  c0.02,0.63-0.26,0.94-0.98,1.13c-0.89,0.24-1.75,0.31-2.63,0.28c-3.34-0.12-6.68,0.18-10.03-0.17c-1.37-0.14-1.32-0.82-1.32-1.77  c0.01-23.83,0-47.67,0-71.5c0-0.53,0.01-1.06,0-1.59c-0.01-0.48,0.14-0.77,0.68-0.79c1.18-0.06,2.35-0.21,3.53-0.22  c2.53-0.04,5.07-0.01,7.6-0.01c3.17,0,3.19,0,3.16,3.14c-0.12,13.77,0.26,27.54-0.2,41.31c-0.01,0.18,0.06,0.36,0.25,0.31  c0.1-0.03,0.14-0.26,0.21-0.4c0.27,0.09,0.53,0.11,0.69-0.2c0.65-0.21,0.76-0.87,1.12-1.32c0,0,0.03-0.03,0.03-0.03  c0.27-0.2,0.54-0.41,0.81-0.61c0.52-0.01,0.55-0.35,0.51-0.74c0,0-0.01,0.01-0.01,0.01c1.3-0.68,2.31-1.63,2.89-3.01  c0,0,0,0.02,0,0.02c1.14-0.45,1.86-1.29,2.26-2.44c0,0-0.01,0.01-0.01,0.01c0.78-0.23,1.44-0.55,1.31-1.55c0,0,0.08-0.08,0.08-0.08  c0.5,0.1,0.32-0.31,0.39-0.52c0,0,0.03-0.01,0.03-0.01c1.15-0.04,1.52-0.79,1.64-1.78c0,0-0.01,0.01-0.01,0.01  c0.37,0.04,0.61-0.18,0.84-0.42c1.68-1.77,3.46-3.45,4.99-5.33c0.68-0.84,1.85-1.38,1.95-2.66c0,0,0.01,0,0.01,0  c0.17,0.01,0.26-0.08,0.26-0.25c0,0-0.01-0.01-0.01-0.01c0.54,0.17,0.66-0.29,0.94-0.58c1.01-1.03,2.07-2.39,3.47-2.45  c4.6-0.19,9.22-0.07,13.83-0.07c0.23,0,0.53-0.06,0.62,0.24c0.07,0.25-0.1,0.45-0.28,0.63c-1.82,1.88-3.29,4.07-5.21,5.86  c-0.27,0.25-0.29,0.57-0.26,0.9c-0.07,0.07-0.15,0.15-0.22,0.22c-1.05-0.06-1.23,0.76-1.49,1.5c0,0,0.01-0.01,0.01-0.01  c-1.32,1.02-2.65,2.03-3.2,3.71c-0.15,0.15-0.3,0.31-0.46,0.46c-0.75,0.05-1.05,0.49-1.04,1.2c0,0,0,0,0,0  c-0.07,0.1-0.15,0.19-0.22,0.29c0,0,0.01-0.01,0.01-0.01c-0.35-0.02-0.51,0.15-0.51,0.5c-1.68,2.29-3.67,4.31-5.61,6.37  c-1.3,0.36-1.69,1.63-2.46,2.51C188.18,84.54,188.34,84.76,188.4,84.91z"></path>	<path class="st1" d="M105.5,149.96c-0.02-0.17-0.03-0.33-0.05-0.5c0.1-0.57,0.11-1.35-0.35-1.52c-0.59-0.21-0.77,0.61-1.07,1.04  c-1.26,1.01-2.45,2.15-4.21,2.19c-0.14,0.02-0.28,0.05-0.42,0.07c-0.1,0.06-0.2,0.12-0.3,0.18c-0.08-0.03-0.17-0.06-0.25-0.09  c-0.5-0.25-0.99-0.27-1.48,0.02c0,0,0.02,0.1,0.02,0.1c-0.16-0.05-0.32-0.11-0.48-0.16c-0.61-0.48-1.26-0.75-2.01-0.31  c-0.24-0.09-0.47-0.18-0.71-0.28c-0.34-0.87-1.32-0.79-1.92-1.3c-0.75-0.63-1.19-1.64-2.24-1.92c0,0,0-0.01,0-0.01  c0.01-0.36-0.02-0.69-0.49-0.73c0.04-0.5-0.37-0.82-0.5-1.24c0.01-0.53-0.04-1.04-0.14-1.57c-0.39-2.26-0.52-4.49-0.04-6.81  c0.3-1.48,1.15-2.73,1.36-4.2c0,0-0.02,0.03-0.02,0.03c0.56-0.39,1.17-0.73,1.23-1.52c0,0-0.01-0.01-0.01,0  c0.26,0.1,0.48,0.03,0.68-0.14c1.3-1.12,2.87-1.61,4.5-2c2.58-0.61,4.94-0.15,7.07,1.4c0.38,0.27,0.77,0.62,1.19,0.42  c0.43-0.21,0.4-0.76,0.4-1.22c0-2.25-0.03-4.5,0-6.75c0.05-4.14-0.75-3.88,3.98-3.89c0.96,0,1.34,0.38,1.47,1.36  c0.14,1.1,0.2,2.19,0.2,3.29c0,7.4,0,14.8,0,22.2c0,1.14-0.02,2.28-0.23,3.41c-0.07,0.38-0.08,0.8-0.52,0.86  C108.55,150.6,106.93,151.24,105.5,149.96z M94.68,138.43L94.68,138.43c-0.51,1.29-0.37,2.63-0.08,3.91  c0.22,0.96,0.29,2.01,1.04,2.81c1.64,1.77,3.8,2.17,6.46,1.13c0.67-0.26,1.28-0.57,1.16-1.46c0.27-0.42,0.55-0.83,0.82-1.25  c0.65-0.12,0.86-0.66,0.87-1.17c0.01-1.32,0.25-2.61,0.12-3.98c-0.26-2.94-1.63-4.87-4.69-5.12c-1.38-0.11-3.05,0.32-3.5,1.19v0  c-0.6-0.08-1.06,0.25-1.35,0.67C94.86,136.13,94.42,137.2,94.68,138.43z"></path>	<path class="st1" d="M153.58,151.36c-0.16-0.01-0.32-0.02-0.48-0.03c-0.97-0.68-2.16-0.82-3.21-1.31  c-0.04-0.02-0.17,0.14-0.26,0.22c-0.45,0.05-0.61-0.43-0.97-0.53c-0.08-0.08-0.16-0.16-0.24-0.24c0.01-0.08-0.02-0.15-0.09-0.21  c-0.04-0.27-0.2-0.45-0.47-0.42c-0.08,0.01-0.14,0.24-0.22,0.38c-0.33,0.39-0.2,0.86-0.2,1.29c-0.01,2.86-0.03,5.71,0.02,8.57  c0.01,0.88-0.19,1.28-1.15,1.21c-1.14-0.07-2.29-0.07-3.43,0c-0.89,0.05-1.1-0.3-1.1-1.13c0.03-10,0.03-19.99,0.04-29.99  c0.16,0,0.31,0,0.47-0.01c1.03,0.4,2.1,0.2,3.14,0.16c1.12-0.04,1.72,0.2,1.53,1.46c-0.05,0.34-0.12,0.75,0.26,1.01  c0,0,0.1-0.01,0.09-0.01c-0.1,0.33-0.28,0.66,0.1,0.94c0.29,0.42,0.47,0.16,0.6-0.12c1.04-2.15,3.05-2.92,5.14-3.36  c3.1-0.65,5.86,0.26,8.23,2.38c1.95,1.75,2.36,4.16,2.7,6.52c0.3,2.04,0.06,4.14-0.44,6.17c0.21,0.7-0.62,1.07-0.54,1.73  c-1.22,1.16-2.05,2.67-3.38,3.72c0,0,0.02-0.01,0.02-0.01c-0.22-0.01-0.42,0.02-0.5,0.27c0,0,0.02-0.02,0.02-0.02  c-0.23-0.02-0.42,0.01-0.52,0.26c-0.07,0.24-0.27,0.22-0.46,0.22C156.71,150.76,155.15,151.06,153.58,151.36z M156.01,145.51  C156.01,145.51,156.01,145.52,156.01,145.51c0.74,0.1,1.05-0.4,1.36-0.96c1.26-2.23,0.87-4.61,0.72-6.99  c-0.08-1.33-0.49-2.35-1.8-2.85c-0.03-0.24,0-0.52-0.26-0.65c-2.67-1.37-6.18-1.01-7.67,1.94c-1.08,2.13-1.11,4.55-0.57,6.88  c0.15,0.65,0.39,1.46,1.08,1.91c0.5,0.34,1,0.69,1.5,1.03c-0.01,0.79,0.55,0.91,1.14,0.93c1.05,0.03,2.1,0.02,3.14,0  C155.46,146.73,155.95,146.34,156.01,145.51z"></path>	<path class="st1" d="M171,131.1c0.03-0.06,0.08-0.09,0.14-0.09c0.2,0,0.44,0.07,0.6-0.02c1.57-0.86,3.29-1.3,4.99-1.82  c0.46-0.14,1.01,0.12,1.38-0.33c0.03-0.06,0.06-0.12,0.07-0.18c0.14,0.04,0.28,0.08,0.42,0.11c0.73,0.73,1.7,0.35,2.51,0.39  c1.31,0.07,2.3,1.29,3.67,0.84c0,0,0,0.01,0,0.01c0.08,0.93,0.97,0.68,1.46,1.02c0.2,0.12,0.4,0.24,0.6,0.36c0,0,0.02,0,0.02,0  c0.32,0.57,0.82,0.97,1.31,1.38c0,0.07,0.01,0.13,0.03,0.2c0.12,0.7-0.04,1.56,0.99,1.73l0-0.01c0.11,1.56,0.52,3.07,0.55,4.65  c0.03,1.54-0.17,2.98-0.52,4.47c-0.25,1.04-1.15,1.86-0.93,3.01c0,0-0.01,0.03-0.01,0.03c-1.26-0.16-1.42,0.72-1.53,1.64  l-0.01-0.01c-0.09,0.09-0.18,0.18-0.26,0.27c0,0,0.02-0.01,0.02-0.01c-0.39-0.04-0.76-0.07-0.75,0.49l0.01,0.02  c-1.1-0.01-2.09,0.55-3.04,0.92c-1.16,0.45-2.26,0.71-3.47,0.76c-0.96,0.04-1.95-0.23-2.87,0.25c-0.08,0.02-0.15,0.02-0.23-0.02  c-1-0.49-2.02-0.87-3.17-0.74c0,0-0.02-0.01-0.02-0.01c-0.02-0.44-0.34-0.55-0.66-0.77c-1.36-0.93-2.68-1.89-3.55-3.37  c-1.5-2.55-1.48-5.34-1.42-8.14c0.01-0.41,0.48-0.84-0.06-1.22c0.18-1.08,0.62-2.05,1.24-2.95c0.51-0.42,1.24-0.68,1.11-1.56  c0,0,0.04-0.05,0.04-0.05c0.91,0.2,1.03-0.41,1.09-1.08c0,0,0,0,0,0C170.84,131.23,170.92,131.16,171,131.1z M174.9,145.06  c-0.02,0.5,0.23,0.75,0.73,0.75c0.23,0.62,0.81,0.58,1.31,0.68c0.8,0.02,1.61,0.04,2.41,0.06c0.24,0.27,0.49,0.16,0.78,0.08  c3.07-0.79,4.36-4.49,3.79-7.46c-0.02-0.11-0.24-0.17-0.37-0.26c0-1.23-0.32-2.37-1.03-3.39c0.01-0.33-0.13-0.53-0.48-0.54  c-0.08-0.09-0.15-0.19-0.23-0.28c-0.47-1.18-1.34-1.4-2.46-1.02c-0.19-0.03-0.37-0.05-0.56-0.08c-2.48-0.31-3.95,0.49-4.35,2.37  l0,0.01c-0.35,0.02-0.49,0.21-0.47,0.55c0.01,0.06-0.01,0.12-0.04,0.17c-0.27,0.05-0.38,0.21-0.47,0.48  c-0.61,1.78-0.42,3.6-0.16,5.38c0.12,0.86,0.05,2.05,1.37,2.29C174.74,144.91,174.82,144.98,174.9,145.06z"></path>	<path class="st1" d="M128.79,128.78c0.66-0.08,1.08,0.58,1.73,0.55c1.44,0.97,3.29,1.32,4.35,2.88c0.06,0.09,0.31,0.06,0.46,0.09  c0.2,0.31,0.41,0.61,0.61,0.92c0.27,1.29,0.55,2.58,1.27,3.73c0.16,0.23,0.15,0.49,0.12,0.75c-0.38,0.61-0.22,1.29-0.17,1.91  c0.08,1.06-0.34,1.3-1.33,1.29c-3.47-0.05-6.95-0.03-10.43-0.01c-0.43,0-0.91-0.17-1.26,0.26c-0.41,0.04-0.82,0.09-1.22,0.13  c-0.33,0.01-0.66,0.02-0.99,0.03c-0.13-0.12-0.16-0.04-0.17,0.08c-0.01,0.32-0.03,0.64-0.04,0.96c0.26,0.95,0.3,2.01,1.2,2.68  c0.09,0.08,0.18,0.17,0.27,0.25c0.31,0.76,1.09,0.88,1.69,1.25c1.07,0.77,2.13,0.43,3.18-0.02l0.08-0.04l0.09,0  c1.55,0.08,2.39-0.48,2.52-1.68c0,0,0,0.01,0,0.01c0.67-0.39,1.26-1.03,2.16-0.63c0.46,0.2,0.96,0.14,1.44,0.15  c1.72,0.03,2.04,0.38,1.83,2.01c-0.54,1.51-1.42,2.73-2.93,3.41c-0.41-0.03-0.79,0.01-1.18,0.2c-1.35,0.63-2.76,0.95-4.26,1.04  c-2.08,0.13-4.11-0.31-6.16-0.49c-0.91,0.05-1.42-0.76-2.18-1.03c-0.33-0.88-0.69-1.69-1.58-2.21c-0.56-0.33-0.86-0.96-1.12-1.57  c-0.16-0.37-0.21-0.81-0.74-0.86c-0.07-0.17-0.13-0.34-0.2-0.51c0.22-0.75,0.61-1.55-0.5-1.95c0-0.09,0.01-0.17,0.01-0.26  c0.26-1.72,0.44-3.45,0.41-5.2c0-0.07,0.02-0.13,0.05-0.19c0.27-0.19,0.24-0.47,0.22-0.75l-0.01,0c0.93-0.88,1.43-1.99,1.71-3.21  c0,0-0.01,0.02-0.01,0.02c0.08-0.1,0.15-0.2,0.23-0.29c0,0-0.01,0-0.01,0c0.61,0.14,0.83-0.39,1.18-0.69  c0.89-0.73,1.71-1.58,2.95-1.73c0.44-0.05,0.85-0.26,1.09-0.68c0.53-0.32,1.12-0.45,1.72-0.56  C126.17,128.79,127.48,128.78,128.79,128.78z M130.46,135.03c0.06-0.41,0.05-0.76-0.51-0.75c-0.07-0.07-0.14-0.14-0.21-0.22  c-0.02-0.12-0.04-0.23-0.05-0.35c-0.06,0.04-0.12,0.07-0.19,0.11c-0.57-0.11-1.13-0.22-1.7-0.34c-0.08-0.13-0.15-0.36-0.25-0.38  c-2.53-0.51-5.03,0.55-5.9,3.42c-0.31,1.03,0.01,1.39,1.08,1.42c2.44,0.06,4.89-0.27,7.32,0.21c0.35,0.07,0.66-0.04,0.69-0.48  c0.07-0.05,0.13-0.11,0.2-0.16c0.09,0.02,0.17,0.04,0.26,0.06c0.57,0.41,0.53-0.14,0.47-0.37c-0.14-0.45-0.25-0.96-0.74-1.21  l0.01,0.01C130.96,135.59,131.2,135.06,130.46,135.03L130.46,135.03z"></path>	<path class="st1" d="M201.6,134.43c-0.1,0.1-0.21,0.2-0.31,0.3c-0.28,0.1-0.34,0.32-0.34,0.58c0,2.32,0,4.63,0,6.95  c0,0.26,0.07,0.48,0.34,0.58c0.01,0.09,0.03,0.18,0.04,0.26c-0.33,1.62,0.3,2.89,1.64,3.12c0.67,0.11,1.37,0.1,2.05-0.12  c0.38-0.12,0.83-0.23,1.16,0.09c0.84,0.79,0.94,3.37,0.2,4.31c0,0,0,0,0-0.01c-1.76,0.18-3.5,0.58-5.3,0.47  c-2.11-0.13-4.52-1.69-5.06-3.7c-1.05-3.87-0.35-7.83-0.35-11.75c0-1.01-0.28-1.58-1.33-1.74c-2-0.29-2-0.29-2-2.39  c0-0.41,0.02-0.82,0-1.22c-0.03-0.55,0.19-0.78,0.77-0.83c2.42-0.22,2.41-0.24,2.42-2.68c0-0.24-0.01-0.49,0.01-0.73  c0.21-3.64,0.52-3.92,3.97-3.69c0.12,0.01,0.25,0.01,0.37,0.03c0.73,0.12,1.13,0.43,1.09,1.29c-0.08,1.47-0.03,2.94-0.01,4.41  c0,0.38-0.17,0.84,0.31,1.1l0.1,0l0.1-0.02c0,0-0.03,0.07-0.03,0.07c1.71,0.43,3.43,0.32,5.15,0.05c0.16,0,0.32,0,0.48,0.01  c0.15,1.12-0.25,2.28,0.26,3.37c0.05,0.16,0.1,0.33,0.15,0.49c0,0-0.11,0.02-0.11,0.02c-0.67,1.14-1.77,1.04-2.85,0.96  c-0.28-0.02-0.59-0.17-0.83-0.09c-0.66,0.22-1.44-0.36-2.01,0.32C201.63,134.29,201.61,134.36,201.6,134.43z"></path>	<path class="st1" d="M205.6,39.8c0.16,0.04,0.32,0.08,0.48,0.12c0.31,0.47,0.8,0.64,1.33,0.72c0,0,0.02-0.02,0.02-0.02  c0,0.06,0,0.13,0,0.19c0.05-0.04,0.09-0.08,0.14-0.12c0.16,0.12,0.31,0.23,0.47,0.35c0.23,0.77,0.75,1.29,1.44,1.67  c0,0,0.03,0.03,0.03,0.03c0.08,0.15,0.16,0.29,0.24,0.44c0,0,0.01,0.03,0.01,0.03c-0.01,0.61,0.11,1.18,0.48,1.68  c0.23,1.51,0.29,3.01-0.46,4.42c-0.06,0.1-0.12,0.21-0.19,0.31c0,0,0.02-0.01,0.02-0.01c-0.86,0.35-1.16,1.16-1.56,1.88  c0,0-0.02,0.02-0.02,0.02c-0.16,0.02-0.36-0.01-0.48,0.07c-1.29,0.9-2.71,1.27-4.27,1.18c-0.32-0.02-0.56,0.09-0.62,0.44  c-0.19,0.03-0.38,0.06-0.5-0.15c-0.33-0.39-0.67-0.76-1.22-0.32c-1.48-0.29-2.35-1.36-3.17-2.49c-0.08-0.93-0.74-1.63-0.82-2.63  c-0.12-1.48-0.1-2.88,0.27-4.3c0.02-0.24,0.06-0.47,0.29-0.61c0.74-0.42,1.5-0.82,1.66-1.78c0,0-0.01,0.02-0.01,0.02  c0.36-0.08,0.7-0.19,0.83-0.59c0.01-0.06,0.04-0.08,0.09-0.06c1.68-0.27,3.35-0.81,5.09-0.31C205.29,40.01,205.46,39.86,205.6,39.8  z M208.02,43c-0.04-0.18-0.15-0.26-0.33-0.27c-0.07-0.03-0.11-0.07-0.13-0.14c-0.03-0.07-0.08-0.12-0.15-0.16l-0.06-0.06  c-0.17-1-0.98-1.03-1.72-1.16c-0.95-0.23-1.93-0.4-2.88-0.22c-1.03,0.2-2.26,0.08-2.9,1.24c-0.95,0.63-1.2,1.68-1.58,2.64  c-0.83,2.07,0.31,4.92,2.36,5.86c0.41,0.88,1.23,0.72,1.98,0.84c2.95,0.47,5.23-0.91,5.97-3.71c0.67-0.72,0.67-2.55,0.01-3.47  c-0.11-0.29-0.22-0.57-0.33-0.86c0.03-0.25,0.03-0.48-0.28-0.56L208.02,43z"></path>	<path class="st1" d="M170.53,84.11c-0.07,0.14-0.11,0.37-0.21,0.4c-0.19,0.05-0.25-0.13-0.25-0.31c0.45-13.77,0.07-27.54,0.2-41.31  c0.03-3.14,0.01-3.14-3.16-3.14c-2.53,0-5.07-0.02-7.6,0.01c-1.18,0.02-2.35,0.17-3.53,0.22c-0.55,0.03-0.69,0.31-0.68,0.79  c0.01,0.53,0,1.06,0,1.59c0,23.83,0.01,47.67,0,71.5c0,0.96-0.05,1.63,1.32,1.77c3.35,0.34,6.69,0.05,10.03,0.17  c0.89,0.03,1.75-0.04,2.63-0.28c0.72-0.19,0.99-0.5,0.98-1.13c-0.08-3.02,0.11-6.03-0.11-9.06c-0.09-1.28-0.14-2.67,1.13-3.78  c0.73-0.63,1.01-1.77,2.2-1.93c-0.57,1.41-1.92,2.21-2.69,3.46c-0.08,0.14-0.23,0.27-0.23,0.41c0.01,4.11,0.04,8.21,0.06,12.32  c-0.04,0.09-0.07,0.18-0.11,0.26c-5.15,0-10.31-0.01-15.46-0.01c-0.03-0.24-0.07-0.49-0.1-0.73c0.11-0.41,0.11-0.83,0-1.24  c0.01-0.41,0.03-0.82,0.03-1.22c0-24.06,0-48.11,0-72.17c0-0.41,0.05-0.81,0.07-1.22c5.15,0,10.3,0.01,15.45,0.01  c0.04,0.08,0.07,0.16,0.11,0.24c-0.03,0.53-0.08,1.06-0.08,1.58C170.53,55.59,170.53,69.85,170.53,84.11z"></path>	<path class="st1" d="M127.83,39.98c-12.11,0-24.21,0.01-36.32,0.01c-0.37,0-0.74-0.02-1.1,0.01c-1.05,0.08-1.66,0.42-1.65,1.72  c0.04,24.13,0.04,48.26,0.01,72.39c0,1.02,0.29,1.54,1.3,1.62c0.49,0.04,0.97,0.1,1.46,0.1c12.11,0.01,24.21,0.01,36.32,0.02  c-0.62,0.44-1.34,0.23-2,0.23c-12.43,0.02-24.86,0.02-37.3,0.02c-0.04-0.09-0.07-0.18-0.11-0.26c0.03-0.49,0.08-0.97,0.08-1.46  c0-24.21,0-48.42,0-72.63c0-0.41,0.04-0.82,0-1.23c-0.06-0.59,0.29-0.78,0.76-0.9c0.16,0,0.33,0,0.49,0  c0.17,0.01,0.34,0.01,0.51,0.02c5.03,0.01,10.06,0.04,15.08,0.04c6.75,0.01,13.49,0,20.24,0c0.25,0.01,0.5,0.02,0.76,0.02  C126.83,39.85,127.4,39.52,127.83,39.98z"></path>	<path class="st1" d="M201.26,129.05c-0.48-0.26-0.3-0.72-0.31-1.1c-0.02-1.47-0.06-2.94,0.01-4.41c0.04-0.86-0.36-1.17-1.09-1.29  c-0.12-0.02-0.24-0.02-0.37-0.03c-3.45-0.24-3.76,0.05-3.97,3.69c-0.01,0.24,0,0.49-0.01,0.73c-0.01,2.44-0.01,2.46-2.42,2.68  c-0.58,0.05-0.8,0.28-0.77,0.83c0.02,0.41,0,0.82,0,1.22c0,2.09,0,2.09,2,2.39c1.05,0.15,1.33,0.73,1.33,1.74  c-0.01,3.92-0.7,7.88,0.35,11.75c0.54,2.01,2.95,3.57,5.06,3.7c1.81,0.11,3.54-0.29,5.3-0.47c-2.87,1.21-5.8,1.6-8.62,0.01  c-1.19-0.67-1.86-1.98-2.25-3.33c-0.71-2.44-0.41-4.95-0.46-7.43c-0.03-1.43-0.04-2.86,0.01-4.29c0.03-0.77-0.23-0.96-0.97-0.96  c-2.22,0-2.22-0.04-2.21-2.28c0-0.16,0-0.33,0-0.49c0.01-0.78-0.22-1.68,0.11-2.29c0.4-0.74,1.4-0.26,2.14-0.32  c0.73-0.06,0.84-0.52,0.9-1.07c0.18-1.73,0.34-3.46,0.51-5.2c0.04-0.4,0.01-0.84,0.49-1.03c0.11,0.11,0.21,0.07,0.3-0.03  c1.19,0,2.38,0,3.56,0c0.1,0.01,0.2,0.02,0.3,0.03c0.16,0,0.32,0.01,0.49,0.01c0.08,0,0.17-0.01,0.25-0.01  c0.28,0.14,0.38,0.4,0.44,0.68c-0.02,0.03-0.07,0.06-0.06,0.09c0.02,0.07,0.05,0.13,0.08,0.19c0,1.94-0.01,3.87-0.01,5.81  C201.35,128.72,201.3,128.88,201.26,129.05z"></path>	<path class="st1" d="M105.5,149.96c1.43,1.27,3.05,0.63,4.61,0.42c0.44-0.06,0.45-0.48,0.52-0.86c0.22-1.13,0.24-2.26,0.23-3.41  c-0.01-7.4,0-14.8,0-22.2c0-1.1-0.05-2.19-0.2-3.29c-0.13-0.98-0.5-1.36-1.47-1.36c-4.72,0.01-3.93-0.25-3.98,3.89  c-0.03,2.25,0,4.5,0,6.75c0,0.46,0.03,1.01-0.4,1.22c-0.42,0.2-0.81-0.14-1.19-0.42c-2.13-1.55-4.49-2.01-7.07-1.4  c-1.63,0.38-3.2,0.88-4.5,2c-0.2,0.17-0.42,0.24-0.68,0.14c0.87-1.18,2.01-1.95,3.45-2.22c3.19-0.59,6.38-1.03,9.26,1.08  c0.22,0.16,0.49,0.32,0.76,0.06c0.02-0.1,0.03-0.21,0.05-0.31c0-0.16,0-0.31,0-0.47c0-0.09,0.01-0.18,0.01-0.27  c0-3.26,0-6.53,0-9.79c0-0.09,0-0.17,0-0.26c0.1-0.11,0.2-0.22,0.3-0.33c1.96,0.04,3.91,0.07,5.87,0.11c0,0,0,0,0,0  c0,0.08,0.02,0.16,0.07,0.22c0,10.39,0,20.78,0,31.17c-0.03,0.15-0.06,0.3-0.09,0.45c-1.57,0.02-3.14,0.05-4.7,0.05  c-0.37,0-0.85,0.11-0.92-0.49c0-0.17-0.01-0.34-0.01-0.52L105.5,149.96z"></path>	<path class="st1" d="M163.65,144.29c0.5-2.03,0.73-4.13,0.44-6.17c-0.34-2.36-0.76-4.77-2.7-6.52c-2.37-2.12-5.12-3.02-8.23-2.38  c-2.09,0.44-4.1,1.21-5.14,3.36c-0.13,0.28-0.31,0.54-0.6,0.12c0.09-0.22,0.19-0.44,0.28-0.66c0,0,0,0,0,0  c0.06-0.09,0.13-0.18,0.19-0.27c2.68-3.55,6.43-3.42,10.13-2.61c3.66,0.81,5.48,3.59,6.25,7.12c0.56,2.56,0.35,5.09-0.19,7.62  C164.03,144.15,163.83,144.2,163.65,144.29z"></path>	<path class="st1" d="M203.41,67.77c-0.03-0.33,0-0.66,0.26-0.9c1.92-1.79,3.39-3.98,5.21-5.86c0.17-0.18,0.35-0.38,0.28-0.63  c-0.09-0.3-0.39-0.24-0.62-0.24c-4.61,0-9.23-0.12-13.83,0.07c-1.4,0.06-2.46,1.42-3.47,2.45c-0.28,0.28-0.4,0.75-0.94,0.58  c0.94-1.28,1.94-2.5,3.26-3.42c0.09,0,0.19-0.01,0.28-0.01c4.82,0,9.64,0.01,14.45,0.01c0.33,0,0.67,0,1,0  c0.16,0,0.31,0.01,0.47,0.01c0.08,0,0.17,0.01,0.25,0.01c0.23,0.63-0.29,0.93-0.6,1.28C207.42,63.33,205.41,65.55,203.41,67.77z"></path>	<path class="st1" d="M141.82,129.15c-0.01,10-0.01,19.99-0.04,29.99c0,0.83,0.21,1.19,1.1,1.13c1.14-0.07,2.29-0.07,3.43,0  c0.96,0.06,1.16-0.34,1.15-1.21c-0.05-2.86-0.02-5.71-0.02-8.57c0-0.44-0.13-0.9,0.2-1.29c0.04,0.17,0.08,0.34,0.12,0.51  c0,3.43,0,6.85,0.01,10.28c0,0.09,0,0.19,0,0.28c-1.19,0.61-2.47,0.22-3.7,0.25c-2.53,0.07-2.54,0.02-2.54-2.55  c0-9.06,0-18.12,0-27.18c0-0.41-0.03-0.81-0.04-1.22c0.04-0.08,0.04-0.16,0.02-0.24C141.57,129.21,141.66,129.11,141.82,129.15z"></path>	<path class="st1" d="M191.81,113.9c1.48,0.28,2.41,1.58,3.84,2.01c3.27,0.99,6.54,1.68,9.94,0.71c0.39-0.11,0.8-0.31,1.18-0.27  c1.29,0.14,1.67-0.44,1.55-1.64c-0.08-0.77-0.01-1.55,0-2.33c0.5,1.11,0.37,2.3,0.47,3.46c0.05,0.64-0.53,0.63-0.94,0.75  c-3.39,1.02-6.82,0.99-10.26,0.33C195.37,116.49,193.36,115.63,191.81,113.9z"></path>	<path class="st1" d="M167.27,136.93c0.54,0.38,0.06,0.82,0.06,1.22c-0.06,2.81-0.08,5.59,1.42,8.14c0.87,1.48,2.19,2.45,3.55,3.37  c0.32,0.22,0.64,0.33,0.66,0.77c-3.01-0.82-4.49-3.09-5.43-5.83c-0.27-0.8-0.36-1.66-0.53-2.5c0.06-0.21,0.05-0.41-0.11-0.58  c0-0.85,0-1.71,0-2.56c0.15-0.16,0.17-0.36,0.13-0.57C166.7,137.84,167.02,137.39,167.27,136.93z"></path>	<path class="st1" d="M174.54,98.5c0.25-1.48,1.44-2.27,2.42-3.18c0.32-0.29,1.02-0.02,1.36,0.48c1,1.48,1.78,3.11,3.29,4.23  c0.52,0.39,0.48,1.18,0.43,1.84c-1.36-1.82-2.74-3.61-4.05-5.46c-0.53-0.75-0.91-0.75-1.48-0.06  C175.89,97.1,175.34,97.92,174.54,98.5z"></path>	<path class="st1" d="M206.39,150.49c0.74-0.94,0.63-3.51-0.2-4.31c-0.33-0.31-0.78-0.21-1.16-0.09c-0.68,0.23-1.38,0.24-2.05,0.12  c-1.34-0.23-1.97-1.5-1.64-3.12c0.47,2.55,1.86,3.31,4.28,2.21c0.74-0.34,0.87-0.08,1.04,0.52c0.24,0.81,0.43,1.63,0.8,2.41  C208.12,149.67,207.98,149.89,206.39,150.49z"></path>	<path class="st1" d="M190.04,63.47c-0.11,1.27-1.27,1.82-1.95,2.66c-1.53,1.88-3.31,3.57-4.99,5.33c-0.23,0.24-0.47,0.46-0.84,0.42  C184.82,69.05,187.3,66.14,190.04,63.47z"></path>	<path class="st1" d="M150.89,98.69c0.08-1.33,0.2-2.66,0.22-3.99c0.06-3.36-0.42-6.6-2.09-9.59c-0.07-0.13-0.07-0.31-0.1-0.47  c1.07,0.72,1.17,1.97,1.62,3.02c0.55,1.31,0.63,2.73,0.87,4.12c-0.06,0.44-0.12,0.89,0.13,1.3c0.01,0.21,0.01,0.42,0.02,0.62  c-0.23,0.76-0.34,1.52,0.03,2.27C151.09,96.8,151.65,97.92,150.89,98.69z"></path>	<path class="st1" d="M121.64,150.47c2.05,0.18,4.07,0.62,6.16,0.49c1.5-0.09,2.91-0.41,4.26-1.04c0.39-0.18,0.77-0.22,1.18-0.2  c-1.33,1.12-3.02,1.44-4.62,1.63c-2.21,0.26-4.47,0.26-6.62-0.57C121.85,150.72,121.75,150.57,121.64,150.47z"></path>	<path class="st1" d="M188.29,146.84c-0.22-1.16,0.68-1.98,0.93-3.01c0.36-1.49,0.56-2.93,0.52-4.47c-0.03-1.58-0.45-3.09-0.55-4.65  c0.23,0.5,0.46,1,0.69,1.5c0.26,1.65,0.42,3.32,0.25,4.97C189.92,143.18,189.81,145.25,188.29,146.84z"></path>	<path class="st1" d="M90.2,132.94c-0.21,1.47-1.05,2.72-1.36,4.2c-0.47,2.32-0.35,4.55,0.04,6.81c0.09,0.53,0.14,1.04,0.14,1.57  c-0.72-0.76-0.73-1.73-0.77-2.68c0.05-0.34,0.06-0.67-0.09-0.99c-0.02-0.33-0.04-0.67-0.06-1c0.17-0.47,0.16-0.95,0.01-1.42  c0.03-0.33,0.06-0.66,0.1-0.99c0.01-0.09,0.01-0.18,0.02-0.27C88.46,136.26,88.87,134.43,90.2,132.94z"></path>	<path class="st1" d="M135.91,74.92c-1.16,0.21-2.31,0.41-3.47,0.64c-0.24,0.05-0.68-0.1-0.62,0.35c0.04,0.3,0.35,0.4,0.66,0.4  c1.18-0.02,2.36,0,3.52,0.23c0.23,0.05,0.5,0,0.64,0.27c-1.54-0.08-3.09,0.19-4.61-0.23c-0.38-0.1-0.76-0.18-0.74-0.65  c0.02-0.43,0.24-0.87,0.71-0.85c1.79,0.07,3.43-0.72,5.18-0.88c0.06-0.01,0.12,0.1,0.18,0.15c-0.33,0.16-0.66,0.31-0.99,0.47  C136.22,74.85,136.07,74.88,135.91,74.92z"></path>	<path class="st1" d="M176.38,151.2c0.92-0.48,1.91-0.21,2.87-0.25c1.21-0.05,2.31-0.32,3.47-0.76c0.95-0.37,1.94-0.93,3.04-0.92  c-0.34,0.27-0.69,0.54-1.03,0.8c-0.15,0.07-0.3,0.14-0.44,0.21c-0.1,0.05-0.21,0.1-0.31,0.14c-0.08,0.06-0.17,0.13-0.25,0.19  c-0.23,0.05-0.47,0.11-0.7,0.16c-0.51,0.08-1.03,0.13-1.48,0.41c-0.16,0.02-0.32,0.04-0.48,0.06c-0.58,0.07-1.15,0.14-1.73,0.22  c-0.97-0.02-1.95-0.04-2.92-0.07C176.42,151.32,176.4,151.26,176.38,151.2z"></path>	<path class="st1" d="M142.61,44.26c-0.91,0.5-1.51-0.41-2.02-0.71c-1.86-1.09-3.79-1.89-5.9-2.3c-0.21-0.04-0.38-0.12-0.47-0.33  C137.38,41.12,140.08,42.47,142.61,44.26z"></path>	<path class="st1" d="M186.72,108.24c0.59,0.01,0.75,0.52,1.08,0.87c1.08,1.18,1.84,2.63,3.18,3.6c0.31,0.22,0.63,0.64,0.65,1.13  C189.56,112.36,188,110.42,186.72,108.24z"></path>	<path class="st1" d="M124.13,141.13c0.35-0.42,0.83-0.25,1.26-0.26c3.48-0.01,6.95-0.04,10.43,0.01c0.99,0.01,1.42-0.23,1.33-1.29  c-0.05-0.63-0.21-1.31,0.17-1.91c0.02,1.14,0.03,2.28,0.05,3.41c-3.38,0.02-6.77,0.02-10.15,0.06c-0.72,0.01-1.47-0.17-2.17,0.16  c-0.21,0-0.42,0-0.63,0C124.32,141.26,124.23,141.2,124.13,141.13z"></path>	<path class="st1" d="M201.29,142.84c-0.28-0.1-0.34-0.32-0.34-0.58c0-2.32,0-4.63,0-6.95c0-0.26,0.06-0.48,0.34-0.58  C201.42,137.43,201.43,140.14,201.29,142.84z"></path>	<path class="st1" d="M116.02,144.8c0.53,0.05,0.58,0.49,0.74,0.86c0.26,0.61,0.56,1.24,1.12,1.57c0.88,0.52,1.25,1.34,1.58,2.21  C117.58,148.43,116.51,146.84,116.02,144.8z"></path>	<path class="st1" d="M136.17,146.31c0.21-1.63-0.11-1.98-1.83-2.01c-0.48-0.01-0.98,0.06-1.44-0.15c-0.9-0.39-1.49,0.25-2.16,0.63  c0.08-0.8,0.52-0.99,1.3-1.01c1.27-0.05,2.5,0.25,3.75,0.31c1.25,0.06,1.43,0.55,0.84,1.7  C136.53,145.99,136.33,146.14,136.17,146.31z"></path>	<path class="st1" d="M178.11,128.84c-0.38,0.45-0.92,0.19-1.38,0.33c-1.69,0.53-3.41,0.97-4.99,1.82c-0.16,0.09-0.4,0.02-0.6,0.02  c0-0.08,0.02-0.15,0.04-0.22c0.33-0.08,0.58-0.27,0.74-0.58c0.04,0.03,0.08,0.02,0.11-0.02c0.64-0.27,1.28-0.55,1.93-0.82  c0.73-0.18,1.46-0.36,2.19-0.53c0.24-0.02,0.48-0.04,0.71-0.06C177.28,128.8,177.7,128.82,178.11,128.84z"></path>	<path class="st1" d="M123.14,129.36c-0.24,0.43-0.65,0.63-1.09,0.68c-1.25,0.15-2.06,1-2.95,1.73c-0.36,0.29-0.58,0.82-1.18,0.69  C119.22,130.69,120.87,129.5,123.14,129.36z"></path>	<path class="st1" d="M147.67,106.73c0.51-1.9,1.36-3.63,2.64-5.14C149.8,103.5,148.95,105.23,147.67,106.73z"></path>	<path class="st1" d="M135.32,132.3c-0.16-0.03-0.4,0-0.46-0.09c-1.05-1.56-2.91-1.91-4.35-2.88  C132.66,129.44,134.15,130.61,135.32,132.3z"></path>	<path class="st1" d="M90.01,147.5c1.05,0.28,1.49,1.28,2.24,1.92c0.6,0.51,1.59,0.43,1.92,1.3c-0.4-0.12-0.8-0.23-1.21-0.35  C91.84,149.56,90.54,148.92,90.01,147.5z"></path>	<path class="st1" d="M197.22,43.32c-0.38,1.42-0.4,2.83-0.27,4.3c0.08,1,0.74,1.71,0.82,2.63  C196.28,48.43,196.01,44.94,197.22,43.32z"></path>	<path class="st1" d="M184.79,130c-1.37,0.44-2.37-0.77-3.67-0.84c-0.81-0.04-1.78,0.33-2.51-0.39c0.31-0.04,0.62-0.09,0.93-0.13  c0.4,0.25,0.84,0.18,1.28,0.14c0.16,0,0.32,0,0.49,0c0.11-0.01,0.21-0.02,0.32-0.03c0.2,0.4,0.56,0.36,0.92,0.31  c0.16,0.02,0.32,0.04,0.47,0.06C183.5,129.63,184.26,129.58,184.79,130z"></path>	<path class="st1" d="M159.73,149.74c1.33-1.05,2.16-2.56,3.38-3.72C162.53,147.76,161.45,149.04,159.73,149.74z"></path>	<path class="st1" d="M202.65,53.21c0.06-0.35,0.31-0.46,0.62-0.44c1.56,0.09,2.98-0.28,4.27-1.18c0.12-0.08,0.32-0.05,0.48-0.07  C206.5,52.93,204.68,53.4,202.65,53.21z"></path>	<path class="st1" d="M205.6,39.8c-0.14,0.06-0.31,0.21-0.43,0.17c-1.74-0.5-3.4,0.04-5.09,0.31  C201.85,39.25,203.7,39.24,205.6,39.8z"></path>	<path class="st1" d="M198.51,73.19c0.55-1.69,1.88-2.69,3.2-3.71C200.96,70.98,199.65,72.01,198.51,73.19z"></path>	<path class="st1" d="M205.61,103.36c0.72-0.07,1.41-0.48,2.16-0.21c0,1.04,0.01,2.07,0.01,3.11c-0.43-0.07-0.51-0.39-0.45-0.73  C207.57,104.16,207.12,103.34,205.61,103.36z"></path>	<path class="st1" d="M202.93,102.29c0.54,0.54,1.36,0.57,1.95,1.02c-1.95,0.02-3.15-0.63-3.66-1.99c0.08,0,0.15-0.01,0.23-0.03  c0.03,0.06,0.08,0.1,0.16,0.1c0.3,0.41,0.71,0.68,1.2,0.82C202.82,102.27,202.86,102.3,202.93,102.29z"></path>	<path class="st1" d="M201.67,134.23c0.57-0.68,1.35-0.1,2.01-0.32c0.24-0.08,0.55,0.07,0.83,0.09c1.08,0.08,2.18,0.18,2.85-0.96  c0.04,0.16,0.08,0.32,0.12,0.47c-0.01,0.17-0.01,0.33-0.02,0.5c-0.14,0.25-0.38,0.33-0.63,0.38  C205.12,134.11,203.39,134.39,201.67,134.23z"></path>	<path class="st1" d="M138.84,113.53c0.73-1.03,1.7-1.6,2.98-1.6C141.04,112.85,139.96,113.22,138.84,113.53z"></path>	<path class="st1" d="M149.63,150.23c0.09-0.08,0.22-0.24,0.26-0.22c1.05,0.49,2.24,0.63,3.21,1.31  C151.76,151.56,150.69,150.89,149.63,150.23z"></path>	<path class="st1" d="M117.71,132.73c-0.28,1.23-0.78,2.33-1.71,3.21c0.02-0.23,0.03-0.47,0.05-0.7  C116.45,134.3,116.91,133.4,117.71,132.73z"></path>	<path class="st1" d="M188.4,84.91c-0.06-0.14-0.22-0.36-0.17-0.41c0.78-0.88,1.17-2.14,2.46-2.51  C190.15,83.14,189.09,83.88,188.4,84.91z"></path>	<path class="st1" d="M176.57,78.21c-0.58,1.37-1.59,2.33-2.89,3.01C174.6,80.17,175.43,79.04,176.57,78.21z"></path>	<path class="st1" d="M137.2,136.94c-0.71-1.14-1-2.43-1.27-3.73C136.71,134.34,137.13,135.58,137.2,136.94z"></path>	<path class="st1" d="M147.22,131.78c-0.37-0.26-0.31-0.67-0.26-1.01c0.19-1.25-0.4-1.5-1.53-1.46c-1.04,0.04-2.11,0.24-3.14-0.16  c1.32-0.02,2.65,0,3.97-0.07c0.79-0.04,1.11,0.25,1.07,1.01c-0.14,0.4-0.14,0.81-0.02,1.21  C147.28,131.46,147.25,131.62,147.22,131.78z"></path>	<path class="st1" d="M153.58,151.36c1.57-0.3,3.13-0.6,4.7-0.9C156.85,151.49,155.23,151.49,153.58,151.36z"></path>	<path class="st1" d="M133.49,40.71c-1.18,0.18-2.33-0.2-3.49-0.24c-0.29-0.01-0.43-0.19-0.48-0.45  C130.81,40.41,132.26,39.89,133.49,40.71z"></path>	<path class="st1" d="M184.74,105.54c1.3,0.42,1.58,1.58,1.96,2.67C185.94,107.39,185.26,106.52,184.74,105.54z"></path>	<path class="st1" d="M178.82,75.79c-0.39,1.14-1.12,1.98-2.26,2.44C177.15,77.26,177.91,76.45,178.82,75.79z"></path>	<path class="st1" d="M141.82,111.95c0.42-1.06,1.55-1.18,2.33-1.75C143.74,111.26,142.74,111.55,141.82,111.95z"></path>	<path class="st1" d="M115.74,136.88c0.03,1.75-0.15,3.48-0.41,5.2c-0.03-0.32-0.07-0.65-0.1-0.97c0-0.08-0.01-0.16-0.01-0.24  c0-0.57,0.01-1.15,0.01-1.72c0-0.08,0.01-0.16,0.01-0.24c0.03-0.24,0.05-0.49,0.08-0.73C115.45,137.75,115.6,137.31,115.74,136.88z  "></path>	<path class="st1" d="M199.17,40.92c-0.16,0.96-0.92,1.36-1.66,1.78C197.84,41.89,198.35,41.26,199.17,40.92z"></path>	<path class="st1" d="M183.28,103.57c1.08,0.22,1.45,0.95,1.45,1.97C184.06,105.02,183.73,104.25,183.28,103.57z"></path>	<path class="st1" d="M130.74,144.78c-0.13,1.2-0.97,1.76-2.52,1.68c0.39-0.31,0.99-0.23,1.3-0.69  C129.93,145.45,130.34,145.12,130.74,144.78z"></path>	<path class="st1" d="M206.58,129.15c-1.72,0.27-3.43,0.38-5.15-0.05C203.15,129.11,204.87,129.13,206.58,129.15z"></path>	<path class="st1" d="M172.98,150.44c1.15-0.14,2.17,0.25,3.17,0.74c-0.33,0.01-0.65,0.02-0.98,0.03c-0.15-0.03-0.31-0.07-0.46-0.1  c-0.14-0.17-0.33-0.17-0.52-0.14C173.78,150.8,173.38,150.62,172.98,150.44z"></path>	<path class="st1" d="M115.32,142.34c1.12,0.4,0.73,1.2,0.5,1.95C115.53,143.67,115.09,143.09,115.32,142.34z"></path>	<path class="st1" d="M208.05,51.5c0.4-0.73,0.7-1.54,1.56-1.88C209.34,50.45,208.84,51.1,208.05,51.5z"></path>	<path class="st1" d="M145.23,109.43c-0.11-0.94,0.1-1.54,1.23-1.19C146.14,108.73,145.85,109.24,145.23,109.43z"></path>	<path class="st1" d="M182.26,71.87c-0.12,0.98-0.5,1.74-1.64,1.78C181.17,73.06,181.72,72.46,182.26,71.87z"></path>	<path class="st1" d="M186.75,148.51c0.1-0.92,0.26-1.8,1.53-1.64c-0.04,0.12-0.08,0.25-0.12,0.37  C187.69,147.67,187.22,148.09,186.75,148.51z"></path>	<path class="st1" d="M127.06,146.47c0.33,0.01,0.66,0.03,0.99,0.04c-1.06,0.45-2.12,0.79-3.18,0.02c0.41-0.02,0.82-0.04,1.23-0.06  C126.41,146.46,126.74,146.46,127.06,146.47z"></path>	<path class="st1" d="M180.13,74.25c0.13,1-0.53,1.32-1.31,1.55C179.23,75.27,179.51,74.62,180.13,74.25z"></path>	<path class="st1" d="M147.46,50.05c-1.02-0.37-0.81-1.46-1.27-2.16C146.99,48.39,147.14,49.27,147.46,50.05z"></path>	<path class="st1" d="M201.7,69.49c0.26-0.74,0.43-1.55,1.49-1.5C202.75,68.54,202.47,69.26,201.7,69.49z"></path>	<path class="st1" d="M209.48,42.72c-0.69-0.38-1.21-0.9-1.44-1.67C208.77,41.39,209.15,42.03,209.48,42.72z"></path>	<path class="st1" d="M146.19,47.87c-1.07,0.13-0.99-0.59-0.93-1.28C145.75,46.88,146.1,47.28,146.19,47.87z"></path>	<path class="st1" d="M188.62,133.28c0.19,0.48,0.38,0.96,0.57,1.43c-1.03-0.18-0.87-1.04-0.99-1.73  C188.34,133.08,188.48,133.18,188.62,133.28z"></path>	<path class="st1" d="M197.01,74.85c-0.01-0.71,0.29-1.15,1.04-1.2C197.84,74.16,197.56,74.62,197.01,74.85z"></path>	<path class="st1" d="M207.44,129.32c-0.04,1.07-0.08,2.14-0.13,3.21c-0.5-1.09-0.11-2.25-0.26-3.37  C207.19,129.21,207.32,129.26,207.44,129.32z"></path>	<path class="st1" d="M145.27,46.59c-0.74,0.07-1.47,0.14-0.97-1C144.75,45.79,145.06,46.14,145.27,46.59z"></path>	<path class="st1" d="M146.46,108.23c0.06-0.77,0.5-1.24,1.2-1.49C147.42,107.37,146.97,107.82,146.46,108.23z"></path>	<path class="st1" d="M169.62,132.42c0.13,0.88-0.6,1.13-1.11,1.56C168.62,133.27,169.09,132.83,169.62,132.42z"></path>	<path class="st1" d="M148.05,83.2c-0.84-0.05-0.82-0.78-1.06-1.31C147.57,82.15,147.88,82.62,148.05,83.2z"></path>	<path class="st1" d="M182.02,101.86c0.75,0.09,1.04,0.54,0.99,1.26C182.62,102.75,182.15,102.44,182.02,101.86z"></path>	<path class="st1" d="M173.46,99.66c0.17-0.55,0.27-1.17,1.06-1.15C174.31,99.01,174.03,99.46,173.46,99.66z"></path>	<path class="st1" d="M91.4,131.45c-0.05,0.79-0.67,1.13-1.23,1.52C90.35,132.28,90.82,131.82,91.4,131.45z"></path>	<path class="st1" d="M210.24,44.9c-0.36-0.5-0.49-1.07-0.48-1.68C210.11,43.73,210.4,44.25,210.24,44.9z"></path>	<path class="st1" d="M144.3,45.6c-0.68,0.02-0.96-0.48-1.27-0.95C143.64,44.71,144.01,45.09,144.3,45.6z"></path>	<path class="st1" d="M170.76,131.3c-0.06,0.67-0.18,1.27-1.09,1.08C169.92,131.9,170.29,131.55,170.76,131.3z"></path>	<path class="st1" d="M147.01,81.9c-0.67,0.06-0.96-0.33-1.04-0.93C146.49,81.1,146.78,81.46,147.01,81.9z"></path>	<path class="st1" d="M148.94,84.65c-0.72-0.1-0.58-0.75-0.77-1.19C148.68,83.69,148.85,84.14,148.94,84.65z"></path>	<path class="st1" d="M207.41,40.65c-0.53-0.08-1.01-0.25-1.33-0.72C206.61,40.01,207.07,40.21,207.41,40.65z"></path>	<path class="st1" d="M145.98,80.97c-0.5,0-0.73-0.27-0.74-0.76C145.68,80.29,145.98,80.48,145.98,80.97z"></path>	<path class="st1" d="M200.94,52.74c0.55-0.44,0.89-0.07,1.22,0.32C201.75,52.95,201.34,52.84,200.94,52.74z"></path>	<path class="st1" d="M98.84,151.34c-0.24,0.04-0.49,0.09-0.73,0.13c-0.25-0.04-0.49-0.08-0.74-0.11  C97.85,151.07,98.34,151.09,98.84,151.34z"></path>	<path class="st1" d="M199.99,40.35c-0.13,0.4-0.47,0.51-0.83,0.59C199.31,40.56,199.64,40.44,199.99,40.35z"></path>	<path class="st1" d="M89.52,146.76c0.47,0.03,0.5,0.37,0.49,0.73C89.86,147.24,89.47,147.15,89.52,146.76z"></path>	<path class="st1" d="M173.17,81.95c0.02-0.08,0.02-0.16-0.01-0.23c0.11-0.23,0.27-0.42,0.52-0.51  C173.72,81.6,173.69,81.94,173.17,81.95z"></path>	<path class="st1" d="M186.18,149.19c-0.14,0.02-0.29,0.04-0.43,0.06c-0.01-0.56,0.36-0.54,0.75-0.49c0,0.07-0.02,0.14-0.04,0.21  C186.37,149.04,186.28,149.11,186.18,149.19C186.19,149.19,186.18,149.19,186.18,149.19z"></path>	<path class="st1" d="M180.59,73.66c-0.07,0.22,0.12,0.63-0.39,0.52C180.35,74.02,180.25,73.67,180.59,73.66z"></path>	<path class="st1" d="M196.3,75.62c-0.01-0.34,0.15-0.52,0.51-0.5C196.72,75.37,196.54,75.53,196.3,75.62z"></path>	<path class="st1" d="M197.51,97.16c0.16,0.1,0.32,0.2,0.47,0.3c0,0.08,0,0.15-0.01,0.23C197.65,97.66,197.51,97.47,197.51,97.16z"></path>	<path class="st1" d="M159.24,150c0.08-0.25,0.28-0.28,0.5-0.27C159.72,150.08,159.45,149.99,159.24,150z"></path>	<path class="st1" d="M143.04,44.65c-0.22-0.01-0.44-0.03-0.38-0.35C142.78,44.42,142.91,44.54,143.04,44.65z"></path>	<path class="st1" d="M209.75,43.19c-0.08-0.15-0.16-0.29-0.24-0.44C209.7,42.84,209.76,43,209.75,43.19z"></path>	<path class="st1" d="M99.82,151.17c-0.02,0.05-0.03,0.11-0.03,0.16c-0.13-0.03-0.26-0.06-0.39-0.09  C99.53,151.22,99.67,151.2,99.82,151.17z"></path>	<path class="st1" d="M147.72,50.54c-0.22-0.1-0.27-0.28-0.27-0.5C147.68,50.13,147.7,50.34,147.72,50.54z"></path>	<path class="st1" d="M158.74,150.24c0.09-0.25,0.29-0.28,0.52-0.26C159.19,150.29,158.95,150.22,158.74,150.24z"></path>	<path class="st1" d="M171,131.1c-0.08,0.07-0.16,0.14-0.24,0.21C170.78,131.16,170.85,131.08,171,131.1z"></path>	<path class="st1" d="M186.75,148.5c0,0.08-0.01,0.16-0.01,0.24c-0.08,0.01-0.17,0.02-0.25,0.03  C186.57,148.68,186.66,148.59,186.75,148.5z"></path>	<path class="st1" d="M117.93,132.46c-0.08,0.1-0.15,0.2-0.23,0.29C117.78,132.65,117.85,132.55,117.93,132.46z"></path>	<path class="st1" d="M209.59,49.63c0.06-0.1,0.12-0.21,0.19-0.31C209.71,49.43,209.65,49.53,209.59,49.63z"></path>	<path class="st1" d="M198.19,97.7c0.01,0.07,0,0.15-0.03,0.22c-0.06-0.07-0.12-0.14-0.18-0.22  C198.05,97.69,198.12,97.69,198.19,97.7z"></path>	<path class="st1" d="M207.57,40.7c-0.05,0.04-0.09,0.08-0.14,0.12c0-0.06,0-0.12,0-0.19C207.5,40.61,207.54,40.63,207.57,40.7z"></path>	<path class="st1" d="M196.79,75.13c0.07-0.1,0.15-0.19,0.22-0.29C197.03,75.01,196.94,75.09,196.79,75.13z"></path>	<path class="st1" d="M190.31,63.23c0,0.17-0.08,0.25-0.26,0.25C190.14,63.39,190.23,63.31,190.31,63.23z"></path>	<path class="st1" d="M131.73,64.05c0.05-0.05,0.06-0.1,0.04-0.16c0.47-0.88,0.58-1.81,0.46-2.78c-0.02-0.41-0.03-0.81-0.05-1.22  c0.05-0.27,0.07-0.54-0.14-0.77c-0.57-2.74-3.32-5.35-6.26-5.83c-1.35-0.22-2.68-0.66-4.07-0.56c-0.1-0.13-0.2-0.15-0.31-0.01  c-5.21-0.16-10.41-0.12-15.62,0c-0.09-0.1-0.18-0.14-0.3-0.04c-0.23-0.04-0.47-0.08-0.7-0.12c-0.01-0.45,0.26-0.56,0.64-0.51  c3.57,0.48,7.16,0.1,10.74,0.21c2.89,0.09,5.81-0.3,8.65,0.29c2.59,0.54,4.93,1.55,6.54,3.96c1.79,2.68,1.76,5.52,0.75,8.24  c-0.68,1.82-2.1,3.48-4.32,3.91c0.79-0.77,1.89-1.19,2.5-2.17c0.08-0.08,0.16-0.16,0.24-0.24c0,0,0.01-0.01,0.01-0.01  c0.06-0.08,0.12-0.15,0.18-0.23c0.27-0.28,0.51-0.58,0.58-0.97C131.57,64.79,131.72,64.45,131.73,64.05z"></path>	<path class="st1" d="M104.45,53c0.02,5.43,0.07,10.86,0.02,16.29c-0.01,1.16,0.36,1.4,1.44,1.39c4.41-0.05,8.82-0.05,13.23,0.01  c1.11,0.01,2.17-0.43,3.27-0.23c-0.2,0.71-0.79,0.44-1.23,0.45c-4.65,0.02-9.3,0.02-13.95,0.01c-0.84,0-1.68,0.23-2.53,0  c-0.4-0.11-0.62-0.23-0.59-0.73c0.28-5.25,0.06-10.51,0.14-15.77C104.25,53.94,104.08,53.43,104.45,53z"></path>	<path class="st1" d="M126.33,83.99c-0.24-0.03-0.49-0.05-0.73-0.08c-0.2-0.44-0.79-0.02-0.99-0.45c1.12-0.34,2.08,0.26,3.07,0.57  c0.68,0.21,1.35,0.52,2.03,0.78c1.42,0.54,2.2,1.84,2.94,3.04c0.48,0.78,1.51,1.52,0.84,2.7c-0.94-2.59-2.47-4.67-5.08-5.79  c-0.58-0.25-1.22-0.39-1.83-0.58C126.5,84.11,126.42,84.05,126.33,83.99z"></path>	<path class="st1" d="M124.6,102.82c0.25-0.4,0.79-0.1,1.07-0.44c0.68-0.05,1.29-0.32,1.89-0.6c0.1-0.05,0.2-0.1,0.3-0.16  c0.07,0.02,0.13,0,0.17-0.05c0.68-0.37,1.46-0.58,2.01-1.17c2.01-1.36,3.03-3.33,3.45-5.66c0.47,1,0.09,1.92-0.37,2.78  c-1.24,2.3-3.11,3.94-5.54,4.87C126.67,102.75,125.63,102.88,124.6,102.82z"></path>	<path class="st1" d="M104.55,83.46c-0.02,5.96-0.04,11.93-0.07,17.89c0,0.49-0.04,0.98-0.06,1.47c-0.28-0.32-0.18-0.7-0.18-1.06  c0-5.88,0-11.76,0-17.63c0-0.4-0.06-0.82,0.15-1.2c0.09-0.17,0.17-0.45,0.41-0.3c0.13,0.08,0.13,0.35,0.19,0.54  C104.83,83.24,104.59,83.2,104.55,83.46z"></path>	<path class="st1" d="M105.45,83.17c0.05-0.2,0.11-0.39,0.39-0.37c4.92,0.34,9.85,0.06,14.78,0.14c0.48,0.01,0.96-0.2,1.44-0.2  c0.6-0.01,1.38-0.31,1.57,0.67c-0.25,0.01-0.49,0.03-0.74,0.04c0,0,0.01-0.02,0.01-0.02c-0.69-0.35-1.44-0.19-2.16-0.19  C115.65,83.2,110.55,83.19,105.45,83.17z"></path>	<path class="st1" d="M104.74,103.13c5.72-0.01,11.45-0.02,17.17-0.03c-0.26,0.27-0.6,0.22-0.92,0.22c-5.15,0-10.29,0-15.44,0  C105.26,103.32,104.97,103.36,104.74,103.13z"></path>	<path class="st1" d="M133.49,94.48c0.42-1.14-0.16-2.29,0.07-3.43c1.18,0.48,0.84,1.53,0.85,2.41  C134.41,94.02,134.21,94.51,133.49,94.48z"></path>	<path class="st1" d="M124.36,69.97c1.14-0.44,2.27-0.88,3.41-1.31C126.75,69.4,125.81,70.35,124.36,69.97z"></path>	<path class="st1" d="M129.53,115.8c-0.49,0-0.99,0-1.48,0.01C128.54,115.48,129.03,115.49,129.53,115.8z"></path>	<path class="st1" d="M198.26,98.12c0.43,0.34,0.8,0.72,1.01,1.24C198.62,99.2,198.22,98.84,198.26,98.12z"></path>	<path class="st1" d="M199.26,99.35c0.39,0.23,0.68,0.54,0.77,1C199.35,100.35,199.18,99.94,199.26,99.35z"></path>	<path class="st1" d="M200.83,100.99c0.2,0.03,0.32,0.16,0.39,0.34C200.99,101.33,200.77,101.31,200.83,100.99z"></path>	<path class="st1" d="M200.48,100.81c0.1,0.06,0.2,0.12,0.29,0.17C200.61,101.03,200.53,100.96,200.48,100.81z"></path>	<path class="st1" d="M104.08,143.57c0.6-1.88,0.91-3.8,0.53-5.74c-0.68-3.4-3.53-5.13-7.27-3.51c-0.15,0.06-0.3,0.11-0.46,0.17  c0.45-0.87,2.12-1.3,3.5-1.19c3.06,0.25,4.42,2.19,4.69,5.12c0.12,1.37-0.12,2.65-0.12,3.98  C104.94,142.91,104.73,143.45,104.08,143.57z"></path>	<path class="st1" d="M94.69,138.42c-0.04,1.71-0.09,3.42,0.66,5.04c0.7,1.52,1.71,2.72,3.47,2.88c1.17,0.11,2.39,0.13,3.3-0.89  c0.3-0.33,0.69-0.55,1.14-0.62c0.12,0.89-0.49,1.2-1.16,1.46c-2.66,1.04-4.82,0.64-6.46-1.13c-0.75-0.81-0.82-1.86-1.04-2.81  C94.31,141.06,94.18,139.71,94.69,138.42z"></path>	<path class="st1" d="M96.88,134.49c-1.15,1.08-1.73,2.48-2.2,3.94c-0.26-1.23,0.18-2.3,0.85-3.26  C95.82,134.74,96.28,134.42,96.88,134.49z"></path>	<path class="st1" d="M96.9,151.29c-0.68-0.01-1.37,0.02-2.01-0.31C95.64,150.55,96.28,150.82,96.9,151.29z"></path>	<path class="st1" d="M155.29,134.51c-0.23-0.3-0.54-0.33-0.88-0.3c-1.1-0.89-2.2-0.5-3.31-0.01c-2.13,1.02-2.87,2.89-3.16,5.06  c-0.26,1.94,0.29,3.74,0.93,5.53c-0.69-0.45-0.93-1.25-1.08-1.91c-0.54-2.33-0.51-4.75,0.57-6.88c1.49-2.96,5.01-3.32,7.67-1.94  c0.25,0.13,0.22,0.41,0.26,0.65c0,0-0.08,0.09-0.08,0.09C155.91,134.7,155.67,134.38,155.29,134.51z"></path>	<path class="st1" d="M157.53,137.67c0.04-0.89-0.3-1.62-0.92-2.23c-0.13-0.21-0.26-0.42-0.39-0.63c0,0,0.08-0.09,0.08-0.09  c1.31,0.5,1.71,1.52,1.8,2.85c0.15,2.38,0.54,4.75-0.72,6.99c-0.32,0.56-0.62,1.06-1.37,0.97c0.92-1.16,1.84-2.31,1.74-3.92  c0.05-0.07,0.09-0.15,0.14-0.22c0.15-0.82,0.12-1.64,0.04-2.46C157.94,138.45,157.93,138,157.53,137.67z"></path>	<path class="st1" d="M150.38,145.82c1.93,0.84,3.81,0.77,5.64-0.31c-0.07,0.83-0.56,1.22-1.35,1.24c-1.05,0.02-2.1,0.03-3.14,0  C150.93,146.73,150.37,146.61,150.38,145.82z"></path>	<path class="st1" d="M179.35,146.54c3.26-1.06,4.32-3.48,4.16-6.67c-0.02-0.32,0.02-0.65,0.04-0.97c0.13,0.09,0.35,0.15,0.37,0.26  c0.57,2.97-0.73,6.67-3.79,7.46C179.84,146.7,179.58,146.81,179.35,146.54z"></path>	<path class="st1" d="M173.66,141.65c0.04,0.23,0.08,0.45,0.12,0.68c0.01,0.93,0.62,1.62,0.93,2.43l-0.06,0.06  c-1.31-0.24-1.24-1.43-1.37-2.29c-0.26-1.78-0.45-3.6,0.16-5.38c0.09-0.26,0.2-0.42,0.47-0.48c-0.09,0.65-0.18,1.29-0.27,1.94  c-0.21,0.24-0.22,0.52-0.13,0.81c0,0.4,0,0.79-0.01,1.19C173.45,140.98,173.41,141.33,173.66,141.65z"></path>	<path class="st1" d="M178.79,133.59c-1.81,0.12-3.24,0.96-4.35,2.37C174.84,134.08,176.31,133.28,178.79,133.59z"></path>	<path class="st1" d="M181.81,134.7c-0.79-0.42-1.55-0.9-2.46-1.02C180.47,133.3,181.34,133.51,181.81,134.7z"></path>	<path class="st1" d="M186.15,130.63c0.03,0.14,0.07,0.27,0.1,0.41c-0.49-0.34-1.38-0.1-1.46-1.02  C185.24,130.22,185.7,130.42,186.15,130.63z"></path>	<path class="st1" d="M175.9,145.67c0.31,0.32,0.88,0.32,1.04,0.82c-0.5-0.1-1.07-0.06-1.31-0.68c0.03-0.03,0.06-0.06,0.09-0.09  C175.78,145.72,175.84,145.7,175.9,145.67z"></path>	<path class="st1" d="M175.63,145.81c-0.5,0-0.75-0.24-0.73-0.75l0.07-0.06c0.24,0.16,0.48,0.33,0.71,0.49c0,0,0.02,0.02,0.02,0.02  c0,0.07,0,0.13,0.01,0.2C175.69,145.75,175.66,145.78,175.63,145.81z"></path>	<path class="st1" d="M182.52,135.52c-0.23-0.12-0.42-0.27-0.48-0.54C182.39,134.99,182.53,135.19,182.52,135.52z"></path>	<path class="st1" d="M174.43,135.96c-0.07,0.26-0.23,0.43-0.47,0.55C173.95,136.18,174.08,135.98,174.43,135.96z"></path>	<path class="st1" d="M174.9,145.06c-0.08-0.08-0.16-0.16-0.24-0.24c0,0,0.06-0.06,0.06-0.06c0.08,0.08,0.16,0.16,0.25,0.24  L174.9,145.06z"></path>	<path class="st1" d="M127.8,133.49c-0.41,0.01-0.81,0.03-1.22,0.03c-2.63,0-4.12,1.26-4.61,3.89c0.06,0.18,0.2,0.24,0.37,0.24  c2.72-0.02,5.45,0.13,8.17-0.07c0.08,0.03,0.16,0.07,0.24,0.1c-0.04,0.44-0.35,0.55-0.69,0.48c-2.43-0.48-4.88-0.15-7.32-0.21  c-1.07-0.03-1.4-0.38-1.08-1.42c0.87-2.87,3.37-3.93,5.9-3.42C127.66,133.13,127.72,133.35,127.8,133.49z"></path>	<path class="st1" d="M131.01,136.92c-0.03-0.31-0.05-0.62-0.08-0.93c0.49,0.25,0.6,0.76,0.74,1.21c0.07,0.23,0.11,0.78-0.46,0.37  C131.16,137.35,131.23,137.09,131.01,136.92z"></path>	<path class="st1" d="M130.94,136.01c-0.23-0.3-0.48-0.58-0.49-0.98C131.2,135.06,130.96,135.59,130.94,136.01z"></path>	<path class="st1" d="M130.46,135.03c-0.17-0.25-0.34-0.5-0.51-0.75C130.51,134.26,130.51,134.62,130.46,135.03z"></path>	<path class="st1" d="M115.79,136.7c-0.02-0.28-0.02-0.55,0.22-0.75C116.03,136.22,116.06,136.5,115.79,136.7z"></path>	<path class="st1" d="M129.74,134.06c-0.08-0.08-0.16-0.16-0.24-0.24c0.06-0.04,0.12-0.07,0.19-0.11  C129.7,133.83,129.72,133.94,129.74,134.06z"></path>	<path class="st1" d="M208.58,47.87c0.2-1.15,0.34-2.31,0.01-3.47C209.26,45.32,209.25,47.15,208.58,47.87z"></path>	<path class="st1" d="M207.35,42.38c-0.57-0.39-1.15-0.77-1.72-1.16C206.38,41.35,207.19,41.38,207.35,42.38z"></path>	<path class="st1" d="M208.26,43.54c-0.2-0.13-0.27-0.33-0.28-0.56C208.29,43.06,208.3,43.29,208.26,43.54z"></path>	<path class="st1" d="M208.02,43c-0.11-0.09-0.22-0.18-0.32-0.27C207.87,42.75,207.98,42.83,208.02,43z"></path>	<path class="st1" d="M207.56,42.59c-0.05-0.05-0.1-0.11-0.15-0.16C207.48,42.47,207.53,42.52,207.56,42.59z"></path>	<path class="st1" d="M202.13,49.09c0,0.16,0,0.32,0,0.48c-0.08,0.14-0.16,0.28-0.23,0.41c-0.31,0.01-0.63,0.02-0.94,0.03  c-0.11-0.42-0.11-0.82-0.07-1.26c0.04-0.54,0.45-1.28-0.4-1.65c0,0-0.08,0.03-0.08,0.03c0-0.18,0-0.35,0-0.53  c0,0,0.08,0.03,0.08,0.03c0.44-0.08,0.48-0.36,0.35-0.73c-0.24-0.68-0.02-1.35,0.04-2.03c0.07-0.98,0.52-1.18,1.41-1.21  c1.15-0.03,2.24,0.45,3.39,0.24c1.23,0.84,1.31,2.28,0.15,3.19c-0.31,0.24-0.54,0.36-0.17,0.7c0.63,0.58,0.29,1.54,0.88,2.18  c0.19,0.21,0.21,0.84-0.15,0.98c-0.51,0.2-1.15,0.28-1.61-0.18c-0.25-0.24-0.58-0.62-0.55-0.91c0.13-1.65-0.86-1.67-2.03-1.51  c-0.06-0.02-0.12-0.04-0.18-0.07c0.04,0.1,0.09,0.2,0.13,0.3c0,0.41,0,0.81,0,1.22c-0.03,0.03-0.08,0.06-0.08,0.08  C202.07,48.97,202.1,49.02,202.13,49.09z M204.58,44.29c-0.67-0.85-1.74-0.89-2.4-0.09c0.03,0.75-0.36,1.71,1.03,1.71  C204.39,45.91,204.69,45.31,204.58,44.29z"></path>	<path class="st1" d="M205.67,42.92c-1.15,0.21-2.24-0.27-3.39-0.24c-0.88,0.02-1.33,0.22-1.41,1.21c-0.05,0.68-0.28,1.35-0.04,2.03  c0.13,0.37,0.09,0.64-0.35,0.73c-0.03-1.31-0.06-2.63-0.08-3.94C202.17,42.31,203.94,42.17,205.67,42.92z"></path>	<path class="st1" d="M200.48,47.1c0.85,0.37,0.44,1.11,0.4,1.65c-0.04,0.44-0.04,0.84,0.07,1.26c-0.08,0.1-0.17,0.21-0.25,0.31  c-0.09-0.09-0.18-0.17-0.27-0.26c-0.01-0.08-0.02-0.16-0.02-0.24C200.43,48.91,200.46,48.01,200.48,47.1z"></path>	<path class="st1" d="M202.13,47.61c-0.04-0.1-0.09-0.2-0.13-0.3c0.06,0.02,0.12,0.04,0.18,0.07  C202.19,47.46,202.17,47.54,202.13,47.61z"></path>	<path class="st1" d="M201.89,49.98c0.08-0.14,0.16-0.28,0.23-0.41C202.15,49.76,202.21,49.97,201.89,49.98z"></path>	<path class="st1" d="M202.13,49.09c-0.03-0.06-0.06-0.12-0.07-0.18c0-0.02,0.05-0.05,0.08-0.08  C202.13,48.91,202.13,49,202.13,49.09z"></path>	<path class="st1" d="M204.58,44.29c-0.79-0.2-1.59-0.29-2.4-0.09C202.84,43.4,203.92,43.44,204.58,44.29z"></path></g></svg>