<svg xmlns="http://www.w3.org/2000/svg" xmlns:xlink="http://www.w3.org/1999/xlink" id="Capa_1" x="0px" y="0px" viewBox="0 0 300 200" style="enable-background:new 0 0 300 200;" xml:space="preserve"><style type="text/css">	.st0{fill-rule:evenodd;clip-rule:evenodd;fill:#878787;}	.st1{fill:#878787;}</style><g id="Ilustraci&#xF3;n_5_00000006691213958602457920000002780115417317619105_">	<g>		<g>			<g>				<path class="st0" d="M36.7,95.7h19.8c0,0,2.4-0.7,2.4,3.8c0,4.3-2.4,3.8-2.4,3.8H43.1l-1.9,15.2l7.4-0.1l1-7.6h8.4     c5.4,0,7.3-5,7.3-7.6c0-0.8,0.9-4.8,0.9-7.6c0-6.5-5.2-7.7-6.3-7.7C59.1,88,23,88,23,88L36.7,95.7z"></path>				<path class="st0" d="M36.6,122.1c-2.2,0-2.8-2.2-2.7-2.7c0-0.2,3-23.7,3-23.7L22.9,88L22,95.7h7.6c0,0-3.1,25.7-3.2,26.4     c-0.4,4,3.1,7.7,7.2,7.7c4.4,0,73.7,0,73.7,0s0.5,0,0,0c-1.2,0-5-5-5-7.6C102.3,122.2,38.9,122.1,36.6,122.1"></path>				<polygon class="st0" points="63.5,118.6 60.2,110.6 53,110.8 56.1,118.6     "></polygon>				<polygon class="st0" points="88.5,95.7 89.4,88 83.6,88 81.2,95.7     "></polygon>				<path class="st0" d="M59.7,118.6c0,0,15.9-26.1,16.3-26.9c0.5-0.8,2.4-3.7,6-3.7c0.9,0,3.7,0,3.7,0l-18.5,30.5H59.7z"></path>				<polygon class="st0" points="78.2,118.6 85.7,118.6 87.6,103.3 72.9,103.3 71.3,110.9 79.1,110.9     "></polygon>				<path class="st0" d="M93,88.1l-3.8,30.5h7.4l3-21.7l6.3,7.6c0,0-1.8,13.3-1.9,14c-0.7,5.7,4.4,11.9,10.7,11.9     c9.3,0,11.5-8.4,11.1-11.9c0,0,0.3,0.3-0.2-1.9c0-0.2-4-16.3-4.2-17c-0.1-0.4-0.1-1.1-0.1-1.2c0-1.5,1.5-3.5,3.7-3.5     c1.7,0,4.2,0,4.2,0l0.9-7.7h-5.3c-6.7,0-10.5,6.4-10.5,10.5c0,0.3,0.3,3.2,0.1,1.7c-0.1-0.4,4.3,18.5,4.3,18.8     c0.1,0.4,0.1,0.9,0.1,1c-0.2,1.9-1.4,3.7-3.9,3.7c-1.2,0-3.5-1.3-3.5-3.8c0-0.8,2-16.3,2-16.3c0,0.1,1.7-12.5,1.7-12.5l0.3-2.2     l-7.3,0l-0.9,7.6l-6.5-7.6H93z"></path>				<polygon class="st0" points="128.5,99.5 135,99.5 134.1,107.1 127.5,107.1     "></polygon>				<path class="st0" d="M163.8,112.5l2.7,6l6.8,0l-4-13.9l8.9-16.6h-3.5c-3.4,0-5.4,2.3-5.9,3.2c-0.4,0.8-3.6,6.1-3.6,6.1     s-0.7-3.1-1-4c-0.2-0.6-1.8-5.3-6.9-5.3h-19.6l-0.9,7.5l20.8,0.1c0,0,2.6,10,2.7,10c0,0-3.3,5.4-3.3,5.3     c0,0.1-14.6,0.1-14.6,0.1l0.5-3.9h10.7l1-7.6c0,0-11.2,0-11.9,0c-5.2,0-7,4.6-7,6.2c0,0.2-1.6,12.9-1.6,12.9l25.3,0.1     L163.8,112.5z"></path>				<path class="st0" d="M169.8,95.7h19.8c0,0,2.5-0.7,2.4,3.7c-0.1,4.1-2.8,3.9-2.8,3.9c-0.6,0-9.7,0-9.7,0l-1.9,15.2l7.4-0.1     l1-7.6h5c5.4,0,7.3-4.9,7.3-7.5c0-0.8,1.2-5,1.2-7.8c0-6.3-5.5-7.6-6.6-7.6c-0.7,0-17.3,0-17.3,0L169.8,95.7z"></path>				<path class="st0" d="M200,95.7c0,0,11.4,0,12.4,0c0,0,2.4-0.7,2.4,3.8c0,4.3-2.4,3.8-2.4,3.8H199l-1.9,15.2l7.4-0.1l1-7.6h8.4     c5.4,0,7.3-5,7.3-7.6c0-0.8,1.2-4.9,1.2-7.7c0-6.3-5.5-7.6-6.6-7.6c-0.7,0-14.6,0-14.6,0L200,95.7z"></path>				<path class="st0" d="M245.4,111c0,0.1-14.8,0-14.8,0l0.5-3.9h11.1l1-7.6h-12.3c-6.4,0-7.2,6.7-7.1,6.3c0-0.4-1.6,12.7-1.6,12.7     h22.4L245.4,111z"></path>				<path class="st0" d="M248.2,88H226l-0.9,7.5h22.1C247.2,95.6,248.2,88.1,248.2,88"></path>				<path class="st0" d="M238,111.8c0,0-0.9,6.8-1,7.6c-0.7,5.7,4.4,11.9,10.7,11.9c9.3,0,12.6-8.9,10.7-14.4     c-1.6-5.7-4.4-14.4-4.1-17.7c0.2-1.5,1.5-3.5,3.7-3.5c1.7,0,4.2,0,4.2,0l1-7.7c0,0-1.8,0-5.4,0c-6.7,0-10.5,6.4-10.5,10.5     c0,0.5,0,0.7,0.1,1.9c0.1,1,4.2,16.9,4.3,19.4c0.1,2.3-1.4,3.8-3.9,3.8c-1.2,0-3.5-1.3-3.5-3.8c0-1.7,1.1-8.8,1.1-8.8L238,111.8     z"></path>				<path class="st0" d="M252,119.4c-0.7,5.7,4.4,11.9,10.7,11.9c9.3,0,11.8-8.4,11.2-11.8c0,0-0.1-0.9-0.2-1.6     c-0.1-0.8-4.7-15.4-4.4-18.6c0.2-1.5,1.5-3.5,3.7-3.5c1.7,0,4.2,0,4.2,0L278,88h-5.3c-6.7,0-10.5,6.4-10.5,10.5     c0,0.3,0,1.5,0.1,2.1c0.2,1.4,4.3,17.6,4.3,19.1c0.1,1.9-1.3,3.9-3.9,3.9c-1.2,0-3.8-1.2-3.8-3.8     C258.9,118.1,252.1,118.7,252,119.4"></path>				<path class="st0" d="M122.7,129.8c0.8,0,4.9-4.5,4.9-7.7h7.8h99.6c0,0,0.3,1.6,0.5,2.2c0.2,0.6,1,2.3,1.5,3.2     c0.5,0.8,1.6,2.2,1.9,2.3H122.7z"></path>				<polygon class="st0" points="219.2,118.7 216,110.6 208.7,110.8 211.9,118.7     "></polygon>				<path class="st1" d="M66.8,74.5V73h3.9v3.6c-0.4,0.4-0.9,0.7-1.6,1c-0.7,0.3-1.4,0.4-2.2,0.4c-0.9,0-1.8-0.2-2.4-0.6     c-0.7-0.4-1.2-1-1.6-1.7c-0.4-0.7-0.5-1.5-0.5-2.4c0-0.9,0.2-1.8,0.6-2.5c0.4-0.7,1-1.3,1.7-1.7c0.6-0.3,1.3-0.4,2.1-0.4     c1.1,0,2,0.2,2.6,0.7s1,1.1,1.2,1.9l-1.8,0.3c-0.1-0.4-0.4-0.8-0.7-1c-0.3-0.3-0.8-0.4-1.3-0.4c-0.8,0-1.4,0.2-1.9,0.8     c-0.5,0.5-0.7,1.2-0.7,2.2c0,1.1,0.2,1.9,0.7,2.4c0.5,0.5,1.1,0.8,1.9,0.8c0.4,0,0.8-0.1,1.1-0.2c0.4-0.1,0.7-0.3,1-0.5v-1.1     H66.8z"></path>				<rect x="72.4" y="68.9" class="st1" width="1.7" height="9"></rect>				<path class="st1" d="M75.4,74.5c0-0.6,0.1-1.1,0.4-1.7c0.3-0.5,0.7-0.9,1.2-1.2c0.5-0.3,1.1-0.4,1.7-0.4c1,0,1.8,0.3,2.4,1     c0.6,0.6,0.9,1.4,0.9,2.4c0,1-0.3,1.8-0.9,2.4c-0.6,0.6-1.4,1-2.4,1c-0.6,0-1.2-0.1-1.7-0.4c-0.5-0.3-1-0.7-1.2-1.2     C75.6,75.9,75.4,75.2,75.4,74.5 M77.2,74.6c0,0.6,0.2,1.1,0.5,1.5c0.3,0.3,0.7,0.5,1.1,0.5c0.4,0,0.8-0.2,1.1-0.5     c0.3-0.3,0.5-0.8,0.5-1.5c0-0.6-0.2-1.1-0.5-1.5c-0.3-0.3-0.7-0.5-1.1-0.5c-0.4,0-0.8,0.2-1.1,0.5     C77.4,73.4,77.2,73.9,77.2,74.6"></path>				<path class="st1" d="M83.4,77.8v-9h1.7v3.2c0.5-0.6,1.2-0.9,1.9-0.9c0.8,0,1.4,0.3,2,0.9c0.5,0.6,0.8,1.4,0.8,2.5     c0,1.1-0.3,2-0.8,2.6C88.4,77.7,87.8,78,87,78c-0.4,0-0.7-0.1-1.1-0.3c-0.4-0.2-0.7-0.5-0.9-0.8v1H83.4z M85.1,74.4     c0,0.7,0.1,1.2,0.3,1.5c0.3,0.5,0.7,0.7,1.2,0.7c0.4,0,0.7-0.2,1-0.5c0.3-0.3,0.4-0.8,0.4-1.5c0-0.7-0.1-1.3-0.4-1.6     c-0.3-0.3-0.6-0.5-1-0.5c-0.4,0-0.8,0.2-1,0.5C85.2,73.3,85.1,73.8,85.1,74.4"></path>				<path class="st1" d="M92.4,73.3L90.8,73c0.2-0.6,0.5-1.1,0.9-1.4c0.4-0.3,1.1-0.5,1.9-0.5c0.8,0,1.3,0.1,1.7,0.3     c0.4,0.2,0.6,0.4,0.8,0.7c0.2,0.3,0.2,0.8,0.2,1.5l0,2c0,0.6,0,1,0.1,1.3c0.1,0.3,0.2,0.6,0.3,0.9h-1.7c0-0.1-0.1-0.3-0.2-0.5     c0-0.1,0-0.2-0.1-0.2c-0.3,0.3-0.6,0.5-0.9,0.6S93.2,78,92.8,78c-0.7,0-1.2-0.2-1.6-0.5c-0.4-0.4-0.6-0.8-0.6-1.4     c0-0.4,0.1-0.7,0.3-1c0.2-0.3,0.4-0.5,0.7-0.7c0.3-0.2,0.8-0.3,1.4-0.4c0.8-0.2,1.4-0.3,1.7-0.4v-0.2c0-0.3-0.1-0.6-0.2-0.7     c-0.2-0.1-0.5-0.2-0.9-0.2c-0.3,0-0.5,0.1-0.7,0.2C92.6,72.8,92.5,73,92.4,73.3 M94.7,74.7c-0.2,0.1-0.6,0.2-1,0.3     c-0.5,0.1-0.8,0.2-0.9,0.3c-0.2,0.2-0.3,0.4-0.3,0.6c0,0.2,0.1,0.4,0.3,0.6c0.2,0.2,0.4,0.3,0.7,0.3c0.3,0,0.6-0.1,0.9-0.3     c0.2-0.2,0.3-0.3,0.4-0.6c0-0.1,0.1-0.4,0.1-0.8V74.7z"></path>				<rect x="98.1" y="68.9" class="st1" width="1.7" height="9"></rect>				<path class="st1" d="M108.8,75.7l1.7,0.3c-0.2,0.6-0.6,1.1-1,1.4c-0.5,0.3-1.1,0.5-1.8,0.5c-1.1,0-2-0.4-2.5-1.1     c-0.4-0.6-0.6-1.3-0.6-2.2c0-1.1,0.3-1.9,0.8-2.5c0.6-0.6,1.3-0.9,2.1-0.9c1,0,1.7,0.3,2.3,1c0.6,0.6,0.8,1.6,0.8,2.9h-4.3     c0,0.5,0.1,0.9,0.4,1.2c0.3,0.3,0.6,0.4,1,0.4c0.3,0,0.5-0.1,0.7-0.2C108.5,76.3,108.7,76.1,108.8,75.7 M108.9,74     c0-0.5-0.1-0.9-0.4-1.1c-0.2-0.3-0.5-0.4-0.9-0.4c-0.4,0-0.7,0.1-0.9,0.4c-0.2,0.3-0.4,0.6-0.4,1.1H108.9z"></path>				<rect x="111.8" y="73.7" class="st1" width="3.4" height="1.7"></rect>				<path class="st1" d="M121.9,74.5l1.8,0.6c-0.3,1-0.7,1.7-1.3,2.2c-0.6,0.5-1.4,0.7-2.4,0.7c-1.2,0-2.2-0.4-2.9-1.2     c-0.8-0.8-1.1-1.9-1.1-3.3c0-1.5,0.4-2.6,1.2-3.5c0.8-0.8,1.8-1.2,3-1.2c1.1,0,2,0.3,2.7,1c0.4,0.4,0.7,0.9,0.9,1.6l-1.8,0.4     c-0.1-0.5-0.3-0.8-0.7-1.1c-0.3-0.3-0.7-0.4-1.2-0.4c-0.7,0-1.2,0.2-1.6,0.7c-0.4,0.5-0.6,1.2-0.6,2.3c0,1.1,0.2,1.9,0.6,2.4     c0.4,0.5,0.9,0.7,1.6,0.7c0.5,0,0.9-0.2,1.2-0.5C121.5,75.7,121.7,75.2,121.9,74.5"></path>				<path class="st1" d="M124.8,74.5c0-0.6,0.1-1.1,0.4-1.7c0.3-0.5,0.7-0.9,1.2-1.2c0.5-0.3,1.1-0.4,1.7-0.4c1,0,1.8,0.3,2.4,1     c0.6,0.6,0.9,1.4,0.9,2.4c0,1-0.3,1.8-0.9,2.4c-0.6,0.6-1.4,1-2.4,1c-0.6,0-1.2-0.1-1.7-0.4c-0.5-0.3-0.9-0.7-1.2-1.2     C124.9,75.9,124.8,75.2,124.8,74.5 M126.5,74.6c0,0.6,0.2,1.1,0.5,1.5c0.3,0.3,0.7,0.5,1.1,0.5c0.4,0,0.8-0.2,1.1-0.5     c0.3-0.3,0.5-0.8,0.5-1.5c0-0.6-0.2-1.1-0.5-1.5c-0.3-0.3-0.7-0.5-1.1-0.5c-0.4,0-0.8,0.2-1.1,0.5     C126.7,73.4,126.5,73.9,126.5,74.6"></path>				<path class="st1" d="M132.7,71.3h1.6v0.9c0.6-0.7,1.2-1,2-1c0.4,0,0.8,0.1,1.1,0.3c0.3,0.2,0.6,0.4,0.8,0.8     c0.3-0.3,0.6-0.6,0.9-0.8c0.3-0.2,0.7-0.3,1.1-0.3c0.5,0,0.9,0.1,1.2,0.3c0.3,0.2,0.6,0.5,0.7,0.9c0.1,0.3,0.2,0.7,0.2,1.3v4.1     h-1.7v-3.7c0-0.6-0.1-1.1-0.2-1.2c-0.2-0.2-0.4-0.4-0.7-0.4c-0.2,0-0.5,0.1-0.7,0.2c-0.2,0.1-0.4,0.4-0.5,0.6     c-0.1,0.3-0.1,0.7-0.1,1.3v3.1h-1.7v-3.6c0-0.6,0-1-0.1-1.2c-0.1-0.2-0.2-0.3-0.3-0.4c-0.1-0.1-0.3-0.1-0.5-0.1     c-0.3,0-0.5,0.1-0.7,0.2c-0.2,0.1-0.4,0.3-0.5,0.6c-0.1,0.3-0.1,0.7-0.1,1.3v3.2h-1.7V71.3z"></path>				<path class="st1" d="M143.8,71.3h1.6v0.9c0.6-0.7,1.2-1,2-1c0.4,0,0.8,0.1,1.1,0.3c0.3,0.2,0.6,0.4,0.8,0.8     c0.3-0.3,0.6-0.6,0.9-0.8c0.3-0.2,0.7-0.3,1.1-0.3c0.5,0,0.9,0.1,1.2,0.3c0.3,0.2,0.6,0.5,0.7,0.9c0.1,0.3,0.2,0.7,0.2,1.3v4.1     h-1.7v-3.7c0-0.6-0.1-1.1-0.2-1.2c-0.2-0.2-0.4-0.4-0.7-0.4c-0.2,0-0.5,0.1-0.7,0.2c-0.2,0.1-0.4,0.4-0.5,0.6     c-0.1,0.3-0.1,0.7-0.1,1.3v3.1h-1.7v-3.6c0-0.6,0-1-0.1-1.2c-0.1-0.2-0.2-0.3-0.3-0.4c-0.1-0.1-0.3-0.1-0.5-0.1     c-0.3,0-0.5,0.1-0.7,0.2c-0.2,0.1-0.4,0.3-0.5,0.6c-0.1,0.3-0.1,0.7-0.1,1.3v3.2h-1.7V71.3z"></path>				<path class="st1" d="M158.8,75.7l1.7,0.3c-0.2,0.6-0.6,1.1-1,1.4c-0.5,0.3-1.1,0.5-1.8,0.5c-1.1,0-2-0.4-2.5-1.1     c-0.4-0.6-0.6-1.3-0.6-2.2c0-1.1,0.3-1.9,0.8-2.5c0.6-0.6,1.3-0.9,2.1-0.9c1,0,1.7,0.3,2.3,1c0.6,0.6,0.8,1.6,0.8,2.9h-4.3     c0,0.5,0.2,0.9,0.4,1.2c0.3,0.3,0.6,0.4,1,0.4c0.3,0,0.5-0.1,0.7-0.2C158.6,76.3,158.7,76.1,158.8,75.7 M158.9,74     c0-0.5-0.1-0.9-0.4-1.1c-0.2-0.3-0.5-0.4-0.9-0.4c-0.4,0-0.7,0.1-0.9,0.4c-0.2,0.3-0.4,0.6-0.4,1.1H158.9z"></path>				<path class="st1" d="M163.7,77.8h-1.7v-6.5h1.6v0.9c0.3-0.4,0.5-0.7,0.7-0.9c0.2-0.1,0.5-0.2,0.7-0.2c0.4,0,0.8,0.1,1.1,0.3     l-0.5,1.5c-0.3-0.2-0.6-0.3-0.8-0.3c-0.2,0-0.4,0.1-0.6,0.2c-0.2,0.1-0.3,0.4-0.4,0.7c-0.1,0.3-0.1,1.1-0.1,2.2V77.8z"></path>				<path class="st1" d="M172.5,73.2l-1.7,0.3c-0.1-0.3-0.2-0.6-0.4-0.8c-0.2-0.2-0.5-0.3-0.8-0.3c-0.4,0-0.8,0.1-1,0.4     c-0.3,0.3-0.4,0.8-0.4,1.5c0,0.8,0.1,1.3,0.4,1.6c0.3,0.3,0.6,0.5,1,0.5c0.3,0,0.6-0.1,0.8-0.3c0.2-0.2,0.4-0.5,0.4-1l1.7,0.3     c-0.2,0.8-0.5,1.4-1,1.8c-0.5,0.4-1.2,0.6-2,0.6c-0.9,0-1.7-0.3-2.3-0.9c-0.6-0.6-0.8-1.4-0.8-2.5c0-1.1,0.3-1.9,0.8-2.5     c0.6-0.6,1.3-0.9,2.3-0.9c0.8,0,1.4,0.2,1.9,0.5C172,72,172.3,72.5,172.5,73.2"></path>				<path class="st1" d="M177.6,75.7l1.7,0.3c-0.2,0.6-0.6,1.1-1,1.4c-0.5,0.3-1.1,0.5-1.8,0.5c-1.1,0-2-0.4-2.5-1.1     c-0.4-0.6-0.6-1.3-0.6-2.2c0-1.1,0.3-1.9,0.8-2.5c0.6-0.6,1.3-0.9,2.1-0.9c1,0,1.7,0.3,2.3,1c0.6,0.6,0.8,1.6,0.8,2.9h-4.3     c0,0.5,0.1,0.9,0.4,1.2c0.3,0.3,0.6,0.4,1,0.4c0.3,0,0.5-0.1,0.7-0.2C177.4,76.3,177.5,76.1,177.6,75.7 M177.7,74     c0-0.5-0.1-0.9-0.4-1.1c-0.2-0.3-0.5-0.4-0.9-0.4c-0.4,0-0.7,0.1-0.9,0.4c-0.2,0.3-0.4,0.6-0.4,1.1H177.7z"></path>				<polygon class="st1" points="184.3,77.8 184.3,68.9 186.1,68.9 186.1,76.3 190.6,76.3 190.6,77.8     "></polygon>				<path class="st1" d="M191.5,74.5c0-0.6,0.1-1.1,0.4-1.7c0.3-0.5,0.7-0.9,1.2-1.2c0.5-0.3,1.1-0.4,1.7-0.4c1,0,1.8,0.3,2.4,1     c0.6,0.6,0.9,1.4,0.9,2.4c0,1-0.3,1.8-0.9,2.4c-0.6,0.6-1.4,1-2.4,1c-0.6,0-1.2-0.1-1.7-0.4c-0.5-0.3-1-0.7-1.2-1.2     C191.6,75.9,191.5,75.2,191.5,74.5 M193.3,74.6c0,0.6,0.2,1.1,0.5,1.5c0.3,0.3,0.7,0.5,1.1,0.5c0.4,0,0.8-0.2,1.1-0.5     c0.3-0.3,0.5-0.8,0.5-1.5c0-0.6-0.2-1.1-0.5-1.5c-0.3-0.3-0.7-0.5-1.1-0.5c-0.4,0-0.8,0.2-1.1,0.5     C193.4,73.4,193.3,73.9,193.3,74.6"></path>				<path class="st1" d="M199.4,78.2l2,0.2c0,0.2,0.1,0.4,0.2,0.5c0.2,0.1,0.4,0.2,0.8,0.2c0.4,0,0.8-0.1,1-0.2     c0.2-0.1,0.3-0.2,0.3-0.4c0.1-0.1,0.1-0.4,0.1-0.8v-0.9c-0.5,0.7-1.2,1.1-1.9,1.1c-0.9,0-1.6-0.4-2.1-1.1     c-0.4-0.6-0.6-1.3-0.6-2.2c0-1.1,0.3-1.9,0.8-2.5c0.5-0.6,1.2-0.9,2-0.9c0.8,0,1.5,0.4,2,1.1v-0.9h1.6v5.8     c0,0.8-0.1,1.3-0.2,1.7c-0.1,0.4-0.3,0.7-0.5,0.9c-0.2,0.2-0.5,0.4-0.9,0.5c-0.4,0.1-0.9,0.2-1.4,0.2c-1.1,0-1.9-0.2-2.3-0.6     c-0.5-0.4-0.7-0.9-0.7-1.4C199.4,78.4,199.4,78.3,199.4,78.2 M200.9,74.4c0,0.7,0.1,1.2,0.4,1.5c0.3,0.3,0.6,0.5,1,0.5     c0.4,0,0.8-0.2,1.1-0.5c0.3-0.3,0.4-0.8,0.4-1.5c0-0.7-0.1-1.2-0.4-1.5c-0.3-0.3-0.6-0.5-1.1-0.5c-0.4,0-0.7,0.2-1,0.5     C201.1,73.3,200.9,73.8,200.9,74.4"></path>				<path class="st1" d="M207.2,68.9h1.7v1.6h-1.7V68.9z M207.2,71.3h1.7v6.5h-1.7V71.3z"></path>				<path class="st1" d="M210.1,76l1.7-0.3c0.1,0.3,0.2,0.6,0.4,0.8c0.2,0.2,0.5,0.3,0.9,0.3c0.4,0,0.8-0.1,1-0.2     c0.2-0.1,0.2-0.3,0.2-0.5c0-0.1,0-0.2-0.1-0.3c-0.1-0.1-0.3-0.2-0.6-0.2c-1.4-0.3-2.3-0.6-2.6-0.8c-0.5-0.4-0.8-0.8-0.8-1.5     c0-0.6,0.2-1,0.7-1.4c0.4-0.4,1.1-0.6,2.1-0.6c0.9,0,1.5,0.1,2,0.4c0.4,0.3,0.7,0.7,0.9,1.3l-1.6,0.3c-0.1-0.3-0.2-0.4-0.4-0.6     c-0.2-0.1-0.5-0.2-0.8-0.2c-0.5,0-0.8,0.1-1,0.2c-0.1,0.1-0.2,0.2-0.2,0.3c0,0.1,0.1,0.2,0.2,0.3c0.2,0.1,0.7,0.3,1.6,0.5     c0.9,0.2,1.6,0.5,1.9,0.8c0.4,0.3,0.5,0.7,0.5,1.3c0,0.6-0.2,1.1-0.7,1.5c-0.5,0.4-1.2,0.6-2.2,0.6c-0.9,0-1.6-0.2-2.1-0.5     C210.6,77.1,210.2,76.6,210.1,76"></path>				<path class="st1" d="M220.6,71.3v1.4h-1.2v2.6c0,0.5,0,0.8,0,0.9c0,0.1,0.1,0.2,0.2,0.2c0.1,0.1,0.2,0.1,0.3,0.1     c0.2,0,0.4-0.1,0.7-0.2l0.1,1.3c-0.4,0.2-0.9,0.3-1.4,0.3c-0.3,0-0.6-0.1-0.8-0.2c-0.2-0.1-0.4-0.2-0.5-0.4     c-0.1-0.2-0.2-0.4-0.2-0.7c0-0.2-0.1-0.6-0.1-1.2v-2.8h-0.8v-1.4h0.8V70l1.7-1v2.3H220.6z"></path>				<path class="st1" d="M221.8,68.9h1.7v1.6h-1.7V68.9z M221.8,71.3h1.7v6.5h-1.7V71.3z"></path>				<path class="st1" d="M230.9,73.2l-1.7,0.3c-0.1-0.3-0.2-0.6-0.4-0.8c-0.2-0.2-0.5-0.3-0.8-0.3c-0.4,0-0.8,0.1-1,0.4     c-0.3,0.3-0.4,0.8-0.4,1.5c0,0.8,0.1,1.3,0.4,1.6c0.3,0.3,0.6,0.5,1,0.5c0.3,0,0.6-0.1,0.8-0.3c0.2-0.2,0.4-0.5,0.4-1l1.7,0.3     c-0.2,0.8-0.5,1.4-1,1.8c-0.5,0.4-1.2,0.6-2,0.6c-0.9,0-1.7-0.3-2.3-0.9c-0.6-0.6-0.8-1.4-0.8-2.5c0-1.1,0.3-1.9,0.8-2.5     c0.6-0.6,1.3-0.9,2.3-0.9c0.8,0,1.4,0.2,1.9,0.5C230.4,72,230.7,72.5,230.9,73.2"></path>				<path class="st1" d="M231.6,76l1.7-0.3c0.1,0.3,0.2,0.6,0.4,0.8c0.2,0.2,0.5,0.3,0.9,0.3c0.4,0,0.8-0.1,1-0.2     c0.2-0.1,0.2-0.3,0.2-0.5c0-0.1,0-0.2-0.1-0.3c-0.1-0.1-0.3-0.2-0.6-0.2c-1.4-0.3-2.3-0.6-2.6-0.8c-0.5-0.4-0.8-0.8-0.8-1.5     c0-0.6,0.2-1,0.7-1.4c0.4-0.4,1.1-0.6,2.1-0.6c0.9,0,1.5,0.1,2,0.4c0.4,0.3,0.7,0.7,0.9,1.3l-1.6,0.3c-0.1-0.3-0.2-0.4-0.4-0.6     c-0.2-0.1-0.5-0.2-0.8-0.2c-0.5,0-0.8,0.1-1,0.2c-0.1,0.1-0.2,0.2-0.2,0.3c0,0.1,0.1,0.2,0.2,0.3c0.2,0.1,0.7,0.3,1.6,0.5     c0.9,0.2,1.6,0.5,1.9,0.8c0.4,0.3,0.5,0.7,0.5,1.3c0,0.6-0.2,1.1-0.7,1.5c-0.5,0.4-1.2,0.6-2.2,0.6c-0.9,0-1.6-0.2-2.1-0.5     C232.1,77.1,231.8,76.6,231.6,76"></path>			</g>		</g>	</g></g></svg>