<svg xmlns="http://www.w3.org/2000/svg" xmlns:xlink="http://www.w3.org/1999/xlink" id="Capa_1" x="0px" y="0px" viewBox="0 0 300 200" style="enable-background:new 0 0 300 200;" xml:space="preserve"><style type="text/css">	.st0{fill:none;}	.st1{fill:#878787;}</style><g>	<path class="st1" d="M219.51,169.15c0.02-0.29,0.06-0.58,0.06-0.87c0-5.73,0-11.45,0-17.18c0-0.21,0.01-0.41-0.02-0.62  c-0.08-0.57-0.33-0.81-1.11-0.89c-0.37-0.04-0.43-0.21-0.43-0.5c0-0.31-0.01-0.61,0.42-0.62c0.18-0.01,0.35-0.01,0.53-0.01  c2.35,0,4.7-0.01,7.05,0.01c0.32,0,0.76-0.17,0.92,0.27c0.19,0.49-0.13,0.74-0.55,0.91c-0.33,0.13-0.48,0.42-0.51,0.77  c-0.02,0.29-0.03,0.59-0.03,0.88c0,8.48,0,16.97,0,25.45c0,0.23,0,0.47,0.01,0.7c0.02,0.48,0.17,0.89,0.68,1.01  c0.51,0.11,0.46,0.46,0.42,0.81c-0.04,0.4-0.38,0.3-0.62,0.3c-2.58,0.01-5.17,0.01-7.75,0.01c-0.23,0-0.47,0-0.7,0  c-0.21,0-0.45,0.01-0.48-0.27c-0.03-0.28-0.12-0.56,0.2-0.79c0.65-0.47,0.66-0.58,0.19-1.22c-0.14-0.19-0.3-0.36-0.46-0.53  c-5.81-6.06-11.63-12.12-17.44-18.17c-0.12-0.13-0.26-0.23-0.4-0.34c-0.03-0.12-0.12-0.2-0.23-0.2c-0.09,0-0.1,0.11-0.07,0.19  c-0.01,0.26-0.04,0.53-0.04,0.79c0,5.96,0,11.92,0,17.88c0,0.12,0,0.23,0,0.35c0.03,0.78,0.15,1.01,0.89,1.2  c0.42,0.11,0.5,0.31,0.49,0.68c-0.01,0.29-0.13,0.43-0.42,0.43c-0.09,0-0.18,0.01-0.26,0.01c-2.47,0-4.93,0-7.4,0  c-0.65,0-0.76-0.14-0.69-0.69c0.02-0.19,0.08-0.34,0.29-0.38c0.69-0.15,0.84-0.65,0.82-1.26c-0.01-0.21,0-0.41,0-0.62  c0-8.42,0-16.85,0-25.27c0-0.23,0-0.47,0-0.7c0-0.52-0.16-0.94-0.72-1.07c-0.45-0.11-0.4-0.44-0.38-0.76  c0.03-0.39,0.34-0.35,0.6-0.35c2.96-0.01,5.93-0.01,8.89,0c0.62,0,0.89,0.51,0.47,1.01c-0.46,0.56-0.27,0.96,0.07,1.4  c0.21,0.28,0.45,0.54,0.7,0.79c5.44,5.65,10.87,11.29,16.32,16.93c0.2,0.21,0.35,0.48,0.67,0.55c0,0,0.01,0.06,0.01,0.06  L219.51,169.15z"></path>	<path class="st1" d="M125.96,179.74c-2.42,0.03-5.01-0.19-7.56-0.88c-1.34-0.36-2.6-0.92-3.86-1.48c-0.67-0.3-1.34-0.63-2.07-0.08  c-0.26,0.19-0.49-0.08-0.7-0.21c-0.25-0.16-0.09-0.37-0.01-0.55c0.94-2.09,1.89-4.17,2.84-6.25c0.07-0.15,0.12-0.37,0.33-0.35  c0.24,0.02,0.45,0.15,0.49,0.42c0.18,1.13,1.02,1.69,1.91,2.15c2.42,1.26,5.01,2.03,7.72,2.26c2.38,0.2,4.75,0.05,7.06-0.68  c0.96-0.3,1.87-0.71,2.68-1.3c0.79-0.58,1.17-1.36,1.13-2.35c-0.04-0.8-0.37-1.4-1.03-1.84c-0.65-0.42-1.37-0.67-2.12-0.84  c-0.89-0.2-1.79-0.33-2.7-0.38c-3.13-0.17-6.28-0.3-9.39-0.73c-1.73-0.24-3.45-0.68-4.99-1.6c-2.32-1.37-3.56-3.4-3.76-6.1  c-0.28-3.92,1.44-6.73,4.78-8.63c2.12-1.21,4.44-1.85,6.86-2.09c2.28-0.22,4.58-0.21,6.85,0.13c2.65,0.39,5.22,1.09,7.71,2.05  c0.27,0.11,0.55,0.22,0.82,0.31c0.82,0.29,1.64,0.48,2.49,0.13c0.29-0.12,0.51,0.01,0.71,0.19c0.24,0.22,0.06,0.43-0.05,0.63  c-1.19,2.16-2.38,4.32-3.58,6.47c-0.1,0.17-0.18,0.39-0.45,0.31c-0.21-0.06-0.37-0.16-0.42-0.4c-0.23-1.21-1.1-1.88-2.07-2.48  c-2.22-1.39-4.7-1.95-7.24-2.29c-2.21-0.29-4.39-0.04-6.54,0.54c-0.77,0.21-1.49,0.54-2.12,1.03c-1.53,1.19-1.38,3.28,0.3,4.25  c0.77,0.45,1.61,0.7,2.48,0.88c1.47,0.3,2.96,0.42,4.46,0.51c2.43,0.14,4.87,0.26,7.26,0.72c1.38,0.27,2.75,0.59,4.03,1.22  c3.21,1.58,4.59,4.2,4.46,7.71c-0.09,2.52-1.17,4.5-3.09,6.07c-1.96,1.61-4.26,2.45-6.7,2.95  C130.68,179.64,128.42,179.77,125.96,179.74z"></path>	<path class="st1" d="M87.08,148.45c4.05,0,8.1,0,12.16,0c0.5,0,1-0.03,1.5-0.06c0.7-0.04,1.26-0.3,1.48-1.03  c0.14-0.45,0.48-0.35,0.79-0.33c0.33,0.02,0.31,0.3,0.31,0.53c0,2.26,0,4.52,0,6.78c0,0.24-0.01,0.5-0.34,0.49  c-0.27,0-0.6,0.12-0.74-0.28c-0.23-0.69-0.8-0.89-1.44-0.97c-0.38-0.05-0.76-0.08-1.14-0.08c-5.93,0-11.86,0-17.79,0  c-0.15,0-0.29,0.01-0.44,0c-0.42-0.02-0.57,0.19-0.57,0.59c0.01,2.06-0.01,4.11,0.01,6.17c0,0.58,0.05,0.6,0.8,0.6  c2.97,0.01,5.93,0,8.9,0c0.7,0,1.41,0.01,2.11-0.01c0.32-0.01,0.65-0.04,0.96-0.1c0.88-0.19,1.16-0.46,1.21-1.36  c0.03-0.46,0.22-0.53,0.59-0.54c0.43-0.01,0.56,0.2,0.56,0.59c0,2.38,0,4.76,0,7.13c0,0.35,0,0.7-0.01,1.06  c0,0.27-0.09,0.46-0.41,0.45c-0.29-0.01-0.61,0.06-0.67-0.37c-0.02-0.17-0.04-0.35-0.08-0.52c-0.11-0.46-0.38-0.78-0.83-0.96  c-0.44-0.18-0.9-0.27-1.37-0.27c-3.67,0-7.34-0.01-11.01,0c-0.73,0-0.75,0.02-0.76,0.74c-0.01,2.2-0.01,4.4,0,6.61  c0,0.77,0.02,0.79,0.79,0.79c3.05,0.01,6.11,0,9.16,0c3.2,0,6.4,0,9.6,0c0.47,0,0.94-0.01,1.37-0.25c0.37-0.21,0.68-0.48,0.79-0.9  c0.08-0.29,0.26-0.35,0.52-0.37c0.39-0.02,0.61,0.1,0.6,0.54c-0.02,0.59,0,1.17,0,1.76c0,1.7,0,3.41-0.01,5.11  c0,0.27,0.11,0.63-0.34,0.68c-0.37,0.04-0.7,0.05-0.79-0.45c-0.07-0.35-0.36-0.49-0.71-0.56c-0.52-0.11-1.05-0.1-1.58-0.1  c-8.63,0-17.27,0-25.9,0c-0.26,0-0.53,0.01-0.79-0.01c-0.23-0.01-0.51,0.04-0.53-0.31c-0.01-0.27-0.15-0.63,0.24-0.76  c0.74-0.25,0.81-0.82,0.81-1.48c-0.01-5.49-0.01-10.98,0-16.47c0-3.17-0.01-6.34,0-9.51c0-0.65-0.04-1.24-0.82-1.45  c-0.41-0.11-0.22-0.49-0.23-0.75c-0.02-0.32,0.24-0.36,0.48-0.37c0.26-0.01,0.53-0.01,0.79-0.01  C78.57,148.45,82.82,148.45,87.08,148.45z"></path>	<path class="st1" d="M165.99,148.45c4.08,0,8.16,0,12.24,0c0.5,0,1-0.03,1.49-0.06c0.66-0.04,1.21-0.3,1.42-0.98  c0.14-0.44,0.45-0.39,0.77-0.38c0.39,0.02,0.36,0.32,0.36,0.58c0,2.23,0,4.46,0,6.69c0,0.22,0.04,0.52-0.3,0.53  c-0.3,0.01-0.65,0.14-0.8-0.31c-0.2-0.61-0.72-0.81-1.29-0.91c-0.44-0.08-0.87-0.1-1.32-0.1c-5.9,0-11.8,0-17.7,0  c-0.12,0-0.24,0-0.35,0c-0.65,0.03-0.68,0.04-0.69,0.72c-0.01,1.97-0.01,3.93,0,5.9c0,0.72,0.02,0.73,0.75,0.73  c3.7,0,7.4,0,11.1-0.01c0.26,0,0.53-0.04,0.79-0.07c0.79-0.1,1.27-0.5,1.38-1.34c0.06-0.54,0.28-0.65,0.76-0.58  c0.25,0.04,0.36,0.17,0.37,0.41c0.01,0.18,0.01,0.35,0.01,0.53c0,2.47,0,4.93,0,7.4c0,0.15-0.01,0.29-0.01,0.44  c0,0.28-0.11,0.45-0.41,0.44c-0.28-0.01-0.62,0.08-0.69-0.35c-0.07-0.5-0.12-1.01-0.59-1.32c-0.53-0.36-1.14-0.45-1.77-0.45  c-3.64,0-7.28-0.01-10.92,0c-0.74,0-0.76,0.02-0.76,0.72c-0.01,2.23-0.01,4.46,0,6.69c0,0.7,0.02,0.72,0.76,0.72  c6.31,0,12.62,0,18.94,0c0.92,0,1.68-0.26,2.03-1.21c0.14-0.38,0.46-0.3,0.74-0.28c0.39,0.02,0.34,0.34,0.34,0.59  c0.01,2.05,0,4.11,0,6.16c0,0.26,0,0.53,0,0.79c0,0.24,0.01,0.5-0.33,0.52c-0.28,0.01-0.65,0.13-0.73-0.27  c-0.14-0.69-0.67-0.75-1.2-0.8c-0.5-0.05-1-0.04-1.5-0.04c-8.51,0-17.03,0-25.54,0c-0.26,0-0.53,0.01-0.79,0  c-0.23-0.01-0.52,0.04-0.54-0.29c-0.02-0.27-0.15-0.64,0.23-0.76c0.8-0.26,0.81-0.89,0.81-1.56c-0.01-4.9,0-9.8,0-14.71  c0-3.73-0.01-7.46,0.01-11.18c0-0.66-0.08-1.23-0.79-1.5c-0.37-0.14-0.28-0.47-0.26-0.76c0.03-0.32,0.29-0.32,0.53-0.33  c0.23-0.01,0.47-0.01,0.7-0.01C157.48,148.45,161.73,148.45,165.99,148.45z"></path>	<path class="st1" d="M206.63,20.55c0-1.38,0.11-1.26-1.3-1.26c-36.88,0-73.76,0-110.64,0c-1.47,0-1.32-0.12-1.32,1.34  c0,36.85,0,73.69,0,110.54c0,1.57-0.16,1.38,1.35,1.38c18.41,0,36.82,0,55.23,0c18.47,0,36.94,0,55.41,0  c1.39,0,1.27,0.16,1.27-1.28C206.63,94.36,206.63,57.46,206.63,20.55z M147.99,76.46c0.32,0.3,0.23,0.7,0.26,1.08  c0.04,0.46-0.31,0.58-0.6,0.77c-0.48,0.33-0.66,0.98-0.45,1.65c0.14,0.45,0.26,0.89,0.27,1.37c0.01,0.44-0.14,0.74-0.57,0.87  c-0.46,0.14-0.92,0.49-1.4,0.1c-0.47-0.39-0.62-0.9-0.42-1.5c0.09-0.28,0.11-0.57,0.17-0.86c0.07-0.35-0.03-0.6-0.31-0.85  c-0.56-0.49-0.76-1.06-0.36-1.79c0.31-0.57,0.08-1.33-0.54-1.65c-0.64-0.33-0.71-0.81-0.72-1.44c-0.02-0.87,0.15-1.68,0.41-2.5  c0.22-0.7,0.18-0.73-0.47-1.11c-0.13-0.07-0.25-0.18-0.39-0.21c-0.82-0.19-0.91-0.76-0.83-1.47c0.08-0.7,0.05-1.41,0.36-2.07  c0.21-0.43,0.59-0.48,0.86-0.11c0.59,0.8,0.59,0.79,1.35,1.13c0.24,0.11,0.46,0.24,0.8,0.43c-0.53,0.58-0.85,1.14-0.85,1.87  c0,0.4,0.02,0.75,0.36,1.02c0.36,0.29,0.59,0.63,0.49,1.14c-0.08,0.41,0.1,0.58,0.54,0.54c0.55-0.06,1.11-0.04,1.67-0.08  c0.38-0.03,0.59,0.15,0.76,0.46c0.44,0.78,0.36,1.7-0.31,2.28C147.71,75.85,147.62,76.11,147.99,76.46z M134.77,78.83  c-0.38-0.24-0.78-0.53-1.31-0.35c-0.5,0.17-0.99,0.35-1.49,0.52c-0.45,0.15-0.87,0.12-1.29,0.02c-0.65-0.15-0.84-0.46-0.79-1.3  c0.02-0.13,0.05-0.42,0.1-0.71c0.11-0.64,0.06-1.22-0.45-1.7c-0.44-0.4-0.37-0.95-0.19-1.39c0.16-0.4,0.6-0.6,1.09-0.61  c0.49-0.01,0.91,0.17,1.36,0.33c0.26,0.09,0.31,0.31,0.39,0.54c0.63,1.92,2.11,2.39,3.62,1.73c0.82-0.36,1.7-0.16,2.42,0.33  c0.84,0.57,1.8,1,2.45,1.82c0.19,0.24,0.51,0.27,0.78,0.37c0.19,0.07,0.4,0.11,0.53,0.29c0.39,0.52,0.24,0.95-0.38,1.18  c-0.75,0.28-1.38-0.05-2.01-0.35c-0.33-0.16-0.63-0.26-1-0.26c-0.43,0-0.75,0.11-0.83,0.59c-0.06,0.38-0.33,0.52-0.68,0.58  c-0.4,0.07-0.8,0.18-1.21,0.23c-0.79,0.08-1.13-0.28-1.06-1.03C134.87,79.37,135.08,79.02,134.77,78.83z M126.77,63.92  c-0.1-0.14-0.15-0.32-0.19-0.49c-0.14-0.62,0.1-0.94,0.74-1.02c0.49-0.06,0.95,0.29,0.89,0.81c-0.08,0.81,0.37,1.33,0.84,1.84  c0.46,0.51,0.87,1.1,1.69,1.14c0.24,0.01,0.45,0.24,0.7,0.34c0.37,0.14,0.44,0.38,0.24,0.68c-0.2,0.32-0.21,0.65-0.19,1.01  c0.03,0.68-0.49,1.05-1.15,0.84c-0.31-0.1-0.6-0.24-0.9-0.34c-0.43-0.14-0.83-0.18-1.26,0.06c-0.97,0.53-1.96-0.17-1.78-1.21  c-0.03-0.66,0.2-1.3,0.47-1.92C127.12,65.05,127.19,64.48,126.77,63.92z M133.87,50.87c-0.14,0.04-0.25,0.16-0.38,0.21  c-0.65,0.27-1.04,0.73-1.09,1.45c-0.01,0.12-0.04,0.23-0.08,0.34c-0.05,0.13-0.09,0.29-0.25,0.33c-0.17,0.04-0.27-0.09-0.35-0.21  c-0.66-1.09-1.05-2.22-0.49-3.48c0.2-0.45,0.37-0.92,0.52-1.4c0.15-0.46,0.45-0.67,0.9-0.7c0.44-0.02,0.8,0.1,1.02,0.54  c0.3,0.62,0.9,1.11,0.78,1.91C134.51,50.33,134.41,50.72,133.87,50.87z M148.31,43.89c0.1,0.35-0.06,0.62-0.2,0.91  c-0.2,0.42-0.55,0.66-0.97,0.64c-0.44-0.02-0.84-0.24-1.07-0.66c-0.15-0.27-0.09-0.76-0.66-0.59c-0.42,0.13-0.74,0.46-0.8,0.93  c-0.06,0.47,0.42,1.11,0.91,1.19c0.51,0.09,0.98,0.58,0.92,0.96c-0.06,0.4-0.61,0.85-1.06,0.88c-0.12,0.01-0.23,0-0.45,0  c-0.74-0.02-1.53-0.14-2.05-0.93c-0.23-0.35-0.64-0.5-0.98-0.74c-0.53-0.37-1.1-0.68-1.5-1.21c-0.17-0.23-0.34-0.47-0.41-0.77  c-0.08-0.37-0.04-0.67,0.26-0.96c0.29-0.27,0.57-0.21,0.89-0.1c1.12,0.36,1.75,0.18,2.44-0.71c0.33-0.43,0.47-0.96,0.44-1.49  c-0.02-0.43,0.18-0.55,0.52-0.65c0.45-0.13,0.87-0.08,1.27,0.13c0.52,0.28,1.04,0.54,1.5,0.91c0.27,0.22,0.51,0.23,0.79,0.03  c0.19-0.14,0.4-0.25,0.61-0.35c0.85-0.41,1.48-0.01,1.51,0.96c0,0.15,0,0.29-0.01,0.44c-0.01,0.29-0.15,0.42-0.44,0.42  c-0.35,0-0.7,0.01-1.04,0.11C148.4,43.36,148.2,43.52,148.31,43.89z M140.05,56.74c0.06-0.79,0.58-1.04,1.22-1.29  c0.6-0.23,1-0.8,1.59-1.09c0.27-0.13,0.51-0.21,0.82-0.03c0.69,0.39,0.68,0.41,0.53,1.25c-0.24,1.38-0.69,2.73-0.59,4.16  c0.02,0.33-0.1,0.64-0.19,0.94c-0.21,0.71-0.25,0.73-1.21,0.72c-0.73-0.11-1.57-0.46-2.15-1.28c-0.14-0.19-0.27-0.39-0.41-0.57  c-0.65-0.8-0.64-1.51,0.04-2.32C139.83,57.07,140.03,56.91,140.05,56.74z M146.8,56.69c-0.23-0.37-0.24-0.7-0.09-1.07  c0.16-0.42,0.53-0.27,0.83-0.29c0.2-0.02,0.41,0,0.72,0c0.7,0.2,1.4,0.06,1.94-0.63c0.23-0.29,0.3-0.63,0.45-0.94  c0.1-0.21,0.07-0.57,0.46-0.52c0.36,0.05,0.66,0.43,0.67,0.78c0.01,0.48-0.09,0.94-0.28,1.36c-0.37,0.8-0.77,1.58-1.18,2.35  c-0.34,0.63-0.35,0.61-1.1,0.49C148.19,58.05,147.36,57.61,146.8,56.69z M153.97,69.44c-0.72,0.66-0.72,1.4-0.49,2.24  c0.2,0.75,0.13,0.9-0.59,1.03c-0.56,0.09-1.07,0.2-1.55,0.53c-0.22,0.15-0.56,0.14-0.78,0.19c-0.57-0.02-0.91-0.28-1.03-0.75  c-0.1-0.4,0.09-0.83,0.56-1.07c0.53-0.27,0.99-0.61,1.42-1.02c0.48-0.46,0.7-1,0.72-1.64c0.01-0.36,0.04-0.7,0.18-1.03  c0.28-0.64,0.81-0.73,1.27-0.21c0.14,0.15,0.27,0.31,0.39,0.48C154.49,68.81,154.53,68.93,153.97,69.44z M197.97,82.16  c-0.36,5.42-1.36,10.71-3.32,15.79c-4.94,12.8-14.13,21.13-27,25.57c-2.28,0.79-4.63,1.28-6.99,1.73c-1.77,0.34-3.19-0.26-4.15-1.8  c-0.93-1.48-1.36-3.11-1.36-4.85c0-8.66,0-17.32,0-25.99c0-1.97,0-3.93,0.01-5.9c0-0.25-0.13-0.6,0.16-0.72  c0.33-0.14,0.69,0.01,1.01,0.16c0.15,0.07,0.18,0.22,0.22,0.36c0.05,0.17,0.09,0.34,0.15,0.51c0.3,0.8,0.89,1.01,1.62,0.58  c0.73-0.43,0.57-0.42,1.29,0.08c0.59,0.42,0.89,0.95,1.03,1.66c0.16,0.8,0.43,1.57,0.65,2.36c0.29,1.04,0.26,2.03-0.44,2.92  c-0.25,0.32-0.41,0.63-0.03,1c0.44,0.42,1,0.59,1.42,0.36c0.23-0.12,0.22-0.34,0.21-0.54c-0.05-0.73,0.17-1.31,0.84-1.71  c0.18-0.11,0.29-0.36,0.42-0.56c0.36-0.56,0.5-1.24,0.97-1.76c0.18-0.19,0.16-0.49,0.17-0.76c0-0.38-0.15-0.58-0.55-0.66  c-0.7-0.14-0.81-0.28-0.86-0.98c-0.06-0.77,0.12-1.52,0.33-2.25c0.14-0.47,0.58-0.74,1.01-0.92c0.49-0.2,0.84-0.53,1.05-1  c0.21-0.46,0.6-0.66,1.04-0.87c1.23-0.56,2.56-0.64,3.86-0.79c0.88-0.1,1.51,0.53,2.06,1.14c0.22,0.24,0.21,0.6,0.1,0.93  c-0.18,0.56-0.35,1.12-0.53,1.68c-0.22,0.67-0.71,0.98-1.39,1c-0.21,0.01-0.41-0.01-0.62,0c-0.11,0.01-0.29,0.01-0.33,0.08  c-0.21,0.34-0.27,0.76-0.55,1.09c-0.31,0.36-0.11,0.69,0.06,1.05c0.52,1.1,0.49,1.07,1.66,0.74c0.65-0.19,1.27-0.44,1.88-0.72  c0.8-0.37,1.73,0,2.14,0.79c0.2,0.39,0.41,0.78,0.63,1.16c0.49,0.81,1.49,1.15,2.37,0.85c0.29-0.1,0.47-0.29,0.34-0.59  c-0.24-0.59-0.17-1.27-0.57-1.83c-0.26-0.36-0.25-0.77,0.12-1.11c0.39-0.35,0.56-0.36,0.96,0.02c0.28,0.26,0.55,0.53,0.7,0.9  c0.17,0.42,0.48,0.58,0.91,0.5c0.48-0.09,0.92-0.27,1.03-0.81c0.07-0.32,0.11-0.64,0.15-0.96c0.04-0.33,0.16-0.62,0.35-0.89  c0.45-0.67,0.59-0.74,1.38-0.49c0.35,0.11,0.7,0.09,1.04,0.09c0.45,0,0.77,0.11,0.96,0.59c0.2,0.51,0.56,0.96,0.79,1.47  c0.2,0.46,1.05,0.75,1.52,0.57c0.36-0.13,0.63-0.81,0.45-1.31c-0.2-0.58-0.43-1.15-0.83-1.64c-0.15-0.18-0.29-0.37-0.39-0.58  c-0.11-0.23-0.06-0.48,0.11-0.66c0.15-0.16,0.32,0.03,0.48,0.09c0.4,0.14,0.79,0.16,1.21,0.11c0.87-0.11,1.75-0.23,2.59-0.48  c0.56-0.16,0.7-0.47,0.48-0.99c-0.08-0.19-0.21-0.36-0.26-0.55c-0.09-0.3-0.25-0.42-0.57-0.41c-0.45,0.02-0.74-0.19-1.09-0.53  c-0.58-0.54-1.22-1.08-2.21-1.01c-1.3,0.09-2.53,0.52-3.82,0.63c-0.53,0.04-1.06,0.1-1.58,0.06c-0.84-0.07-1.89-0.76-1.78-1.8  c0.04-0.36,0.15-0.6,0.57-0.63c0.59-0.04,1.17-0.12,1.74,0.08c0.34,0.12,0.7,0.15,1.04,0.1c1.16-0.19,2.34-0.16,3.51-0.29  c0.34-0.04,0.58-0.15,0.8-0.44c0.62-0.78,0.76-0.79,1.72-0.41c0.4,0.16,1.37-0.21,1.5-0.58c0.12-0.31-0.25-1.18-0.6-1.35  c-0.34-0.17-0.7-0.3-1.04-0.47c-0.68-0.33-0.84-0.83-0.51-1.51c0.24-0.49,0.64-0.75,1.14-0.89c0.25-0.07,0.53-0.08,0.72-0.3  c0.17-0.19,0.41-0.39,0.25-0.68c-0.14-0.25-0.29-0.57-0.65-0.5c-0.6,0.13-1.06-0.12-1.56-0.38c-0.55-0.29-1.18-0.35-1.8-0.33  c-0.21,0.01-0.49-0.01-0.55,0.19c-0.17,0.5-0.56,0.46-0.94,0.45c-0.47-0.01-0.85,0.22-1.23,0.43c-0.55,0.31-1.11,0.43-1.76,0.37  c-0.99-0.08-1.99-0.06-2.98,0.12c-0.68,0.13-1.35,0.03-1.99-0.2c-0.63-0.22-0.87-0.78-0.6-1.38c0.27-0.6,0.6-1.16,1.33-1.28  c0.48-0.08,0.63-0.49,0.85-0.82c0.52-0.79,1.16-0.78,1.68,0.03c0.09,0.15,0.17,0.31,0.27,0.46c0.36,0.6,0.79,0.78,1.46,0.6  c0.36-0.09,0.77-0.67,0.79-1.17c0.01-0.44-0.01-0.88-0.06-1.32c-0.06-0.55,0.13-1.04,0.35-1.52c0.14-0.31,0.39-0.43,0.72-0.31  c0.31,0.1,0.62,0.2,0.91,0.33c0.52,0.23,0.85,0.6,0.84,1.21c0,0.41,0.07,0.82,0.21,1.21c0.33,0.89,1.57,1.21,2.27,0.59  c0.15-0.13,0.19-0.29,0.16-0.47c-0.05-0.29-0.07-0.59-0.17-0.86c-0.22-0.6-0.02-1,0.46-1.36c0.5-0.37,0.57-0.64,0.41-1.19  c-0.07-0.24-0.19-0.38-0.48-0.41c-0.6-0.06-1.17-0.29-1.8-0.29c-0.51,0-0.91-0.41-0.99-0.85c-0.1-0.52,0.08-0.87,0.53-1.18  c0.99-0.66,0.93-1.47-0.11-2.07c-0.3-0.18-0.64-0.28-0.96-0.44c-0.28-0.14-0.62-0.21-0.84-0.58c0.13-0.1,0.25-0.16,0.31-0.25  c0.36-0.58,0.93-0.73,1.55-0.81c0.17-0.02,0.36-0.04,0.51-0.11c0.53-0.23,0.61-0.64,0.21-1.07c-0.92-0.98-1.44-1.05-2.63-0.5  c-0.8,0.37-1.67,0.25-2.49,0.01c-0.46-0.13-0.44-0.66-0.64-1c-0.17-0.29,0.17-0.45,0.34-0.64c0.23-0.26,0.48-0.51,0.71-0.78  c0.34-0.4,0.73-0.6,1.29-0.6c0.58,0,1.16-0.15,1.51-0.72c0.15-0.25,0.13-0.43-0.13-0.58c-0.65-0.37-1.35-0.66-2.09-0.57  c-1.18,0.13-1.86-0.42-2.4-1.39c-0.27-0.48-0.33-1.19-0.8-1.38c-0.43-0.18-1.02,0.11-1.55,0.12c-1.44,0.03-2.88,0.1-4.29-0.32  c-0.25-0.07-0.52-0.04-0.79-0.05c-0.35-0.01-0.71,0.01-1.06-0.03c-0.34-0.03-0.8-0.03-0.9-0.41c-0.09-0.35,0.04-0.75,0.31-1.06  c0.16-0.18,0.32-0.36,0.55-0.43c0.87-0.25,1.7-0.6,2.66-0.43c1.37,0.24,2.75,0.11,4.12-0.06c0.43-0.05,0.72-0.25,0.88-0.63  c0.12-0.27,0.03-0.48-0.29-0.48c-0.38,0-0.76,0.05-1.14,0.07c-0.43,0.03-0.82-0.01-1.08-0.42c-0.15-0.23-0.38-0.4-0.66-0.37  c-0.55,0.07-0.76-0.29-0.85-0.7c-0.15-0.66-0.48-1.08-1.16-1.27c-0.41-0.12-0.54-0.61-0.38-1.1c0.14-0.45,0.47-0.69,0.92-0.6  c0.52,0.11,1.04,0.19,1.57,0.1c0.25-0.04,0.59,0.01,0.61-0.36c0.02-0.36,0.19-0.79-0.2-1.06c-0.31-0.21-0.64-0.41-1.06-0.37  c-0.82,0.09-1.64,0.15-2.29,0.76c-0.13,0.12-0.29,0.2-0.43,0.31c-0.26,0.2-0.49,0.21-0.63-0.12c-0.39-0.97-1.19-0.9-1.99-0.79  c-0.46,0.07-0.93,0.17-1.37,0.32c-0.73,0.26-1.44,0.15-2.16-0.04c-0.33-0.09-0.5-0.25-0.6-0.56c-0.16-0.51-0.25-1.02-0.33-1.55  c-0.13-0.9-0.82-1.37-1.7-1.32c-0.75,0.04-1.18,0.34-1.41,1.05c-0.16,0.47-1.34,0.94-1.79,0.78c-0.36-0.13-0.84-1.12-0.71-1.57  c0.13-0.43,0.09-0.87,0.13-1.31c0.06-0.63-0.33-0.99-0.79-1.26c-0.43-0.25-1.23-0.03-1.59,0.37c-0.25,0.29-0.48,0.59-0.71,0.9  c-0.47,0.6-1.07,0.78-1.78,0.53c-0.73-0.25-0.96-0.61-0.95-1.48c0-0.2,0.02-0.41,0.05-0.61c0.09-0.56,0.04-0.67-0.47-0.81  c-0.56-0.16-1.1,0.05-1.64,0.16c-0.26,0.05-0.25,0.31-0.24,0.51c0.03,0.8-0.35,1.47-0.63,2.18c-0.12,0.31-0.3,0.46-0.64,0.49  c-1,0.12-1.99,0.16-2.99,0.05c-0.78-0.09-1.5-0.26-1.97-0.98c-0.2-0.31-0.58-0.39-0.9-0.52c-0.46-0.19-0.91-0.4-1.29-0.74  c-0.26-0.23-0.46-0.46-0.4-0.82c0.1-0.58-0.22-0.78-0.79-0.83c-0.08,0.41-0.18,0.82-0.25,1.24c-0.06,0.35-0.22,0.67-0.34,1  c-0.15,0.42-0.4,0.62-0.85,0.58c-0.81-0.07-1.51,0.1-2.19,0.66c-0.5,0.41-1.26,0.47-1.93,0.48c-1,0.02-2,0.11-2.98-0.14  c-0.81-0.2-1.49,0.15-2.21,0.4c-0.23,0.08-0.3,0.25-0.29,0.48c0.02,0.47,0.04,0.93,0.42,1.3c0.32,0.3,0.58,0.67,0.96,0.9  c0.38,0.23,0.39,0.51,0.33,0.96c-0.14,0.99-0.7,1.79-1.04,2.68c-0.14,0.36-0.39,0.65-0.85,0.67c-0.69,0.03-1.01,0.5-1.22,1.07  c-0.15,0.41-0.23,0.86-0.41,1.25c-0.47,1.04-1.41,1.18-2.18,0.35c-0.08-0.08-0.19-0.19-0.19-0.28c0-0.92-0.28-1.9,0.4-2.71  c0.33-0.39,0.4-0.84,0.42-1.31c0.02-0.41-0.03-0.83,0.09-1.23c0.09-0.31-0.02-0.55-0.29-0.65c-0.9-0.34-1.78-0.8-2.79-0.58  c-0.25,0.05-0.6,0-0.63,0.35c-0.04,0.39-0.18,0.82,0.19,1.16c0.09,0.08,0.18,0.15,0.28,0.21c0.64,0.43,0.84,1.02,0.67,1.76  c-0.1,0.43-0.14,0.87-0.15,1.31c-0.01,0.61-0.41,1.06-1.1,1.27c-0.32,0.1-0.89-0.2-1.17-0.61c-0.14-0.21-0.18-0.5-0.46-0.64  c-0.93,0.43-0.78,1.26-0.76,2.05c0,0.08,0.05,0.17,0.08,0.25c0.35,1.2,0.32,1.23-0.98,1.21c-0.3-0.01-0.57-0.12-0.86-0.16  c-0.57-0.1-1.11,0.1-1.31,0.47c-0.42,0.75-0.39,1.49,0.04,1.97c0.18,0.2,0.42,0.2,0.65,0.22c0.47,0.03,0.62,0.39,0.79,0.74  c0.05,0.11,0.03,0.22-0.03,0.33c-0.29,0.54-1.06,0.91-1.7,0.81c-0.7-0.11-1.4-0.19-2.08-0.35c-1.43-0.32-2.87-0.12-4.3-0.08  c-0.65,0.02-1.29,0.09-1.93,0.1c-0.39,0.01-0.75,0.09-1.11,0.23c-0.8,0.3-0.96,0.81-0.49,1.51c0.17,0.25,0.41,0.19,0.63,0.19  c0.97,0.01,1.95-0.07,2.91,0.02c1.57,0.15,2.98,0.68,3.78,2.19c0.13,0.24,0.38,0.52,0.01,0.77c-0.34,0.23-0.6,0.68-1.14,0.37  c-0.39-0.22-0.74-0.45-1.06-0.77c-0.89-0.86-2-0.84-3.12-0.71c-0.3,0.04-0.43,0.31-0.54,0.54c-0.24,0.49-0.59,0.63-1.13,0.6  c-1.34-0.1-1.35-0.07-1.39,1.28c-0.01,0.21-0.02,0.41-0.02,0.62c0.04,1.13,0.25,1.36,1.32,1.73c0.77,0.27,1.54,0.38,2.33,0.17  c0.57-0.15,1.11,0,1.65,0.13c0.66,0.15,0.73,0.34,0.55,1.02c-0.15,0.59-0.44,1.15-0.15,1.79c0.15,0.33,0.29,0.58,0.69,0.47  c0.66-0.17,1.09,0.08,1.5,0.6c0.28,0.36,0.73,0.58,1.1,0.87c0.4,0.32,0.41,1.31,0.03,1.62c-0.1,0.08-0.21,0.09-0.33,0.03  c-0.13-0.06-0.28-0.11-0.39-0.2c-0.76-0.6-1.44-0.13-2.12,0.17c-0.32,0.14-0.18,0.45-0.16,0.71c0.04,0.7,0.04,0.74-0.64,0.62  c-0.71-0.12-1.41-0.09-2.09,0.07c-0.49,0.11-0.93-0.04-1.38-0.15c-1.06-0.25-2.13-0.31-3.22-0.23c-0.5,0.04-0.68,0.24-0.81,0.72  c-0.18,0.7-0.15,1.32,0.26,1.92c0.2,0.29,0.39,0.59,0.54,0.91c0.66,1.4,2.37,1.66,3.56,1.54c0.49-0.05,0.62-0.5,0.83-0.84  c0.09-0.14,0.09-0.34,0.12-0.51c0.21-1.43,1.26-2,2.46-1.21c1.33,0.86,2.8,1.01,4.29,1.08c0.62,0.03,1.2-0.27,1.76-0.51  c0.63-0.27,1.26-0.23,1.9-0.15c0.56,0.07,0.74,0.3,0.77,0.88c0.1,1.61-0.19,1.99-1.81,2.05c-1.02,0.04-2.05-0.08-3.05-0.29  c-0.81-0.17-1.61-0.29-2.44-0.07c-0.99,0.26-1.35,0.63-1.39,1.63c-0.02,0.64,0,1.29,0.05,1.93c0.04,0.45-0.14,0.66-0.56,0.71  c-0.32,0.04-0.63,0.11-0.96,0.05c-0.48-0.08-0.85-0.26-0.97-0.75c-0.17-0.67-0.62-0.88-1.26-1.02c-1.42-0.31-2.8-0.05-4.18,0.15  c-0.25,0.04-0.4,0.17-0.36,0.41c0.16,1.08-0.19,1.92-1.09,2.57c-0.26,0.19-0.41,0.57-0.43,0.97c0.61,0.37,1.28,0.54,1.99,0.58  c1.23,0.05,2.46,0.14,3.7,0.17c0.8,0.02,1.56,0.24,2.34,0.4c0.38,0.08,0.56,0.23,0.5,0.66c-0.04,0.3-0.32,0.68,0,0.9  c0.45,0.3,0.9,0.76,1.46,0.7c2.43-0.23,4.87,0.23,7.3-0.08c0.61-0.08,1.15,0.08,1.68,0.39c0.28,0.16,0.35,0.36,0.24,0.66  c-0.13,0.37-0.38,0.66-0.58,0.98c-0.33,0.56-0.66,1.12-0.33,1.81c0.22,0.47,0.61,0.75,1.11,0.61c0.67-0.18,1.34-0.37,1.8-1.01  c0.38-0.53,0.94-0.52,1.39-0.01c0.26,0.29,0.56,0.52,0.89,0.71c0.71,0.42,1.7,0.37,2.02-0.11c0.22-0.32-0.21-1.28-0.79-1.72  c-0.4-0.3-0.78-0.62-1.12-0.99c-0.33-0.36-0.36-0.69,0-0.98c0.7-0.55,1.46-0.98,2.39-1c0.39-0.01,0.69,0.08,0.86,0.46  c0.02,0.05,0.06,0.1,0.09,0.15c0.77,1.14,1.42,1.04,2.23,0.51c0.96-0.64,1.91-0.75,3-0.63c1.13,0.13,2.28,0.28,3.41-0.04  c0.49-0.14,0.82,0.25,1.22,0.39c0.71,0.26,0.9,0.73,0.9,1.48c-0.03,10.98-0.02,21.96-0.02,32.94c0,0.62-0.03,1.23-0.1,1.85  c-0.33,2.72-2.27,4.3-5,4.06c-2.18-0.19-4.25-0.83-6.28-1.58c-4.92-1.83-9.16-4.73-13-8.26c-2.74-2.51-5.18-5.28-7.37-8.28  c-0.91-1.24-1.69-2.54-2.36-3.91c-2.83-5.78-4.96-11.79-6.05-18.15c-1.78-10.34-0.91-20.4,3.22-30.1c1.08-2.55,2.46-4.93,4.13-7.15  c4.25-5.64,9.24-10.47,15.3-14.14c4.9-2.96,10.17-4.97,15.8-6.01c5.71-1.05,11.44-1.17,17.16-0.08c9.9,1.89,18.65,6.12,26.01,13.05  c6.56,6.18,10.67,13.77,12.72,22.52C198.11,69.72,198.39,75.92,197.97,82.16z M156.51,77.11c0.09-0.26-0.04-0.51-0.11-0.77  c-0.22-0.85-0.4-1.71-0.35-2.6c0.04-0.81,0.38-1.03,1.18-0.89c0.54,0.09,1.1,0.1,1.65,0.14c0.62,0.05,0.91,0.41,1.03,1  c0.06,0.28,0.04,0.48-0.23,0.56c-0.63,0.19-0.72,0.63-0.73,1.21c-0.01,0.7-0.41,1.28-0.89,1.76c-0.31,0.32-0.44,0.66-0.43,1.1  c0.02,0.7,0.02,1.41-0.02,2.11c-0.03,0.62-0.19,0.75-0.73,0.74c-0.36-0.01-0.66-0.4-0.66-0.85  C156.49,79.45,156.13,78.25,156.51,77.11z M166.26,45.77c-0.07-0.78-0.37-1.48-0.7-2.16c-0.17-0.36-0.25-0.71-0.23-1.1  c0.03-0.55,0.11-0.62,0.63-0.53c0.2,0.03,0.4,0.08,0.6,0.1c0.82,0.08,1.59,0.85,1.56,1.69c-0.04,0.98,0.22,1.86,0.68,2.69  c0.27,0.5,0.39,0.54,0.9,0.34c0.36-0.15,0.7-0.55,1.13-0.23c0.41,0.3,0.26,0.8,0.33,1.22c0.12,0.65-0.26,1.13-0.55,1.63  c-0.09,0.16-0.26,0.22-0.43,0.27c-1.17,0.38-2.03,0.15-2.79-0.82c-0.25-0.32-0.51-0.45-0.9-0.39c-0.41,0.07-0.82,0.05-1.23,0.01  c-0.84-0.07-1.14-0.29-1.39-1.06c-0.16-0.5,0.17-0.91,0.7-0.83c0.59,0.09,1.06-0.25,1.57-0.43  C166.37,46.1,166.28,45.95,166.26,45.77z M175.56,64.46c0.2-0.33,0.33-0.68,0.41-1.06c0.05-0.25,0.19-0.41,0.48-0.41  c0.25,0,0.44,0.07,0.57,0.32c0.31,0.63,0.56,1.23,0.36,2c-0.22,0.86-0.11,1.8,0.4,2.53c0.58,0.83,0.13,1.48-0.11,2.2  c-0.07,0.22-0.26,0.21-0.44,0.18c-0.89-0.15-1.8,0.12-2.7-0.17c-0.34-0.11-0.75,0.05-1.13,0.06c-0.23,0.01-0.45,0.04-0.68-0.08  c-0.59-0.33-0.76-0.61-0.68-1.18c0.1-0.68,0.47-1.08,1.12-1.15c0.44-0.05,0.86-0.11,1.25-0.35c0.36-0.21,0.63-0.48,0.63-0.88  c-0.01-0.46,0.23-0.68,0.8-0.84C175.26,65.23,175.33,64.85,175.56,64.46z M173.76,59.15c-0.13,0.47-0.3,0.91-0.76,1.23  c-0.47,0.33-0.41,0.91-0.2,1.36c0.25,0.54,0.19,0.95-0.24,1.33c-0.4,0.35-0.42,0.95-0.87,1.29c-0.42,0.31-0.83,0.25-0.86-0.27  c-0.06-0.84-0.64-1.3-1.11-1.86c-0.1-0.12-0.19-0.22-0.17-0.38c0.1-0.66-0.04-1.34,0.15-2c0.14-0.5,0.33-0.66,0.88-0.63  c0.03,0.01,0.15,0.01,0.25,0.07c0.22,0.13,0.38,0.39,0.69,0.23c0.35-0.19,0.81-0.23,0.97-0.68c0.03-0.08,0.07-0.17,0.12-0.23  c0.2-0.23,1.09-0.52,1.19-0.38C174.03,58.53,173.84,58.86,173.76,59.15z M169.03,77.47c-0.45,0.21-0.92,0.39-1.36,0.44  c-0.59-0.01-1.6-0.7-1.8-1.2c-0.1-0.25,0.04-0.45,0.12-0.67c0.24-0.66,0.69-1.22,0.8-1.94c0.05-0.35,0.13-0.68,0.1-1.04  c-0.04-0.53,0.16-0.74,0.67-0.77c0.42-0.02,0.56,0.16,0.58,0.76c0.01,0.5,0.03,0.99,0.03,1.49c0,0.51,0.18,0.9,0.66,1.14  c0.16,0.08,0.31,0.18,0.43,0.3C169.84,76.52,169.74,77.14,169.03,77.47z M124.9,82.2c0.34,0.89-0.31,1.82-1.2,1.81  c-0.37-0.07-0.79-0.08-1.17-0.26c-1.25-0.6-2.53-0.66-3.84-0.2c-0.45,0.16-0.93,0.15-1.39,0.06c-0.41-0.08-0.77-0.23-1-0.64  c-0.26-0.48-0.76-0.72-1.18-1.03c-0.56-0.42-0.51-1.08,0.11-1.38c0.56-0.27,1.16-0.44,1.77-0.51c0.79-0.09,1.57-0.2,2.34-0.39  c0.62-0.15,1.17-0.04,1.63,0.39c0.71,0.67,1.43,0.54,2.14,0.06c0.38-0.25,0.78-0.39,1.22-0.45c0.74-0.1,1.14,0.39,0.87,1.1  c-0.04,0.11-0.1,0.21-0.18,0.3C124.75,81.42,124.73,81.75,124.9,82.2z"></path></g></svg>