<svg xmlns="http://www.w3.org/2000/svg" xmlns:xlink="http://www.w3.org/1999/xlink" id="Capa_1" x="0px" y="0px" viewBox="0 0 300 200" style="enable-background:new 0 0 300 200;" xml:space="preserve"><style type="text/css">	.st0{fill:none;}	.st1{fill:#878787;}</style><g>	<g>		<path class="st1" d="M146.58,17.89c-12.05,0-23.28,3.61-32.66,9.81l1.2,1.35c9.05-5.93,19.87-9.37,31.47-9.37   c31.77,0,57.62,25.85,57.62,57.62c0,14.54-5.42,27.85-14.34,38l1.14,1.41c9.32-10.49,14.99-24.3,14.99-39.41   C205.98,44.54,179.34,17.89,146.58,17.89z"></path>		<g>			<path class="st1" d="M146.58,134.92c-31.77,0-57.62-25.85-57.62-57.62c0-16.35,6.84-31.13,17.82-41.63l-1.17-1.35    C94.25,45.14,87.17,60.41,87.17,77.3c0,32.76,26.65,59.41,59.41,59.41c13.78,0,26.48-4.72,36.57-12.62l-1.16-1.36    C172.21,130.36,159.91,134.92,146.58,134.92z"></path>		</g>		<g>			<path class="st1" d="M81.35,147.6c1.88,0,3.43,0.6,4.66,1.81c1.23,1.21,1.84,2.74,1.84,4.59c0,1.85-0.61,3.38-1.84,4.59    c-1.23,1.21-2.78,1.81-4.66,1.81h-4.26v-12.8H81.35z M81.29,158.91c1.44,0,2.62-0.46,3.53-1.39c0.91-0.93,1.37-2.1,1.37-3.51    c0-0.94-0.21-1.78-0.62-2.52c-0.41-0.74-0.99-1.33-1.74-1.75c-0.74-0.42-1.59-0.63-2.54-0.63h-2.62v9.8H81.29z"></path>			<path class="st1" d="M98.96,160.41l-1.28-3.07h-6.15l-1.26,3.07h-1.7l5.23-12.8h1.5l5.4,12.8H98.96z M94.59,149.82l-2.45,6.05    h4.94L94.59,149.82z"></path>			<path class="st1" d="M110.21,160.41l-2.93-5.01h-2.93v5.01h-1.59v-12.8h4.85c1.21,0,2.2,0.37,2.99,1.11    c0.79,0.74,1.18,1.67,1.18,2.81c0,0.89-0.26,1.67-0.77,2.33c-0.51,0.66-1.2,1.12-2.05,1.36l3.05,5.19H110.21z M104.36,149.12    v4.76h3.18c0.77,0,1.4-0.22,1.88-0.67c0.49-0.44,0.73-1.02,0.73-1.71c0-0.7-0.24-1.26-0.73-1.71c-0.49-0.44-1.12-0.67-1.88-0.67    H104.36z"></path>			<path class="st1" d="M116.13,158.91h5.63v1.5h-7.22v-12.8h1.59V158.91z"></path>			<path class="st1" d="M125.5,158.87h5.85v1.54h-7.44v-12.8h7.24v1.52h-5.65v3.97h5.18v1.48h-5.18V158.87z"></path>			<path class="st1" d="M142.66,147.6h1.57v12.8h-1.35l-7.3-9.99v9.99h-1.55v-12.8h1.44l7.19,9.88V147.6z"></path>			<path class="st1" d="M147.72,160.41v-12.8h1.59v12.8H147.72z"></path>			<path class="st1" d="M161.77,160.41l-1.28-3.07h-6.15l-1.26,3.07h-1.7l5.23-12.8h1.5l5.4,12.8H161.77z M157.4,149.82l-2.45,6.05    h4.94L157.4,149.82z"></path>			<path class="st1" d="M171.41,158.91h5.63v1.5h-7.22v-12.8h1.59V158.91z"></path>			<path class="st1" d="M189.04,158.74c-1.27,1.26-2.87,1.88-4.8,1.88c-1.93,0-3.53-0.63-4.8-1.88c-1.27-1.26-1.9-2.83-1.9-4.73    c0-1.9,0.63-3.48,1.9-4.74c1.27-1.26,2.87-1.89,4.8-1.89c1.93,0,3.53,0.63,4.8,1.88c1.27,1.26,1.9,2.84,1.9,4.74    S190.31,157.49,189.04,158.74z M180.62,157.61c0.96,0.96,2.16,1.44,3.62,1.44c1.46,0,2.66-0.48,3.62-1.44    c0.96-0.96,1.44-2.16,1.44-3.61c0-1.45-0.48-2.66-1.44-3.61c-0.96-0.96-2.16-1.44-3.62-1.44c-1.46,0-2.66,0.48-3.62,1.44    c-0.96,0.96-1.44,2.16-1.44,3.6C179.18,155.44,179.66,156.64,180.62,157.61z M183.46,146.16l1.32-2.6h1.66l-1.77,2.6H183.46z"></path>			<path class="st1" d="M198.17,147.6c1.21,0,2.22,0.39,3.03,1.17c0.81,0.78,1.22,1.76,1.22,2.93c0,1.17-0.41,2.15-1.22,2.93    c-0.81,0.78-1.82,1.17-3.03,1.17h-3v4.61h-1.59v-12.8H198.17z M198.08,154.24c0.78,0,1.42-0.24,1.93-0.72    c0.51-0.48,0.76-1.09,0.76-1.82s-0.25-1.34-0.76-1.82c-0.51-0.48-1.15-0.72-1.93-0.72h-2.91v5.08H198.08z"></path>			<path class="st1" d="M206.33,158.87h5.85v1.54h-7.44v-12.8h7.24v1.52h-5.65v3.97h5.18v1.48h-5.18V158.87z"></path>			<path class="st1" d="M216.13,158.91h6.79v1.5h-9.35v-0.27l6.6-11.03h-6.31v-1.5h8.85v0.31L216.13,158.91z"></path>		</g>		<g>			<g>				<path class="st1" d="M106.94,177.44c-1.09,1.09-2.47,1.63-4.14,1.63c-1.67,0-3.05-0.55-4.14-1.64     c-1.09-1.09-1.63-2.46-1.63-4.09c0-1.65,0.54-3.03,1.63-4.12c1.09-1.09,2.47-1.64,4.14-1.64c1.67,0,3.05,0.55,4.14,1.64     c1.09,1.09,1.63,2.47,1.63,4.12C108.57,174.99,108.03,176.36,106.94,177.44z M102.81,178.28c0.94,0,1.79-0.21,2.55-0.64     c0.75-0.42,1.34-1.02,1.77-1.77c0.42-0.76,0.64-1.6,0.64-2.52c0-0.94-0.21-1.79-0.64-2.55c-0.42-0.75-1.01-1.34-1.77-1.77     c-0.75-0.43-1.6-0.64-2.55-0.64c-1.43,0-2.62,0.47-3.56,1.42c-0.94,0.94-1.41,2.13-1.41,3.55c0,1.41,0.47,2.59,1.41,3.52     C100.19,177.81,101.38,178.28,102.81,178.28z"></path>				<path class="st1" d="M118.23,167.27h0.78v11.63h-0.62l-0.11-1.8c-0.39,0.62-0.91,1.1-1.55,1.45c-0.64,0.35-1.36,0.53-2.16,0.53     c-1.26,0-2.31-0.43-3.14-1.28c-0.83-0.85-1.25-1.92-1.25-3.19c0-1.28,0.42-2.35,1.25-3.2c0.83-0.85,1.88-1.27,3.14-1.27     c0.78,0,1.49,0.17,2.12,0.51c0.63,0.34,1.14,0.81,1.54,1.4V167.27z M114.62,178.31c1.06,0,1.94-0.35,2.63-1.06     c0.69-0.71,1.03-1.59,1.03-2.65c0-1.07-0.34-1.96-1.03-2.66c-0.69-0.7-1.56-1.05-2.63-1.05c-0.68,0-1.3,0.16-1.86,0.48     c-0.56,0.32-1,0.76-1.31,1.33c-0.31,0.57-0.47,1.2-0.47,1.9c0,1.06,0.35,1.94,1.04,2.65     C112.71,177.96,113.58,178.31,114.62,178.31z"></path>				<path class="st1" d="M125.77,179.07c-1.28,0-2.35-0.42-3.21-1.27c-0.86-0.85-1.29-1.91-1.29-3.2c0-1.28,0.43-2.35,1.28-3.2     c0.85-0.85,1.93-1.27,3.21-1.27c1.29,0,2.36,0.42,3.21,1.27c0.85,0.85,1.28,1.91,1.28,3.2c0,1.28-0.43,2.35-1.28,3.2     C128.12,178.65,127.05,179.07,125.77,179.07z M125.77,178.31c0.7,0,1.33-0.16,1.89-0.48c0.56-0.32,1-0.76,1.32-1.33     c0.32-0.57,0.48-1.2,0.48-1.9c0-1.07-0.35-1.96-1.05-2.66c-0.7-0.7-1.58-1.05-2.64-1.05c-0.71,0-1.35,0.16-1.91,0.48     c-0.56,0.32-1,0.76-1.32,1.33c-0.32,0.57-0.48,1.2-0.48,1.9c0,1.06,0.35,1.94,1.05,2.65     C123.81,177.96,124.7,178.31,125.77,178.31z"></path>				<path class="st1" d="M136.53,170.13c1.02,0,1.83,0.34,2.43,1.01c0.6,0.67,0.91,1.56,0.91,2.65v5.11h-0.78v-4.95     c0-0.98-0.24-1.74-0.72-2.28c-0.48-0.55-1.15-0.82-2.01-0.82c-0.84,0-1.56,0.31-2.16,0.93c-0.6,0.62-0.9,1.36-0.9,2.22v4.9     h-0.78v-8.59h0.59l0.14,1.73c0.32-0.58,0.77-1.05,1.35-1.39C135.18,170.31,135.83,170.13,136.53,170.13z"></path>				<path class="st1" d="M145.82,178.17h0.94v0.73h-1.03c-0.84,0-1.5-0.24-1.98-0.73c-0.48-0.49-0.72-1.16-0.72-2v-5.14h-1.43v-0.18     l2.07-2.05h0.14v1.51h2.9v0.72h-2.9v5.12c0,0.65,0.18,1.15,0.53,1.5C144.67,177.99,145.17,178.17,145.82,178.17z"></path>				<path class="st1" d="M152.33,179.07c-1.28,0-2.35-0.42-3.21-1.27c-0.86-0.85-1.29-1.91-1.29-3.2c0-1.28,0.43-2.35,1.28-3.2     c0.85-0.85,1.93-1.27,3.21-1.27c1.29,0,2.36,0.42,3.21,1.27c0.85,0.85,1.28,1.91,1.28,3.2c0,1.28-0.43,2.35-1.28,3.2     C154.68,178.65,153.61,179.07,152.33,179.07z M152.33,178.31c0.7,0,1.33-0.16,1.89-0.48c0.56-0.32,1-0.76,1.32-1.33     c0.32-0.57,0.48-1.2,0.48-1.9c0-1.07-0.35-1.96-1.05-2.66c-0.7-0.7-1.58-1.05-2.64-1.05c-0.71,0-1.35,0.16-1.91,0.48     c-0.56,0.32-1,0.76-1.32,1.33c-0.32,0.57-0.48,1.2-0.48,1.9c0,1.06,0.35,1.94,1.05,2.65     C150.37,177.96,151.25,178.31,152.33,178.31z"></path>				<path class="st1" d="M159.07,178.9v-11.63h0.78v11.63H159.07z"></path>				<path class="st1" d="M166.61,179.07c-1.28,0-2.35-0.42-3.21-1.27c-0.86-0.85-1.29-1.91-1.29-3.2c0-1.28,0.43-2.35,1.28-3.2     c0.85-0.85,1.93-1.27,3.21-1.27c1.29,0,2.36,0.42,3.21,1.27c0.85,0.85,1.28,1.91,1.28,3.2c0,1.28-0.43,2.35-1.28,3.2     C168.97,178.65,167.9,179.07,166.61,179.07z M166.61,178.31c0.7,0,1.33-0.16,1.89-0.48c0.56-0.32,1-0.76,1.32-1.33     c0.32-0.57,0.48-1.2,0.48-1.9c0-1.07-0.35-1.96-1.05-2.66c-0.7-0.7-1.58-1.05-2.64-1.05c-0.71,0-1.35,0.16-1.91,0.48     c-0.56,0.32-1,0.76-1.32,1.33c-0.32,0.57-0.48,1.2-0.48,1.9c0,1.06,0.35,1.94,1.05,2.65     C164.66,177.96,165.54,178.31,166.61,178.31z"></path>				<path class="st1" d="M180.57,170.31h0.54v7.35c0,1.39-0.37,2.48-1.1,3.27c-0.73,0.79-1.73,1.19-3.01,1.19     c-0.99,0-1.82-0.24-2.49-0.72c-0.67-0.48-1.14-1.15-1.41-2h0.78c0.23,0.64,0.63,1.13,1.18,1.48c0.55,0.35,1.2,0.53,1.94,0.53     c1.03,0,1.84-0.32,2.44-0.97c0.6-0.65,0.9-1.54,0.9-2.69v-0.97c-0.24,0.37-0.54,0.69-0.89,0.97c-0.35,0.28-0.75,0.49-1.2,0.64     c-0.45,0.15-0.93,0.22-1.42,0.22c-1.19,0-2.19-0.4-2.99-1.21c-0.81-0.81-1.21-1.81-1.21-3.02c0-1.19,0.41-2.19,1.22-3.01     c0.81-0.82,1.81-1.23,2.98-1.23c0.77,0,1.48,0.18,2.11,0.54c0.63,0.36,1.13,0.85,1.5,1.46L180.57,170.31z M174.42,176.86     c0.66,0.66,1.49,0.99,2.49,0.99c1,0,1.82-0.33,2.47-0.99c0.65-0.66,0.97-1.49,0.97-2.49c0-1-0.33-1.84-0.98-2.5     c-0.65-0.66-1.47-0.99-2.46-0.99c-1,0-1.83,0.33-2.49,1c-0.66,0.67-0.99,1.5-0.99,2.49     C173.42,175.36,173.76,176.19,174.42,176.86z"></path>				<path class="st1" d="M184.12,178.9v-8.59h0.78v8.59H184.12z M184.13,169.26l0.88-2.42h0.83l-1.05,2.42H184.13z"></path>				<path class="st1" d="M195.41,170.31h0.64v8.59h-0.67l-0.08-1.86c-0.38,0.64-0.9,1.14-1.55,1.5c-0.65,0.36-1.38,0.54-2.19,0.54     c-1.26,0-2.31-0.43-3.15-1.28c-0.84-0.85-1.26-1.92-1.26-3.19c0-1.27,0.42-2.34,1.26-3.19c0.84-0.85,1.89-1.28,3.15-1.28     c0.81,0,1.54,0.18,2.19,0.55c0.65,0.37,1.17,0.87,1.55,1.5L195.41,170.31z M191.61,178.31c0.69,0,1.31-0.16,1.87-0.48     c0.56-0.32,0.99-0.76,1.3-1.33c0.31-0.57,0.47-1.2,0.47-1.9c0-1.07-0.34-1.96-1.03-2.66c-0.69-0.7-1.56-1.05-2.61-1.05     c-1.05,0-1.92,0.35-2.62,1.06c-0.69,0.71-1.04,1.59-1.04,2.65c0,1.06,0.35,1.94,1.04,2.65     C189.69,177.96,190.56,178.31,191.61,178.31z"></path>			</g>		</g>		<g>			<path class="st1" d="M186.33,76.66c0,9.41-3.02,17.51-8.36,23.66l-6.73-7.69c3.05-4.35,4.72-9.78,4.72-15.97    c0-16.28-11.51-27.27-29.46-27.27h-13.15l-7.91-9.03h21.68C170.46,40.36,186.33,55.09,186.33,76.66z"></path>		</g>		<g>			<path class="st1" d="M169.37,107.4c-6.14,3.58-13.69,5.56-22.25,5.56h-30.59V46.61l10.37,11.93v45.4h19.6    c6.37,0,11.93-1.38,16.46-3.91L169.37,107.4z"></path>		</g>	</g></g></svg>