<svg xmlns="http://www.w3.org/2000/svg" xmlns:xlink="http://www.w3.org/1999/xlink" id="Capa_1" x="0px" y="0px" viewBox="0 0 300 200" style="enable-background:new 0 0 300 200;" xml:space="preserve"><style type="text/css">	.st0{fill:none;}	.st1{fill:#878787;}</style><g>	<path class="st0" d="M47.84,135.17c0.42-0.42,1.38-0.73,2.49-0.95C49.22,134.44,48.25,134.75,47.84,135.17L47.84,135.17z"></path>	<path class="st0" d="M36.9,127.49c0.02-0.02,0.04-0.04,0.07-0.06c-0.4-0.01-0.78-0.02-1.13-0.04c-1.09-0.05-2.03-0.09-2.53,0.19  c-0.24,0.14-0.47,0.24-0.71,0.34c-0.64,0.28-1.19,0.53-1.66,1.39l-0.55-0.2c0.32-1.52-0.16-3.64-0.46-4.03  c-0.09-0.11-0.23-0.29-0.4-0.5c-0.38-0.46-0.89-1.06-1.26-1.63c-0.11,1.05-0.32,2.63-0.62,3.39c-0.39,0.99-0.1,3.16,0.85,4.36  l0.09,0.11l-0.67,2.7c0.48,0.08,0.97,0.14,1.47,0.19c0.13-0.74,0.33-1.5,0.63-1.68l0.08-0.05l0.09,0c1.27,0.06,3.34-0.62,3.97-1.3  c0.17-0.19,0.43-0.51,0.73-0.88c0.58-0.72,1.13-1.38,1.62-1.9l-0.03,0L36.9,127.49z"></path>	<path class="st0" d="M30.28,124.58c0.25-0.09,0.85-0.49,1.6-1.06l-0.12,0.02c-0.19-1.06-0.23-1.54-0.26-1.86  c-0.03-0.34-0.05-0.48-0.19-0.97c-0.23-0.77-0.66-1.4-1.06-1.86l-0.77-0.57c-0.12,0.21-0.3,0.54-0.46,0.97l0,0l-0.04,0.11  c-0.24,0.65-0.37,1.36-0.41,2.1l-0.01,0.23c0,0.15-0.01,0.31,0,0.47l0.01,0.15c0.34,0.6,1.02,1.41,1.42,1.9  C30.09,124.35,30.19,124.47,30.28,124.58z"></path>	<path class="st0" d="M37.2,128.03c-0.61,0.61-1.36,1.52-1.87,2.16c-0.31,0.38-0.57,0.71-0.75,0.9c-0.72,0.78-2.84,1.53-4.3,1.5  c-0.08,0.16-0.21,0.64-0.31,1.18c0.5,0.04,1,0.06,1.51,0.06h6.7c0.36-0.49,1.61-2.25,1.75-3.54  C40.11,128.68,37.93,128.16,37.2,128.03z"></path>	<path class="st0" d="M33.66,117.59L33.66,117.59c0.04-1.06-0.84-2.87-0.95-3.08l-0.27-0.27c-0.64,1.03-1.78,3.03-1.95,4  c0.42,0.44,0.9,1.08,1.22,1.89C32.28,119.29,32.99,118.31,33.66,117.59z"></path>	<path class="st0" d="M39.11,127.1L39.11,127.1L39.11,127.1l-1.1,0.32c0,0,0,0,0,0c-0.06,0.02-0.13,0.06-0.21,0.11  c-0.01,0-0.01,0.01-0.02,0.01c1.53,0.37,2.91,1.26,2.74,2.83c-0.13,1.21-1.07,2.7-1.61,3.47h1.55c0.43-0.52,2.02-2.67,1.09-4.86  c-0.88-2.06-3.02-2.82-3.83-3.05c-0.13,0.25-0.27,0.5-0.41,0.74c0,0,0,0,0,0.01L39.11,127.1z"></path>	<path class="st0" d="M46.92,64.25H14.85v57.09c0,4.89,4.92,10.5,12.46,12.07l0.61-2.44c-0.92-1.28-1.33-3.58-0.84-4.83  c0.42-1.09,0.68-4.21,0.68-4.25l0.01-0.16l-0.04-0.06c-0.59-0.9-1.11-2.19-1.61-4.01c-1.19,1.84-2.1,3.02-2.49,3.5  c-0.67,0.84-3.38,3.5-4.64,3.5c-0.03,0-0.06,0-0.1-0.01c-0.25-0.03-0.45-0.17-0.55-0.4c-0.49-1.05,1.08-2.79,2.74-4.63  c0.39-0.44,0.78-0.87,1.13-1.27c0.85-0.99,2-2.67,3.04-4.25c-0.02-0.08-0.04-0.17-0.06-0.24c-1-0.34-1.72-0.53-2.26-0.66  c-1.2-0.31-1.65-0.43-2.45-1.52c-0.39-0.54-0.78-1.17-1.15-1.77c-0.55-0.89-1.23-1.99-1.55-2.08l0.11-0.59l0.43,0.06  c-0.28-1.13-1.01-4.26-1.22-6.88c-0.01-0.03-0.02-0.07-0.03-0.1l0.02,0c-0.04-0.5-0.06-0.97-0.05-1.41  c0.06-3.28,0.11-6.73,0.11-6.73l0.01-0.55l1.28,0.87c0.04-0.7,0.15-1.87,0.42-2.35c0.38-0.71,0.64-1.94,0.47-2.21  c-0.01-0.01-0.02-0.03-0.04-0.04l0.44-0.4c0.02,0.02,0.04,0.04,0.06,0.07c0.3,0.35,0.61,0.69,0.91,1.01  c0.79,0.86,1.54,1.68,1.9,2.59c0.42-0.35,0.96-0.86,0.97-0.87l0.52-0.49l-0.02,0.71c-0.02,1.01-0.04,2.7,0,2.94  c0.05,0.27,0.42,1.27,0.67,1.68c0.16-0.38,0.25-0.72,0.29-0.84c0,0,0-0.01,0-0.01c0.01-0.03,0.01-0.05,0.01-0.05l0,0l0.06-0.26  l0.26,0.03c0.2,0.02,0.85,0.23,0.85,2.08c0,1.63,0.38,2.28,0.76,2.62c0.62-0.37,0.87-0.48,0.9-0.49L28.44,98l-0.17,0.59  c-0.01,0.03-0.86,3.01-0.06,5.22c0.1-0.05,0.22-0.11,0.32-0.17l0.46-0.26l-0.02,0.53c0,0.03-0.1,2.59-0.01,3.85  c0.43-1.04,0.79-2.05,0.93-2.55c0.14-0.48,0.43-0.84,0.86-1.04c0.57-0.27,1.33-0.23,2.12,0.12c0.83,0.36,1.1,1.26,1.52,2.62  c0.26,0.85,0.58,1.9,1.13,3.11l0.06,0.14l-0.13,0.22l0.21,0.49c-0.14-2.4-0.7-6.87-0.71-6.92c-0.16-1.17-0.45-1.78-0.78-2.49  c-0.14-0.3-0.28-0.61-0.42-0.97c-0.19-0.49-1.12-1.42-2.02-2.32c-1.16-1.16-2.26-2.26-2.45-3c-0.25-0.99-0.31-3.51-0.32-4.28  c-0.58-0.2-2.04-0.92-2.35-3.08c-0.14-1-0.18-1.94-0.22-2.78c-0.05-1.06-0.09-2.05-0.35-2.3l-0.11-0.11l0.02-0.15  c0.16-1.14,0.26-4.41,0.01-5.24l-0.1-0.34l0.35-0.04c0.06-0.01,0.11,0,0.16,0l0.02-0.1c0.03,0,0.05,0.01,0.08,0.03  c0.17-1.56,0.27-3.61,0.03-4.02l-0.43-0.75l0.8,0.32c0.1,0.04,0.2,0.09,0.3,0.14l0.01-0.02c0.02,0.02,0.06,0.05,0.08,0.07  c0.24,0.13,0.45,0.27,0.59,0.38c0.23-0.2,0.63-0.62,0.72-1.24c0.15-0.96-0.25-1.99-0.46-2.14c-0.21-0.14-0.26-0.29-0.17-0.45  c0.14-0.24,0.39-0.12,0.48-0.08c0.15,0.07,0.56,0.26,0.9,0.32l0-0.03c0.06,0.01,0.12,0.03,0.19,0.05c0.4-0.01,0.96-0.87,1.06-1.47  c0.12-0.68,0.01-1.68-0.12-1.83c-0.18-0.13-0.13-0.32-0.12-0.35l0.07-0.21l0.23,0.01c0.37,0.02,2.27,1.22,3.2,4.32  c0.12,0,0.22,0.06,0.27,0.1c0.03,0.02,0.04,0.03,0.06,0.03c0.03,0,0.05,0,0.06-0.01c0.01-0.01,0.11-0.1,0.19-0.75  c0.03-0.22,0.09-0.67,0.46-0.62c0.67,0.08,0.74,3.49,0.69,4.11c0,0.01,0,0.03,0,0.04l0.38,0.02c0.01,0.15,0.22,3.42-0.05,5.35  c0.15-0.06,0.25-0.09,0.26-0.09l0.34-0.1l0.05,0.35c0.02,0.13,0.39,3.05-0.15,5.32c0.34,0.05,0.52,0.07,0.52,0.07l0.63,0.08  l-0.46,0.43c-0.31,0.29-1.17,1.17-1.38,1.73c-0.05,0.14-0.08,0.37-0.11,0.64c-0.12,0.97-0.29,2.45-1.95,3.68  c-1.33,1-2.14,1.24-2.58,1.27v1.16l0.11,1.7c0,0,0.34,1.33,2.25,2.74c0.04,0.03,0.08,0.06,0.11,0.09c0.63-1.01,3.28-5.24,4.56-7.41  c1.26-2.14,3.22-4.45,4.62-3.95c1.41,0.5,1.06,6.72,0.93,7.47c-0.23,1.34-0.79,10.01-0.23,11.69c0.56,1.69,1.15,3.4,1.73,4.27  c0.46,0.7,0.86,1.81,0.68,2.37c-0.07,0.22-0.2,0.31-0.31,0.35c-0.05,0.02-0.11,0.03-0.18,0.03c-0.76,0-2.52-1.23-3-2.32  c-0.51-1.17-1.9-4.6-1.92-4.64l-0.02-0.08c-0.3-3.3-0.11-10.51,0.28-13.61c-1.4,1.97-4.13,6.3-4.24,9.48l-0.02,0.5  c0.27,0.72,0.52,1.56,0.74,2.56c0.45,2.01,0.54,3.78,0.5,5.13c0.24-0.33,0.45-0.63,0.62-0.84l0.32-0.43l0.19,0.5  c0.37,0.96,0.65,3.53,0.75,4.53c0.22-0.11,0.53-0.32,0.85-0.67l0.42-0.46l0.1,0.62c0.12,0.75-0.23,3.06-0.35,3.82l0.56,0.28  l-0.29,0.29c-0.27,0.27-0.75,1.75-1.14,2.93c-0.25,0.76-0.51,1.55-0.74,2.14c-0.01,1.15-0.34,2.43-0.93,3.73  c0.95,0.28,3.17,1.14,4.11,3.35c0.92,2.15-0.22,4.18-0.89,5.11c1.94,0.07,4.92,0.49,5.75,1.32v-0.3L46.92,64.25z"></path>	<path class="st0" d="M32.66,79.14l0.56-0.2l-0.18,0.57c0,0.01-0.34,1.11-0.31,2.09c0,0.07,0.02,0.14,0.03,0.21  c0.43-0.29,0.92-0.86,1.36-1.48L34,80.4c-1.06-2.29-2.44-4.88-2.83-5.08c-0.5,0.12-2.17,3.41-2.4,4.33l-0.08-0.02  c0.54,0.73,1.09,1.43,1.44,1.73C31.34,79.63,32.58,79.17,32.66,79.14z"></path>	<path class="st0" d="M31.03,70.74c-0.38,0.41-0.55,0.85-0.55,2.11c0,1.1-0.01,1.85-0.07,2.42c0.19-0.22,0.36-0.39,0.52-0.47  c0.21-0.11,0.38-0.08,0.48-0.04c0.24,0.1,0.59,0.57,0.98,1.19c0.17-0.33,0.48-0.76,0.83-1.19c-0.18-0.45-0.51-0.93-0.86-1.43  C31.82,72.57,31.22,71.71,31.03,70.74z"></path>	<path class="st0" d="M34.62,116.77l-0.06,0.01c-0.18-2.23,1.29-4.12,2.08-4.59c0.25-0.15,0.46-0.17,0.62-0.07  c0.08,0.05,0.21,0.18,0.19,0.45c-0.04,0.34,0.07,1.07,0.19,1.87l1.33-1.41c-0.05-0.57-0.27-2.81-0.57-4.07  c-0.42,0.58-0.98,1.36-1.44,2.02c-0.03,0.05-0.07,0.09-0.1,0.14c-0.04,0.05-0.07,0.1-0.11,0.15c-0.21,0.29-0.38,0.55-0.5,0.72  l-0.42,0.6l-0.06,0.08l0,0l-0.07,0.1v-0.26l-0.61-1.43c-0.48,0.88-1.41,2.56-1.79,3.27c0.2,0.41,0.77,1.67,0.92,2.71  C34.36,116.94,34.49,116.84,34.62,116.77z"></path>	<polygon class="st0" points="47.84,122.72 47.85,116.76 47.85,110.86 47.85,104.9 47.85,99.01 47.86,93.05 47.86,87.16 47.86,81.2   47.87,75.31 47.87,69.34 47.87,64.25 47.87,64.25 47.84,134.87 47.84,128.61  "></polygon>	<path class="st0" d="M36.84,112.75c-0.56,0.42-1.76,1.98-1.68,3.83c0.05,0,0.1,0,0.15,0.02c0.5,0.16,0.88,0.57,1.11,1.69  c0.31-0.28,0.63-0.55,0.96-0.79c-0.02-0.79-0.17-1.81-0.31-2.73C36.95,113.95,36.84,113.23,36.84,112.75z"></path>	<path class="st0" d="M29.33,117.42l0.62,0.46c0.4-1.48,1.98-3.97,2.18-4.28l0.2-0.31l0.55,0.55c0.09-0.16,0.19-0.35,0.31-0.56  l-0.01-0.04c0-0.01-0.3-1.33-1.16-3.48c-0.36-0.89-0.52-1.01-0.56-1.03c-0.15,0.04-0.56,0.72-0.93,1.32  c-0.18,0.3-0.39,0.64-0.62,1.01c-0.81,1.6-1.6,3.01-2.33,4.25c0.35,1.21,0.76,2.36,1.09,3.18c0.24-0.5,0.46-0.8,0.48-0.83  L29.33,117.42z"></path>	<path class="st0" d="M30.02,109.73c0.66-1.09,1-1.64,1.49-1.6c0.44,0.04,0.72,0.54,1.06,1.4c0.51,1.28,0.83,2.26,1.01,2.87  l1.33-2.26c-0.53-1.19-0.84-2.22-1.09-3.04c-0.37-1.2-0.61-1.99-1.19-2.25c-0.37-0.16-0.72-0.24-1.04-0.24  c-0.22,0-0.42,0.04-0.59,0.12c-0.27,0.13-0.45,0.35-0.54,0.67c-0.29,1.01-1.2,3.44-2.03,4.89c-0.09,0.17-0.18,0.31-0.27,0.44  c-0.01,0.01-0.02,0.03-0.03,0.05c-0.09,0.14-0.2,0.31-0.33,0.51c-0.13,0.2-0.27,0.42-0.43,0.66c-0.12,0.18-0.24,0.38-0.37,0.58  c-0.08,0.13-0.16,0.25-0.25,0.38c-0.1,0.16-0.21,0.32-0.31,0.49c-0.06,0.09-0.12,0.18-0.18,0.27c-0.14,0.21-0.28,0.43-0.43,0.65  l-0.38,0.58l0-0.01c-0.97,1.45-1.99,2.92-2.78,3.84c-0.35,0.41-0.74,0.85-1.14,1.29c-1.25,1.39-2.96,3.29-2.64,3.98  c0.02,0.04,0.03,0.05,0.08,0.06c0.77,0.1,3.28-2.14,4.19-3.28c0.41-0.51,1.42-1.82,2.75-3.9l0,0l0.07-0.11  c0.32-0.51,0.66-1.06,1.01-1.66l0.16-0.27c0.7-1.19,1.45-2.55,2.23-4.08C29.64,110.37,29.84,110.03,30.02,109.73z"></path>	<path class="st0" d="M35.01,120.97l-0.16,3.18c0.39-0.31,0.8-0.63,1.24-0.94c0.09-5.03-0.44-5.87-0.96-6.03  c-0.35-0.02-1.65,1.35-3.17,3.66c0.09,0.33,0.1,0.51,0.13,0.78c0.03,0.28,0.07,0.71,0.22,1.57c0.7-0.54,1.47-1.16,2.18-1.77  L35.01,120.97z"></path>	<path class="st0" d="M26.56,116.98c0.45,1.74,0.92,3.05,1.43,3.96c0.07-0.64,0.2-1.21,0.36-1.68c-0.33-0.73-0.78-1.94-1.19-3.26  C26.96,116.34,26.76,116.67,26.56,116.98z"></path>	<path class="st0" d="M34.83,124.93l-0.02-0.02l-0.1,1.86c0.35,0,0.73,0.01,1.15,0.03c0.21,0.01,0.44,0.02,0.66,0.03l0.06-0.1  c0,0,0-0.01,0.01-0.01c0.24-0.38,0.46-0.78,0.67-1.2c0.54-1.1,0.89-2.2,1.01-3.2c-0.38,0.31-0.87,0.66-1.41,1.05  C36.15,123.89,35.41,124.42,34.83,124.93z"></path>	<path class="st0" d="M30.58,125.07c0.29,0.67,0.52,1.91,0.5,3.08c0.41-0.38,0.85-0.58,1.28-0.77c0.22-0.1,0.43-0.19,0.65-0.32  c0.3-0.17,0.68-0.25,1.11-0.28l0.23-4.47C33.1,123.36,31.44,124.66,30.58,125.07z"></path>	<path class="st0" d="M36.52,118.87c0.13,0.9,0.18,2.16,0.16,3.9c0.72-0.52,1.37-1,1.68-1.33c0.23-0.57,0.48-1.35,0.73-2.1  c0.38-1.17,0.68-2.02,0.93-2.57c-0.96,0.26-2.34,1.11-3.44,2.18L36.52,118.87z"></path>	<path class="st0" d="M76.51,128.64c-0.49,0.49-1.02,0.96-1.6,1.41c-0.34,0.26-0.69,0.51-1.06,0.76c3.81-2.5,6.08-6.15,6.08-9.47v0  c0,0.44-0.05,0.89-0.13,1.35C79.45,124.73,78.3,126.82,76.51,128.64z"></path>	<path class="st0" d="M37.96,117.09c0.7-0.45,1.38-0.76,1.95-0.91l0.01-0.05c0.11-0.67,0.34-2.26,0.39-3.23  c-0.4,0.31-0.73,0.43-0.89,0.48l-1.69,1.79C37.84,115.83,37.92,116.5,37.96,117.09z"></path>	<path class="st0" d="M24.82,104.68c0.6,0.5,1.14,0.91,1.43,1.11c0.38-0.6,0.87-1.12,1.49-1.5l0-0.02  c-0.75-1.76-0.46-3.96-0.22-5.09C26.1,100.06,25.17,101.96,24.82,104.68z"></path>	<path class="st0" d="M21.21,97l-0.08-0.24l0.22-0.16c0.18-0.1,0.28-0.15,1.36,1.09c0.2-0.92,0.04-2.37-0.85-3.42  c-0.39-0.46-0.66-0.88-0.84-1.23c-0.11,0.42-0.26,0.87-0.49,1.24c-0.48,0.79-1.09,2.37-0.69,3.28l0,0c0.15,0.1,0.3,0.19,0.44,0.28  c0.34,0.21,0.62,0.39,0.83,0.56C21.34,97.63,21.28,97.21,21.21,97z"></path>	<path class="st0" d="M28.37,108.02c-0.08-0.85-0.05-2.48-0.02-3.42c-2.52,1.22-2.79,5.02-2.79,6.61L25,111.36  c-0.77-1.4-3.51-3.03-6.19-3.36c0.3,0.4,0.64,0.93,1.05,1.6c0.37,0.6,0.75,1.22,1.13,1.73c0.67,0.92,0.95,0.99,2.12,1.29  c0.57,0.15,1.35,0.35,2.45,0.73l0.16,0.08c0.42-0.65,0.82-1.26,1.15-1.77c0,0,0-0.01,0.01-0.01c0-0.01,0.01-0.01,0.01-0.02  c0.01-0.02,0.03-0.04,0.04-0.06c0.17-0.26,0.31-0.49,0.44-0.69c0.11-0.16,0.21-0.32,0.28-0.43c0.01-0.01,0.01-0.02,0.02-0.03  c0.09-0.14,0.18-0.29,0.28-0.46c0.03-0.06,0.07-0.13,0.11-0.2c0.04-0.07,0.07-0.14,0.11-0.22  C28.32,108.96,28.41,108.39,28.37,108.02z"></path>	<path class="st0" d="M22.33,101.65c0.21,0.8,1.08,1.75,1.96,2.56c0.16-1.07,0.41-2,0.74-2.8c-1.01-1.23-2.41-2.9-3.17-3.75  c-0.04,0.5-0.2,1.09-0.49,1.77c-0.07,0.17-0.15,0.35-0.23,0.52c-0.4,0.89-0.78,1.73-0.7,3.18c0.41,0.33,0.83,0.66,1.23,0.96  c0.03-0.9,0.06-1.76,0.06-2.35L22.33,101.65z"></path>	<path class="st0" d="M32.13,81.62c-0.02-0.58,0.07-1.17,0.17-1.61c-0.74,0.49-2.06,1.67-2.92,4.21l-0.01,0  c0.61,0.8,1.19,1.84,1.61,3.19c0.83-1.19,1.58-2.04,2.33-2.64c-0.09-0.39-0.3-0.8-0.52-1.23C32.48,82.93,32.15,82.29,32.13,81.62z"></path>	<path class="st0" d="M23.56,98.7c0.46,0.55,1.04,1.24,1.75,2.11c0.35-0.67,0.77-1.22,1.26-1.66c-0.65-0.6-0.95-1.56-0.95-3.05  c0-0.57-0.07-0.93-0.14-1.15c-0.08,0.26-0.16,0.44-0.24,0.57c-0.14,0.32-0.33,0.67-0.56,0.98C24.03,97.34,23.57,98,23.56,98.7z"></path>	<path class="st0" d="M21.83,93.25c0.13,0.2,0.28,0.41,0.48,0.64c0.89,1.04,1.14,2.4,1.05,3.45c0.23-0.42,0.54-0.82,0.84-1.21  c0.1-0.13,0.19-0.27,0.27-0.42c-0.53-0.51-0.97-2.14-0.98-2.16c-0.04-0.26-0.03-1.51-0.02-2.35c-0.22,0.2-0.46,0.4-0.66,0.56  c-0.36,0.58-0.74,1.3-0.75,1.48L21.83,93.25z"></path>	<path class="st0" d="M19.84,102.61c0.03-1.28,0.4-2.11,0.76-2.92c0.07-0.17,0.15-0.33,0.22-0.5c0.03-0.06,0.04-0.11,0.07-0.17  c-0.18-0.18-0.57-0.43-0.94-0.67c-0.76-0.48-1.69-1.09-2.26-1.85c-0.01,0.78-0.03,1.6-0.04,2.42c-0.01,0.44,0.01,0.92,0.05,1.42  C17.86,100.81,18.77,101.7,19.84,102.61z"></path>	<path class="st0" d="M19.13,97.07c-0.06-0.9,0.28-1.91,0.63-2.61l-0.85-0.93l-1.16-0.79c-0.01,0.53-0.02,1.41-0.04,2.46l0.06,0  C17.82,95.92,18.43,96.54,19.13,97.07z"></path>	<path class="st0" d="M20.63,91.78l0.6,0.03c0,0,0.02,0.39,0.35,1.02c0.14-0.36,0.39-0.8,0.58-1.13c-0.25-0.93-1.04-1.8-1.89-2.72  c-0.1-0.11-0.2-0.22-0.31-0.34c-0.09,0.72-0.41,1.51-0.57,1.79c-0.2,0.37-0.32,1.54-0.36,2.35l1.02,1.12  C20.51,93.08,20.63,91.79,20.63,91.78z"></path>	<path class="st0" d="M22.31,102.93c-0.06,1.93-0.18,4.67-0.21,5.41c1.2,0.55,2.23,1.27,2.89,2c0.07-1.14,0.31-2.69,0.97-4.02  C25.35,105.89,23.34,104.4,22.31,102.93z"></path>	<path class="st0" d="M32.62,72.67c0.07,0.11,0.15,0.22,0.22,0.33c0.3,0.44,0.59,0.85,0.8,1.27c0.47-0.54,0.97-1.03,1.34-1.33  c-0.01-0.08-0.02-0.16-0.03-0.24l0-0.04l0-0.04c0.08-0.64-0.01-1.77-0.12-2.59c-0.11,0.28-0.26,0.42-0.5,0.47l0,0.02  c-0.08,0.02-0.16,0.02-0.22,0.01c-0.07,0-0.13,0.02-0.18,0.05C33.77,71.13,33.33,72.36,32.62,72.67z"></path>	<path class="st0" d="M29.88,72.85c0-1.06,0.13-1.64,0.38-2.07l-0.03,0c-0.05-0.16-0.55-0.71-0.88-0.86  c-0.13-0.01-0.26-0.02-0.4-0.06c0.2,0.56,0.29,1.29,0.19,1.91c-0.14,0.89-0.74,1.45-1.01,1.67c0.58,0.68,1.22,1.55,1.6,2.22  C29.86,75.09,29.88,74.28,29.88,72.85z"></path>	<path class="st0" d="M30.63,70.3c0.11-0.12,0.23-0.23,0.36-0.35l0.56-0.52v0.68c0,0.72,0.31,1.39,0.72,2.04  c0.36,0.01,0.82-0.86,1.09-1.76c-0.55-2.17-1.55-3.33-2.2-3.88c0.07,0.54,0.04,1.15-0.02,1.47c-0.09,0.51-0.48,1.35-1.04,1.75  C30.32,69.9,30.5,70.11,30.63,70.3z"></path>	<path class="st0" d="M32.82,76.46l-0.15-0.02c0.67,1.17,1.38,2.65,1.76,3.46c0.34-0.53,0.63-1.05,0.77-1.41  c0.3-1.21,0.24-3.67,0.19-4.93c-0.05-0.01-0.09-0.04-0.13-0.07C34.33,74.26,32.87,76.06,32.82,76.46z"></path>	<path class="st0" d="M32.92,82.41c0.11,0.29,0.26,0.58,0.41,0.86c0.19,0.37,0.37,0.75,0.5,1.14c0.6-0.38,1.21-0.61,1.88-0.71  c0.51-1.74,0.35-4.12,0.26-5.03c-0.08,0.03-0.17,0.08-0.26,0.12C35.31,79.77,34.03,81.77,32.92,82.41z"></path>	<path class="st0" d="M28.36,104.41c-0.01,0.01-0.02,0.01-0.04,0.02l0.03,0.07C28.35,104.47,28.36,104.44,28.36,104.41z"></path>	<path class="st0" d="M35.57,99.28c0.1,0.19,0.21,0.39,0.33,0.6c0.63-4.13,4.49-9.34,5.07-9.99l0.5,0.31  c-0.47,1.15-0.86,10.47-0.5,14.59c0.16,0.39,1.41,3.49,1.89,4.58c0.43,0.99,1.94,1.89,2.38,1.96c0.05-0.26-0.14-1.1-0.62-1.82  c-0.61-0.92-1.2-2.61-1.8-4.41c-0.63-1.87,0.01-10.84,0.21-11.98c0.47-2.62-0.11-6.65-0.54-6.8c-0.7-0.25-2.3,0.96-3.91,3.69  c-1.3,2.2-3.99,6.5-4.59,7.46c0.16,0.17,0.45,0.45,0.75,0.67C35.09,98.4,35.31,98.79,35.57,99.28z"></path>	<path class="st0" d="M36.56,103.96c-0.96-4.25-2.26-5.5-3.52-6.43c-2.13-1.57-2.47-3.07-2.48-3.14l-0.12-1.77l0-2.01l0.44,0.23  c0,0,0.02,0,0.08,0c0.21,0,0.9-0.1,2.31-1.15c1.45-1.08,1.6-2.35,1.71-3.28c0.04-0.31,0.07-0.57,0.14-0.78  c0.17-0.46,0.62-1,0.99-1.4c-1.57,0.11-2.92,0.94-4.97,4.03l-0.37,0.55l-0.17-0.64c-0.98-3.64-2.83-4.99-3.87-5.36  c0.17,0.51,0.21,1.26,0.25,2.2c0.04,0.82,0.08,1.75,0.22,2.72c0.32,2.24,2.1,2.65,2.12,2.65l0.23,0.05l0,0.24  c0,0.03,0.03,3.28,0.31,4.36c0.15,0.58,1.29,1.72,2.29,2.72c1.03,1.03,1.93,1.92,2.16,2.53c0.13,0.35,0.27,0.64,0.41,0.93  c0.34,0.72,0.66,1.4,0.83,2.66c0.03,0.22,0.58,4.62,0.72,7.02c0.17-0.24,0.35-0.5,0.55-0.78c0.06-0.09,0.13-0.18,0.19-0.27  C37.11,108.5,37.12,106.4,36.56,103.96z"></path>	<path class="st0" d="M28.33,79.12c0.23-0.61,0.72-1.67,1.24-2.59l-0.07,0c-0.03-0.36-1.42-2.37-2.32-3.26  c0.12,1.3-0.12,3.52-0.19,4.05c0.23,0.29,0.54,0.71,1,1.35C28.1,78.81,28.21,78.96,28.33,79.12z"></path>	<path class="st0" d="M28.94,83.71c0.27-0.72,0.56-1.33,0.87-1.85c-0.53-0.42-1.3-1.46-2.3-2.85c-0.29-0.4-0.62-0.85-0.88-1.19  c0.11,1.23,0.04,3.25-0.06,4.34C27.24,82.31,28.1,82.79,28.94,83.71z"></path>	<path class="st0" d="M74.88,69.34h-5.71v-5.1h-5.78v5.1h-5.72v-5.1h-5.78v5.1h-4.01l0,5.96h4.02v5.89h-4.02l0,5.96h4.02v5.89h-4.03  l0,5.96h4.03v5.89h-4.03l0,5.96h4.03v5.89h-4.04l0,5.96h4.04v5.89h-4.04l0,6.26v0.3c0.42-0.42,1.38-0.73,2.49-0.95  c0.52-0.1,1.06-0.18,1.59-0.24v-5.34h5.72v5.2h5.68c0.03,0,0.07,0,0.1,0v-5.19h5.72v4.34c1.76-0.53,3.34-1.28,4.73-2.18  c0.37-0.24,0.72-0.49,1.06-0.76v-1.41h1.6c1.79-1.82,2.94-3.91,3.3-5.96h-4.89v-5.89h5.03v-5.96h-5.03v-5.89h5.03v-5.96h-5.03  v-5.89h5.03v-5.96h-5.03v-5.89h5.03v-5.96h-5.03v-5.89h5.03v-5.13h-5.06V69.34z M57.63,122.68h-5.72v-5.89h5.72V122.68z   M57.63,110.83h-5.72v-5.89h5.72V110.83z M57.63,98.98h-5.72v-5.89h5.72V98.98z M57.63,87.13h-5.72v-5.89h5.72V87.13z M57.63,75.27  h-5.72v-5.89h5.72V75.27z M63.38,128.61h-5.72v-5.89h5.72V128.61z M63.38,116.76h-5.72v-5.89h5.72V116.76z M63.38,104.9h-5.72  v-5.89h5.72V104.9z M63.38,93.05h-5.72v-5.89h5.72V93.05z M63.38,81.2h-5.72v-5.89h5.72V81.2z M69.13,122.68h-5.72v-5.89h5.72  V122.68z M69.13,110.83h-5.72v-5.89h5.72V110.83z M69.13,98.98h-5.72v-5.89h5.72V98.98z M69.13,87.13h-5.72v-5.89h5.72V87.13z   M69.13,75.27h-5.72v-5.89h5.72V75.27z M74.88,128.61h-5.71v-5.89h5.71V128.61z M74.88,116.76h-5.71v-5.89h5.71V116.76z   M74.88,104.9h-5.71v-5.89h5.71V104.9z M74.88,93.05h-5.71v-5.89h5.71V93.05z M74.88,81.2h-5.71v-5.89h5.71V81.2z"></path>	<polygon class="st0" points="113.94,122 113.94,122 128.92,122 128.92,121.04 128.92,121.04 128.92,122  "></polygon>	<path class="st0" d="M132.43,73.24c-1.33-1.35-2.89-1.53-4.58-1.53c-0.27,0-0.72,0.05-0.85,0.1c-0.13,0.05-0.18,0.11-0.18,0.27  v4.56c0,1.45,0,2.72,0.02,2.97c0.02,0.34,0.05,0.84,0.16,0.98c0.18,0.26,0.67,0.55,2.35,0.55c1.3,0,2.46-0.43,3.31-1.24  c0.74-0.69,1.11-1.99,1.11-3.25C133.76,74.92,133.01,73.81,132.43,73.24z"></path>	<rect x="204.43" y="122" class="st0" width="12.17" height="0"></rect>	<rect x="128.92" y="87.04" class="st0" width="0" height="0.95"></rect>	<path class="st0" d="M21.65,104.8c-0.66-0.49-2.7-2.01-3.82-3.26c0.32,2.53,0.98,5.22,1.15,5.88c0.87,0.12,1.72,0.36,2.53,0.69  C21.54,107.45,21.6,106.13,21.65,104.8z"></path>	<polygon class="st0" points="234.54,122 234.54,122 249.39,122 249.39,121.04 249.39,121.04 249.39,122  "></polygon>	<path class="st0" d="M170.15,81.16c1.27,0,3.82-0.67,3.82-4.63c0-3.28-1.99-5-4.23-5c-2.36,0-4.07,1.48-4.07,4.45  C165.68,79.17,167.59,81.16,170.15,81.16z"></path>	<polygon class="st0" points="109.79,113.08 109.79,113.08 109.79,113.07  "></polygon>	<polygon class="st0" points="165.84,122 165.84,122 165.84,122 165.84,122 165.89,122 165.89,122  "></polygon>	<rect x="165.89" y="122" class="st0" width="10.96" height="0"></rect>	<rect x="225.16" y="122" class="st0" width="0.85" height="0"></rect>	<path class="st0" d="M152.58,96.37c0-2.18-0.68-3.96-2.05-5.32c-1.37-1.37-3.18-2.05-5.43-2.05c-1,0-2.35,0.16-4.05,0.49v14.54  c0.33,0,0.61,0,0.85,0.01c0.24,0.01,0.44,0.01,0.59,0.01c3.33,0,5.85-0.72,7.54-2.17C151.74,100.44,152.58,98.61,152.58,96.37z"></path>	<rect x="131.11" y="122" class="st0" width="14.98" height="0"></rect>			<rect x="156.55" y="122" transform="matrix(0.8192 -0.5735 0.5735 0.8192 -40.8217 114.4925)" class="st0" width="9.28" height="0"></rect>	<rect x="189.17" y="122" class="st0" width="13.79" height="0"></rect>	<polygon class="st0" points="176.84,108.38 188.86,108.38 182.93,94.26  "></polygon>	<rect x="249.88" y="122" class="st0" width="11.01" height="0"></rect>	<polygon class="st0" points="260.88,108.38 272.9,108.38 266.97,94.26  "></polygon>	<path class="st0" d="M142.12,77.17c0.06,0,0.06-0.03,0.05-0.1l-1.4-3.74c-0.08-0.21-0.16-0.21-0.24,0l-1.32,3.74  c-0.02,0.06,0,0.1,0.05,0.1H142.12z"></path>	<rect x="273.21" y="122" class="st0" width="13.79" height="0"></rect>	<rect x="249.39" y="87.04" class="st0" width="0" height="0.95"></rect>	<path class="st1" d="M108.82,109.08c-0.64-1.27-1.56-2.38-2.76-3.31c-1.2-0.94-3.43-2.28-6.69-4.03c-4.01-2.15-6.54-3.87-7.61-5.16  c-0.74-0.88-1.11-1.85-1.11-2.91c0-1.39,0.58-2.63,1.75-3.72c1.17-1.09,2.65-1.64,4.44-1.64c1.58,0,3.11,0.4,4.59,1.21  c1.48,0.81,2.62,1.9,3.42,3.28c0.8,1.37,1.35,3.22,1.66,5.54h0.95V86.24h-0.95c-0.17,0.81-0.4,1.34-0.68,1.61  c-0.29,0.27-0.65,0.4-1.1,0.4c-0.4,0-1.07-0.22-2.04-0.65c-2.08-0.91-4.05-1.37-5.9-1.37c-2.98,0-5.42,0.91-7.35,2.72  c-1.92,1.81-2.89,3.97-2.89,6.48c0,1.44,0.33,2.77,0.98,3.97c0.65,1.2,1.61,2.3,2.87,3.3c1.26,1,3.39,2.33,6.38,4.01  c2.99,1.67,4.82,2.77,5.49,3.29c1,0.76,1.73,1.57,2.21,2.45c0.47,0.88,0.71,1.74,0.71,2.6c0,1.55-0.62,2.89-1.87,4.02  c-1.25,1.13-2.94,1.7-5.09,1.7c-1.86,0-3.56-0.41-5.12-1.24c-1.56-0.82-2.71-1.86-3.47-3.11c-0.76-1.25-1.36-3.12-1.8-5.63h-0.95  v11.99h0.95c0.12-0.81,0.3-1.34,0.55-1.6c0.25-0.26,0.59-0.39,1.02-0.39c0.45,0,1.51,0.27,3.18,0.81c1.68,0.54,2.78,0.85,3.31,0.94  c0.89,0.16,1.85,0.23,2.86,0.23c3.23,0,5.87-0.96,7.93-2.88c2.05-1.92,3.08-4.2,3.08-6.84v0  C109.79,111.68,109.46,110.35,108.82,109.08z"></path>	<path class="st1" d="M113.94,87.04v0.95h1.24c0.83,0,1.62,0.21,2.37,0.62c0.53,0.31,0.89,0.68,1.06,1.11  c0.22,0.57,0.33,1.74,0.33,3.51v22.58c0,2.1-0.21,3.42-0.62,3.97c-0.65,0.84-1.7,1.26-3.14,1.26h-1.24V122h14.98v-0.95h-1.26  c-0.82,0-1.61-0.21-2.35-0.62c-0.55-0.31-0.91-0.68-1.08-1.11c-0.22-0.57-0.34-1.74-0.34-3.51V93.22c0-2.1,0.22-3.42,0.65-3.97  c0.65-0.84,1.69-1.26,3.12-1.26h1.26v-0.95H113.94z"></path>	<polygon class="st1" points="165.84,121.04 165.84,122 165.84,122 165.84,121.04  "></polygon>	<path class="st1" d="M165.84,121.04C165.84,121.04,165.84,121.04,165.84,121.04c0.01,0,0.01,0,0.02,0  c-1.89-0.21-3.43-0.69-4.61-1.44c-1.19-0.76-2.6-2.29-4.25-4.59l-7.22-10.03c2.94-0.65,5.11-1.77,6.51-3.35  c1.4-1.58,2.1-3.44,2.1-5.59c0-2.01-0.61-3.74-1.84-5.19c-1.23-1.45-2.72-2.45-4.49-2.99c-1.76-0.54-4.5-0.81-8.21-0.81h-12.73  v0.95h1.31c1.32,0,2.32,0.38,2.99,1.13c0.48,0.53,0.72,1.9,0.72,4.1v22.58c0,1.99-0.18,3.26-0.54,3.79  c-0.64,0.96-1.69,1.44-3.17,1.44h-1.31V122h14.98v-0.95h-1.37c-1.31,0-2.29-0.38-2.94-1.14c-0.48-0.53-0.72-1.9-0.72-4.1v-10.16  c0.28,0.02,0.54,0.03,0.8,0.04c0.26,0.01,0.5,0.01,0.72,0.01c0.55,0,1.26-0.02,2.14-0.05L156.55,122h9.28V121.04z M142.5,104.05  c-0.16,0-0.35-0.01-0.59-0.01c-0.24-0.01-0.52-0.01-0.85-0.01V89.49c1.7-0.33,3.05-0.49,4.05-0.49c2.25,0,4.06,0.68,5.43,2.05  c1.37,1.37,2.05,3.14,2.05,5.32c0,2.24-0.85,4.07-2.54,5.52C148.35,103.33,145.84,104.05,142.5,104.05z"></path>	<path class="st1" d="M196.95,115.32l-12.17-29.08h-0.9l-12.3,28.77c-1.07,2.53-2.04,4.2-2.91,5.03c-0.43,0.41-1.37,0.74-2.81,1  c0.01,0,0.02,0,0.03,0c0,0,0,0,0,0V122h10.96v-0.95c-1.68-0.12-2.78-0.38-3.29-0.79c-0.51-0.4-0.76-0.87-0.76-1.41  c0-0.67,0.29-1.68,0.88-3.04l2.37-5.52h13.54l2.11,5.03c0.69,1.63,1.03,2.83,1.03,3.58c0,0.57-0.25,1.05-0.74,1.44  c-0.49,0.4-1.43,0.63-2.82,0.7V122h13.79v-0.95c-1.43-0.09-2.54-0.48-3.34-1.17C198.82,119.17,197.93,117.66,196.95,115.32z   M176.84,108.38l6.09-14.13l5.93,14.13H176.84z"></path>	<polygon class="st1" points="165.84,122 165.84,122 165.89,122 165.89,121.04 165.89,121.04 165.89,122  "></polygon>	<path class="st1" d="M165.84,122h0.05v-0.95c-0.01,0-0.02,0-0.03,0c-0.01,0-0.01,0-0.02,0V122z"></path>	<path class="st1" d="M280.99,115.32l-12.17-29.08h-0.9l-12.3,28.77c-1.07,2.53-2.04,4.2-2.91,5.03c-0.43,0.41-1.37,0.75-2.84,1.01  V122h11.01v-0.95c-1.68-0.12-2.78-0.38-3.29-0.79c-0.51-0.4-0.76-0.87-0.76-1.41c0-0.67,0.29-1.68,0.88-3.04l2.37-5.52h13.54  l2.11,5.03c0.69,1.63,1.03,2.83,1.03,3.58c0,0.57-0.24,1.05-0.73,1.44c-0.49,0.4-1.43,0.63-2.82,0.7V122H287v-0.95  c-1.43-0.09-2.54-0.48-3.34-1.17C282.86,119.17,281.98,117.66,280.99,115.32z M260.88,108.38l6.08-14.13l5.93,14.13H260.88z"></path>	<path class="st1" d="M239.49,87.04l-12.48,27.36l-12.68-27.36h-9.9v0.95c1.43,0,2.46,0.17,3.11,0.5c0.64,0.33,1.09,0.75,1.33,1.25  c0.34,0.69,0.52,1.81,0.52,3.35v22.84c0,1.96-0.19,3.21-0.57,3.76c-0.62,0.89-1.67,1.34-3.15,1.34h-1.24V122h12.17v-0.95h-1.24  c-1.37,0-2.38-0.36-3.02-1.08c-0.47-0.53-0.7-1.87-0.7-4.02V92.58L225.16,122h0.85l13.48-29.42v23.36c0,1.96-0.19,3.21-0.57,3.76  c-0.6,0.89-1.65,1.34-3.15,1.34h-1.24V122h14.85v-0.95h-1.21c-1.38,0-2.38-0.36-3.02-1.08c-0.48-0.53-0.72-1.87-0.72-4.02V93.1  c0-1.96,0.19-3.21,0.57-3.76c0.62-0.89,1.68-1.34,3.17-1.34h1.21v-0.95H239.49z"></path>	<polygon class="st1" points="275.08,96.71 276.44,96.71 273.81,86.28 270.5,86.28  "></polygon>	<rect x="63.38" y="64.25" class="st1" width="5.78" height="0"></rect>	<path class="st1" d="M69.13,132.98c1.76-0.53,3.34-1.28,4.73-2.18C72.47,131.71,70.89,132.46,69.13,132.98L69.13,132.98z"></path>	<path class="st1" d="M50.32,134.22c0.52-0.1,1.06-0.18,1.59-0.24v0C51.38,134.04,50.84,134.12,50.32,134.22z"></path>	<rect x="51.88" y="64.25" class="st1" width="5.78" height="0"></rect>	<path class="st1" d="M47.18,62.58H13v59.75c0,6.01,7.22,13.09,17.73,13.09h9.79c2,0,5.74,1.05,6.72,2v0h0v0  c0.97-0.95,4.64-2,6.64-2h9.79c10.51,0,17.72-7.08,17.72-13.09V62.58H47.2H47.18z M46.96,135.17c-0.82-0.83-3.8-1.25-5.75-1.32  c-0.22,0.3-0.39,0.49-0.41,0.52l-0.09,0.1h-3.01l0.38-0.48c0,0,0.04-0.06,0.11-0.14h-6.7c-0.51,0-1.01-0.03-1.51-0.06  c-0.03,0.16-0.06,0.32-0.08,0.49l-0.04,0.29l-2.73-0.34l0.2-0.8c-7.54-1.56-12.46-7.18-12.46-12.07V64.25h32.07l0.03,70.62V135.17z   M79.94,64.25v5.13v5.89v5.96v5.89v5.96v5.89v5.96v5.89v5.96v4.54v0c0,3.32-2.27,6.97-6.08,9.47c-1.38,0.91-2.97,1.65-4.73,2.18  c-1.75,0.53-3.66,0.84-5.72,0.85c-0.03,0-0.07,0-0.1,0h-5.68h-3.5c-0.61,0-1.4,0.05-2.22,0.14c-0.53,0.06-1.08,0.14-1.59,0.24  c-1.1,0.22-2.07,0.53-2.49,0.95v0v-0.3l0.03-70.62h0v0h4.01h5.78h5.72h5.78h5.71L79.94,64.25L79.94,64.25z"></path>	<path class="st1" d="M63.32,133.84h-5.68v0L63.32,133.84c0.03,0,0.07,0,0.1,0v0C63.38,133.83,63.35,133.84,63.32,133.84z"></path>	<path class="st1" d="M38.89,133.87h1.55c0.01-0.01,0.01-0.02,0.02-0.03h-1.55C38.91,133.85,38.9,133.86,38.89,133.87z"></path>	<rect x="74.88" y="64.25" class="st1" width="5.06" height="0"></rect>	<path class="st1" d="M27.86,133.7l1.48,0.19c0.01-0.05,0.02-0.11,0.03-0.16c-0.5-0.05-0.99-0.11-1.47-0.19L27.86,133.7z"></path>	<rect x="47.87" y="64.25" class="st1" width="4.01" height="5.1"></rect>	<rect x="47.87" y="64.25" class="st1" width="4.01" height="0"></rect>	<rect x="57.67" y="64.25" class="st1" width="5.72" height="5.1"></rect>	<rect x="57.67" y="64.25" class="st1" width="5.72" height="0"></rect>	<rect x="69.17" y="64.25" class="st1" width="5.71" height="5.1"></rect>	<rect x="69.17" y="64.25" class="st1" width="5.71" height="0"></rect>	<rect x="51.92" y="69.38" class="st1" width="5.72" height="5.89"></rect>	<rect x="63.42" y="69.38" class="st1" width="5.72" height="5.89"></rect>	<rect x="74.91" y="69.38" class="st1" width="5.03" height="5.89"></rect>	<rect x="47.86" y="75.31" class="st1" width="4.02" height="5.89"></rect>	<rect x="57.67" y="75.31" class="st1" width="5.72" height="5.89"></rect>	<rect x="69.17" y="75.31" class="st1" width="5.71" height="5.89"></rect>	<rect x="51.92" y="81.23" class="st1" width="5.72" height="5.89"></rect>	<rect x="63.42" y="81.23" class="st1" width="5.72" height="5.89"></rect>	<rect x="74.91" y="81.23" class="st1" width="5.03" height="5.89"></rect>	<rect x="47.86" y="87.16" class="st1" width="4.02" height="5.89"></rect>	<rect x="57.67" y="87.16" class="st1" width="5.72" height="5.89"></rect>	<rect x="69.17" y="87.16" class="st1" width="5.71" height="5.89"></rect>	<rect x="51.92" y="93.09" class="st1" width="5.72" height="5.89"></rect>	<rect x="63.42" y="93.09" class="st1" width="5.72" height="5.89"></rect>	<rect x="74.91" y="93.09" class="st1" width="5.03" height="5.89"></rect>	<rect x="47.85" y="99.01" class="st1" width="4.03" height="5.89"></rect>	<rect x="57.67" y="99.01" class="st1" width="5.72" height="5.89"></rect>	<rect x="69.17" y="99.01" class="st1" width="5.71" height="5.89"></rect>	<rect x="51.92" y="104.94" class="st1" width="5.72" height="5.89"></rect>	<rect x="63.42" y="104.94" class="st1" width="5.72" height="5.89"></rect>	<rect x="74.91" y="104.94" class="st1" width="5.03" height="5.89"></rect>	<rect x="47.85" y="110.86" class="st1" width="4.04" height="5.89"></rect>	<rect x="57.67" y="110.86" class="st1" width="5.72" height="5.89"></rect>	<rect x="69.17" y="110.86" class="st1" width="5.71" height="5.89"></rect>	<rect x="51.92" y="116.79" class="st1" width="5.72" height="5.89"></rect>	<rect x="63.42" y="116.79" class="st1" width="5.72" height="5.89"></rect>	<path class="st1" d="M74.91,122.68h4.89c0.08-0.45,0.13-0.9,0.13-1.35v-4.54h-5.03V122.68z"></path>	<rect x="47.84" y="122.72" class="st1" width="4.04" height="5.89"></rect>	<rect x="57.67" y="122.72" class="st1" width="5.72" height="5.89"></rect>	<rect x="69.17" y="122.72" class="st1" width="5.71" height="5.89"></rect>	<path class="st1" d="M57.63,133.84v-5.2h-5.72v5.34c0.82-0.09,1.61-0.14,2.22-0.14H57.63z"></path>	<path class="st1" d="M54.14,133.84c-0.61,0-1.4,0.05-2.22,0.14v0C52.73,133.89,53.52,133.84,54.14,133.84l3.5,0v0H54.14z"></path>	<path class="st1" d="M69.13,128.64h-5.72v5.19c2.05-0.01,3.96-0.32,5.72-0.85V128.64z"></path>	<path class="st1" d="M63.42,133.83L63.42,133.83c2.05-0.01,3.96-0.32,5.72-0.85v0C67.38,133.51,65.47,133.83,63.42,133.83z"></path>	<path class="st1" d="M76.51,128.64h-1.6v1.41C75.49,129.6,76.03,129.13,76.51,128.64z"></path>	<path class="st1" d="M36.4,101.26l0.02-0.5c0.11-3.17,2.84-7.5,4.24-9.48c-0.39,3.1-0.58,10.31-0.28,13.61l0.02,0.08  c0.01,0.03,1.4,3.47,1.92,4.64c0.48,1.09,2.23,2.32,3,2.32c0.07,0,0.13-0.01,0.18-0.03c0.1-0.04,0.24-0.14,0.31-0.35  c0.18-0.56-0.22-1.67-0.68-2.37c-0.57-0.86-1.17-2.58-1.73-4.27c-0.56-1.68-0.01-10.34,0.23-11.69c0.13-0.75,0.49-6.96-0.93-7.47  c-1.4-0.5-3.37,1.82-4.62,3.95c-1.28,2.17-3.93,6.4-4.56,7.41C34.48,97.86,35.53,98.88,36.4,101.26z M38.59,90.02  c1.61-2.73,3.21-3.94,3.91-3.69c0.43,0.15,1.01,4.18,0.54,6.8c-0.2,1.14-0.83,10.11-0.21,11.98c0.6,1.8,1.18,3.48,1.8,4.41  c0.48,0.72,0.67,1.56,0.62,1.82c-0.44-0.07-1.94-0.97-2.38-1.96c-0.48-1.09-1.74-4.19-1.89-4.58c-0.36-4.12,0.03-13.44,0.5-14.59  l-0.5-0.31c-0.58,0.65-4.43,5.86-5.07,9.99c-0.12-0.21-0.23-0.41-0.33-0.6c-0.27-0.49-0.48-0.89-0.82-1.13  c-0.31-0.22-0.59-0.5-0.75-0.67C34.6,96.52,37.29,92.22,38.59,90.02z"></path>	<polygon class="st1" points="39.11,127.1 39.11,127.1 37.31,126.69 37.32,126.68 37.31,126.69  "></polygon>	<path class="st1" d="M34.58,131.1c0.18-0.2,0.44-0.52,0.75-0.9c0.52-0.64,1.26-1.56,1.87-2.16c-0.06-0.01-0.11-0.02-0.14-0.02  l-0.58-0.09c-0.49,0.52-1.03,1.17-1.62,1.9c-0.3,0.37-0.55,0.69-0.73,0.88c-0.63,0.68-2.71,1.36-3.97,1.3l-0.09,0L30,132.04  c-0.3,0.18-0.5,0.94-0.63,1.68c0.2,0.02,0.4,0.04,0.6,0.05c0.1-0.54,0.23-1.01,0.31-1.18C31.74,132.63,33.86,131.88,34.58,131.1z"></path>	<path class="st1" d="M36.74,111.26c0.04-0.05,0.07-0.1,0.11-0.15C36.81,111.16,36.78,111.21,36.74,111.26z"></path>	<path class="st1" d="M33.19,113.28c-0.11,0.21-0.22,0.4-0.31,0.56l-0.55-0.55l-0.2,0.31c-0.2,0.31-1.78,2.8-2.18,4.28l-0.62-0.46  l-0.18,0.23c-0.02,0.03-0.24,0.32-0.48,0.83c0.1,0.25,0.19,0.47,0.28,0.65l0.05,0.11c0.17-0.44,0.34-0.77,0.46-0.97l0.77,0.57  c-0.1-0.11-0.19-0.22-0.28-0.31l0.42-0.42c0.04,0.04,0.08,0.09,0.11,0.12c0.17-0.97,1.31-2.97,1.95-4l0.27,0.27  c-0.01-0.01-0.02-0.04-0.02-0.04l0.53-0.27c0.01,0.01,0.03,0.07,0.07,0.14c0.38-0.71,1.31-2.4,1.79-3.27l0.61,1.43v-0.69  c0-0.24-0.01-0.56-0.03-0.92l-0.21-0.49l-2.1,3.59L33.19,113.28z"></path>	<path class="st1" d="M37.8,127.53c0.07-0.05,0.15-0.09,0.21-0.11C37.96,127.44,37.9,127.47,37.8,127.53z"></path>	<path class="st1" d="M36.26,110.9c0.17-0.24,0.35-0.5,0.55-0.78C36.61,110.4,36.43,110.66,36.26,110.9  C36.26,110.9,36.26,110.9,36.26,110.9z"></path>	<path class="st1" d="M37.58,110.07l-0.05,0.07c-0.2,0.29-0.4,0.57-0.59,0.84c0.46-0.65,1.01-1.44,1.44-2.02  c0.3,1.26,0.52,3.5,0.57,4.07l0.09-0.1l0.44,0.41l-0.06,0.06c0.16-0.05,0.49-0.18,0.89-0.48c-0.05,0.97-0.28,2.56-0.39,3.23  l-0.01,0.05c0.25-0.07,0.49-0.11,0.7-0.1l-0.02,0.6c-0.01,0-0.03,0-0.04,0c-0.15,0-0.33,0.04-0.52,0.09  c-0.26,0.55-0.55,1.4-0.93,2.57c-0.25,0.75-0.5,1.53-0.73,2.1c0.01-0.01,0.02-0.02,0.03-0.03l0.45,0.39  c-0.14,0.15-0.34,0.33-0.57,0.52c-0.12,0.99-0.47,2.1-1.01,3.2c0.01-0.02,0.02-0.04,0.03-0.06l0.1-0.21l0.23,0.05  c0.08,0.02,0.21,0.05,0.36,0.1c0.6-1.3,0.92-2.59,0.93-3.73c0.23-0.59,0.49-1.38,0.74-2.14c0.39-1.18,0.87-2.66,1.14-2.93  l0.29-0.29l-0.56-0.28c0.12-0.76,0.46-3.08,0.35-3.82l-0.1-0.62l-0.42,0.46c-0.33,0.35-0.63,0.56-0.85,0.67  c-0.1-1-0.38-3.57-0.75-4.53l-0.19-0.5l-0.32,0.43c-0.16,0.22-0.38,0.51-0.62,0.84c-0.01,0.38-0.03,0.73-0.06,1.03L37.58,110.07z"></path>	<path class="st1" d="M27.99,120.95c0.06-0.58,0.18-1.14,0.36-1.67c0,0,0-0.01,0-0.01C28.2,119.73,28.06,120.3,27.99,120.95  C27.99,120.94,27.99,120.95,27.99,120.95z"></path>	<path class="st1" d="M36.53,126.82C36.53,126.82,36.53,126.82,36.53,126.82l0.06-0.1c0,0,0-0.01,0.01-0.01c0,0,0,0.01-0.01,0.01  L36.53,126.82z"></path>	<polygon class="st1" points="35.82,112.57 35.76,112.66 35.76,112.66  "></polygon>	<path class="st1" d="M28.57,130.83l-0.09-0.11c-0.94-1.2-1.23-3.37-0.85-4.36c0.3-0.76,0.51-2.34,0.62-3.39  c-0.24-0.36-0.43-0.71-0.49-0.98l0.58-0.13c0.03,0.13,0.1,0.29,0.2,0.46l-0.01-0.15c-0.01-0.16,0-0.31,0-0.47l0,0l-0.7,0.15  l-0.07-0.11l-0.01,0.16c0,0.03-0.26,3.16-0.68,4.25c-0.49,1.25-0.08,3.54,0.84,4.83l-0.61,2.44c0.2,0.04,0.38,0.09,0.58,0.13  L28.57,130.83z"></path>	<path class="st1" d="M29.34,133.88l-1.48-0.19l0.04-0.17c-0.2-0.04-0.39-0.09-0.58-0.13l-0.2,0.8l2.73,0.34l0.04-0.29  c0.02-0.16,0.05-0.33,0.08-0.49c-0.2-0.01-0.4-0.03-0.6-0.05C29.36,133.78,29.35,133.83,29.34,133.88z"></path>	<path class="st1" d="M28.14,73.43c0.28-0.22,0.88-0.78,1.01-1.67c0.1-0.61,0.01-1.34-0.19-1.91c0.13,0.04,0.27,0.05,0.4,0.06  c-0.04-0.02-0.08-0.03-0.12-0.04l0.07-0.56c-0.34-0.06-0.75-0.24-0.9-0.32c-0.08-0.04-0.34-0.16-0.48,0.08  c-0.09,0.16-0.03,0.31,0.17,0.45c0.21,0.14,0.61,1.18,0.46,2.14c-0.09,0.61-0.49,1.04-0.72,1.24c-0.14-0.1-0.35-0.25-0.59-0.38  C27.49,72.71,27.8,73.04,28.14,73.43z"></path>	<path class="st1" d="M34.21,69.93l0.12,0.57c0.23-0.05,0.39-0.19,0.5-0.47c0.11,0.83,0.2,1.96,0.12,2.59l0,0.04l0,0.04  c0.01,0.08,0.02,0.16,0.03,0.24c0.11-0.09,0.22-0.17,0.3-0.22l0.31,0.51c-0.1,0.06-0.22,0.15-0.35,0.26  c0.04,0.03,0.08,0.06,0.13,0.07c0.05,1.27,0.11,3.72-0.19,4.93c0,0,0.01-0.01,0.01-0.02l0.56,0.21c-0.01,0.03-0.04,0.08-0.05,0.12  c0.09-0.04,0.18-0.09,0.26-0.12c0.09,0.91,0.25,3.28-0.26,5.03c0.3-0.05,0.61-0.07,0.94-0.07l-0.01,0.6c-0.18,0-0.36,0-0.53,0.02  c-0.37,0.4-0.82,0.95-0.99,1.4c-0.08,0.21-0.11,0.47-0.14,0.78c-0.11,0.92-0.26,2.19-1.71,3.28c-1.41,1.06-2.09,1.15-2.31,1.15  c-0.05,0-0.08-0.01-0.08,0l-0.44-0.23l0,2.01l0.12,1.77c0.01,0.06,0.35,1.56,2.48,3.14c1.25,0.93,2.56,2.18,3.52,6.43  c0.55,2.44,0.55,4.54,0.44,5.9c-0.07,0.09-0.13,0.18-0.19,0.27c0.28-0.4,0.57-0.81,0.84-1.18c0.04-1.35-0.05-3.12-0.5-5.13  c-0.23-1-0.48-1.84-0.74-2.56l-0.01,0.36l-0.51-0.7c-0.37-0.51-0.63-0.98-0.83-1.36c-0.23-0.43-0.41-0.76-0.64-0.93  c-0.54-0.39-0.99-0.91-1.01-0.93l-0.14-0.17l0.12-0.19c0-0.01,0.06-0.09,0.14-0.22c-0.04-0.03-0.08-0.06-0.11-0.09  c-1.91-1.41-2.24-2.74-2.25-2.74l-0.11-1.7v-1.16c0.45-0.03,1.25-0.27,2.58-1.27c1.65-1.24,1.83-2.71,1.95-3.68  c0.03-0.27,0.06-0.5,0.11-0.64c0.21-0.56,1.06-1.44,1.38-1.73l0.46-0.43l-0.63-0.08c0,0-0.19-0.02-0.52-0.07  c0.55-2.27,0.17-5.19,0.15-5.32l-0.05-0.35l-0.34,0.1c-0.01,0-0.11,0.03-0.26,0.09c0.28-1.93,0.06-5.19,0.05-5.35l-0.38-0.02  c0-0.01,0-0.03,0-0.04c0.05-0.61-0.02-4.02-0.69-4.11c-0.37-0.05-0.43,0.41-0.46,0.62c-0.08,0.65-0.19,0.74-0.19,0.75  c-0.01,0-0.03,0.01-0.06,0.01C34.17,69.94,34.19,69.94,34.21,69.93z"></path>	<path class="st1" d="M36.26,110.9c-0.14-2.39-0.69-6.8-0.72-7.02c-0.17-1.26-0.49-1.94-0.83-2.66c-0.14-0.29-0.27-0.58-0.41-0.93  c-0.23-0.61-1.13-1.5-2.16-2.53c-1.01-1-2.15-2.14-2.29-2.72c-0.27-1.08-0.31-4.32-0.31-4.36l0-0.24l-0.23-0.05  c-0.02,0-1.8-0.41-2.12-2.65c-0.14-0.97-0.18-1.9-0.22-2.72c-0.04-0.94-0.08-1.69-0.25-2.2c-0.21-0.08-0.4-0.11-0.53-0.12l0.02-0.6  c0.11,0,0.23,0.03,0.36,0.06c0.1-1.09,0.18-3.11,0.06-4.34c-0.19-0.25-0.35-0.44-0.43-0.49l0.09-0.14l0.05-0.33  c-0.05,0-0.1-0.01-0.16,0l-0.35,0.04l0.1,0.34c0.25,0.83,0.15,4.11-0.01,5.24l-0.02,0.15l0.11,0.11c0.26,0.25,0.31,1.24,0.35,2.3  c0.04,0.83,0.08,1.78,0.22,2.78c0.31,2.16,1.77,2.88,2.35,3.08c0.01,0.77,0.07,3.29,0.32,4.28c0.19,0.74,1.29,1.84,2.45,3  c0.9,0.9,1.84,1.83,2.02,2.32c0.14,0.36,0.28,0.67,0.42,0.97c0.33,0.71,0.62,1.32,0.78,2.49c0.01,0.05,0.56,4.52,0.71,6.92  l0.23,0.54C35.99,111.28,36.12,111.1,36.26,110.9z"></path>	<path class="st1" d="M27,77.32c0.06-0.53,0.31-2.75,0.19-4.05c-0.13-0.13-0.25-0.24-0.36-0.31l0.33-0.48  c-0.1-0.05-0.2-0.1-0.3-0.14l-0.8-0.32l0.43,0.75c0.24,0.41,0.14,2.46-0.03,4.02C26.59,76.85,26.74,77,27,77.32z"></path>	<path class="st1" d="M33.96,70.5c-0.01,0.02-0.02,0.05-0.02,0.08c0.05-0.03,0.1-0.04,0.18-0.05C34.06,70.52,34,70.51,33.96,70.5z"></path>	<path class="st1" d="M31.15,67.97c0.06-0.32,0.08-0.93,0.02-1.47c0.65,0.55,1.65,1.71,2.2,3.88c0.01-0.03,0.02-0.05,0.02-0.08  c0.06-0.22,0.13-0.42,0.32-0.49c0.04-0.01,0.07-0.02,0.11-0.02c-0.93-3.1-2.83-4.3-3.2-4.32l-0.23-0.01l-0.07,0.21  c-0.01,0.04-0.07,0.22,0.12,0.35c0.13,0.16,0.25,1.16,0.12,1.83c-0.1,0.6-0.66,1.46-1.06,1.47c0.2,0.07,0.41,0.21,0.61,0.38  C30.67,69.32,31.06,68.48,31.15,67.97z"></path>	<polygon class="st1" points="35.76,112.66 35.69,112.5 35.69,112.76  "></polygon>	<path class="st1" d="M36.85,111.11c0.03-0.04,0.07-0.09,0.1-0.14C36.91,111.02,36.88,111.06,36.85,111.11z"></path>	<path class="st1" d="M36.74,111.26c-0.38,0.54-0.66,0.95-0.67,0.96l-0.25,0.36l0.42-0.6C36.36,111.81,36.54,111.55,36.74,111.26z"></path>	<path class="st1" d="M33.26,97.54l0.14,0.17c0.02,0.02,0.47,0.55,1.01,0.93c0.23,0.16,0.41,0.5,0.64,0.93  c0.2,0.38,0.46,0.85,0.83,1.36l0.51,0.7l0.01-0.36c-0.88-2.38-1.93-3.4-2.89-4.13c-0.08,0.14-0.14,0.22-0.14,0.22L33.26,97.54z"></path>	<path class="st1" d="M35.69,112.5l0.07,0.16l0.06-0.08l0.25-0.36c0.01-0.01,0.29-0.41,0.67-0.96c0.03-0.05,0.07-0.1,0.11-0.15  c0.03-0.05,0.06-0.09,0.1-0.14c0.19-0.27,0.39-0.55,0.59-0.84l0.05-0.07l0.01-0.08c0.03-0.31,0.05-0.66,0.06-1.03  c-0.27,0.37-0.56,0.78-0.84,1.18c-0.19,0.27-0.38,0.54-0.55,0.78c0,0,0,0,0,0c-0.14,0.2-0.27,0.38-0.37,0.53l-0.23-0.54  c0.02,0.36,0.03,0.67,0.03,0.92V112.5z"></path>	<path class="st1" d="M36.98,127.43C36.97,127.43,36.97,127.43,36.98,127.43c-0.03,0.02-0.05,0.04-0.08,0.06l-0.45,0.42l0.03,0  C36.65,127.74,36.82,127.58,36.98,127.43z"></path>	<path class="st1" d="M42.1,128.75c-0.94-2.21-3.16-3.08-4.11-3.35c-0.2,0.43-0.42,0.86-0.68,1.29c0.14-0.24,0.28-0.49,0.41-0.74  c0.81,0.22,2.95,0.99,3.83,3.05c0.93,2.19-0.66,4.34-1.09,4.86h0.2c0.17,0,0.36,0,0.55,0.01C41.88,132.93,43.02,130.9,42.1,128.75z  "></path>	<path class="st1" d="M37.27,125.51c-0.21,0.41-0.43,0.82-0.67,1.2C36.85,126.32,37.07,125.92,37.27,125.51z"></path>	<polygon class="st1" points="39.12,127.11 39.11,127.1 38.01,127.42 38.01,127.43 38.01,127.42  "></polygon>	<path class="st1" d="M40.52,130.37c0.18-1.56-1.2-2.46-2.74-2.83c0.01,0,0.01-0.01,0.02-0.01c-0.17,0.11-0.37,0.28-0.59,0.5  c0.73,0.13,2.9,0.65,2.72,2.27c-0.14,1.29-1.39,3.05-1.75,3.54h0.74C39.45,133.07,40.38,131.57,40.52,130.37z"></path>	<path class="st1" d="M40.46,133.84c-0.01,0.01-0.02,0.02-0.02,0.03h-1.55c0.01-0.01,0.01-0.02,0.02-0.03h-0.74  c-0.06,0.08-0.1,0.14-0.11,0.14l-0.38,0.48h3.01l0.09-0.1c0.03-0.03,0.19-0.21,0.41-0.52c-0.19-0.01-0.38-0.01-0.55-0.01H40.46z"></path>	<path class="st1" d="M37.4,125.24l-0.1,0.21c-0.01,0.02-0.02,0.04-0.03,0.06c-0.2,0.4-0.42,0.8-0.67,1.2c0,0,0,0.01-0.01,0.01  l-0.06,0.1c0.45,0.02,0.91,0.03,1.39,0.01l0.02,0.6c-0.33,0.01-0.65,0.01-0.96,0c-0.16,0.14-0.32,0.3-0.49,0.49l0.58,0.09  c0.04,0.01,0.09,0.01,0.14,0.02c0.22-0.22,0.42-0.39,0.59-0.5c0.1-0.06,0.17-0.09,0.21-0.11c0,0,0,0,0.01,0l1.1-0.32l-1.8-0.42  c0,0,0-0.01,0-0.01c0.25-0.43,0.48-0.86,0.68-1.29c-0.15-0.04-0.28-0.08-0.36-0.1L37.4,125.24z"></path>	<path class="st1" d="M29.92,125.09c0.29,0.39,0.77,2.51,0.46,4.03l0.55,0.2c0.47-0.86,1.02-1.11,1.66-1.39  c0.23-0.1,0.47-0.21,0.71-0.34c0.5-0.29,1.44-0.24,2.53-0.19c0.35,0.02,0.74,0.03,1.13,0.04c0.07-0.06,0.13-0.12,0.19-0.17  c0,0,0,0,0,0l-0.47-0.11l-0.33-0.08l0.16-0.25c-0.23-0.01-0.45-0.02-0.66-0.03c-0.42-0.02-0.79-0.03-1.15-0.03l-0.01,0.15  l-0.6-0.03l0.01-0.1c-0.43,0.03-0.81,0.11-1.11,0.28c-0.22,0.12-0.44,0.22-0.65,0.32c-0.43,0.19-0.87,0.38-1.28,0.77  c0.03-1.17-0.21-2.42-0.5-3.08c-0.19,0.09-0.36,0.15-0.46,0.14l0.08-0.59c0.02,0,0.06-0.02,0.08-0.03  c-0.08-0.11-0.18-0.22-0.3-0.37c-0.41-0.49-1.08-1.29-1.42-1.9l0.04,0.83l-0.31-0.42c-0.01,0.08-0.02,0.16-0.03,0.25  c0.37,0.56,0.87,1.17,1.26,1.63C29.69,124.8,29.83,124.97,29.92,125.09z"></path>	<polygon class="st1" points="36.36,127.08 36.69,127.15 36.37,127.08 36.53,126.82 36.53,126.82  "></polygon>	<path class="st1" d="M28.59,123.14l-0.04-0.83c-0.1-0.17-0.17-0.33-0.2-0.46l-0.58,0.13c0.06,0.28,0.25,0.62,0.49,0.98  c0.01-0.08,0.02-0.17,0.03-0.25L28.59,123.14z"></path>	<polygon class="st1" points="37.16,127.26 37.16,127.26 37.16,127.26  "></polygon>	<path class="st1" d="M36.97,127.43C36.97,127.43,36.97,127.43,36.97,127.43c0.07-0.05,0.13-0.12,0.19-0.17  C37.1,127.31,37.03,127.37,36.97,127.43z"></path>	<polygon class="st1" points="36.69,127.15 37.16,127.26 37.16,127.26  "></polygon>	<path class="st1" d="M36.69,127.15l0.47,0.11c0,0,0,0,0,0l0,0c0,0,0,0,0,0c-0.06,0.05-0.12,0.12-0.18,0.17  c0.31,0.01,0.63,0.01,0.96,0l-0.02-0.6c-0.48,0.02-0.95,0-1.39-0.01l-0.16,0.25L36.69,127.15z"></path>	<path class="st1" d="M34.44,124.47c0.13-0.11,0.28-0.22,0.41-0.33l0.16-3.18l-0.53,0.45c-0.71,0.61-1.48,1.23-2.18,1.77  c0.01,0.08,0.02,0.15,0.04,0.24l-0.47,0.08c-0.75,0.57-1.35,0.97-1.6,1.06c0.04,0.05,0.09,0.11,0.12,0.15  c0.06,0.08,0.12,0.2,0.18,0.34c0.87-0.4,2.52-1.71,3.77-2.75l-0.23,4.47c0.19-0.01,0.39-0.02,0.6-0.02l0.1-1.86L34.44,124.47z"></path>	<path class="st1" d="M30.28,124.58c-0.03,0.01-0.07,0.03-0.08,0.03l-0.08,0.59c0.1,0.01,0.27-0.05,0.46-0.14  c-0.06-0.14-0.12-0.26-0.18-0.34C30.37,124.69,30.32,124.63,30.28,124.58z"></path>	<path class="st1" d="M34.11,126.88l0.6,0.03l0.01-0.15c-0.21,0-0.41,0-0.6,0.02L34.11,126.88z"></path>	<path class="st1" d="M35.13,117.17c0.52,0.16,1.04,1.01,0.96,6.03c0.15-0.11,0.29-0.21,0.43-0.32c0.06-0.04,0.11-0.08,0.17-0.12  c0.02-1.74-0.04-2.99-0.16-3.9l-0.35-0.36c0.08-0.08,0.16-0.15,0.25-0.22c-0.24-1.12-0.62-1.53-1.11-1.69  c-0.05-0.01-0.1-0.02-0.15-0.02c0,0.05,0,0.09,0,0.14l-0.53,0.04c-0.13,0.08-0.26,0.17-0.4,0.29c0.03,0.19,0.04,0.38,0.04,0.56  l-0.59-0.02c-0.67,0.72-1.39,1.7-1.95,2.53c0.05,0.14,0.12,0.26,0.16,0.41c0.04,0.12,0.06,0.21,0.08,0.31  C33.48,118.52,34.78,117.16,35.13,117.17z"></path>	<path class="st1" d="M36.68,123.22l-0.6-0.01c0,0,0,0,0,0c-0.43,0.31-0.84,0.63-1.24,0.94l-0.04,0.76l0.02,0.02  c0.59-0.51,1.33-1.04,2.04-1.55c0.54-0.39,1.02-0.74,1.41-1.05c0.03-0.25,0.05-0.49,0.05-0.72l0.02-0.11  c0.01-0.02,0.01-0.04,0.02-0.05c-0.31,0.33-0.96,0.82-1.68,1.33C36.69,122.92,36.69,123.06,36.68,123.22z"></path>	<path class="st1" d="M38.33,121.6c0,0.23-0.02,0.47-0.05,0.72c0.23-0.19,0.44-0.37,0.57-0.52l-0.45-0.39  c-0.01,0.01-0.02,0.02-0.03,0.03c-0.01,0.02-0.01,0.04-0.02,0.05L38.33,121.6z"></path>	<path class="st1" d="M34.81,124.91l0.04-0.76c-0.14,0.11-0.29,0.22-0.41,0.33L34.81,124.91z"></path>	<path class="st1" d="M36.09,123.2C36.09,123.21,36.08,123.21,36.09,123.2l0.6,0.02c0-0.16,0-0.3,0-0.45  c-0.06,0.04-0.11,0.08-0.17,0.12C36.37,122.99,36.23,123.1,36.09,123.2z"></path>	<path class="st1" d="M37.99,117.65h-0.6c0-0.05-0.01-0.1-0.01-0.15c-0.33,0.24-0.65,0.51-0.96,0.79c0.04,0.18,0.07,0.37,0.1,0.58  l0.07,0.07c1.1-1.07,2.48-1.92,3.44-2.18c0.04-0.09,0.09-0.2,0.13-0.27l-0.27-0.14l0.03-0.17c-0.58,0.15-1.25,0.46-1.95,0.91  C37.97,117.28,37.99,117.47,37.99,117.65z"></path>	<path class="st1" d="M40.16,116.49c-0.04,0.07-0.09,0.18-0.13,0.27c0.19-0.05,0.37-0.09,0.52-0.09c0.01,0,0.03,0,0.04,0l0.02-0.6  c-0.2-0.01-0.44,0.04-0.7,0.1l-0.03,0.17L40.16,116.49z"></path>	<path class="st1" d="M36.52,118.87c-0.03-0.21-0.06-0.4-0.1-0.58c-0.08,0.07-0.17,0.15-0.25,0.22L36.52,118.87z"></path>	<path class="st1" d="M37.67,114.68c0.02,0.16,0.05,0.33,0.07,0.5l1.69-1.79c-0.06,0.02-0.1,0.03-0.1,0.03L39,113.49l-0.03-0.33  c0,0,0-0.05-0.01-0.13l-1.33,1.41C37.64,114.51,37.65,114.59,37.67,114.68z"></path>	<path class="st1" d="M39,113.49l0.33-0.07c0.01,0,0.04-0.01,0.1-0.03l0.06-0.06l-0.44-0.41l-0.09,0.1  c0.01,0.08,0.01,0.13,0.01,0.13L39,113.49z"></path>	<path class="st1" d="M35.16,116.58c-0.08-1.85,1.12-3.41,1.68-3.83c0.01,0.48,0.11,1.2,0.24,2.01c0.14,0.92,0.29,1.94,0.31,2.73  c0.19-0.14,0.39-0.28,0.58-0.4c-0.04-0.6-0.13-1.26-0.22-1.91l-0.11,0.11l-0.44-0.41l0.43-0.46c-0.12-0.8-0.22-1.53-0.19-1.87  c0.03-0.27-0.1-0.4-0.19-0.45c-0.16-0.1-0.37-0.08-0.62,0.07c-0.79,0.47-2.25,2.36-2.08,4.59l0.06-0.01  C34.82,116.65,35,116.58,35.16,116.58z"></path>	<path class="st1" d="M35.16,116.58c-0.16,0-0.34,0.07-0.53,0.18l0.53-0.04C35.15,116.68,35.16,116.63,35.16,116.58z"></path>	<path class="st1" d="M37.39,117.65h0.6c0-0.17-0.01-0.36-0.02-0.55c-0.19,0.12-0.39,0.26-0.58,0.4  C37.38,117.54,37.39,117.6,37.39,117.65z"></path>	<path class="st1" d="M37.63,115.29l0.11-0.11c-0.02-0.17-0.05-0.34-0.07-0.5c-0.01-0.09-0.02-0.17-0.04-0.25l-0.43,0.46  L37.63,115.29z"></path>	<path class="st1" d="M33.66,117.59c0.19-0.2,0.38-0.38,0.56-0.53c-0.15-1.05-0.72-2.3-0.92-2.71c-0.02,0.04-0.05,0.1-0.07,0.13  l-0.19,0.35l-0.32-0.32C32.82,114.73,33.7,116.53,33.66,117.59L33.66,117.59z"></path>	<path class="st1" d="M33.22,114.48c0.02-0.04,0.05-0.09,0.07-0.13c-0.04-0.08-0.06-0.13-0.07-0.14l-0.53,0.27  c0,0,0.01,0.03,0.02,0.04l0.32,0.32L33.22,114.48z"></path>	<path class="st1" d="M34.22,117.06c-0.18,0.15-0.37,0.33-0.56,0.53l0.59,0.02C34.26,117.44,34.25,117.25,34.22,117.06z"></path>	<path class="st1" d="M25,111.36l0.56-0.14c0-1.59,0.27-5.39,2.79-6.61c0-0.03,0-0.07,0-0.1l-0.03-0.07  c-0.24,0.11-0.32,0.1-0.43,0.04l-0.15-0.09l0-0.09c-0.63,0.39-1.12,0.9-1.49,1.5c0.13,0.09,0.21,0.15,0.22,0.15l-0.34,0.49  c-0.02-0.01-0.08-0.06-0.17-0.12c-0.66,1.33-0.9,2.88-0.97,4.02c-0.66-0.73-1.7-1.45-2.89-2c-0.01,0.12-0.01,0.19-0.01,0.2  l-0.6-0.03c0-0.01,0.01-0.16,0.02-0.41c-0.81-0.32-1.67-0.57-2.53-0.69c0.02,0.09,0.04,0.16,0.04,0.16l0.11,0.43l-0.35-0.05  c0.01,0.01,0.02,0.02,0.02,0.03C21.49,108.32,24.23,109.96,25,111.36z"></path>	<path class="st1" d="M25.31,100.8c0.12,0.15,0.24,0.29,0.37,0.44l-0.46,0.38c-0.06-0.07-0.12-0.14-0.18-0.22  c-0.33,0.8-0.58,1.74-0.74,2.8c0.18,0.16,0.36,0.32,0.53,0.47c0.35-2.72,1.28-4.61,2.7-5.51c0.01-0.03,0.01-0.06,0.02-0.09  c-0.12,0.07-0.26,0.15-0.43,0.26l-0.17,0.11l-0.16-0.12c-0.07-0.05-0.14-0.12-0.21-0.18C26.07,99.59,25.65,100.14,25.31,100.8z"></path>	<path class="st1" d="M24.81,104.78l-0.59-0.07c0.02-0.17,0.05-0.33,0.08-0.5c-0.89-0.81-1.76-1.76-1.96-2.56l-0.59,0.07  c-0.01,0.59-0.03,1.44-0.06,2.35c0.14,0.11,0.28,0.21,0.42,0.31l-0.35,0.48c-0.02-0.02-0.06-0.04-0.09-0.07  c-0.05,1.34-0.11,2.65-0.14,3.3c0.2,0.08,0.4,0.16,0.59,0.24c0.03-0.74,0.15-3.48,0.21-5.41c1.03,1.47,3.04,2.96,3.65,3.39  c0.09-0.18,0.19-0.35,0.3-0.53c-0.29-0.21-0.83-0.61-1.43-1.11C24.82,104.71,24.81,104.75,24.81,104.78z"></path>	<path class="st1" d="M21.49,108.51l0.6,0.03c0-0.01,0-0.08,0.01-0.2c-0.19-0.09-0.39-0.17-0.59-0.24  C21.5,108.34,21.49,108.5,21.49,108.51z"></path>	<path class="st1" d="M26.13,106.44l0.34-0.49c-0.01,0-0.09-0.06-0.22-0.15c-0.11,0.17-0.21,0.34-0.3,0.53  C26.05,106.38,26.11,106.43,26.13,106.44z"></path>	<path class="st1" d="M24.81,104.78c0-0.04,0.01-0.07,0.02-0.1c-0.18-0.15-0.35-0.3-0.53-0.47c-0.03,0.17-0.06,0.32-0.08,0.5  L24.81,104.78z"></path>	<path class="st1" d="M21.65,104.8c0.01-0.24,0.02-0.48,0.03-0.72c-0.4-0.3-0.81-0.62-1.23-0.96c0,0.01,0,0.01,0,0.02l-0.6,0.03  c-0.01-0.2-0.01-0.38-0.01-0.56c-1.07-0.91-1.98-1.8-2.14-2.27c0.03,0.39,0.07,0.79,0.12,1.19  C18.95,102.78,20.98,104.31,21.65,104.8z"></path>	<path class="st1" d="M17.08,100.32c0,0.03,0.02,0.06,0.03,0.1c0-0.03,0-0.07-0.01-0.1L17.08,100.32z"></path>	<path class="st1" d="M22.09,104.38c-0.13-0.1-0.27-0.2-0.42-0.31c-0.01,0.24-0.02,0.48-0.03,0.72c0.03,0.02,0.07,0.05,0.09,0.07  L22.09,104.38z"></path>	<path class="st1" d="M21.15,99.94c0.08-0.17,0.15-0.34,0.23-0.52c0.28-0.67,0.45-1.27,0.49-1.77c0.76,0.85,2.16,2.53,3.17,3.75  c0.09-0.21,0.18-0.42,0.27-0.61c-0.71-0.86-1.28-1.55-1.75-2.11c0,0.01,0,0.01,0,0.02h-0.6c0-0.1,0.01-0.21,0.02-0.31l-0.43-0.22  c0.07-0.13,0.12-0.3,0.16-0.49c-1.08-1.24-1.19-1.19-1.36-1.09l-0.22,0.16L21.21,97c0.07,0.2,0.12,0.63-0.11,1.41  c0.19,0.15,0.33,0.29,0.41,0.43l-0.53,0.27c-0.01-0.03-0.05-0.07-0.09-0.1c-0.02,0.06-0.04,0.11-0.07,0.17  c-0.07,0.17-0.15,0.34-0.22,0.5c-0.36,0.81-0.74,1.64-0.76,2.92c0.2,0.17,0.4,0.34,0.61,0.5C20.37,101.67,20.75,100.83,21.15,99.94  z"></path>	<path class="st1" d="M25.21,101.63l0.46-0.38c-0.13-0.16-0.24-0.3-0.37-0.44c-0.1,0.19-0.19,0.4-0.27,0.61  C25.09,101.48,25.15,101.56,25.21,101.63z"></path>	<path class="st1" d="M19.85,103.17l0.6-0.03c0-0.01,0-0.01,0-0.02c-0.21-0.17-0.41-0.34-0.61-0.5  C19.84,102.79,19.84,102.97,19.85,103.17z"></path>	<path class="st1" d="M25.05,94.25L25.05,94.25c0,0-0.01,0.02-0.01,0.05C25.04,94.28,25.05,94.26,25.05,94.25L25.05,94.25z"></path>	<path class="st1" d="M25.03,94.3c-0.03,0.13-0.13,0.46-0.29,0.84c0,0,0,0.01,0.01,0.01C24.85,94.97,24.96,94.63,25.03,94.3z"></path>	<path class="st1" d="M23.36,97.34c-0.03,0.34-0.1,0.64-0.19,0.9c0.12,0.14,0.25,0.29,0.39,0.46c0.01-0.7,0.47-1.36,1.11-2.2  c0.24-0.31,0.42-0.65,0.56-0.98c-0.2,0.35-0.38,0.36-0.47,0.36c-0.1,0-0.2-0.07-0.3-0.16c-0.08,0.14-0.17,0.29-0.27,0.42  C23.9,96.53,23.59,96.92,23.36,97.34z"></path>	<path class="st1" d="M22.98,98.41c-0.01,0.1-0.02,0.2-0.02,0.31h0.6c0-0.01,0-0.01,0-0.02c-0.14-0.17-0.27-0.32-0.39-0.46  c-0.03,0.07-0.05,0.16-0.08,0.22L22.98,98.41z"></path>	<path class="st1" d="M20.53,94.29c0.23-0.37,0.38-0.82,0.49-1.24c0.18,0.36,0.45,0.77,0.84,1.23c0.9,1.05,1.05,2.5,0.85,3.42  c0.1,0.12,0.22,0.25,0.34,0.39c0.07-0.26,0.18-0.51,0.31-0.75c0.09-1.05-0.16-2.41-1.05-3.45c-0.2-0.23-0.35-0.44-0.48-0.64  l-0.37,0c0-0.11,0.04-0.26,0.11-0.43c-0.32-0.62-0.35-1.01-0.35-1.02l-0.6-0.03c0,0.01-0.12,1.3-0.58,2.12l0.19,0.21l-0.44,0.4  l-0.05-0.05c-0.35,0.71-0.7,1.72-0.63,2.61c0.23,0.18,0.47,0.34,0.71,0.49l0,0C19.43,96.66,20.05,95.08,20.53,94.29z"></path>	<path class="st1" d="M22.71,97.7c-0.04,0.18-0.09,0.36-0.16,0.49l0.43,0.22c0.01-0.11,0.04-0.21,0.07-0.31  C22.93,97.95,22.81,97.82,22.71,97.7z"></path>	<path class="st1" d="M23.17,98.24c0.09-0.25,0.16-0.56,0.19-0.9c-0.13,0.24-0.24,0.49-0.31,0.75  C23.09,98.14,23.13,98.19,23.17,98.24z"></path>	<path class="st1" d="M22.98,98.41l0.1,0.05c0.03-0.06,0.06-0.15,0.08-0.22c-0.04-0.05-0.08-0.1-0.12-0.14  C23.02,98.2,23,98.3,22.98,98.41z"></path>	<path class="st1" d="M19.95,98.36c0.37,0.23,0.76,0.49,0.94,0.67c0.09-0.22,0.16-0.42,0.21-0.61c-0.22-0.17-0.5-0.35-0.83-0.56  c-0.14-0.09-0.29-0.18-0.44-0.28l-0.55,0.24c-0.1-0.23-0.14-0.48-0.16-0.74c-0.7-0.53-1.31-1.16-1.35-1.88l-0.06,0  c-0.01,0.41-0.01,0.85-0.02,1.3C18.26,97.27,19.19,97.87,19.95,98.36z"></path>	<path class="st1" d="M21.51,98.85c-0.07-0.15-0.22-0.29-0.41-0.43c-0.05,0.18-0.13,0.38-0.21,0.61c0.04,0.04,0.08,0.07,0.09,0.1  L21.51,98.85z"></path>	<path class="st1" d="M19.29,97.81l0.55-0.24c-0.24-0.15-0.48-0.32-0.71-0.49C19.14,97.33,19.19,97.58,19.29,97.81z"></path>	<path class="st1" d="M20.02,93.98c0.02-0.02,0.03-0.05,0.04-0.08l-1.02-1.12c0,0.09-0.01,0.19-0.01,0.27l-0.01,0.55l-0.1-0.07  l0.85,0.93C19.85,94.28,19.94,94.11,20.02,93.98z"></path>	<path class="st1" d="M20.24,94.1l-0.19-0.21c-0.01,0.03-0.03,0.05-0.04,0.08c-0.08,0.13-0.17,0.3-0.26,0.48l0.05,0.05L20.24,94.1z"></path>	<path class="st1" d="M21.83,93.25l0.23,0c0.01-0.18,0.39-0.9,0.75-1.48c-0.06,0.05-0.13,0.1-0.17,0.14l-0.36,0.26l-0.11-0.43  c0-0.01-0.01-0.03-0.02-0.04c-0.19,0.33-0.44,0.77-0.58,1.13C21.65,92.96,21.73,93.1,21.83,93.25z"></path>	<path class="st1" d="M21.83,93.25c-0.1-0.15-0.19-0.3-0.26-0.43c-0.07,0.17-0.11,0.32-0.11,0.43L21.83,93.25z"></path>	<path class="st1" d="M30.6,88.18l0.17,0.64l0.37-0.55c2.05-3.09,3.4-3.91,4.97-4.03c0.04-0.04,0.08-0.09,0.11-0.12  c-0.08-0.01-0.17-0.02-0.27-0.04l-0.34-0.05l0.1-0.33c0,0,0,0,0,0c-0.67,0.1-1.28,0.33-1.88,0.71c0.03,0.09,0.07,0.18,0.09,0.27  l-0.58,0.13c0-0.01-0.01-0.02-0.01-0.03c-0.75,0.6-1.5,1.45-2.33,2.64c-0.43-1.34-1-2.39-1.61-3.19l-0.56-0.19  c0.04-0.11,0.08-0.22,0.12-0.33c-0.84-0.91-1.69-1.4-2.37-1.54c-0.01,0.09-0.02,0.19-0.03,0.27c0.08,0.1,0.13,0.24,0.18,0.38  C27.77,83.19,29.61,84.54,30.6,88.18z"></path>	<path class="st1" d="M26.57,82.17c-0.12-0.03-0.25-0.05-0.36-0.06l-0.02,0.6c0.13,0,0.31,0.04,0.53,0.12  c-0.05-0.15-0.11-0.28-0.18-0.38C26.56,82.36,26.57,82.26,26.57,82.17z"></path>	<path class="st1" d="M35.61,84.03l0.34,0.05c0.1,0.01,0.19,0.03,0.27,0.04c-0.03,0.04-0.07,0.08-0.11,0.12  c0.17-0.01,0.35-0.02,0.53-0.02l0.01-0.6c-0.33,0-0.64,0.03-0.94,0.07c0,0,0,0,0,0L35.61,84.03z"></path>	<path class="st1" d="M32.92,82.41c-0.12,0.07-0.23,0.14-0.35,0.17L32.4,82c0.11-0.03,0.23-0.1,0.36-0.18  c-0.01-0.07-0.03-0.14-0.03-0.21c-0.03-0.99,0.31-2.08,0.31-2.09l0.18-0.57l-0.56,0.2c-0.07,0.03-1.32,0.49-2.52,2.21  c0.06,0.05,0.11,0.09,0.16,0.12L30.01,82c-0.06-0.03-0.13-0.08-0.2-0.14c-0.31,0.52-0.61,1.13-0.87,1.85  c0.15,0.16,0.29,0.33,0.44,0.52l0.01,0c0.86-2.54,2.18-3.72,2.92-4.21c-0.09,0.44-0.18,1.04-0.17,1.61  c0.02,0.67,0.35,1.3,0.67,1.92c0.22,0.43,0.43,0.84,0.52,1.23c0.17-0.13,0.33-0.26,0.5-0.37c-0.13-0.39-0.3-0.77-0.5-1.14  C33.18,82.98,33.03,82.69,32.92,82.41z"></path>	<path class="st1" d="M33.34,84.81l0.58-0.13c-0.02-0.09-0.06-0.18-0.09-0.27c-0.17,0.11-0.34,0.24-0.5,0.37  C33.33,84.79,33.33,84.8,33.34,84.81z"></path>	<path class="st1" d="M28.82,84.03l0.56,0.19c-0.14-0.19-0.29-0.35-0.44-0.52C28.9,83.82,28.86,83.92,28.82,84.03z"></path>	<path class="st1" d="M34.54,80.15l-0.42,0.19c-0.44,0.61-0.93,1.18-1.36,1.48c0.03,0.19,0.08,0.39,0.16,0.59  c1.11-0.64,2.39-2.64,2.79-3.61c-0.03,0.01-0.06,0.02-0.08,0.04l-0.6,0.33l0.17-0.67c0-0.01,0-0.01,0-0.02  c-0.14,0.37-0.42,0.89-0.77,1.41C34.47,79.99,34.51,80.07,34.54,80.15z"></path>	<path class="st1" d="M35.03,79.17l0.6-0.33c0.03-0.02,0.06-0.03,0.08-0.04c0.02-0.04,0.04-0.08,0.05-0.12l-0.56-0.21  c0,0-0.01,0.01-0.01,0.02c0,0.01,0,0.01,0,0.02L35.03,79.17z"></path>	<path class="st1" d="M32.58,82.58c0.11-0.03,0.23-0.1,0.35-0.17c-0.08-0.2-0.13-0.39-0.16-0.59c-0.13,0.09-0.25,0.15-0.36,0.18  L32.58,82.58z"></path>	<path class="st1" d="M31.18,75.32c0.39,0.2,1.77,2.79,2.83,5.08l0.12-0.06c0.11-0.15,0.21-0.29,0.31-0.44  c-0.38-0.81-1.09-2.29-1.76-3.46l-0.44-0.06c0.02-0.11,0.08-0.25,0.16-0.41c-0.39-0.63-0.74-1.09-0.98-1.19  c-0.1-0.04-0.27-0.07-0.48,0.04c-0.16,0.08-0.34,0.25-0.52,0.47c-0.04,0.39-0.11,0.69-0.21,0.96L30,76.16  c0.07,0.16,0.11,0.3,0.11,0.4l-0.53-0.03c-0.53,0.92-1.01,1.98-1.24,2.59c0.12,0.17,0.25,0.34,0.37,0.51l0.08,0.02  C29.01,78.73,30.68,75.44,31.18,75.32z"></path>	<path class="st1" d="M34.54,80.15c-0.03-0.07-0.07-0.16-0.12-0.25c-0.1,0.15-0.2,0.3-0.31,0.44L34.54,80.15z"></path>	<path class="st1" d="M26.46,76.79c-0.03-0.01-0.06-0.02-0.08-0.03l-0.02,0.1c0.03,0,0.06,0,0.09,0  C26.45,76.84,26.45,76.82,26.46,76.79z"></path>	<path class="st1" d="M29.81,81.86c0.11-0.18,0.22-0.35,0.33-0.51c-0.35-0.3-0.9-1-1.44-1.73l-0.5-0.13  c0.02-0.09,0.07-0.22,0.13-0.39c-0.11-0.16-0.22-0.31-0.33-0.45c-0.46-0.64-0.77-1.06-1-1.35c0,0,0,0,0,0l-0.07,0.61l-0.3-0.3  c0.01,0.06,0.01,0.13,0.02,0.2c0.26,0.34,0.59,0.79,0.88,1.19C28.51,80.4,29.28,81.44,29.81,81.86z"></path>	<path class="st1" d="M26.21,77.33c0.07,0.05,0.23,0.24,0.43,0.49c-0.01-0.06-0.01-0.14-0.02-0.2l0.3,0.3L27,77.32c0,0,0,0,0,0  c-0.26-0.32-0.41-0.47-0.54-0.52c0,0.02,0,0.05-0.01,0.07c-0.03,0-0.06,0-0.09,0l-0.05,0.33L26.21,77.33z"></path>	<path class="st1" d="M30.3,81.47c-0.05-0.02-0.1-0.07-0.16-0.12c-0.11,0.16-0.22,0.33-0.33,0.51c0.07,0.06,0.14,0.1,0.2,0.14  L30.3,81.47z"></path>	<path class="st1" d="M28.2,79.5l0.5,0.13c-0.13-0.17-0.25-0.34-0.37-0.51C28.27,79.28,28.22,79.41,28.2,79.5z"></path>	<path class="st1" d="M29.57,76.52c0.08-0.15,0.17-0.29,0.26-0.43l-0.19-0.07c0.04-0.11,0.07-0.23,0.1-0.37  c-0.39-0.67-1.02-1.54-1.6-2.22c-0.08,0.06-0.13,0.1-0.14,0.1l-0.18,0.12l-0.17-0.14c0,0-0.19-0.16-0.46-0.33  c0,0.02,0,0.06,0.01,0.08c0.9,0.88,2.28,2.89,2.32,3.26L29.57,76.52z"></path>	<path class="st1" d="M27.17,72.46l-0.01,0.02c0.03,0.02,0.06,0.03,0.09,0.05C27.22,72.51,27.19,72.48,27.17,72.46z"></path>	<path class="st1" d="M27.19,73.26c0-0.03,0-0.06-0.01-0.08c0.27,0.17,0.46,0.33,0.46,0.33l0.17,0.14L28,73.54  c0.01-0.01,0.07-0.04,0.14-0.1c-0.34-0.4-0.65-0.72-0.9-0.9c-0.03-0.02-0.06-0.03-0.09-0.05l-0.33,0.48  C26.93,73.03,27.06,73.13,27.19,73.26z"></path>	<path class="st1" d="M30,76.16l-0.17-0.06c-0.09,0.14-0.17,0.28-0.26,0.43l0.53,0.03C30.11,76.46,30.06,76.32,30,76.16z"></path>	<path class="st1" d="M33.64,74.27c0.05,0.11,0.1,0.21,0.15,0.32l-0.56,0.22c0-0.01-0.01-0.02-0.01-0.03  c-0.35,0.43-0.66,0.86-0.83,1.19c0.09,0.15,0.19,0.31,0.28,0.48l0.15,0.02c0.06-0.4,1.52-2.2,2.43-2.97  c-0.15-0.1-0.22-0.31-0.26-0.55C34.61,73.24,34.12,73.73,33.64,74.27z"></path>	<path class="st1" d="M35.25,73.49c0.13-0.11,0.25-0.2,0.35-0.26l-0.31-0.51c-0.09,0.05-0.19,0.13-0.3,0.22  C35.02,73.17,35.1,73.38,35.25,73.49z"></path>	<path class="st1" d="M32.67,76.44c-0.1-0.17-0.19-0.33-0.28-0.48c-0.08,0.16-0.15,0.31-0.16,0.41L32.67,76.44z"></path>	<path class="st1" d="M30.41,75.28c0.06-0.57,0.07-1.32,0.07-2.42c0-1.26,0.18-1.7,0.55-2.11c0.19,0.96,0.79,1.82,1.33,2.59  c0.35,0.51,0.68,0.98,0.86,1.43c0.14-0.17,0.28-0.34,0.43-0.5c-0.21-0.42-0.49-0.83-0.8-1.27c-0.07-0.11-0.15-0.22-0.22-0.33  c-0.11,0.05-0.22,0.07-0.33,0.07c-0.03,0-0.07,0-0.1-0.01l0.07-0.59c0.01,0,0.01,0,0.02,0c-0.4-0.65-0.72-1.32-0.72-2.04v-0.68  L31,69.94c-0.14,0.12-0.25,0.24-0.36,0.35c0.11,0.16,0.18,0.31,0.2,0.42l-0.57,0.06c-0.26,0.44-0.38,1.01-0.38,2.07  c0,1.43-0.02,2.24-0.14,2.8c0.07,0.12,0.11,0.21,0.16,0.31C30.07,75.7,30.24,75.47,30.41,75.28z"></path>	<path class="st1" d="M30,76.16l0.2,0.08c0.1-0.27,0.17-0.57,0.21-0.96c-0.16,0.19-0.33,0.43-0.5,0.69  C29.93,76.03,29.97,76.1,30,76.16z"></path>	<path class="st1" d="M29.74,75.65c-0.03,0.13-0.06,0.26-0.1,0.37l0.19,0.07c0.03-0.04,0.05-0.08,0.08-0.12  C29.85,75.87,29.81,75.77,29.74,75.65z"></path>	<path class="st1" d="M29.9,75.97c-0.03,0.04-0.05,0.08-0.08,0.12L30,76.16C29.97,76.1,29.93,76.03,29.9,75.97z"></path>	<path class="st1" d="M33.23,74.8l0.56-0.22c-0.04-0.11-0.09-0.21-0.15-0.32c-0.15,0.17-0.29,0.33-0.43,0.5  C33.22,74.78,33.23,74.79,33.23,74.8z"></path>	<path class="st1" d="M32.28,72.14c0.11,0.18,0.23,0.35,0.34,0.53c0.71-0.31,1.15-1.55,1.31-2.1c-0.02,0.01-0.03,0.01-0.05,0.03  l-0.37,0.34l-0.12-0.49c-0.01-0.03-0.01-0.05-0.02-0.07C33.1,71.28,32.63,72.16,32.28,72.14z"></path>	<path class="st1" d="M34.34,70.52l0-0.02c-0.06,0.01-0.13,0.03-0.2,0.03c-0.01,0-0.01,0-0.02,0  C34.18,70.54,34.25,70.53,34.34,70.52z"></path>	<path class="st1" d="M34.11,69.93c0.01,0,0.03,0,0.04,0c-0.01-0.01-0.03-0.02-0.06-0.03c-0.05-0.04-0.15-0.1-0.27-0.1  c0.02,0.06,0.04,0.1,0.05,0.16C33.96,69.93,34.05,69.93,34.11,69.93z"></path>	<path class="st1" d="M33.39,70.3c-0.01,0.03-0.02,0.05-0.02,0.08c0.01,0.03,0.01,0.05,0.02,0.07l0.12,0.49l0.37-0.34  c0.02-0.02,0.04-0.02,0.05-0.03c0.01-0.02,0.02-0.06,0.02-0.08c0.04,0.02,0.1,0.03,0.15,0.03c0.01,0,0.01,0,0.02,0  c0.07,0,0.14-0.01,0.2-0.03l-0.12-0.57c-0.02,0.01-0.04,0-0.06,0c-0.01,0-0.03,0-0.04,0c-0.07,0-0.15,0-0.24,0.02  c-0.02-0.06-0.04-0.1-0.05-0.16c-0.03,0-0.07,0-0.11,0.02C33.52,69.88,33.46,70.08,33.39,70.3z"></path>	<path class="st1" d="M32.19,72.74c0.03,0,0.07,0.01,0.1,0.01c0.12,0,0.23-0.03,0.33-0.07c-0.12-0.17-0.23-0.35-0.34-0.53  c-0.01,0-0.01,0-0.02,0L32.19,72.74z"></path>	<path class="st1" d="M30.24,70.78l0.03,0c0.1-0.17,0.23-0.33,0.37-0.48c-0.13-0.19-0.32-0.4-0.53-0.58  c-0.19,0.13-0.4,0.22-0.62,0.22c-0.04,0-0.09-0.02-0.13-0.02C29.69,70.07,30.19,70.62,30.24,70.78z"></path>	<path class="st1" d="M29.5,69.34c-0.06-0.02-0.13-0.04-0.19-0.05l0,0.03c0.06,0.01,0.12,0.02,0.18,0.02  C29.49,69.34,29.5,69.34,29.5,69.34z"></path>	<path class="st1" d="M29.36,69.92c0.04,0,0.09,0.02,0.13,0.02c0.22,0,0.43-0.08,0.62-0.22c-0.2-0.17-0.41-0.31-0.61-0.38  c0,0-0.01,0-0.01,0c-0.05,0-0.12-0.01-0.18-0.02l-0.07,0.56C29.28,69.88,29.32,69.9,29.36,69.92z"></path>	<path class="st1" d="M30.63,70.3c-0.14,0.15-0.27,0.31-0.37,0.48l0.57-0.06C30.82,70.61,30.74,70.46,30.63,70.3z"></path>	<path class="st1" d="M31.49,121.68c0.03,0.32,0.08,0.8,0.26,1.86l0.12-0.02c0.14-0.1,0.28-0.21,0.43-0.33  c-0.14-0.86-0.19-1.29-0.22-1.57c-0.03-0.27-0.05-0.45-0.13-0.78c-0.03,0.04-0.05,0.08-0.08,0.12l-0.5-0.33  c0.1-0.16,0.22-0.33,0.34-0.5c-0.32-0.81-0.8-1.45-1.22-1.89c-0.01,0.06-0.03,0.14-0.03,0.19l-0.03,0.56l-0.19-0.14  c0.4,0.46,0.83,1.08,1.06,1.86C31.44,121.2,31.46,121.34,31.49,121.68z"></path>	<path class="st1" d="M30.46,118.43c0-0.05,0.02-0.13,0.03-0.19c-0.04-0.04-0.08-0.09-0.11-0.12l-0.42,0.42  c0.09,0.09,0.19,0.2,0.28,0.31l0.19,0.14L30.46,118.43z"></path>	<path class="st1" d="M32.3,123.19c-0.15,0.11-0.29,0.22-0.43,0.33l0.47-0.08C32.33,123.34,32.32,123.27,32.3,123.19z"></path>	<path class="st1" d="M31.71,120.12c-0.12,0.17-0.23,0.35-0.34,0.5l0.5,0.33c0.03-0.04,0.05-0.08,0.08-0.12  c-0.02-0.09-0.05-0.19-0.08-0.31C31.83,120.39,31.76,120.26,31.71,120.12z"></path>	<path class="st1" d="M27.36,110.87c-0.13,0.2-0.28,0.43-0.44,0.69C27.08,111.3,27.23,111.07,27.36,110.87z"></path>	<path class="st1" d="M26.26,113.66c0.06-0.09,0.12-0.18,0.18-0.27C26.38,113.48,26.32,113.57,26.26,113.66z"></path>	<path class="st1" d="M28.15,109.55c0-0.01,0-0.01,0.01-0.02c-0.04,0.07-0.07,0.15-0.11,0.22  C28.08,109.68,28.11,109.62,28.15,109.55z"></path>	<path class="st1" d="M28.7,109.77c-0.1,0.19-0.18,0.36-0.27,0.51c0.82-1.45,1.74-3.88,2.03-4.89c0.09-0.32,0.27-0.54,0.54-0.67  c0.17-0.08,0.37-0.12,0.59-0.12c0.32,0,0.67,0.08,1.04,0.24c0.58,0.25,0.82,1.05,1.19,2.25c0.25,0.83,0.57,1.85,1.09,3.04  l-1.33,2.26c-0.18-0.61-0.49-1.59-1.01-2.87c-0.34-0.86-0.63-1.37-1.06-1.4c-0.49-0.04-0.83,0.51-1.49,1.6  c-0.18,0.3-0.38,0.63-0.63,1.03c-0.77,1.53-1.53,2.88-2.23,4.08l0.19-0.32l0.19,0.67c0.01,0.04,0.02,0.08,0.04,0.12  c0.73-1.24,1.52-2.65,2.33-4.25c0.24-0.37,0.44-0.71,0.62-1.01c0.36-0.6,0.77-1.28,0.93-1.32c0.04,0.01,0.21,0.13,0.56,1.03  c0.86,2.15,1.16,3.47,1.16,3.48l0.01,0.04c0.67-1.23,1.67-3.04,1.67-3.04l0.3-0.54l0.29,0.69l0.13-0.22l-0.06-0.14  c-0.55-1.22-0.87-2.27-1.13-3.11c-0.42-1.36-0.69-2.26-1.52-2.62c-0.79-0.35-1.54-0.39-2.12-0.12c-0.43,0.2-0.72,0.56-0.86,1.04  c-0.14,0.49-0.5,1.5-0.93,2.55c0,0.07,0.01,0.13,0.01,0.19C29.01,108.42,28.92,109.06,28.7,109.77z"></path>	<path class="st1" d="M27.94,109.94c-0.09,0.17-0.19,0.32-0.28,0.46C27.75,110.27,27.84,110.12,27.94,109.94z"></path>	<path class="st1" d="M27.16,116c-0.21,0.34-0.41,0.67-0.6,0.98c0,0,0,0,0,0C26.76,116.67,26.96,116.34,27.16,116  C27.16,116,27.16,116,27.16,116z"></path>	<path class="st1" d="M25.92,116.88c-1.32,2.08-2.33,3.39-2.75,3.9c-0.91,1.14-3.42,3.38-4.19,3.28c-0.05-0.01-0.06-0.02-0.08-0.06  c-0.32-0.69,1.39-2.59,2.64-3.98c0.4-0.44,0.79-0.87,1.14-1.29c0.78-0.92,1.81-2.39,2.78-3.84l-0.16-0.67  c-0.01-0.04-0.02-0.08-0.03-0.12c-1.04,1.58-2.19,3.25-3.04,4.25c-0.35,0.41-0.74,0.84-1.13,1.27c-1.66,1.84-3.23,3.58-2.74,4.63  c0.11,0.23,0.3,0.37,0.55,0.4c0.03,0,0.06,0.01,0.1,0.01c1.26,0,3.96-2.66,4.64-3.5c0.39-0.48,1.29-1.66,2.49-3.5  c-0.06-0.21-0.12-0.43-0.18-0.66L25.92,116.88z"></path>	<path class="st1" d="M26.76,112.91c0.09-0.13,0.17-0.26,0.25-0.38C26.92,112.65,26.84,112.78,26.76,112.91z"></path>	<path class="st1" d="M25.71,113.42L25.71,113.42c0.42-0.65,0.82-1.26,1.15-1.78c0,0,0,0.01-0.01,0.01  C26.52,112.17,26.13,112.78,25.71,113.42z"></path>	<path class="st1" d="M28.17,110.72c-0.01,0.01-0.02,0.03-0.03,0.05c-0.09,0.14-0.2,0.31-0.33,0.51c0.13-0.2,0.24-0.37,0.33-0.51  C28.15,110.75,28.16,110.73,28.17,110.72z"></path>	<path class="st1" d="M34.86,110.25c0,0-0.99,1.81-1.67,3.04l0.16,0.7l2.1-3.59l-0.29-0.69L34.86,110.25z"></path>	<path class="st1" d="M27.8,111.28c-0.13,0.2-0.28,0.44-0.45,0.69c-0.11,0.17-0.23,0.36-0.35,0.55c0.13-0.2,0.26-0.4,0.37-0.58  C27.53,111.7,27.68,111.48,27.8,111.28z"></path>	<path class="st1" d="M26.86,111.64c0.02-0.03,0.03-0.05,0.05-0.08c-0.01,0.02-0.03,0.04-0.04,0.06  C26.87,111.63,26.86,111.63,26.86,111.64z"></path>	<path class="st1" d="M25.84,114.32c0.15-0.22,0.29-0.44,0.43-0.65c-0.26,0.4-0.54,0.81-0.81,1.23l0,0.01L25.84,114.32z"></path>	<path class="st1" d="M28.17,110.72c0.08-0.13,0.17-0.27,0.27-0.44C28.34,110.44,28.25,110.59,28.17,110.72z"></path>	<path class="st1" d="M26.44,113.39c0.11-0.17,0.21-0.33,0.31-0.49C26.65,113.06,26.55,113.23,26.44,113.39z"></path>	<path class="st1" d="M25.55,113.35c-1.1-0.38-1.88-0.58-2.45-0.73c-1.17-0.3-1.44-0.37-2.12-1.29c-0.38-0.52-0.76-1.14-1.13-1.73  c-0.41-0.66-0.75-1.2-1.05-1.6c-0.28-0.03-0.55-0.06-0.82-0.06l0.01-0.6c0.32,0.01,0.65,0.03,0.98,0.08  c-0.17-0.66-0.83-3.34-1.15-5.88c-0.38-0.42-0.64-0.81-0.72-1.11c0.21,2.62,0.94,5.74,1.22,6.88l-0.43-0.06l-0.11,0.59  c0.33,0.08,1.01,1.19,1.55,2.08c0.37,0.61,0.76,1.24,1.15,1.77c0.8,1.09,1.25,1.21,2.45,1.52c0.53,0.14,1.26,0.32,2.26,0.66  c0.02,0.07,0.04,0.16,0.06,0.24c0.15-0.23,0.3-0.45,0.44-0.67L25.55,113.35z"></path>	<path class="st1" d="M25.24,95.52c0.08-0.13,0.16-0.31,0.24-0.57c0.07,0.22,0.14,0.58,0.14,1.15c0,1.5,0.3,2.45,0.95,3.05  c0.24-0.21,0.49-0.41,0.76-0.57l0.3,0.52c-0.04,0.02-0.07,0.05-0.11,0.07c-0.23,1.13-0.52,3.33,0.22,5.09l0,0.02  c0.13-0.08,0.25-0.18,0.39-0.25l0.18,0.39c0.01-0.01,0.02-0.01,0.04-0.02c0,0.03,0,0.06,0,0.09l0.04,0.08  c-0.01,0.01-0.03,0.02-0.04,0.02c-0.03,0.93-0.06,2.56,0.02,3.42c0.04,0.37-0.05,0.93-0.22,1.51c0.27-0.54,0.55-1.14,0.8-1.75  c-0.08-1.26,0.01-3.82,0.01-3.85l0.02-0.53l-0.46,0.26c-0.1,0.06-0.22,0.12-0.32,0.17c-0.8-2.21,0.05-5.19,0.06-5.22L28.44,98  l-0.57,0.23c-0.03,0.01-0.28,0.12-0.9,0.49c-0.38-0.34-0.76-1-0.76-2.62c0-1.85-0.65-2.06-0.85-2.08l-0.26-0.03l-0.06,0.26  l0.58,0.13C25.62,94.41,25.5,94.93,25.24,95.52z"></path>	<path class="st1" d="M25.03,94.3C25.04,94.3,25.04,94.3,25.03,94.3C25.04,94.3,25.04,94.3,25.03,94.3z"></path>	<path class="st1" d="M17.7,100.34c-0.04-0.5-0.06-0.99-0.05-1.42c0.01-0.82,0.03-1.64,0.04-2.42c-0.28-0.38-0.48-0.8-0.51-1.27  l0.53-0.04c0.02-1.04,0.03-1.92,0.04-2.46l1.16,0.79l-0.38-0.42l0.44-0.4l0.07,0.07c0.04-0.81,0.15-1.98,0.36-2.35  c0.15-0.28,0.47-1.07,0.57-1.79c0.1,0.11,0.21,0.23,0.31,0.34c0.84,0.92,1.64,1.79,1.89,2.72c0.06-0.1,0.12-0.2,0.16-0.27  l0.51,0.32c-0.01,0.01-0.01,0.02-0.02,0.03c0.2-0.16,0.44-0.36,0.66-0.56c-0.01,0.84-0.03,2.09,0.02,2.35  c0,0.02,0.45,1.65,0.98,2.16c0.11-0.19,0.2-0.39,0.28-0.57c-0.24-0.41-0.62-1.41-0.67-1.68c-0.04-0.23-0.02-1.93,0-2.94l0.02-0.71  l-0.52,0.49c-0.01,0.01-0.55,0.51-0.97,0.87c-0.36-0.91-1.11-1.73-1.9-2.59c-0.3-0.33-0.61-0.66-0.91-1.01  c-0.02-0.02-0.04-0.05-0.06-0.07l-0.44,0.4c0.01,0.01,0.02,0.03,0.04,0.04c0.17,0.27-0.09,1.5-0.47,2.21  c-0.27,0.49-0.37,1.65-0.42,2.35l-1.28-0.87l-0.01,0.55c0,0-0.06,3.45-0.11,6.73c-0.01,0.44,0.01,0.92,0.05,1.41l0.57-0.07  C17.68,100.28,17.69,100.31,17.7,100.34z"></path>	<path class="st1" d="M28.04,109.74c-0.04,0.07-0.07,0.14-0.11,0.2C27.97,109.88,28.01,109.81,28.04,109.74z"></path>	<path class="st1" d="M27.36,110.87c0.11-0.16,0.21-0.32,0.28-0.43c0.01-0.01,0.01-0.02,0.02-0.03c-0.01,0.01-0.01,0.02-0.02,0.03  C27.56,110.55,27.46,110.71,27.36,110.87z"></path>	<path class="st1" d="M27.89,104.46c0.1,0.06,0.19,0.07,0.43-0.04l-0.18-0.39c-0.14,0.07-0.26,0.16-0.39,0.25l0,0.09L27.89,104.46z"></path>	<path class="st1" d="M19.13,108l-0.11-0.43c0-0.01-0.02-0.07-0.04-0.16c-0.33-0.04-0.65-0.07-0.98-0.08l-0.01,0.6  c0.27,0,0.55,0.03,0.82,0.06c-0.01-0.01-0.02-0.02-0.02-0.03L19.13,108z"></path>	<path class="st1" d="M28.39,104.58l-0.04-0.08c0,0.03,0,0.07,0,0.1C28.36,104.6,28.38,104.59,28.39,104.58z"></path>	<path class="st1" d="M26.93,99.44l0.17-0.11c0.17-0.1,0.31-0.19,0.43-0.26c-0.01,0.03-0.01,0.06-0.02,0.09  c0.04-0.02,0.07-0.05,0.11-0.07l-0.3-0.52c-0.27,0.16-0.52,0.35-0.76,0.57c0.07,0.06,0.13,0.12,0.21,0.18L26.93,99.44z"></path>	<path class="st1" d="M17.7,100.34c-0.01-0.03-0.03-0.07-0.03-0.09l-0.57,0.07c0,0.03,0,0.07,0.01,0.1  c0.08,0.31,0.34,0.69,0.72,1.11C17.78,101.13,17.73,100.73,17.7,100.34z"></path>	<path class="st1" d="M24.77,95.88c0.09,0,0.27,0,0.47-0.36c0.26-0.59,0.39-1.11,0.39-1.14l-0.58-0.13l0,0  c0,0.02-0.01,0.03-0.01,0.05c0,0,0,0,0,0.01c-0.08,0.33-0.19,0.66-0.28,0.86c0,0,0-0.01-0.01-0.01c-0.08,0.19-0.17,0.38-0.28,0.57  C24.57,95.81,24.66,95.88,24.77,95.88z"></path>	<path class="st1" d="M17.18,95.23c0.03,0.47,0.23,0.89,0.51,1.27c0.01-0.45,0.02-0.89,0.02-1.3L17.18,95.23z"></path>	<path class="st1" d="M19.03,93.05c0-0.08,0.01-0.18,0.01-0.27l-0.07-0.07l-0.44,0.4l0.38,0.42l0.1,0.07L19.03,93.05z"></path>	<path class="st1" d="M22.28,92.17l0.36-0.26c0.05-0.03,0.12-0.09,0.17-0.14c0.01-0.01,0.01-0.02,0.02-0.03l-0.51-0.32  c-0.04,0.07-0.1,0.17-0.16,0.27c0,0.01,0.01,0.03,0.02,0.04L22.28,92.17z"></path>	<path class="st1" d="M25.45,114.9c0.28-0.42,0.55-0.83,0.81-1.23c0.06-0.09,0.12-0.18,0.18-0.27c0.11-0.16,0.21-0.33,0.31-0.49  c0.08-0.13,0.17-0.26,0.25-0.38c0.12-0.19,0.24-0.38,0.35-0.55c0.16-0.26,0.31-0.49,0.45-0.69c0.13-0.2,0.24-0.37,0.33-0.51  c0.01-0.01,0.02-0.03,0.03-0.05c0.09-0.13,0.18-0.28,0.27-0.44c0.08-0.15,0.17-0.32,0.27-0.51c0.22-0.71,0.31-1.35,0.27-1.81  c-0.01-0.06-0.01-0.12-0.01-0.19c-0.25,0.61-0.53,1.22-0.8,1.75c0,0.01,0,0.01-0.01,0.02c-0.04,0.07-0.07,0.13-0.11,0.19  c-0.04,0.07-0.07,0.14-0.11,0.2c-0.1,0.17-0.19,0.33-0.28,0.46c-0.01,0.01-0.01,0.02-0.02,0.03c-0.08,0.12-0.18,0.27-0.28,0.43  c-0.13,0.2-0.28,0.43-0.44,0.69c-0.02,0.03-0.03,0.05-0.05,0.08c-0.33,0.52-0.73,1.13-1.15,1.78l0,0  c-0.14,0.22-0.29,0.45-0.44,0.67c0.01,0.04,0.02,0.08,0.03,0.12L25.45,114.9z"></path>	<path class="st1" d="M28.96,119.36l0.04-0.11l0,0c-0.23,0.62-0.44,1.45-0.46,2.45l0.01-0.23  C28.59,120.72,28.73,120.02,28.96,119.36z"></path>	<path class="st1" d="M27.16,116c0.41,1.32,0.87,2.53,1.19,3.26c0.1-0.3,0.21-0.56,0.32-0.78c-0.33-0.82-0.74-1.97-1.09-3.18  C27.44,115.55,27.3,115.78,27.16,116z"></path>	<path class="st1" d="M27.96,121.28c0.01-0.12,0.03-0.22,0.04-0.33c-0.51-0.92-0.98-2.22-1.43-3.96c-0.15,0.24-0.29,0.46-0.44,0.68  c0.5,1.82,1.02,3.11,1.61,4.01l0.04,0.06l0.05-0.63L27.96,121.28z"></path>	<path class="st1" d="M25.99,116.77l-0.07,0.11l0,0c0.39-0.61,0.81-1.3,1.25-2.04L27,115.11C26.65,115.7,26.31,116.26,25.99,116.77z  "></path>	<path class="st1" d="M28.54,121.69L28.54,121.69c0.02-1,0.22-1.84,0.46-2.45l-0.05-0.11c-0.08-0.18-0.18-0.4-0.28-0.65  c-0.11,0.22-0.22,0.48-0.32,0.78c0,0,0,0.01,0,0.01c-0.18,0.53-0.3,1.09-0.36,1.67c0,0,0,0,0,0c-0.01,0.11-0.03,0.22-0.04,0.33  l-0.13-0.18l-0.05,0.63l0.07,0.11L28.54,121.69z"></path>	<path class="st1" d="M26.56,116.98c0.2-0.31,0.4-0.64,0.6-0.98c0,0,0,0,0,0c0.14-0.23,0.28-0.46,0.42-0.7  c-0.01-0.04-0.02-0.08-0.04-0.12l-0.19-0.67l-0.19,0.32c-0.44,0.75-0.86,1.43-1.25,2.04l0.03,0.12c0.06,0.23,0.12,0.45,0.18,0.66  C26.27,117.44,26.41,117.22,26.56,116.98C26.56,116.98,26.56,116.98,26.56,116.98z"></path>	<path class="st1" d="M90.3,69.62c0.14,0,0.42,0.02,0.55,0.05c0.53,0.11,0.66,0.37,0.69,0.92c0.03,0.51,0.03,0.96,0.03,3.47v2.83  c0,1.54,0,2.81-0.08,3.49c-0.06,0.47-0.14,0.82-0.47,0.88c-0.14,0.03-0.34,0.06-0.48,0.06c-0.1,0-0.13,0.05-0.13,0.1  c0,0.1,0.08,0.13,0.26,0.13c0.48,0,1.5-0.05,1.58-0.05s1.09,0.05,1.98,0.05c0.18,0,0.26-0.05,0.26-0.13c0-0.05-0.03-0.1-0.13-0.1  c-0.14,0-0.5-0.03-0.72-0.06c-0.48-0.06-0.58-0.42-0.63-0.88c-0.08-0.67-0.08-1.95-0.08-3.49v-1.37c0-0.11,0.03-0.14,0.11-0.14  c0.27,0,2.02,0,2.43,0.05c0.5,0.06,0.76,0.35,0.84,0.58c0.07,0.19,0.08,0.42,0.1,0.58c0,0.08,0.03,0.14,0.11,0.14  c0.11,0,0.11-0.16,0.11-0.31c0-0.11,0.03-0.75,0.06-1.08c0.05-0.53,0.13-0.8,0.13-0.9c0-0.08-0.02-0.13-0.08-0.13  c-0.07,0-0.11,0.08-0.18,0.16c-0.14,0.21-0.35,0.26-0.74,0.29c-0.22,0.02-0.45,0.02-0.72,0.02l-2.06,0.02  c-0.1,0-0.11-0.05-0.11-0.14v-4.44c0-0.13,0.05-0.18,0.14-0.18l2.48,0.05c0.63,0.02,1,0.31,1.09,0.51c0.1,0.21,0.14,0.48,0.14,0.61  c0,0.11,0.03,0.19,0.11,0.19c0.08,0,0.11-0.1,0.13-0.18c0.03-0.19,0.06-0.9,0.08-1.06c0.05-0.45,0.13-0.64,0.13-0.76  c0-0.08-0.03-0.14-0.1-0.14c-0.06,0-0.13,0.06-0.22,0.1c-0.14,0.05-0.4,0.05-0.71,0.06c-0.37,0.02-3.63,0-3.95,0l-0.66-0.02  c-0.35-0.02-0.79-0.02-1.16-0.02c-0.18,0-0.26,0.03-0.26,0.13C90.17,69.59,90.23,69.62,90.3,69.62z"></path>	<path class="st1" d="M98.89,71.44c0.13,0,0.37,0.02,0.48,0.03c0.47,0.06,0.55,0.32,0.58,0.75c0.03,0.43,0.03,0.82,0.03,2.94v2.01  c0,1.99,0.55,2.94,1.24,3.58c1,0.93,2.47,0.96,2.94,0.96c0.84,0,1.93-0.11,2.96-1c1.12-0.96,1.32-2.62,1.32-4.1v-1.46  c0-2.12-0.02-2.51,0.02-2.94c0.03-0.45,0.11-0.67,0.5-0.75c0.18-0.03,0.26-0.03,0.35-0.03c0.06,0,0.11-0.06,0.11-0.11  c0-0.08-0.06-0.11-0.22-0.11c-0.42,0-1.09,0.03-1.19,0.03c-0.08,0-0.9-0.03-1.53-0.03c-0.16,0-0.22,0.03-0.22,0.11  c0,0.05,0.05,0.11,0.11,0.11c0.13,0,0.37,0.02,0.48,0.03c0.47,0.06,0.55,0.32,0.56,0.75c0.02,0.43,0.03,0.82,0.03,2.94v1.72  c0,1.4-0.14,2.52-0.8,3.31c-0.48,0.58-1.32,0.96-2.18,0.96c-0.8,0-1.41-0.11-2.11-0.74c-0.61-0.55-1.04-1.37-1.04-3.34v-1.91  c0-2.12,0-2.51,0.03-2.94c0.03-0.45,0.11-0.69,0.48-0.75c0.18-0.03,0.26-0.03,0.35-0.03c0.06,0,0.13-0.06,0.13-0.11  c0-0.08-0.08-0.11-0.24-0.11c-0.42,0-1.3,0.03-1.43,0.03c-0.13,0-0.98-0.03-1.62-0.03c-0.16,0-0.22,0.03-0.22,0.11  C98.78,71.37,98.84,71.44,98.89,71.44z"></path>	<path class="st1" d="M114.43,81.43c0-0.06-0.05-0.11-0.11-0.11c-0.13,0-0.45-0.02-0.71-0.08c-0.39-0.1-0.51-0.43-0.55-1.56  l-0.16-6.44c0.43,0.48,2.02,2.15,3.66,3.87c1.49,1.56,3.54,3.57,3.68,3.7c0.79,0.72,0.93,0.84,1.08,0.84c0.1,0,0.11-0.08,0.11-0.98  l0.03-8c0-0.82,0.03-1.09,0.5-1.19c0.16-0.03,0.27-0.03,0.34-0.03c0.1,0,0.16-0.08,0.16-0.13c0-0.08-0.11-0.1-0.26-0.1  c-0.58,0-1.04,0.03-1.21,0.03c-0.16,0-0.84-0.03-1.48-0.03c-0.16,0-0.27,0.02-0.27,0.1c0,0.05,0.02,0.13,0.11,0.13  c0.11,0,0.43,0.02,0.69,0.06c0.43,0.08,0.51,0.39,0.53,1.27l0.14,6.85c-0.43-0.45-1.95-2.07-3.34-3.52  c-2.19-2.25-4.24-4.44-4.47-4.66c-0.15-0.14-0.39-0.42-0.55-0.42c-0.11,0-0.19,0.14-0.19,0.69v7.83c0,1.24-0.05,1.61-0.4,1.7  c-0.21,0.07-0.47,0.08-0.58,0.08c-0.07,0-0.11,0.05-0.11,0.11c0,0.1,0.08,0.11,0.22,0.11c0.64,0,1.24-0.05,1.37-0.05  c0.13,0,0.69,0.05,1.49,0.05C114.34,81.55,114.43,81.51,114.43,81.43z"></path>	<path class="st1" d="M135.15,76.24c0-1.62-0.68-2.76-1.38-3.47c-1.67-1.69-4.26-1.56-5.67-1.56c-0.84,0-1.74,0.03-1.9,0.03  c-0.08,0-1-0.03-1.64-0.03c-0.16,0-0.22,0.03-0.22,0.11c0,0.05,0.06,0.11,0.11,0.11c0.13,0,0.37,0.02,0.48,0.03  c0.47,0.07,0.55,0.29,0.58,0.76c0.03,0.43,0.03,0.82,0.03,2.94v2.41c0,1.32,0,2.39-0.08,2.96c-0.07,0.4-0.1,0.66-0.37,0.72  c-0.13,0.03-0.3,0.06-0.43,0.06c-0.08,0-0.11,0.07-0.11,0.11c0,0.08,0.08,0.11,0.22,0.11c0.22,0,0.56-0.02,0.85-0.03  c0.29,0,0.55-0.01,0.58-0.01c0.06,0,0.55,0.03,1.16,0.08c0.61,0.03,1.37,0.08,1.98,0.08c2.41,0,3.68-0.95,4.29-1.57  C134.41,79.28,135.15,77.96,135.15,76.24z M129.35,81.14c-1.67,0-2.17-0.29-2.35-0.55c-0.11-0.14-0.14-0.64-0.16-0.98  c-0.02-0.26-0.02-1.53-0.02-2.97v-4.56c0-0.16,0.05-0.22,0.18-0.27c0.13-0.05,0.58-0.1,0.85-0.1c1.69,0,3.25,0.18,4.58,1.53  c0.58,0.58,1.33,1.69,1.33,3.42c0,1.25-0.37,2.55-1.11,3.25C131.8,80.71,130.65,81.14,129.35,81.14z"></path>	<path class="st1" d="M135.76,81.54c0.58,0,1.28-0.05,1.43-0.05c0.16,0,0.93,0.05,1.27,0.05c0.13,0,0.21-0.03,0.21-0.11  c0-0.06-0.03-0.11-0.14-0.11h-0.13c-0.24,0-0.48-0.1-0.48-0.37c0-0.24,0.08-0.58,0.21-0.92l0.8-2.19c0.03-0.08,0.08-0.11,0.15-0.11  h3.26c0.08,0,0.1,0.02,0.13,0.08l1.27,3.13c0.1,0.22-0.05,0.34-0.13,0.37c-0.07,0.03-0.1,0.03-0.1,0.1c0,0.08,0.23,0.08,0.5,0.1  c0.98,0.03,2.02,0.03,2.23,0.03c0.16,0,0.32-0.03,0.32-0.11c0-0.08-0.1-0.11-0.18-0.11c-0.14,0-0.35-0.02-0.56-0.08  c-0.31-0.1-0.69-0.27-1.21-1.49c-0.87-2.07-3.13-7.71-3.39-8.29c-0.14-0.31-0.19-0.5-0.34-0.5c-0.1,0-0.16,0.08-0.34,0.53  l-3.33,8.55c-0.27,0.69-0.55,1.17-1.19,1.25c-0.11,0.02-0.32,0.03-0.42,0.03c-0.07,0-0.13,0.05-0.13,0.11  C135.48,81.51,135.58,81.54,135.76,81.54z M140.53,73.33c0.08-0.21,0.16-0.21,0.24,0l1.4,3.74c0.02,0.06,0.02,0.1-0.05,0.1h-2.86  c-0.05,0-0.07-0.03-0.05-0.1L140.53,73.33z"></path>	<path class="st1" d="M148.53,80.26c1.11,0.96,2.54,1.46,4.66,1.46c0.92,0,1.98-0.08,2.56-0.31c0.24-0.1,0.27-0.14,0.35-0.4  c0.14-0.47,0.34-1.66,0.34-1.75c0-0.1-0.06-0.19-0.13-0.19c-0.1,0-0.11,0.05-0.14,0.19c-0.05,0.26-0.24,0.84-0.55,1.14  c-0.56,0.56-1.27,0.64-2.33,0.64c-3.02,0-5.09-2.33-5.09-4.95c0-1.38,0.23-2.6,1.27-3.57c0.5-0.47,1.37-0.95,3.18-0.95  c1.25,0,2.28,0.34,2.78,0.76c0.37,0.29,0.59,0.84,0.59,1.37c0,0.19,0.02,0.29,0.11,0.29c0.08,0,0.15-0.08,0.16-0.29  c0.01-0.19,0.01-0.95,0.03-1.4c0.03-0.5,0.06-0.66,0.06-0.77c0-0.08-0.03-0.14-0.18-0.14c-0.47-0.02-0.92-0.11-1.45-0.21  c-0.69-0.11-1.5-0.16-2.06-0.16c-2.17,0-3.45,0.64-4.31,1.46c-1.25,1.22-1.59,2.81-1.59,3.73  C146.81,77.51,147.15,79.07,148.53,80.26z"></path>	<path class="st1" d="M158.88,71.44c0.1,0,0.27,0.02,0.43,0.05c0.31,0.06,0.42,0.27,0.45,0.74c0.03,0.43,0.03,0.82,0.03,2.94v2.41  c0,1.32-0.02,2.39-0.08,2.96c-0.05,0.4-0.1,0.66-0.37,0.72c-0.13,0.03-0.3,0.06-0.43,0.06c-0.08,0-0.11,0.06-0.11,0.11  c0,0.08,0.08,0.11,0.23,0.11c0.43,0,1.32-0.05,1.4-0.05c0.06,0,0.98,0.05,1.77,0.05c0.16,0,0.23-0.05,0.23-0.11  c0-0.05-0.03-0.11-0.11-0.11c-0.13,0-0.43-0.03-0.64-0.06c-0.42-0.06-0.47-0.32-0.51-0.72c-0.06-0.56-0.06-1.64-0.06-2.96v-2.41  c0-2.12,0-2.51,0.02-2.94c0.03-0.48,0.11-0.68,0.5-0.76c0.16-0.03,0.26-0.03,0.35-0.03c0.05,0,0.11-0.06,0.11-0.11  c0-0.08-0.07-0.11-0.23-0.11c-0.43,0-1.35,0.03-1.41,0.03c-0.08,0-0.96-0.03-1.43-0.03c-0.16,0-0.22,0.03-0.22,0.11  C158.77,71.37,158.82,71.44,158.88,71.44z"></path>	<path class="st1" d="M169.05,70.01c0.03,0,0.13-0.03,0.24-0.08c0.53-0.23,1.66-0.59,2.44-0.68c0.27-0.03,0.43,0,0.48,0  c0.06,0,0.14-0.05,0.06-0.19c-0.18-0.32-0.29-0.55-0.4-0.71c-0.08-0.11-0.11-0.14-0.16-0.14c-0.08,0-0.18,0.05-0.45,0.21  c-0.11,0.06-1.61,0.96-2.19,1.37c-0.08,0.05-0.11,0.08-0.11,0.13C168.97,69.97,169.02,70.01,169.05,70.01z"></path>	<path class="st1" d="M169.74,81.72c3.41,0,5.67-2.52,5.67-5.58c0-3.18-2.41-5.13-5.59-5.13c-3.9,0-5.61,3.13-5.61,5.34  C164.22,78.81,165.87,81.72,169.74,81.72z M169.74,71.53c2.23,0,4.23,1.72,4.23,5c0,3.95-2.55,4.63-3.82,4.63  c-2.56,0-4.47-1.99-4.47-5.17C165.68,73.01,167.38,71.53,169.74,71.53z"></path>	<path class="st1" d="M177.22,81.55c0.64,0,1.24-0.05,1.37-0.05c0.13,0,0.69,0.05,1.49,0.05c0.16,0,0.26-0.03,0.26-0.11  c0-0.06-0.05-0.11-0.11-0.11c-0.13,0-0.45-0.02-0.71-0.08c-0.39-0.1-0.51-0.43-0.55-1.56l-0.16-6.44c0.43,0.48,2.02,2.15,3.66,3.87  c1.49,1.56,3.54,3.57,3.68,3.7c0.79,0.72,0.93,0.84,1.08,0.84c0.1,0,0.11-0.08,0.11-0.98l0.03-8c0-0.82,0.03-1.09,0.5-1.19  c0.16-0.03,0.27-0.03,0.34-0.03c0.1,0,0.16-0.08,0.16-0.13c0-0.08-0.11-0.1-0.26-0.1c-0.58,0-1.04,0.03-1.21,0.03  c-0.16,0-0.84-0.03-1.48-0.03c-0.16,0-0.27,0.02-0.27,0.1c0,0.05,0.02,0.13,0.11,0.13c0.11,0,0.43,0.02,0.69,0.06  c0.43,0.08,0.51,0.39,0.53,1.27l0.14,6.85c-0.43-0.45-1.95-2.07-3.34-3.52c-2.19-2.25-4.24-4.44-4.47-4.66  c-0.14-0.14-0.39-0.42-0.55-0.42c-0.11,0-0.19,0.14-0.19,0.69v7.83c0,1.24-0.05,1.61-0.4,1.7c-0.21,0.07-0.47,0.08-0.58,0.08  c-0.06,0-0.11,0.05-0.11,0.11C176.99,81.53,177.07,81.55,177.22,81.55z"></path></g></svg>