<svg xmlns="http://www.w3.org/2000/svg" xmlns:xlink="http://www.w3.org/1999/xlink" id="Capa_1" x="0px" y="0px" viewBox="0 0 300 200" style="enable-background:new 0 0 300 200;" xml:space="preserve"><style type="text/css">	.st0{fill:none;}	.st1{fill:#878787;}</style><g>	<g>		<path class="st1" d="M127.71,85.87c0-4.94,0.02-9.88-0.02-14.82c-0.01-0.97,0.27-1.27,1.25-1.25c2.86,0.06,5.72-0.08,8.58,0.04   c3.22,0.14,6.49,0.21,9.48,1.61c4.37,2.04,7.06,5.43,8.44,10.12c1.42,4.83,0.46,9.17-2.07,13.23c-2.23,3.58-5.7,5.53-9.8,6.4   c-4.49,0.95-9.04,0.74-13.59,0.68c-2.27-0.03-2.27-0.03-2.27-2.29C127.71,95.01,127.71,90.44,127.71,85.87z M135.87,93.75   c0.41,0.77,1.67,0.86,2.65,0.2c1.51-0.18,3.04-0.12,4.53-0.64c2.42-0.84,4.15-2.44,4.87-4.81c0.7-2.3,0.62-4.62-0.82-6.82   c-1.26-1.92-2.87-3.12-5.03-3.83c-1.62-0.53-3.23-0.21-4.84-0.38c-1.06-0.11-1.41,0.23-1.4,1.34   C135.89,83.79,135.87,88.77,135.87,93.75z"></path>		<path class="st1" d="M207.82,101.94c-2.85-0.18-5.26-1.43-7.41-3.18c-5.06-4.11-6.87-9.51-5.78-15.82   c0.44-2.53,1.57-4.83,3.29-6.88c2.61-3.11,5.83-5.12,9.77-5.64c3.97-0.53,7.84-0.04,11.35,2.3c5.35,3.56,7.78,8.57,7.42,14.84   c-0.2,3.56-1.77,6.67-4.19,9.4c-1.85,2.08-4.09,3.52-6.61,4.43c-2.32,0.83-4.81,1-7.3,0.69   C208.23,101.81,208.03,101.85,207.82,101.94z M208.76,78.09c-0.23,0.17-0.47,0.27-0.76,0.33c-1.25,0.24-2.37,0.81-3.25,1.69   c-2.85,2.84-3.64,7.01-1.15,10.67c1.61,2.36,3.79,3.65,6.54,3.73c2.79,0.08,4.94-1.22,6.85-3.38c1.57-1.78,2.01-6.37,1.08-8.2   c-1.24-2.47-3.15-4.09-5.83-4.8C211.09,77.47,209.93,77.51,208.76,78.09z"></path>		<path class="st1" d="M66.6,86c0-4.78,0.04-9.55-0.03-14.33c-0.01-1.14,0.24-1.55,1.46-1.53c4.49,0.07,8.99,0.05,13.48,0.03   c6.09-0.03,10.57,4.79,10.06,10.78c-0.23,2.69-1.37,5.14-3.72,6.76c-0.74,0.51-0.57,1.04-0.32,1.65   c1.54,3.83,3.06,7.67,4.65,11.47c0.33,0.79,0.34,1.06-0.62,1.03c-2.04-0.05-4.08-0.03-6.13,0c-0.76,0.01-1.14-0.25-1.44-0.98   c-1.43-3.47-2.96-6.9-4.39-10.38c-0.23-0.56-0.54-0.62-1.01-0.62c-1.1,0-2.21,0.04-3.31-0.01c-0.81-0.04-1.06,0.27-1.05,1.06   c0.03,3.18-0.02,6.37,0.04,9.55c0.02,1.06-0.26,1.45-1.36,1.39c-1.67-0.09-3.35-0.08-5.02-0.01c-1,0.04-1.34-0.26-1.33-1.3   C66.63,95.72,66.6,90.86,66.6,86z M78.04,83.28c1.1,0,2.2,0.05,3.3-0.01c1.79-0.1,3.18-1.58,3.17-3.3   c-0.01-1.74-1.5-3.28-3.3-3.32c-2.08-0.04-4.16,0.01-6.24-0.03c-0.73-0.01-0.9,0.29-0.89,0.94c0.03,1.59,0.04,3.18,0,4.77   c-0.02,0.78,0.31,0.99,1.02,0.96C76.08,83.26,77.06,83.29,78.04,83.28z"></path>		<path class="st1" d="M232.84,85.9c0-4.86,0.02-9.72-0.02-14.58c-0.01-0.93,0.28-1.17,1.18-1.16c6.33,0.03,12.66,0.04,18.99,0   c0.95-0.01,1.19,0.32,1.15,1.21c-0.06,1.51-0.06,3.02,0,4.53c0.04,0.88-0.28,1.11-1.12,1.1c-3.55-0.04-7.11,0.03-10.66-0.04   c-1.11-0.02-1.43,0.35-1.34,1.4c0.08,0.97,0.07,1.96,0,2.94c-0.07,0.94,0.22,1.29,1.22,1.27c2.86-0.06,5.72,0.02,8.58-0.04   c0.97-0.02,1.29,0.28,1.25,1.25c-0.07,1.51-0.06,3.02,0.01,4.53c0.04,0.9-0.23,1.21-1.16,1.19c-2.9-0.06-5.8,0.01-8.7-0.04   c-0.91-0.02-1.25,0.26-1.19,1.18c0.07,1.1,0.06,2.21,0,3.31c-0.05,0.88,0.3,1.11,1.14,1.1c3.68-0.04,7.35,0.03,11.03-0.04   c1.12-0.02,1.4,0.34,1.34,1.39c-0.08,1.47-0.05,2.94,0,4.41c0.02,0.77-0.19,1.08-1.03,1.08c-6.54-0.03-13.07-0.03-19.61,0.01   c-0.91,0-1.07-0.36-1.07-1.16C232.85,95.78,232.84,90.84,232.84,85.9z"></path>		<path class="st1" d="M98.94,85.97c0-4.86,0.03-9.72-0.02-14.58c-0.01-0.98,0.3-1.24,1.25-1.23c6.29,0.03,12.58,0.03,18.87-0.01   c0.93-0.01,1.2,0.29,1.16,1.19c-0.07,1.47-0.07,2.94,0,4.41c0.04,0.95-0.23,1.27-1.22,1.25c-3.39-0.06-6.78-0.03-10.17-0.03   c-1.97,0-1.72-0.15-1.74,1.67c-0.01,0.86,0.08,1.72-0.02,2.57c-0.13,1.14,0.35,1.36,1.39,1.34c2.82-0.06,5.64,0.02,8.46-0.04   c1.01-0.02,1.26,0.32,1.22,1.27c-0.07,1.55-0.06,3.1,0,4.65c0.03,0.81-0.25,1.06-1.05,1.05c-2.94-0.04-5.88,0.01-8.82-0.04   c-0.9-0.02-1.25,0.23-1.19,1.16c0.07,1.06,0.07,2.13,0,3.18c-0.07,0.94,0.21,1.27,1.21,1.26c3.63-0.06,7.27,0.01,10.91-0.05   c1.08-0.02,1.55,0.21,1.46,1.4c-0.11,1.5-0.04,3.02-0.01,4.53c0.01,0.68-0.23,0.94-0.93,0.94c-6.62-0.02-13.24-0.03-19.85,0   c-0.96,0-0.91-0.56-0.9-1.2C98.94,95.77,98.94,90.87,98.94,85.97z"></path>		<path class="st1" d="M271.28,102.68c-5.03-0.22-8.34-2.8-10.26-7.36c-0.35-0.83-0.22-1.67-0.25-2.52   c-0.02-0.54,0.35-0.56,0.74-0.56c2.12,0,4.25,0,6.37-0.01c0.5,0,0.68,0.17,0.74,0.7c0.21,1.86,1.4,2.87,3.26,2.86   c1.07-0.01,2.1,0.12,3.09-0.68c1.58-1.29,1.7-3.23-0.02-4.32c-0.68-0.42-1.49-0.69-2.31-0.94c-2.59-0.79-5.46-0.92-7.69-2.58   c-2.34-1.73-3.9-3.98-4.24-7.11c-0.48-4.4,3.52-8.61,7.09-9.68c3.93-1.18,7.68-1.01,11.22,0.92c2.9,1.58,4.5,4.26,5.03,7.55   c0.14,0.87-0.13,1.25-1.1,1.21c-1.88-0.07-3.76-0.04-5.64-0.01c-0.85,0.01-1.41-0.11-1.36-1.18c0.04-0.83-0.51-1.46-1.23-1.81   c-1.67-0.82-3.4-0.8-5,0.08c-1.07,0.58-1.17,1.75-1.12,2.9c0.05,1.12,0.95,1.52,1.71,1.86c1.76,0.78,3.66,1.2,5.55,1.49   c3.88,0.59,6.87,3.7,7.8,7.56c1.16,4.81-2.6,9.81-6.87,10.93c-1.16,0.3-2.28,0.65-3.48,0.71   C272.63,102.55,271.96,102.55,271.28,102.68z"></path>		<path class="st1" d="M175.88,102.03c-5.03-0.4-8.83-2.97-11.7-6.92c-2.05-2.83-2.66-6.14-2.6-9.63c0.07-4.21,1.58-7.83,4.51-10.74   c2.45-2.42,5.46-3.92,8.96-4.45c3.48-0.53,6.73,0.01,9.82,1.55c1.07,0.53,2.03,1.31,3.03,1.97c0.08,0.24,0.24,0.39,0.49,0.46   c0.6,0.48,0.1,0.91-0.15,1.23c-0.43,0.54-0.98,0.98-1.48,1.46c-0.6,0.22-1.04,0.59-1.2,1.24c-0.65,0.62-1.21,1.5-1.98,1.77   c-0.78,0.28-1.42-0.71-2.15-1.1c-3.5-1.85-6.79-1.22-9.59,1.21c-1.69,1.46-2.64,3.55-2.55,6.03c0.11,3.24,1.52,5.64,4.24,7.22   c2.94,1.7,6.29,1.38,9.15-0.77c0.66-0.49,1-0.49,1.51,0.03c1.39,1.42,2.66,2.96,4.19,4.23c0.46,0.39,0.41,0.76-0.02,1.12   c-2.12,1.74-4.35,3.26-7.13,3.74c-0.67,0.12-1.35,0.23-2.02,0.35C178.1,101.92,176.99,101.88,175.88,102.03z"></path>		<path class="st1" d="M37.85,96.78c5.58,0,9.3,4.15,9.35,9.24c0.05,4.99-3.94,9.55-10.08,9.42c-3.71-0.08-8.23-4.32-8.58-8.55   C28.04,100.82,33.25,96.47,37.85,96.78z M37.76,112.7c3.8,0.48,7.02-3.71,6.85-6.71c-0.2-3.61-3.24-6.73-6.81-6.56   c-4.05,0.19-6.7,2.95-6.69,6.71C31.13,109.89,34.66,113.19,37.76,112.7z"></path>		<path class="st1" d="M49.22,101.46c-3.24-0.79-5.34-2.88-6.48-5.91c-1.36-3.63-0.58-6.98,2.12-9.64c2.62-2.58,5.88-3.62,9.53-2.36   c4.8,1.66,7.04,5.98,6.52,9.69c-0.63,4.44-3.24,7.41-7.76,8.45C51.84,101.41,50.53,101.49,49.22,101.46z M45.04,92.4   c-0.43,4.18,3.55,6.99,6.66,6.84c3.66-0.18,6.51-3.14,6.57-6.84c0.06-3.63-2.99-6.56-6.51-6.69   C48.33,85.59,44.55,88.48,45.04,92.4z"></path>		<path class="st1" d="M33.29,94.31c-0.3,1.79-1.09,3.39-2.31,4.66c-1.3,1.35-2.84,2.45-4.81,2.69c-1.32,0.01-2.63,0.03-3.95,0.04   c-1.29,0.02-2.33-0.7-3.29-1.35c-4.63-3.16-5.32-8.92-2.55-13.08c2.89-4.34,8.99-5.3,13.22-2.26c1.83,1.32,2.93,2.99,3.44,5.13   c0.08,1.31,0.17,2.63,0.25,3.94c0,0,0,0,0,0c-0.06,0.03-0.13,0.07-0.19,0.1C33.17,94.23,33.23,94.27,33.29,94.31z M23.98,85.97   c-3.47-0.06-6.73,2.84-6.44,7.25c0.18,2.76,2.98,6.34,7.13,6.07c2.94-0.19,6.4-3.62,6.23-6.93C30.72,89,27.52,85.7,23.98,85.97z"></path>		<path class="st1" d="M39.5,69.67c4.29,1,7.18,3.85,7.49,8.6c0.27,4.04-1.67,6.95-5.05,8.92c-2.35,1.38-7.67,1.2-10.03-1.06   c-1.98-1.9-3.3-3.95-3.49-6.6c-0.17-2.36,0.41-4.58,1.98-6.51c1.41-1.73,3.1-2.84,5.27-3.27C36.96,69.81,38.23,69.88,39.5,69.67z    M38.43,85.48c3.88-0.52,6.21-3.72,5.91-7.25c-0.24-2.75-1.71-4.61-4.3-5.72c-2.49-1.06-6.59,0.24-7.97,2.57   c-2.23,3.76-0.7,8.93,3.92,10.16c0.17,0.18,0.36,0.2,0.58,0.11c0.13,0.04,0.27,0.08,0.4,0.11C37.45,85.93,37.94,85.93,38.43,85.48   z"></path>		<path class="st1" d="M66.68,115.35c0-3.32,0-6.64,0-9.96c0.14-0.11,0.28-0.22,0.43-0.33c1.56,0.04,3.09-0.12,4.66,0.47   c1.71,0.64,2.03,3.92,0.54,4.89c-0.86,0.56-0.64,1.03-0.26,1.64c0.38,0.61,0.89,1.17,1.14,1.84c0.21,0.56,0.73,0.98,0.73,1.62   c-1.1,0.48-1.55-0.4-1.84-1.06c-0.36-0.82-0.92-1.51-1.23-2.34c-0.19-0.51-0.5-0.64-1.01-0.66c-1.93-0.08-1.93-0.1-1.93,1.85   c0,0.57,0,1.14-0.01,1.71c0,0.52-0.2,0.86-0.78,0.85C67.02,115.66,66.96,115.4,66.68,115.35z M69.22,106.15   c-0.86-0.17-1.61,0.15-1.26,1.26c0.31,0.99-1.14,2.77,1.07,2.93c2.05,0.15,3.07-0.87,3.01-2.15   C71.97,106.76,71.28,106.18,69.22,106.15z"></path>		<path class="st1" d="M88.61,110.17c0,1.51-0.01,3.02,0,4.53c0.01,0.72-0.12,1.2-1.03,0.93c-0.33-0.1-0.74-0.03-1.09,0.04   c-2.28,0.48-3.3-0.01-4.01-2.23c-0.41-1.27-0.39-2.66,0.22-3.9c0.69-1.4,2.09-2.02,3.79-1.65c0.87,0.19,0.99-0.1,0.95-0.82   c-0.03-0.57,0-1.14,0-1.71c0-0.48,0.3-0.63,0.7-0.64c0.48-0.01,0.47,0.36,0.48,0.68C88.62,106.99,88.62,108.58,88.61,110.17   C88.62,110.17,88.61,110.17,88.61,110.17z M87.48,111.74c0-0.2-0.01-0.41,0-0.61c0.08-0.98,0.05-1.9-1.21-2.1   c-1.48-0.23-2.13,0.21-2.6,1.67c-0.24,0.76-0.27,1.58-0.05,2.28c0.27,0.87,0.57,2.01,1.84,1.92c1.71-0.12,2.02-0.54,2.01-2.3   C87.48,112.31,87.48,112.02,87.48,111.74z"></path>		<path class="st1" d="M270.01,107.74c0.01-0.73-0.01-1.47,0.02-2.2c0.02-0.52,0.32-0.86,0.85-0.82c0.56,0.04,0.4,0.53,0.4,0.86   c0.01,3.09-0.01,6.19,0.01,9.28c0,0.66-0.25,0.98-0.85,0.68c-0.51-0.25-0.86,0.08-1.24,0.19c-1.92,0.55-3.09,0.03-3.91-1.77   c-0.66-1.46-0.58-3,0.04-4.35c0.7-1.51,1.8-2.15,3.95-1.69c0.05,0.21,0.15,0.4,0.39,0.34   C269.91,108.21,270.03,108.01,270.01,107.74z M266.14,112.94c0.37,0.98,0.63,2.14,2.04,1.95c1.71-0.23,1.84-0.5,1.84-2.71   c0-0.45,0-0.89,0-1.34c-0.01-1.45-0.43-1.81-1.87-1.84c-1.19-0.03-1.61,0.72-1.93,1.64C265.64,111.39,265.75,112.16,266.14,112.94   z"></path>		<path class="st1" d="M101.18,104.85c0.56-0.26,0.94-0.24,0.94,0.53c-0.01,3.18,0,6.35,0,9.53c0,0.42-0.1,0.73-0.6,0.7   c-0.69-0.05-1.35,0.14-2.02,0.24c-1.93,0.28-3.3-0.59-3.59-2.5c-0.25-1.67-0.48-3.42,1.08-4.8c1.19-1.06,2.42-0.74,3.71-0.52   c0.55-0.16,0.43-0.62,0.44-1C101.17,106.31,101.17,105.58,101.18,104.85z M100.98,111.63c-0.17-0.61,0.35-1.46-0.27-2.09   c-0.85-0.87-2.54-0.65-3.24,0.37c-0.8,1.14-0.59,2.4-0.24,3.57c0.37,1.19,1.32,1.65,2.32,1.41c1.17-0.27,1.53-1.06,1.43-2.16   C100.95,112.4,100.98,112.08,100.98,111.63z"></path>		<path class="st1" d="M199.51,104.89c0.66-0.16,0.95,0.02,0.95,0.77c-0.03,3.05-0.03,6.1-0.01,9.15c0,0.7-0.13,1.03-0.96,0.81   c-0.71-0.19-1.38,0.3-2.13,0.27c-1.54-0.07-2.48-0.69-3-2.11c-0.4-1.1-0.46-2.26-0.2-3.35c0.41-1.7,2.2-3.33,4.83-2.4   c0.68,0.16,0.45-0.4,0.46-0.66C199.51,106.56,199.5,105.72,199.51,104.89z M199.32,111.75c0-0.45-0.04-0.9,0.01-1.34   c0.08-0.7-0.29-1.05-0.87-1.27c-1.48-0.57-2.93,0.25-3.13,1.82c-0.11,0.88-0.06,1.77,0.25,2.62c0.38,1.05,1.07,1.33,2.6,1.08   c0.99-0.16,1.13-0.88,1.13-1.7C199.32,112.56,199.32,112.15,199.32,111.75z"></path>		<path class="st1" d="M158.75,107.76c0-0.73,0.04-1.47,0-2.2c-0.04-0.6,0.32-0.83,0.79-0.85c0.55-0.02,0.47,0.47,0.47,0.81   c0.01,3.1-0.01,6.2,0.01,9.3c0,0.64-0.22,1.01-0.84,0.69c-0.49-0.25-0.78,0.1-1.13,0.2c-2.16,0.63-3.72-0.15-4.27-2.32   c-0.26-1.05-0.36-2.2,0.08-3.23c0.89-2.09,1.9-2.62,3.93-2.33c0.16,0.28,0.35,0.51,0.71,0.45   C158.8,108.23,158.81,108,158.75,107.76z M158.59,114.2c0.13-0.14,0.38-0.27,0.39-0.41c0.03-1.31,0.02-2.63,0-3.94   c0-0.21-0.21-0.32-0.43-0.33c-1.43-1-3.18-0.54-3.59,0.86c-0.16,0.52-0.04,1.13-0.09,1.69c-0.09,1.07,0.15,2.12,1.06,2.66   C156.82,115.27,157.76,114.7,158.59,114.2z"></path>		<path class="st1" d="M263.44,112.65c0,0.73,0.02,1.47,0,2.2c-0.02,0.72-0.25,1.27-1.07,0.72c-0.48-0.32-0.75,0.05-1.09,0.18   c-2.03,0.78-3.9-0.54-3.71-2.64c0.09-0.98,1.28-1.94,2.64-2.1c0.28-0.03,0.58,0.04,0.85-0.02c0.42-0.1,1.14,0.39,1.18-0.56   c0.03-0.8-0.43-1.26-1.11-1.36c-0.65-0.09-1.37-0.22-2.01,0.19c-0.45,0.29-0.79,0.05-0.97-0.34c-0.26-0.54,0.22-0.53,0.55-0.67   c3.02-1.36,5.08,0.3,4.77,2.94C263.4,111.66,263.45,112.16,263.44,112.65z M262.22,113c0.22-0.93-0.5-0.82-1.11-0.78   c-0.91,0.06-2.15-0.35-2.26,1.1c-0.07,0.82,0.32,1.59,1.39,1.61C261.31,114.95,262.21,114.13,262.22,113z"></path>		<path class="st1" d="M78.66,112.11c-0.33,0-0.67-0.06-0.98,0.01c-0.54,0.14-1.41-0.49-1.58,0.55c-0.16,0.95,0.74,2.1,1.69,2.21   c0.77,0.09,1.53-0.04,2.29-0.22c0.25-0.06,0.6-0.17,0.73,0.2c0.17,0.45-0.24,0.56-0.51,0.66c-2.96,1.1-5.58-0.06-5.59-3.67   c0-2.42,1.29-4.02,3.27-4.07c1.26-0.03,2.48,0.76,2.83,2C81.49,112.17,81.88,112.16,78.66,112.11z M77.87,111.02   C77.87,111.01,77.87,111.01,77.87,111.02c0.24-0.01,0.49,0.03,0.73-0.01c0.4-0.07,1.07,0.27,1.15-0.3   c0.08-0.56-0.22-1.15-0.81-1.5c-0.46-0.27-0.95-0.18-1.42-0.16c-0.59,0.03-1.69,1.16-1.51,1.6c0.26,0.66,0.91,0.26,1.38,0.36   C77.54,111.04,77.71,111.02,77.87,111.02z"></path>		<path class="st1" d="M180.78,112.1c-1.31,0-2.61,0.02-3.92,0.01c-0.65-0.01-0.85,0.24-0.74,0.9c0.24,1.49,1.46,2.29,3.09,1.85   c0.64-0.18,1.48-0.52,1.69,0.17c0.15,0.5-0.84,0.51-1.36,0.66c-2.88,0.8-4.78-0.65-4.82-3.65c-0.02-1.25,0.07-2.35,1.12-3.3   c1.52-1.37,3.09-1.39,4.33,0.23c0.45,0.59,0.91,1.22,0.94,2.03C180.72,111.27,180.9,111.73,180.78,112.1z M177.8,111.01   c0.24,0,0.49,0.04,0.73-0.01c0.43-0.08,1.17,0.28,1.23-0.35c0.07-0.74-0.42-1.39-1.21-1.59c-0.38-0.1-0.81-0.07-1.21-0.01   c-0.85,0.13-1.28,0.85-1.29,1.52c0,0.76,0.82,0.31,1.26,0.43C177.46,111.04,177.63,111.01,177.8,111.01z"></path>		<path class="st1" d="M107.59,112.11c-0.53,0-1.06,0.04-1.59-0.01c-1.14-0.1-1.15,0.47-0.81,1.29c0.54,1.29,1.85,1.86,3.47,1.43   c0.44-0.12,0.99-0.4,1.14,0.12c0.15,0.53-0.47,0.58-0.91,0.7c-1.6,0.43-3.11,0.55-4.31-0.9c-1.63-1.97-0.71-6.1,1.51-6.81   c2.1-0.67,4.52,1.48,4.13,3.65c-0.08,0.44-0.31,0.52-0.67,0.52C108.89,112.1,108.24,112.1,107.59,112.11   C107.59,112.11,107.59,112.11,107.59,112.11z M106.87,111.01c0.28,0,0.57,0.03,0.85-0.01c0.37-0.04,0.89,0.21,1.03-0.35   c0.12-0.47-0.16-0.88-0.46-1.2c-0.57-0.61-1.91-0.59-2.52,0c-0.38,0.36-0.9,0.81-0.72,1.28c0.18,0.47,0.86,0.24,1.33,0.27   C106.55,111.02,106.71,111.01,106.87,111.01z"></path>		<path class="st1" d="M152.17,112.66c0,0.77-0.02,1.55,0.01,2.32c0.02,0.58-0.35,0.82-0.75,0.6c-0.67-0.36-1.15,0.06-1.71,0.2   c-1.91,0.46-3.63-0.53-3.44-2.62c0.09-1,1.34-2.02,2.71-2.16c0.28-0.03,0.58,0.05,0.85-0.02c0.39-0.1,1.05,0.37,1.09-0.52   c0.03-0.7-0.24-1.23-0.91-1.37c-0.62-0.14-1.26-0.19-1.9,0.11c-0.51,0.24-1.07,0.04-1.2-0.48c-0.12-0.47,0.49-0.54,0.82-0.66   c2.24-0.82,4.65,0.08,4.42,3.01C152.14,111.6,152.17,112.13,152.17,112.66C152.17,112.66,152.17,112.66,152.17,112.66z    M149.65,112.09c-0.89,0.02-1.98-0.05-2.09,1.3c-0.05,0.68,0.29,1.41,1.1,1.49c1.36,0.14,2.36-0.76,2.4-1.9   C151.09,111.91,150.36,112.12,149.65,112.09z"></path>		<path class="st1" d="M244.29,110.73c0.09-1.6-0.61-2.09-2.44-1.68c-0.3,0.07-0.57,0.3-0.92,0.2c-0.25-0.07-0.44-0.22-0.5-0.47   c-0.06-0.29,0.11-0.41,0.37-0.52c2.6-1.15,5.09-0.32,4.96,2.88c-0.05,1.22,0.01,2.44-0.02,3.66c-0.02,0.73-0.18,1.39-1.12,0.72   c-0.41-0.29-0.67,0.1-0.99,0.2c-1.91,0.6-4.03-0.2-3.71-2.71c0.1-0.79,0.72-1.12,1.21-1.58c0.92-0.09,1.84-0.18,2.76-0.27   C244.15,111.14,244.37,111.08,244.29,110.73z M243.09,112.09c-0.93,0.02-1.95-0.04-1.93,1.36c0.01,0.72,0.16,1.43,1.07,1.46   c1.36,0.04,2.26-0.78,2.3-1.89C244.58,111.84,243.75,112.14,243.09,112.09z"></path>		<path class="st1" d="M205.91,112.1c-0.53,0-1.06,0.03-1.59-0.01c-0.87-0.05-1.09,0.28-0.77,1.09c0.63,1.62,1.51,2.09,3.23,1.63   c0.53-0.15,1.26-0.45,1.44,0.16c0.2,0.66-0.69,0.7-1.11,0.78c-2.75,0.54-4.72-0.27-4.92-3.54c-0.11-1.75,0.1-3.38,1.95-4.16   c0.93-0.39,1.95-0.59,2.83,0.21c0.99,0.9,1.6,1.98,1.58,3.36c-0.01,0.48-0.36,0.48-0.68,0.48   C207.21,112.11,206.56,112.1,205.91,112.1z M205.3,111.01c0.24,0,0.49,0.03,0.73-0.01c0.41-0.07,1.03,0.25,1.18-0.28   c0.18-0.64-0.3-1.15-0.81-1.49c-0.62-0.4-1.36-0.34-1.97-0.07c-0.54,0.24-1.01,0.87-0.93,1.45c0.1,0.73,0.86,0.28,1.32,0.39   C204.96,111.04,205.13,111.01,205.3,111.01z"></path>		<path class="st1" d="M234.61,115.88c-0.72,0.06-1.45-0.02-2.16-0.43c-0.39-0.22-0.42-0.49-0.31-0.79c0.14-0.39,0.45-0.23,0.7-0.09   c1.09,0.6,2.2,0.18,3.3,0.07c0.58-0.06,0.99-0.43,1.05-0.99c0.07-0.61,0.25-1.23-0.48-1.73c-0.84-0.57-1.67-1.11-2.63-1.44   c-1.12-0.39-1.78-1.25-2.17-2.31c-0.48-1.32,0.69-2.79,1.66-3.04c1.18-0.3,2.38-0.47,3.53,0.06c0.32,0.15,1.12,0.06,0.78,0.75   c-0.21,0.43-0.74,0.5-1.27,0.2c-0.78-0.44-1.62-0.44-2.42-0.02c-0.53,0.28-1.14,0.5-1.13,1.27c0.01,0.82,0.37,1.46,1.09,1.86   c0.74,0.4,1.51,0.76,2.27,1.12c1.58,0.75,2.32,2.02,1.99,3.44c-0.3,1.31-1.51,2.08-3.26,2.09   C235,115.88,234.84,115.88,234.61,115.88z"></path>		<path class="st1" d="M273.22,110.21c0.57-1.79,1.9-2.61,3.93-2.41c1.3,0.13,2.58,1.52,2.72,3.09c0.09,1.04,0.1,2.08-0.37,3.09   c-0.64,1.35-1.99,2.07-3.77,1.9c-1.26-0.12-2.12-0.96-2.47-2.43c0.06-0.24,0-0.42-0.24-0.51c-0.17-0.73-0.14-1.47-0.01-2.2   C273.23,110.63,273.29,110.45,273.22,110.21z M278.66,111.88c0-0.16,0-0.33,0-0.49c0-1.4-0.86-2.36-2.14-2.37   c-1.56-0.02-2.26,0.69-2.28,2.3c-0.01,0.49-0.03,0.98,0,1.46c0.09,1.58,1.01,2.26,2.56,1.91   C278.17,114.38,278.66,113.64,278.66,111.88z"></path>		<path class="st1" d="M168.61,112.03c0.03,1.17-0.15,2.37-1.34,3.16c-1.27,0.84-2.58,1.02-3.98,0.26   c-1.83-0.99-2.01-4.41-1.19-5.83c1.07-1.87,3.17-2.4,4.88-1.36C168.11,108.94,168.62,110.06,168.61,112.03z M162.96,111.73   c-0.01,1.65,0.57,3.04,1.49,3.13c1.04,0.09,2-0.22,2.65-1.21c0.6-0.92,0.7-2.43,0.12-3.41c-0.57-0.98-1.39-1.38-2.52-1.2   C163.43,109.23,162.97,109.92,162.96,111.73z"></path>		<path class="st1" d="M128.79,115.88c-2.23,0.15-3.28-1.68-3.41-3.99c-0.12-2.18,1.49-4.13,3.61-4.15c2.1-0.02,3.6,2.06,3.55,4.07   C132.47,114.31,131.14,115.92,128.79,115.88z M126.79,110.66c-0.63,0.79-0.65,1.58,0.01,2.36c0.34,0.92,0.64,2,1.88,1.86   c2.05-0.22,2.52-1.42,2.66-2.79c0.17-1.73-0.91-2.88-1.78-3.05C128.24,108.77,127.37,109.27,126.79,110.66z"></path>		<path class="st1" d="M213.88,126.42c-0.05,0.24-0.09,0.48-0.17,0.71c-0.09,0.28-0.33,0.35-0.59,0.31   c-0.32-0.06-0.34-0.3-0.29-0.56c0.29-1.61,0.58-3.23,0.88-4.84c0.06-0.31,0.33-0.58,0.61-0.46c1.27,0.57,2.65-0.66,3.98,0.34   c0.4,0.3,1.29-0.42,2.06-0.43c1.04-0.01,1.48,0.34,1.45,1.41c-0.05,1.42-0.57,2.74-0.76,4.13c-0.06,0.44-0.36,0.36-0.63,0.35   c-0.35-0.02-0.36-0.29-0.31-0.53c0.18-0.86,0.38-1.71,0.56-2.57c0.14-0.69,0.54-1.68-0.29-1.91c-0.72-0.2-1.63,0.27-2.03,1.17   c-0.43,0.96-0.51,2-0.71,3c-0.1,0.53-0.25,1.13-0.77,1.03c-0.72-0.13-0.4-0.73-0.3-1.27c0.19-0.98,0.29-1.96,0.72-2.9   c0.3-0.67-0.23-1.19-0.85-1.09c-0.78,0.13-1.71,0.53-1.89,1.32c-0.18,0.78-0.62,1.48-0.61,2.3   C213.8,126.08,213.74,126.24,213.88,126.42z"></path>		<path class="st1" d="M134.13,111.96c0-1.06,0.01-2.12,0-3.18c-0.01-0.48,0.22-1,0.64-0.66c0.7,0.56,1.2,0.07,1.73-0.09   c1.88-0.58,3.33,0.19,3.5,2.1c0.15,1.62,0.03,3.26,0.07,4.89c0.02,0.73-0.56,0.64-0.93,0.67c-0.48,0.04-0.32-0.45-0.33-0.71   c-0.03-1.47-0.01-2.94-0.02-4.41c-0.01-0.78-0.14-1.49-1.14-1.55c-1.15-0.07-2.34,0.69-2.38,1.59c-0.05,1.35-0.02,2.69-0.03,4.04   c0,0.24,0.02,0.5-0.06,0.73c-0.13,0.37-0.55,0.31-0.82,0.36c-0.23,0.04-0.24-0.37-0.24-0.6   C134.13,114.08,134.13,113.02,134.13,111.96z"></path>		<path class="st1" d="M217.15,106.59c0.06,0.97-0.37,2.15,0.18,2.86c0.56,0.73,1.76,0.22,2.68,0.29c0.53,0.04,0.89,0.12,0.78,0.75   c-0.93,0.03-1.86,0.05-2.79,0.08c-0.58,0.02-1.1,0.12-0.85,0.92c0,0.97,0,1.93,0,2.9c-0.05,0.41,0.14,0.46,0.47,0.32   c1.18,0,2.37,0,3.55,0.02c0.34,0.01,0.79-0.11,0.84,0.45c0.05,0.59-0.41,0.52-0.75,0.52c-1.47,0.02-2.94,0-4.41,0.01   c-0.56,0.01-0.81-0.22-0.81-0.79c0.01-3.06,0.01-6.12,0-9.18c0-0.53,0.25-0.71,0.76-0.7c1.51,0.02,3.02,0.01,4.53,0.01   c0.42,0,0.72,0.09,0.69,0.61c-0.02,0.48-0.37,0.48-0.69,0.48c-1.22,0.01-2.45,0-3.67,0C217.28,106.05,217.09,106.18,217.15,106.59   z"></path>		<path class="st1" d="M117.89,114.14c-0.24-0.56-0.69-1.04-0.68-1.7c-0.22-1.41-0.08-2.82,0.05-4.22c0.96-2.81,3.58-4.07,6.43-3.1   c0.43,0.15,0.65,0.41,0.52,0.8c-0.13,0.4-0.47,0.44-0.9,0.34c-1.06-0.25-2.07-0.34-3.14,0.19c-1.86,0.91-2.09,2.5-2.07,4.25   c0.02,1.69,0.77,3.05,2.2,3.93c0.86,0.53,1.86,0.38,2.82,0.13c0.35-0.09,0.88-0.35,1.06,0.18c0.19,0.57-0.45,0.65-0.76,0.73   c-1.98,0.52-3.85,0.43-5.31-1.26C118.04,114.31,117.96,114.23,117.89,114.14z"></path>		<path class="st1" d="M197.85,127.64c-1.81,0.01-2.83-0.98-2.5-2.65c0.56-2.82,1.68-3.8,4.51-3.41c1.46,0.2,1.44,0.26,1.07,1.92   c-0.33,1.48-0.75,2.93-1.03,4.42c-0.36,1.9-2.56,2.91-4.35,2.14c-0.3-0.13-0.66-0.33-0.57-0.65c0.1-0.37,0.48-0.32,0.82-0.19   c0.63,0.25,1.31,0.2,1.93,0.07c0.68-0.14,1.3-0.66,1.21-1.42C198.84,127.1,198.12,127.98,197.85,127.64z M198.95,122.27   c-1.77,0.01-3.29,2.57-2.48,3.87c0.25,0.4,0.56,1.01,1.23,0.69c0.69-0.32,1.8-0.08,1.79-1.38c0-0.63,0.09-1.29,0.31-1.87   C200.23,122.44,199.49,122.37,198.95,122.27z"></path>		<path class="st1" d="M184.49,115.88c-0.52,0.1-1.11-0.04-1.68-0.26c-0.38-0.15-0.67-0.46-0.4-0.84c0.17-0.24,0.54-0.58,0.91-0.2   c0.47,0.48,1.07,0.34,1.61,0.34c0.59-0.01,1.12-0.23,1.3-0.88c0.2-0.71-0.29-1-0.79-1.32c-0.74-0.48-1.58-0.69-2.32-1.24   c-1.51-1.13-0.69-3.11,0.94-3.57c0.87-0.25,1.75-0.16,2.61,0.13c0.42,0.14,0.65,0.41,0.54,0.81c-0.12,0.44-0.58,0.52-0.91,0.38   c-0.51-0.21-1.02-0.18-1.54-0.21c-0.56-0.03-1,0.2-1.18,0.67c-0.22,0.58,0.32,0.92,0.7,1.15c0.71,0.43,1.47,0.81,2.2,1.19   c1.15,0.61,1.17,1.53,0.9,2.47c-0.26,0.94-1.14,1.28-2.06,1.38C185.08,115.91,184.83,115.88,184.49,115.88z"></path>		<path class="st1" d="M26.16,78.84c-0.03,1.12-1.23,2.47-2.21,2.48c-1.14,0.02-2.46-1.33-2.44-2.49c0.02-1.26,1.09-2.19,2.49-2.16   C25.42,76.7,26.2,77.48,26.16,78.84z"></path>		<path class="st1" d="M256.61,108.67c-0.43,1.14-0.88,2.33-1.32,3.52c-0.33,0.89-0.65,1.8-1,2.69c-0.16,0.42-0.35,0.82-0.94,0.77   c-0.53-0.05-0.56-0.41-0.71-0.81c-0.69-1.9-1.42-3.8-2.21-5.66c-0.21-0.5-0.34-0.89,0.22-1.08c0.56-0.19,0.7,0.25,0.85,0.73   c0.42,1.33,0.95,2.63,1.41,3.95c0.1,0.28,0.17,0.59,0.49,0.62c0.37,0.04,0.41-0.37,0.49-0.59c0.52-1.38,1.02-2.78,1.48-4.18   c0.16-0.5,0.47-0.6,0.92-0.55C256.64,108.1,256.6,108.36,256.61,108.67z"></path>		<path class="st1" d="M40.15,92.46c0.01,1.36-0.97,2.36-2.33,2.35c-1.23,0-2.33-1.05-2.34-2.25c-0.02-1.23,1.02-2.17,2.39-2.17   C39.27,90.4,40.14,91.18,40.15,92.46z"></path>		<path class="st1" d="M48.73,78.77c0-1.61,0.52-2.1,2.22-2.1c1.26,0,2.17,0.91,2.19,2.17c0.02,1.09-1.23,2.47-2.22,2.44   C49.78,81.26,48.72,80.05,48.73,78.77z"></path>		<path class="st1" d="M23.97,103.62c1.32,0,2.16,0.79,2.19,2.05c0.03,1.31-0.82,2.14-2.2,2.14c-1.59,0-2.47-0.76-2.45-2.13   C21.53,104.51,22.6,103.61,23.97,103.62z"></path>		<path class="st1" d="M48.73,105.54c0.02-1.45,0.6-1.94,2.28-1.92c1.19,0.01,2.14,0.97,2.13,2.14c-0.01,1.25-1.09,2.31-2.33,2.28   C49.64,108.02,48.71,106.9,48.73,105.54z"></path>		<path class="st1" d="M229.03,121.51c1.71-0.01,1.89,0.18,1.84,1.83c-0.02,0.56-0.09,1.1-0.21,1.66c-0.17,0.77-0.07,1.93-0.66,2.2   c-0.89,0.41-2.02,0.56-3.07,0.42c-0.7-0.09-1.15-0.54-1.21-1.29c-0.07-1,0.4-1.74,1.29-2.08c0.58-0.22,1.22-0.4,1.89-0.3   c0.6,0.09,1.02-0.08,1.02-0.83c0-0.83-0.47-0.95-1.12-0.86c-0.35,0.05-0.69,0.17-1.05,0.23c-0.3,0.06-0.61-0.02-0.71-0.33   c-0.16-0.49,0.33-0.3,0.51-0.43C228.03,121.4,228.58,121.59,229.03,121.51z M228.58,124.7c-1.19,0-1.98,0.55-1.87,1.36   c0.06,0.45,0.41,0.95,0.85,0.78c0.78-0.3,1.96-0.15,2.07-1.45C229.72,124.46,229.05,124.76,228.58,124.7z"></path>		<path class="st1" d="M281.61,121.51c1.92-0.02,2.45,0.65,2.04,2.31c-0.23,0.93-0.43,1.87-0.57,2.82c-0.09,0.64-0.3,0.87-1,0.79   c-0.62-0.07-1.26,0.16-1.89,0.2c-0.69,0.05-1.41-0.11-1.5-0.89c-0.1-0.8-0.32-1.76,0.67-2.28c0.72-0.38,1.49-0.56,2.32-0.52   c0.5,0.03,1.15,0.16,1.13-0.69c-0.02-0.79-0.5-1-1.22-1.02c-0.43-0.02-0.77,0.23-1.18,0.25c-0.2,0.01-0.44,0.05-0.5-0.21   c-0.06-0.26,0.01-0.43,0.33-0.52C280.76,121.62,281.25,121.43,281.61,121.51z M282.34,125.29c-0.03-0.16,0.07-0.37-0.14-0.52   c-0.66-0.49-2.32,0.18-2.59,1.01c-0.18,0.57,0.05,0.93,0.53,1.11C280.87,127.16,282.33,126.08,282.34,125.29z"></path>		<path class="st1" d="M211.06,126.76c-0.74,0.8-2.51,1.22-3.4,0.79c-1.01-0.49-1.49-1.42-1.27-2.49c0.57-2.85,1.47-3.72,3.93-3.54   c1.21,0.09,2.13,1.65,1.63,2.73c-0.17,0.37-0.49,0.39-0.82,0.4c-0.86,0.01-1.72-0.03-2.57,0.02c-0.49,0.03-1.24-0.29-1.23,0.7   c0.01,0.85,0.41,1.35,1.23,1.56C209.37,127.12,210.12,126.46,211.06,126.76z M207.86,123.76c0.57,0.76,2.46,0.69,3.06-0.1   c0.06-0.62-0.21-1.18-0.73-1.34c-0.53-0.16-1.19-0.21-1.69,0.31C208.19,122.96,207.92,123.29,207.86,123.76z"></path>		<path class="st1" d="M263.46,121.4c-0.01,2.1-0.68,3.88-1,5.71c-0.04,0.25-0.34,0.4-0.42,0.35c-1.1-0.65-2.08,0.45-3.16,0.2   c-0.65-0.15-1-0.44-1.05-1.11c-0.1-1.55,0.43-3,0.72-4.49c0.08-0.43,0.26-0.55,0.63-0.51c0.52,0.06,0.39,0.47,0.35,0.75   c-0.14,0.86-0.31,1.73-0.53,2.58c-0.17,0.64-0.39,1.23,0.18,1.79c0.67,0.66,1.16-0.05,1.6-0.28c1.46-0.76,1.28-2.37,1.67-3.67   C262.6,122.18,262.73,121.77,263.46,121.4z"></path>		<path class="st1" d="M144.1,115.88c-1.16,0.07-1.71-0.48-1.74-1.57c-0.03-1.1-0.01-2.2-0.05-3.3c-0.03-0.74,0.33-1.6-0.89-1.9   c-0.51-0.12-0.39-0.9,0.13-0.99c0.78-0.13,0.88-0.52,0.82-1.15c-0.04-0.38,0.02-0.83,0.47-0.84c0.56-0.01,0.54,0.5,0.52,0.91   c-0.04,0.73,0.05,1.33,1.01,1.25c0.5-0.04,0.64,0.4,0.65,0.71c0.02,0.43-0.44,0.27-0.66,0.25c-0.8-0.09-0.97,0.31-0.94,1.01   c0.04,1.02,0,2.04,0.02,3.05c0.02,0.83,0,1.71,1.26,1.61c0.42-0.03,0.44,0.34,0.38,0.61C144.93,116.15,144.39,115.76,144.1,115.88   z"></path>		<path class="st1" d="M185.02,125.69c-0.1-1.32,0.7-2.46,0.77-3.74c0.01-0.24,0.27-0.47,0.53-0.38c0.42,0.14,0.54,0.57,0.39,0.9   c-0.35,0.74-0.47,1.53-0.59,2.32c-0.11,0.71-0.52,1.56,0.32,2.1c0.48,0.3,2.3-0.74,2.49-1.41c0.22-0.77,0.34-1.56,0.5-2.34   c0.05-0.24,0.01-0.51,0.11-0.72c0.18-0.36,0.24-1.03,0.83-0.83c0.53,0.18,0.3,0.73,0.21,1.14c-0.29,1.29-0.63,2.56-0.86,3.86   c-0.12,0.67-0.3,1.03-1.01,0.69c-0.35-0.17-0.58-0.05-0.89,0.12C186.07,128.3,185.01,127.64,185.02,125.69z"></path>		<path class="st1" d="M249,110.22c0,1.51-0.03,3.01,0.01,4.52c0.02,0.64-0.21,1.1-0.83,1.08c-0.67-0.03-0.41-0.68-0.42-1.06   c-0.02-2.97,0.01-5.94-0.02-8.92c-0.01-0.61,0.14-1.12,0.76-1.13c0.8-0.01,0.47,0.71,0.48,1.12   C249.03,107.29,249,108.75,249,110.22C249,110.22,249,110.22,249,110.22z"></path>		<path class="st1" d="M223.56,110.31c0-1.54,0.01-3.09,0-4.63c0-0.48,0.03-0.95,0.65-0.96c0.66-0.01,0.49,0.54,0.49,0.9   c0.01,3.05-0.01,6.1,0.01,9.15c0.01,0.61-0.25,0.99-0.78,0.97c-0.59-0.01-0.34-0.59-0.35-0.91   C223.55,113.32,223.56,111.81,223.56,110.31z"></path>		<path class="st1" d="M247.52,123.28c-0.32,1.12-0.61,2.4-0.78,3.71c-0.03,0.21-0.41,0.56-0.58,0.54c-0.36-0.07-0.41-0.47-0.35-0.8   c0.18-0.99,0.36-1.97,0.61-2.94c0.13-0.49,0.26-0.99-0.12-1.36c-0.37-0.36-0.82-0.09-1.24,0.05c-0.96,0.33-1.72,0.71-1.72,1.98   c0,0.81-0.48,1.6-0.49,2.46c0,0.37-0.23,0.47-0.56,0.48c-0.44,0.01-0.45-0.32-0.4-0.59c0.32-1.64,0.67-3.28,1.02-4.92   c0.05-0.21,0.28-0.4,0.45-0.31c0.89,0.47,1.73-0.14,2.61-0.08C247.16,121.58,247.6,121.98,247.52,123.28z"></path>		<path class="st1" d="M178.66,119.33c1.99-0.28,3.99-0.05,5.99-0.11c0.31-0.01,0.59,0.09,0.53,0.49c-0.04,0.29-0.15,0.56-0.51,0.57   c-0.49,0.01-0.99,0.08-1.47-0.01c-1.01-0.18-1.23,0.4-1.36,1.2c-0.27,1.74-0.54,3.48-1.08,5.16c-0.12,0.38-0.18,1-0.85,0.73   c-0.55-0.22-0.13-0.58-0.05-0.89c0.46-1.86,0.49-3.82,1.22-5.63c0.2-0.49-0.04-0.75-0.58-0.75c-0.61,0-1.22-0.03-1.83-0.05   C178.66,119.8,178.66,119.56,178.66,119.33z"></path>		<path class="st1" d="M264,126.82c0.37-0.25,0.76-0.22,1.14-0.04c0.43,0.21,0.9,0.22,1.31,0.09c0.48-0.15,1.1-0.36,1.13-0.95   c0.03-0.5-0.52-0.66-0.92-0.86c-0.33-0.16-0.68-0.28-0.97-0.49c-0.6-0.43-0.89-0.98-0.78-1.77c0.11-0.76,0.74-1.04,1.23-1.17   c0.72-0.19,1.54-0.09,2.3-0.02c0.2,0.02,0.65,0.1,0.58,0.48c-0.07,0.37-0.42,0.53-0.77,0.37c-0.55-0.27-1.1-0.26-1.64-0.06   c-0.34,0.12-0.72,0.25-0.73,0.71c-0.01,0.38,0.28,0.59,0.54,0.76c0.33,0.22,0.72,0.35,1.08,0.53c1.4,0.72,1.51,1.73,0.29,2.7   C266.71,127.97,264.65,127.83,264,126.82z"></path>		<path class="st1" d="M170.37,111.76c0-1.02,0-2.03,0-3.05c0-0.41,0.26-0.92,0.59-0.54c0.62,0.72,1.12,0.25,1.64,0.06   c0.32-0.11,0.62-0.21,0.94-0.14c0.24,0.05,0.43,0.21,0.45,0.5c0.02,0.31-0.11,0.39-0.41,0.44c-1.78,0.31-2.33,1.42-2.09,3.14   c0.12,0.88,0.02,1.79,0.01,2.68c0,0.36,0.05,0.76-0.51,0.77c-0.62,0.02-0.61-0.39-0.61-0.81   C170.37,113.79,170.37,112.77,170.37,111.76z"></path>		<path class="st1" d="M281.64,111.74c0-1.02,0-2.04,0-3.06c0-0.23-0.03-0.52,0.28-0.6c0.23-0.06,0.36,0.06,0.46,0.28   c0.21,0.41,0.48,0.48,0.87,0.15c0.2-0.17,0.51-0.21,0.77-0.32c0.44-0.19,0.99-0.29,1.18,0.19c0.25,0.64-0.5,0.71-0.82,0.78   c-1.27,0.29-1.7,1.04-1.62,2.28c0.07,1.1,0.02,2.2,0.01,3.3c0,0.39,0.1,0.85-0.55,0.87c-0.64,0.02-0.58-0.42-0.59-0.83   C281.63,113.78,281.63,112.76,281.64,111.74C281.63,111.74,281.63,111.74,281.64,111.74z"></path>		<path class="st1" d="M274.89,125.59c0.92-1.03,1.52-2.06,2.07-3.13c0.14-0.27,0.2-0.62,0.57-0.73c0.18-0.05,0.33-0.29,0.53-0.13   c0.17,0.14,0.16,0.35,0.05,0.55c-0.95,1.68-1.79,3.44-3,4.96c-0.37,0.47-0.93,0.58-1.13-0.24c-0.36-1.49-0.7-2.98-0.72-4.52   c-0.01-0.35,0.05-0.74,0.42-0.76c0.45-0.03,0.55,0.45,0.56,0.78C274.24,123.42,274.54,124.41,274.89,125.59z"></path>		<path class="st1" d="M252.88,126.83c-0.59,0.71-2.25,1.11-3.04,0.75c-0.92-0.41-1.49-1.72-1.24-2.78   c0.75-3.25,2.28-3.47,4.77-3.19c0.19,0.02,0.79,0.01,0.7,0.47c-0.08,0.43-0.58,0.52-0.9,0.36c-0.89-0.42-1.58-0.08-2.36,0.33   c-0.87,0.46-1.11,1.25-1.28,2.05c-0.3,1.41,0.71,2.36,2.14,2.07C252.07,126.82,252.45,126.47,252.88,126.83z"></path>		<path class="st1" d="M254.64,126.65c0.6-2.41,0.88-4.88,1.7-7.23c0.14-0.4,0.39-0.35,0.66-0.33c0.34,0.03,0.37,0.31,0.31,0.54   c-0.56,2.43-1.14,4.86-1.72,7.28c-0.07,0.31-0.28,0.5-0.61,0.47C254.44,127.33,254.71,126.91,254.64,126.65z"></path>		<path class="st1" d="M234.78,119.25c-0.54,2.75-1.03,5.16-1.66,7.54c-0.11,0.42-0.23,0.7-0.69,0.59   c-0.62-0.16-0.24-0.51-0.17-0.85c0.45-2.06,0.87-4.13,1.3-6.19c0.07-0.35,0.16-0.7,0.27-1.04c0.1-0.32,0.38-0.23,0.61-0.23   C234.79,119.09,234.78,119.35,234.78,119.25z"></path>		<path class="st1" d="M206.09,121.95c-0.08,0.33-0.26,0.5-0.58,0.55c-1.53,0.23-1.99,1.39-2.06,2.67   c-0.04,0.73-0.41,1.29-0.55,1.95c-0.06,0.28-0.24,0.58-0.58,0.46c-0.28-0.1-0.42-0.38-0.35-0.7c0.24-1.05,0.47-2.1,0.73-3.15   c0.06-0.27,0.22-0.49,0.22-0.8c0.01-0.83-0.13-1.87,1.3-0.98c0.23,0.15,0.8-0.24,1.21-0.36   C205.78,121.47,206.07,121.48,206.09,121.95z"></path>		<path class="st1" d="M269.84,126.87c0.34-1.64,0.66-3.27,1.01-4.9c0.07-0.32,0.36-0.43,0.67-0.39c0.35,0.05,0.31,0.36,0.26,0.57   c-0.31,1.64-0.66,3.28-0.98,4.92c-0.09,0.49-0.54,0.38-0.77,0.4C269.51,127.5,269.9,127.07,269.84,126.87z"></path>		<path class="st1" d="M238.97,126.65c0.36-1.57,0.7-3.08,1.07-4.58c0.09-0.35,0.35-0.65,0.81-0.51c0.62,0.19,0.1,0.52,0.05,0.75   c-0.29,1.48-0.65,2.96-0.93,4.44c-0.08,0.42-0.15,0.71-0.65,0.62C238.83,127.28,239.09,126.85,238.97,126.65z"></path>		<path class="st1" d="M224.75,122.57c-0.25,1.36-0.49,2.77-0.79,4.17c-0.08,0.38-0.32,0.79-0.85,0.64   c-0.63-0.18-0.2-0.54-0.14-0.86c0.27-1.33,0.55-2.66,0.78-4c0.08-0.49,0.3-0.97,0.76-0.92C225,121.65,224.63,122.2,224.75,122.57z   "></path>		<path class="st1" d="M272.53,119.94c-0.07,0.48-0.52,0.51-0.87,0.58c-0.3,0.05-0.6-0.18-0.54-0.49c0.06-0.31,0.14-0.72,0.65-0.71   C272.19,119.32,272.48,119.43,272.53,119.94z"></path>		<path class="st1" d="M224.73,120.52c-0.29-0.11-0.54-0.26-0.51-0.59c0.04-0.43,0.32-0.61,0.74-0.61c0.36,0,0.5,0.19,0.49,0.53   C225.43,120.32,225.03,120.36,224.73,120.52z"></path>		<path class="st1" d="M241.01,120.44c-0.34-0.14-0.37-0.41-0.34-0.71c0.03-0.29,0.2-0.45,0.48-0.38c0.33,0.08,0.22,0.38,0.24,0.6   C241.43,120.24,241.24,120.36,241.01,120.44z"></path>	</g></g></svg>