<svg xmlns="http://www.w3.org/2000/svg" xmlns:xlink="http://www.w3.org/1999/xlink" id="Capa_1" x="0px" y="0px" viewBox="0 0 300 200" style="enable-background:new 0 0 300 200;" xml:space="preserve"><style type="text/css">	.st0{fill-rule:evenodd;clip-rule:evenodd;fill:#878787;}	.st1{fill:#878787;}</style><g>	<path class="st1" d="M23.2,108c0.1-0.1,0.2-0.2,0.3-0.3c0.7,0,1.4,0.1,2.1,0.1c81.6,0,163.3,0,244.9,0c2.5,0,4.9,0.2,7.4,0.3  c0,10.9,0,21.9,0,32.8c0,1-0.2,1.3-1.3,1.3c-84.2,0-168.3,0-252.5,0c-0.3,0-0.6,0-0.9,0c0-1.8,0-3.6,0-5.3  C23.3,127.2,23.2,117.6,23.2,108z M122.2,131.5c0-4.3,0-8.5,0-12.8c0-0.2-0.1-0.2-0.2-0.2c-1,0-2,0-2.9,0c-0.1,0.1-0.2,0.2-0.2,0.2  c0,4.2,0,8.4,0,12.6c0,0.2,0,0.5,0.2,0.6C119.3,132.3,121.8,131.9,122.2,131.5z M38.5,118.5c-1.1-0.2-2.1-0.2-3.2,0  c-0.3,0.4-0.2,0.9-0.2,1.3c0,3.2,0,6.5,0,9.7c0,2.5,0,2.4,2.5,2.4c0.8,0,1.1-0.3,1.1-1.1c0-3.9,0-7.8,0-11.7  C38.6,118.9,38.7,118.7,38.5,118.5z M194.2,118.5c-0.4,0.1-0.2,0.4-0.2,0.7c0,4,0,8.1,0,12.1c0,0.2-0.1,0.5,0.2,0.7  c0.6,0,1.2,0,1.7,0.1c1.2,0.1,1.6-0.3,1.6-1.6c-0.1-3,0-6,0-9C197.5,118.2,197.5,118.2,194.2,118.5z M137.2,118.7  c0,1.5-0.1,3.1-0.1,4.6c0,2.8-0.2,5.6,0.1,8.4c3,0.4,6.1,0.1,9.1,0.2c0.4,0,0.6-0.2,0.6-0.5c-0.1-0.8,0.2-1.7-0.2-2.4  c-2,0-4.1-0.1-6.1-0.1c0-3,0-6.1,0-9.1c0-0.4,0.3-0.9-0.3-1.2c-1,0-2,0-2.9,0C137.3,118.4,137.2,118.5,137.2,118.7z M219.7,126.8  c-0.1,0-0.2,0-0.3,0c-0.6-2.1-1.1-4.2-1.7-6.3c-0.5-2.2-0.5-2.2-2.7-2.2c-0.6,0-1.3,0.1-1.9,0c-1-0.1-1.2,0.3-1.2,1.2  c0,3.7,0,7.5,0,11.2c0,0.9,0.2,1.5,1.2,1.3c0.8-0.2,2.1,0.4,2.1-1.3c-0.1-2.8,0-5.6,0-8.4c0.3,0.4,0.4,0.8,0.5,1.2  c0.7,2.6,1.5,5.1,2.1,7.7c0.2,1,0.9,0.8,1.5,0.8c0.7,0,1.5,0.1,1.7-0.8c0.2-0.8,0.4-1.6,0.6-2.4c0.7-2.1,1-4.4,2.1-6.7  c0,3.2,0,6,0,8.9c0,0.9,0.3,1.2,1.1,1.1c0.3,0,0.7,0,1.1,0c0.8,0.1,1.1-0.3,1.1-1.1c0-3.9,0-7.8,0-11.7c0-0.3,0.1-0.8-0.4-0.8  c-1.5,0-3.1-0.2-4.5,0.1c-0.9,0.2-0.6,1.6-0.9,2.4c-0.1,0.4-0.3,0.7-0.3,1.1C220.5,123.7,220.1,125.2,219.7,126.8z M165.7,125.1  c-0.3,4.2,3.4,8.1,8,7c0.6-0.1,1.3-0.2,1.8,0.1c1.1,0.5,2.3,0.3,3.4,0.4c1.1,0.1,0.9-0.6,1-1.2c0-0.7,0.1-1.4-1-1.2  c-1.1,0.2-1.6-0.1-0.8-1.2c0.2-0.2,0.3-0.6,0.4-0.8c1.4-3.5-0.1-8.2-3.2-9.4C170.8,116.9,165.7,119.2,165.7,125.1z M244.9,124.1  c0.1,0,0.2,0,0.3,0c1.1,2,2.4,3.9,3.3,6c0.8,1.8,1.9,2.2,3.7,2c0.8-0.1,1.1-0.4,1.1-1.1c0-3.9,0-7.7,0-11.6c0-0.3,0.1-0.8-0.2-0.8  c-0.9-0.1-1.9-0.2-2.8,0c-0.7,0.2-0.3,1.1-0.3,1.7c-0.1,2,0,3.9,0,5.9c-1.6-2.2-2.9-4.5-4.2-6.8c-0.4-0.6-3.5-1.2-4-0.7  c-0.1,0.1-0.2,0.4-0.2,0.6c0,4,0,8.1,0,12.1c0,1.3,1,0.7,1.6,0.7c1.8,0.1,1.8,0,1.8-1.7C244.9,128.2,244.9,126.2,244.9,124.1z   M48.9,126.2c-0.1,0-0.2,0-0.3,0.1c-1.3-2.3-2.6-4.7-4-7c-0.4-0.7-3.3-1.2-3.9-0.7c-0.2,0.2-0.2,0.4-0.2,0.6c0,4,0,8.1,0,12.1  c0,0.3-0.1,0.6,0.3,0.8c1.6,0.6,2.9-0.2,2.9-1.9c0-2,0-4,0-6.1c0.6,0.3,0.7,0.7,0.9,1c1.1,1.9,2.2,3.8,3.2,5.8c0.5,0.9,1,1.2,2,1.1  c0.4-0.1,0.8,0,1.2,0c0.9,0.1,1.2-0.2,1.1-1.1c0-3.4,0-6.8,0-10.3c0-2.2,0-2.1-2.2-2.1c-0.9,0-1.2,0.2-1.2,1.2  C48.9,121.8,48.9,124,48.9,126.2z M54.2,125.1c0,1.9,0,3.8,0,5.7c0,0.9,0.3,1.1,1.1,1.1c1.7-0.1,3.5,0,5.2,0c2.3,0,4-1,5.2-2.9  c0.8-1.4,0.8-2.9,0.8-4.4c-0.1-4-2.1-5.7-5.9-6.2c-1.8-0.2-3.6,0-5.4-0.1c-0.8,0-0.9,0.3-0.9,1C54.2,121.3,54.2,123.2,54.2,125.1z   M105.6,125.1c0,1.6,0,3.1,0,4.7c0,2.3,0,2.3,2.3,2.3c0.9,0,1.3-0.3,1.2-1.2c-0.1-1,0-2,0-3.1c0-0.3,0-0.7,0.5-0.8  c2.2-0.5,3.6,0.2,4.1,2.4c0.1,0.4,0,0.9,0.1,1.3c0.1,0.8,0.3,1.4,1.4,1.4c0.8,0,1.6,0,2.1-0.4c0.4-0.3-0.1-1-0.1-1.5  c-0.1-1.5,0-3.1-1.4-4.2c-0.3-0.3-0.3-0.6,0.1-0.8c1.4-1,1.5-2.4,1.2-3.9c-0.3-1.5-1.5-2.2-3-2.6c-2.5-0.5-4.9-0.1-7.4-0.3  c-0.9-0.1-1.1,0.3-1.1,1.1C105.6,121.4,105.6,123.2,105.6,125.1z M229,125.2c0,1.8,0.1,3.6,0,5.3c-0.1,1.1,0.2,1.5,1.4,1.4  c2.5-0.1,5,0,7.5,0c2,0,2,0,2-2.1c0-0.8-0.2-1.1-1-1c-1.8,0.1-3.6,0-5.3,0c-1,0.1-0.9-0.6-0.9-1.2c0-0.6-0.4-1.5,0.9-1.4  c1.6,0.1,3.2,0,4.8,0c1.3,0,0.8-0.9,0.9-1.5c0.1-0.7,0.2-1.3-0.9-1.3c-1.6,0.1-3.1-0.1-4.7,0c-1,0.1-1-0.5-1-1.2  c0-0.8,0.1-1.2,1.1-1.2c1.7,0.1,3.5,0,5.2,0c1.4,0.1,0.9-0.9,1-1.5c0-0.7,0.2-1.4-1-1.4c-2.9,0.1-5.9,0.1-8.8,0c-0.9,0-1,0.3-1,1.1  C229.1,121.4,229,123.3,229,125.2z M153.7,125.2c0,2,0,3.9,0,5.9c0,0.5,0,0.9,0.7,0.9c3.2,0,6.3,0,9.5,0c0.6,0,0.8-0.3,0.7-0.8  c0-0.4,0-0.8,0-1.2c0.1-0.9-0.2-1.2-1.1-1.1c-1.7,0.1-3.5,0-5.2,0c-1,0.1-1.2-0.3-1.2-1.2c0-1,0.2-1.4,1.3-1.4  c1.5,0.1,2.9-0.1,4.4,0c1.1,0.1,1.1-0.6,1-1.3c-0.1-0.7,0.4-1.6-1-1.5c-1.5,0.1-3.1,0-4.7,0c-0.9,0-1.1-0.3-1-1.1  c0-0.7-0.1-1.3,1-1.3c1.8,0.1,3.6,0,5.3,0c1.4,0,0.8-1,0.8-1.6c0.1-0.6,0.2-1.3-0.9-1.3c-2.9,0.1-5.9,0.1-8.8,0c-0.9,0-1,0.3-1,1.1  C153.7,121.3,153.7,123.2,153.7,125.2z M86.8,118.1c-0.2,0-0.3,0-0.4,0c-0.9,0-1.8,0.2-2.7,0.6c-1.5,0.7-2.5,1.7-2.6,3.3  c-0.1,1.8,1,2.9,2.5,3.5c1.4,0.6,3,1,4.5,1.5c0.5,0.2,0.8,0.5,0.8,1.1c0,0.5-0.2,0.8-0.6,1.1c-1.3,0.7-3.3,0.2-3.9-1.1  c-0.2-0.4-0.3-0.5-0.7-0.5c-0.7,0-1.4,0-2.1,0c-0.6,0-0.8,0.3-0.7,0.8c0.3,1.5,1.1,2.6,2.5,3.2c1.9,0.9,3.8,1,5.8,0.4  c2.5-0.8,3.2-1.8,3.2-4.9c0-1.5-1-2.3-3.4-3c-1.2-0.3-2.3-0.7-3.5-1.1c-0.5-0.2-0.8-0.5-0.7-1.1c0.1-0.6,0.6-0.8,1.1-0.9  c1.1-0.1,2.1-0.1,2.7,1.2c0.2,0.4,3.2,0.6,3.4,0.3c0.1-0.2,0.1-0.4,0-0.7c-0.3-1.3-1-2.3-2.3-2.9C88.8,118.3,87.8,118,86.8,118.1z   M71.5,123.2C71.5,123.2,71.5,123.2,71.5,123.2c0-0.8,0-1.5,0-2.3c0-2.6,0-2.6-2.6-2.5c-0.1,0-0.2,0-0.3,0  c-0.6-0.1-0.8,0.2-0.8,0.8c0,2.6,0,5.1,0,7.7c0,2.5,1.5,4.8,4.4,5.2c3.1,0.5,7.2-0.5,7.4-4.9c0.1-2.2,0.1-4.4,0.1-6.7  c0-2.2,0-2.1-2.1-2.2c-1.3-0.1-1.4,0.4-1.4,1.5c0.1,2.3,0.1,4.7-0.1,7.1c-0.1,1.7-0.9,2.2-2.7,2.2c-1.2,0-1.9-0.8-2-2.3  C71.5,125.6,71.5,124.4,71.5,123.2z M180.4,123.6C180.4,123.6,180.4,123.6,180.4,123.6c0,1.4,0.1,2.8,0,4.3c0,0.6,0.2,1.1,0.5,1.6  c1.8,3.5,6.9,3.5,9.5,1.6c0.6-0.5,1-1.1,1.3-1.9c0.9-2.8,0.4-5.6,0.5-8.4c0.1-2.4,0-2.3-2.3-2.4c-0.9,0-1.2,0.3-1.2,1.2  c0.1,2.3,0,4.7,0,7.1c0,0.9-0.1,1.9-1.2,2.3c-2.1,0.8-3.4,0-3.5-2.3c-0.1-1.9,0-3.7,0-5.6c0-2.8,0-2.8-2.8-2.6  c-0.6,0-0.8,0.2-0.7,0.8C180.4,120.7,180.4,122.1,180.4,123.6z M129.8,118.5c-0.7,0.2-1.7-0.5-2,0.4c-0.4,0.9-0.9,1.8-1.2,2.8  c-0.8,2.7-1.8,5.4-3,8c-1,2.1-0.8,2.4,1.5,2.3c0.7,0,1.5,0.3,1.7-0.7c0.2-1.6,1.2-1.9,2.6-1.7c0.5,0.1,1.1,0.1,1.6,0  c0.9-0.1,1.4,0.2,1.4,1.1c0.1,1.1,0.6,1.5,1.6,1.4c0.5-0.1,1.1,0,1.6,0c0.6,0,1,0.2,0.6-0.8c-1.3-3.7-2.8-7.4-4.1-11.1  C131.7,118.8,131.2,118.1,129.8,118.5z M199.5,125.2c0,0.8,0,1.5,0,2.3c0,0.8,0,1.6,0,2.4c0,2.2,0,2.1,2.1,2.2c1,0,1.5-0.3,1.4-1.3  c-0.1-1-0.4-2.3,0.1-3c0.6-0.8,2-0.2,3-0.3c2.8-0.2,3.9-1,4.4-3.4c0.5-2.4-0.3-4.8-3.3-5.3c-2.4-0.4-4.8-0.1-7.1-0.3  c-0.8-0.1-0.7,0.5-0.7,1C199.5,121.3,199.5,123.2,199.5,125.2z M98.6,118.4c-1.6,0-3.2,0-4.8,0c-0.8,0-1,0.2-1,1  c0,2.3-0.1,2.3,2.3,2.3c0.3,0,0.7,0.1,0.9,0c0.8-0.4,0.9,0,0.9,0.7c0,2.5,0,5.1,0,7.6c0,2.2,0,2.2,2.1,2.2c1,0,1.4-0.3,1.4-1.4  c-0.1-2.1,0-4.3,0-6.4c0-2.8,0-2.9,2.9-2.9c0.8,0,1.2-0.2,1-1c-0.1-0.3,0-0.7,0-1.1c0.1-0.8-0.2-1-1-1  C101.8,118.4,100.2,118.4,98.6,118.4z M259.9,118.4c-1.5,0-3,0.1-4.5,0c-1.1-0.1-1.4,0.3-1.4,1.4c-0.1,1.3,0.3,1.9,1.7,1.6  c0.3-0.1,0.7,0,1.1,0c1.2-0.2,1.7,0.2,1.6,1.5c-0.1,2.2,0,4.4,0,6.7c0,2.4,0,2.4,2.4,2.4c1,0,1.2-0.3,1.2-1.2c-0.1-2.1,0-4.2,0-6.3  c0-1-0.4-2.2,0.2-2.8c0.6-0.6,1.8-0.2,2.8-0.2c0.8,0,1-0.3,0.9-1c0-0.3,0-0.6,0-0.9c0.1-0.8-0.2-1.2-1.1-1.1  C263.1,118.4,261.5,118.4,259.9,118.4z"></path>	<path class="st1" d="M22.2,83.5c0-0.4-0.1-0.7-0.1-1.1c0-0.2,0-0.3,0-0.5c-0.2-1.4-0.2-2.9,0-4.3c0-0.2,0-0.3,0-0.5  c0-0.2,0-0.4,0.1-0.5c0.6-1.4,1.2-2.8,1.7-4.2c0-0.1,0.1-0.2,0.1-0.3c0.1-0.1,0.1-0.2,0.2-0.2c0.2-0.2,0.4-0.4,0.4-0.7  c2.1-2.9,4.8-5.2,7.8-7.3c0.2,0,0.4-0.1,0.5-0.3c2.3-1.2,4.7-2.4,7.1-3.5c0.2,0,0.4-0.1,0.6-0.1c0.2,0,0.2-0.1,0.3-0.2  c0.1,0,0.2,0,0.3-0.1c0.2,0.1,0.3,0,0.4-0.1c0,0,0.1,0,0.1,0c1.5-0.3,3-0.6,4.5-0.9c0.4-0.1,0.9-0.2,1.3-0.3  c0.7,0.2,1.4-0.1,2.1-0.3c2.1-0.1,4.3-0.2,6.4-0.3c0.3,0,0.5,0,0.8,0c1.4-0.2,2.7,0.5,4,0.3c1.2,0.2,2.3,0.4,3.5,0.6  c0.3,0,0.5,0,0.8,0c1.2,0.3,2.5,0.6,3.7,0.9c0,0.2,0.1,0.3,0.3,0.2c0.6,0.1,1.2,0.2,1.8,0.4c0,0,0,0,0,0c3.5,1.5,7,3.2,10.1,5.3  c0.2,0.3,0.4,0.5,0.7,0.6c1.4,1.3,2.8,2.7,4.1,4.2c0.1,0.1,0.1,0.2,0.2,0.3c0.5,0.7,0.9,1.4,1.4,2.1c0,0,0,0,0,0  c1.4,3,1.9,6.3,1.7,9.6c-0.1,0.2-0.4,0.4-0.2,0.8c-0.7,3.2-2.2,5.9-4.4,8.2c-1.6,1.7-3.5,3.1-5.3,4.5c0,0,0,0,0,0  c-1.3,0.7-2.6,1.4-4,2.2c0,0,0,0,0,0c-0.4,0-0.6,0.2-0.9,0.4c0,0,0,0,0,0c-0.6,0.2-1.2,0.4-1.7,0.6c-2.7,1.1-5.5,1.6-8.3,2.4  c-0.3,0-0.5,0.1-0.8,0.1c-0.3,0-0.6-0.1-0.8,0.2c-0.5,0-1.1,0.1-1.6,0.1c-0.2-0.1-0.4-0.1-0.5,0.2c-0.4,0-0.9,0-1.3,0  c-2.5,0-5,0-7.5,0c-0.5,0-1.1,0-1.6,0c-0.2-0.4-0.5-0.2-0.8-0.2c-0.4,0-0.7,0-1.1,0c-2.4-0.5-4.8-1.1-7.2-1.6c0,0,0,0,0,0  c-0.3-0.4-0.7-0.5-1.1-0.5c-0.1,0-0.2,0-0.3,0c-0.8-0.4-1.6-0.7-2.5-1.1C30.4,95.4,24.8,91,22.2,83.5z M30.6,69.9  c-1.5,1.4-2.2,3.1-2.9,4.9c-1.4,3.7-0.9,7.4,0.9,10.8c3.1,5.9,8.5,9.2,14.6,11.4c2.1,0.8,4.5,1.5,6.9,1.4c0.4,0,0.7,0.6,1,0.1  c0.3-0.5-0.2-0.7-0.3-1c-1.9-3.3-2.6-6.9-3.2-10.5c-0.4-2.3-0.4-4.7-0.4-7c0-0.6-0.1-0.9-0.8-1c-3.6-0.6-7.2-1.7-10.4-3.4  C33.6,74.2,31.6,72.7,30.6,69.9z M80.5,70c-0.8,2.2-2.3,3.6-4,4.7c-3.4,2.2-7.1,3.3-11.1,4c-1.1,0.2-1.5,0.5-1.4,1.7  c0.1,3.9-0.6,7.6-1.5,11.4c-0.5,2.4-1.5,4.6-2.8,6.8c4.8-0.5,9.1-1.7,13.2-3.9c4.5-2.5,8.3-5.7,10.1-10.8  C84.7,78.8,83.7,74.4,80.5,70z M58.1,60.3c2,1.7,3,3.9,3.8,6.2c0.8,2.3,1.3,4.8,1.7,7.2c0.1,0.5,0.1,0.8,0.7,0.6  c1.5-0.4,3.1-0.8,4.7-1.3c1.8-0.7,3.6-1.4,5-2.9c1.5-1.6,1.6-3.5,0.1-5.1c-0.8-0.8-1.7-1.4-2.7-1.9C67.1,61.3,62.7,60.6,58.1,60.3z   M53.1,60.2c-3.6,0.1-6.6,0.7-9.7,1.6c-2.1,0.6-4.1,1.4-5.7,2.9c-2.1,1.9-2.1,3.9,0,5.7c2.6,2.2,5.8,3.1,9,3.7  c0.5,0.1,0.8,0,0.9-0.7C48.4,68.8,49.4,64.1,53.1,60.2z M55.7,79.7C55.7,79.7,55.7,79.7,55.7,79.7c-1.4,0-2.8,0.1-4.3,0  c-0.8,0-1,0.2-0.9,1c0,1.2,0.1,2.4,0.3,3.7c0.4,2.5,0.9,4.9,2.4,7.1c1.8,2.7,3.7,1.8,5,0c0.1-0.2,0.2-0.4,0.3-0.6  c1.8-3.2,1.9-6.7,2.2-10.2c0.1-0.7-0.2-0.9-0.9-0.9C58.4,79.8,57,79.7,55.7,79.7z M55.7,74.9c0.9-0.1,2.3,0.2,3.7-0.2  c0.5-0.2,0.7-0.2,0.5-0.8c-0.3-1.4-0.7-2.8-1.4-4c-0.6-1.1-1.1-2.2-2.6-2.4c-1.7-0.2-2.4,0.9-3.2,2.1c-0.9,1.4-1.2,2.9-1.7,4.5  c-0.2,0.7,0.2,1,0.8,1C53,74.9,54.1,74.9,55.7,74.9z"></path>	<path class="st1" d="M189.5,87.2c0-0.2,0-0.3-0.1-0.5c0-0.4-0.2-0.7-0.4-1c0,0,0-0.1,0-0.1c0-0.2,0-0.5-0.3-0.5  c0-0.2,0-0.4-0.1-0.5c0.1-0.2,0-0.4-0.2-0.5c0-0.4,0-0.7-0.1-1.1c0-0.2-0.1-0.2-0.2-0.3l0,0c0-1.5,0-3,0-4.5  c0.4-0.7,0.2-1.4,0.2-2.1c0.3-0.1,0.2-0.3,0.2-0.6c0.1-0.3,0.4-0.5,0.3-0.8c0.9-2,1.9-4.1,3.5-5.7c0.9-0.9,1.8-1.7,2.7-2.5  c0.1,0,0.2,0,0.2-0.1c1.5-0.7,3-1.4,4.6-2.1c0.2,0,0.3,0,0.5-0.1c0.3,0,0.5,0,0.7-0.2l0.1,0c0,0,0.1,0,0.1,0c0.4,0,0.9,0.1,1.3-0.2  c1.3,0,2.6,0,3.9,0c0.4,0.2,0.8,0.4,1.2,0.4c1.5,0.2,3,0.7,4.3,1.4c3.9,2.1,6.5,5.3,7.8,9.5c-0.1,0.2,0,0.3,0.2,0.3  c0.1,0.6,0.2,1.2,0.4,1.8c0.3,1.8,0.3,3.6,0,5.4c0,0.6-0.5,1.2-0.3,1.9c0,0.1-0.1,0.3-0.1,0.4c-0.6,1.3-1.2,2.6-1.8,3.9  c-0.1,0.1-0.2,0.3-0.3,0.4c-0.6,0.7-1.1,1.4-1.7,2.1c-0.1,0.1-0.2,0.1-0.2,0.2c-0.7,0.6-1.4,1.1-2.1,1.7c-0.1,0.1-0.2,0.2-0.3,0.3  c-1,0.5-1.9,1.1-2.9,1.6c-0.3,0-0.6,0.1-0.8,0.3c-0.1,0.1-0.3,0.1-0.4,0.2c-0.2,0-0.4,0.1-0.6,0.1c-0.8,0.2-1.6,0.3-2.4,0.5  c-0.1,0-0.2,0-0.3,0c-1.2,0-2.5,0-3.7,0c-0.3,0-0.7,0-1,0c-0.1-0.3-0.3-0.3-0.5-0.2c-0.2,0-0.4,0-0.5-0.1c-0.1-0.3-0.3-0.3-0.5-0.2  c-0.1,0-0.2,0-0.3,0c-0.2-0.3-0.5-0.2-0.8-0.3c-0.1-0.3-0.4-0.3-0.6-0.3c-0.8-0.5-1.7-0.9-2.5-1.4c-0.1-0.1-0.2-0.1-0.3-0.2  c-0.2-0.3-0.4-0.5-0.8-0.6c0,0,0,0,0,0c-0.3-0.5-0.8-0.8-1.3-1.1c0,0,0,0,0,0c-0.1-0.1-0.2-0.2-0.3-0.4c0-0.1,0-0.1-0.1-0.1  c-0.2-0.2-0.3-0.3-0.5-0.5l0,0C191.2,89.7,190.3,88.4,189.5,87.2z M212.9,80.1c0.1-0.9,0-2.1-0.3-3.2c-0.8-3.5-2.9-5.9-6.4-6.6  c-3.2-0.6-6.3-0.1-8.5,2.8c-3,4-3.4,9.7-0.2,13.8c3.1,4,7.7,4.8,11.8,1.6C212.1,86.5,213.1,83.6,212.9,80.1z"></path>	<path class="st1" d="M124.4,85.5c0-0.2-0.1-0.3-0.1-0.5c0-0.2-0.1-0.2-0.2-0.3l0,0c-0.7-3.5-0.7-6.9,0.3-10.4  c0.2-0.1,0.3-0.2,0.3-0.5c1-2.2,2.4-4.2,4-5.9c0,0,0,0,0,0c2-1.7,4.2-2.8,6.6-3.8c0.3,0,0.5-0.1,0.8-0.1c0.5,0,1-0.1,1.5-0.4  c1.4,0,2.8,0,4.2,0c0.5,0.3,1.1,0.6,1.8,0.4c0.3,0.3,0.7,0.4,1.1,0.3c1.1,0.5,2.1,0.9,3.2,1.4c0,0,0,0,0,0c0.7,0.7,1.5,1.1,2.2,1.8  c1.3,1.3,2.5,2.7,3.6,4.1c0,0,0,0,0,0c0,0.4,0.1,0.8,0.5,1.1c0.1,0.2,0.1,0.3,0.2,0.5c0,0.7,0.6,1.2,0.9,1.8c0,0.1,0.1,0.3,0.1,0.4  c0,0.6-0.2,1.3,0.3,1.9c-0.3,0.6,0.2,1.1,0.2,1.6c0,0.8,0,1.6,0,2.4c0.1,0.5-0.4,0.8-0.2,1.3c-0.1,0.3-0.3,0.6-0.3,1  c0,1.5-0.7,2.6-1.3,3.9c-0.7,1.4-1.9,2.5-2.5,3.9c0,0,0,0,0,0c-1.7,1.4-3.4,2.7-5.4,3.7c-0.4,0-0.7,0.1-1,0.3  c-0.9,0.2-1.8,0.3-2.7,0.7c-0.3,0-0.5,0-0.8,0c-1.2,0-2.3,0-3.5,0c-0.3,0-0.5,0-0.8,0c-0.7-0.2-1.4-0.3-2.1-0.5  c-0.2,0-0.3,0-0.5-0.1c-0.1-0.1-0.2-0.1-0.3-0.2c-0.4-0.1-0.7-0.2-1.1-0.4c-0.7-0.4-1.4-0.7-2.1-1.1c-0.2-0.3-0.5-0.5-0.8-0.5  c-0.2-0.3-0.4-0.5-0.8-0.6c0,0,0,0,0,0c-0.7-0.7-1.5-1.4-2.2-2.1c-0.1-0.1-0.1-0.2-0.2-0.3c0,0-0.1-0.1-0.1-0.1  c-0.1-0.1-0.1-0.2-0.2-0.2c-0.8-1-1.2-2.3-2.2-3.2c0-0.2,0-0.3-0.1-0.5C124.8,86.2,124.7,85.9,124.4,85.5z M148.4,80.1  c0.3-5.3-2.8-9.1-6.3-9.7c-3.8-0.7-6.8-0.2-9.4,3.4c-2.3,3.2-2.3,9.5,0.1,12.8c3.8,5.2,10.4,4.9,13.9,0  C148.1,84.6,148.5,82.4,148.4,80.1z"></path>	<path class="st1" d="M269.5,74.1c0,0.3,0.1,0.6,0.3,0.8c0.2,0.9,0.6,1.6,1,2.4c0.1,0.3-0.1,0.6,0.3,0.8c0.1,0.4,0.2,0.8,0.5,1.1  c0,0,0,0,0,0c0.2,1.4,1,2.6,1.4,4c-0.1,0.2,0,0.2,0.2,0.3c0.2,0.4,0.4,0.7,0.5,1.1c0,0,0,0,0,0c0,0.5,0,0.9,0.3,1.3  c-0.1,0.2,0.1,0.2,0.2,0.3c0.3,0.7,0.5,1.4,0.8,2.1c0,0.2-0.1,0.5,0.3,0.5c0.2,0.3,0.3,0.6,0.5,0.9c0,0,0,0,0,0  c0.3,1,0.6,2,1.2,2.8c0,0,0,0,0,0c0,0.5,0.2,0.9,0.5,1.3c0,0.3,0.1,0.6,0.3,0.8c0.1,0.1,0.1,0.3,0.2,0.4l-0.1,0.1  c0,0,0.1,0.1,0.1,0.1c-0.3,0.1-0.7,0.1-1,0.2c-1.8-0.1-3.6-0.1-5.3,0c-1.2,0.2-1.5-0.8-1.8-1.6c0-0.1,0-0.2-0.1-0.2  c-0.5-1.5-0.9-3-1.8-4.3c0,0,0,0,0,0c0.1-0.9-0.5-0.7-1.1-0.7c-3,0-5.9,0-8.9,0c-3,0-3,0-4,2.9c-0.2,0-0.2,0.1-0.2,0.3  c-0.5,1.3-1,2.5-1.6,3.7c-2.1-0.1-4.3-0.1-6.4,0c-0.3,0-0.5,0-0.8-0.1c0,0,0,0,0,0c0.5-1.5,1-3,1.6-4.5c0,0,0,0,0,0  c0.5-1.3,1-2.5,1.5-3.8c0-0.2,0-0.3,0.1-0.5c0.1-0.1,0.2-0.2,0.3-0.3c0,0,0,0,0,0c0.2-0.1,0.2-0.3,0.2-0.5c0.1-0.1,0.1-0.1,0.1-0.2  c0.6-1.4,1.5-2.7,1.6-4.3c0,0,0,0,0,0c0.5-0.2,0.5-0.6,0.6-1c0,0,0,0,0,0c0.3-0.3,0.5-0.7,0.5-1.1c0,0,0,0,0,0  c0.5-0.8,0.8-1.7,1.1-2.7c0,0,0,0,0,0c0.2-0.1,0.3-0.3,0.2-0.5c0.2-0.2,0.3-0.5,0.3-0.8c0.8-1.3,1.1-2.8,1.7-4.2c0,0,0,0,0,0  c0.2-0.3,0.4-0.5,0.4-0.9c0.2-0.5,0.4-1,0.6-1.6c0.4-0.6,0.6-1.2,0.7-1.9c0.1-0.3,0.4-0.4,0.3-0.8c0.3-0.3,0.4-0.7,0.5-1.1  c0,0,0,0,0,0c2.2,0,4.3,0,6.5-0.1c1.3-0.1,2.2,0.1,2.6,1.5c0,0.1,0,0.2,0.1,0.3c0,0.4,0.2,0.8,0.5,1.1c0,0.1,0,0.2,0.1,0.3  c0,0.1,0,0.3,0.2,0.3c0,0,0,0,0,0c0.5,1.6,1.2,3.2,1.9,4.8c0,0,0,0,0,0C268.9,73.3,269.2,73.7,269.5,74.1z M265.6,82.9  c-1.3-3.3-2.4-6.5-3.6-9.6c-0.1-0.3-0.1-0.7-0.5-0.7c-0.3,0-0.4,0.2-0.4,0.4c-1.2,3.1-2.4,6.2-3.5,9.2c-0.2,0.6,0.1,0.7,0.6,0.7  C260.5,82.9,262.9,82.9,265.6,82.9z"></path>	<path class="st1" d="M175.3,95.2c-0.1,0.1-0.1,0.1-0.2,0.2c-0.5,0-1.1,0-1.6,0c-1.3-0.1-2.7-0.1-4,0c-0.3-0.1-0.5-0.1-0.8,0  c-0.1-0.1-0.2-0.2-0.3-0.3c0-3.5,0-7.1,0-10.6c0-0.8-0.3-1.4-0.8-1.9c-0.1-0.1-0.1-0.2-0.2-0.3c-0.6-1-1.2-2-1.9-3  c0-0.3-0.2-0.6-0.5-0.8c-1-1.9-2.3-3.6-3.5-5.4c-0.1-0.4-0.3-0.7-0.6-1c-0.1-0.1-0.1-0.2-0.2-0.3l0,0c-0.4-0.9-0.9-1.7-1.6-2.4  c0,0,0,0,0,0c-0.4-0.9-0.9-1.7-1.6-2.4c-0.1-0.3-0.2-0.6-0.5-0.8c-0.1-0.3-0.3-0.6-0.4-0.8c-0.4-0.6-0.4-0.9,0.4-0.8  c2.5,0,4.9,0.1,7.4,0.1c0.1,0.2,0.2,0.4,0.3,0.5c0.1,0.1,0.1,0.2,0.2,0.3c0,0.2,0.1,0.4,0.3,0.5c0.5,0.8,0.6,1.8,1.3,2.4l0,0  c0.8,1.4,1.6,2.8,2.4,4.1c0,0,0.1,0.1,0.1,0.1c0.7,1.3,1.4,2.5,2.1,3.8c0.4,0.8,0.9,0.8,1.3,0c0.3-0.6,0.7-1.2,1-1.8c0,0,0,0,0,0  c0-0.1,0.1-0.1,0.1-0.2c0.3-0.2,0.4-0.5,0.5-0.8c0.8-1,1.4-2.1,1.9-3.2c0.1-0.1,0.1-0.2,0.2-0.3c0.8-1.2,1.6-2.4,2.2-3.7  c0-0.1,0.1-0.1,0.1-0.2c0.5-1.4,1.6-1.7,2.9-1.5c0.5,0.1,1.1,0,1.6,0c1.5,0,2.9-0.1,4.5,0.1c-1,1.6-1.9,3-2.8,4.5c0,0,0,0,0,0  c-0.1,0.1-0.1,0.2-0.2,0.2c-0.2,0.1-0.3,0.3-0.4,0.6c-0.1,0.2-0.2,0.3-0.3,0.5c0,0,0,0,0,0c-0.2,0-0.2,0.1-0.2,0.3  c-0.3,0.3-0.6,0.6-0.6,1c-1,1.3-1.9,2.6-2.6,4.1c-0.3,0.2-0.5,0.4-0.5,0.8c-0.1,0.1-0.1,0.2-0.2,0.3c-0.2,0.1-0.3,0.3-0.3,0.5  c-1.3,1.6-2.2,3.4-3.4,5c-0.7,0.9-0.9,1.9-0.6,3c-0.1,2.8-0.1,5.7,0,8.5C175.3,94.5,175.3,94.9,175.3,95.2z"></path>	<path class="st1" d="M112.6,72.3c0,6.1-0.1,12.1-0.1,18.2c0,1.1,0,2.1,0.1,3.2c0,0.6-0.1,1.1-0.1,1.7c-0.5,0.1-1,0.1-1.5,0.2  c-0.7-0.1-1.4-0.1-2.1,0c-0.5-0.1-1.1-0.1-1.6,0c-0.7-0.1-1.4-0.1-2.1-0.2c0-7.6,0-15.2,0-22.8c0-0.4,0-0.9-0.1-1.3  c0-0.8-0.6-0.4-1-0.5c-2.5,0-5,0-7.5,0c-0.7,0-1-0.1-0.9-0.9c0-1.4,0-2.8,0-4.3c0-0.7,0.3-0.9,0.9-0.9c8.1,0,16.3,0,24.4,0  c0.7,0,0.9,0.2,0.9,0.9c0,1.4-0.1,2.8,0,4.1c0,0.9-0.3,1-1.1,1c-2.3,0-4.6,0-6.9,0C112.7,70.7,112.2,71,112.6,72.3z"></path>	<path class="st1" d="M237.2,95.5c-2.1-0.1-4.3-0.1-6.4,0c-0.5-0.4-0.3-1-0.3-1.5c0-7.3,0-14.6,0-21.8c0-1.1-0.2-1.5-1.4-1.4  c-2.3,0.1-4.7,0-7.1,0c-0.7,0-1-0.2-0.9-0.9c0.1-1.4,0-2.8,0-4.3c0-0.7,0.2-0.9,0.9-0.9c8,0,16.1,0,24.1,0c0.5,0,0.9,0,0.9,0.6  c0,1.6,0,3.2,0,4.8c0,0.8-0.6,0.6-1.1,0.6c-2.3,0-4.5,0.1-6.8,0c-1.2,0-1.6,0.3-1.6,1.5c0.1,7.3,0,14.5,0,21.8  C237.7,94.6,238,95.3,237.2,95.5z"></path>	<path class="st1" d="M175.3,125.1c-0.1,0.8,0.1,1.4-0.2,2.1c-0.6,1.4-1.1,1.7-2.6,1.4c-0.3-0.1-0.7-0.1-1-0.2  c-1.7-0.3-2.3-1-2.4-2.7c0-0.9,0.1-1.8,0.5-2.7c0.7-1.5,1.9-1.9,3.8-1.6c1,0.2,1.9,1.5,1.9,2.9C175.3,124.6,175.3,125,175.3,125.1z  "></path>	<path class="st1" d="M57.7,125.3c0-0.6,0-1.2,0-1.7c0-1.9,0-1.9,2-1.9c2.1,0,3.2,0.9,3.3,2.7c0.2,2.6-0.2,3.9-2.8,4.4  c-2.3,0.5-2.6,0.2-2.6-2.1C57.7,126.2,57.7,125.7,57.7,125.3z"></path>	<path class="st1" d="M111.1,121.4c0.5,0,1,0,1.5,0c0.9,0,1.1,0.9,1,1.4c0,0.5-0.1,1.4-1.1,1.3c-0.3,0-0.6,0-0.9,0.1  c-2.1,0.5-2.9-0.2-2.4-2.3c0.1-0.4,0.3-0.5,0.6-0.5C110.2,121.4,110.6,121.4,111.1,121.4z"></path>	<path class="st1" d="M129,127c-0.6,0-1-0.1-0.6-0.9c0.4-0.8,0.6-1.7,0.8-2.5c0.1-0.3,0.2-0.5,0.5-0.6c0.4-0.1,0.4,0.3,0.5,0.5  c0.2,0.4,0.3,0.9,0.5,1.4C131.2,126.7,131,127,129,127z"></path>	<path class="st1" d="M204.8,121.3c0.9,0.1,2.1-0.4,2.2,1.2c0.1,1.7-0.2,2-1.9,2c0,0-0.1,0-0.1,0c-0.6-0.1-1.6,0.3-1.9-0.2  c-0.3-0.8-0.3-1.8-0.1-2.6C203.3,120.8,204.3,121.6,204.8,121.3z"></path></g></svg>